<svg id="Group_488" data-name="Group 488" xmlns="http://www.w3.org/2000/svg" xmlns:xlink="http://www.w3.org/1999/xlink" width="375.225" height="102" viewBox="0 0 375.225 102">
  <defs>
    <linearGradient id="linear-gradient" x1="0.518" y1="-0.109" x2="0.5" y2="1" gradientUnits="objectBoundingBox">
      <stop offset="0" stop-color="#8cc63f"/>
      <stop offset="1" stop-color="#009245"/>
    </linearGradient>
    <clipPath id="clip-path">
      <rect id="Rectangle_165" data-name="Rectangle 165" width="296" height="101" transform="translate(-3023.981 -972)" fill="#fff"/>
    </clipPath>
  </defs>
  <rect id="Rectangle_121" data-name="Rectangle 121" width="375.225" height="102" fill="url(#linear-gradient)"/>
  <g id="Mask_Group_1" data-name="Mask Group 1" transform="translate(3102.981 972)" opacity="0.06" clip-path="url(#clip-path)">
    <path id="Union_10" data-name="Union 10" d="M154.957,351.945a25.539,25.539,0,0,0,9.318-13.837c0,.018-1.719,7.092-10.1,13.243a9.665,9.665,0,0,0-2.3,2.671c-.26-.037-7.61-12.316,9.838-18.622a15.4,15.4,0,0,0,4.528-2.968,18.22,18.22,0,0,1,2.748,12.167c-.446,2.931-3.861,11.314-14.293,10.09a9.154,9.154,0,0,0-1.3,3.6,14.434,14.434,0,0,0-1.671.594C152.21,355.989,153.323,353.132,154.957,351.945Zm43.137,4.6v-1.929h3.378V348.9h2.858v5.713h3.453v1.929Zm-67.267-6.529,2-33.9c-6.385,2.93-21.828,9.793-22.719,8.272s12.845-11.5,18.562-15.543a9.1,9.1,0,0,0-.074,1,6.719,6.719,0,0,0,13.438,0,9.138,9.138,0,0,0-.074-.965c5.717,4.081,19.453,14.022,18.487,15.506-.891,1.521-16.334-5.342-22.719-8.272l2.005,33.9a5.571,5.571,0,0,1-8.91,0Zm85.569-2.078H186.771a1.185,1.185,0,0,1-1.3-1.038l3.415-17.62a1.213,1.213,0,0,1,1.3-1.039h24.761a1.212,1.212,0,0,1,1.3,1.039l4.306,17.62a1.211,1.211,0,0,1-1.3,1.038Zm-29.364-1.224h31.963l-4.306-17.175H190.446Zm21.272-1.261v-4.007h7.944l1.113,4.007Zm-8.872,0v-4.007h7.276v4.007Zm-10.988,0,1.151-4.007h8.167v4.007Zm19.861-5.379v-4.006H215.1l1.151,4.006Zm-8.872,0v-4.006h7.276v4.006Zm-10.06,0,1.113-4.006h7.276v4.006Zm31.7-3.747-2.487-1.447-.074-.371,1.039-1.039a.137.137,0,0,1,.111-.037c.037,0,.037.037.074.074l1.522,2.634a.15.15,0,0,1-.141.192A.147.147,0,0,1,221.072,336.328Zm-139.619-.7a.76.76,0,0,1-.3-.927l8.538-20.255H81.861a.765.765,0,0,1-.631-.371.757.757,0,0,1-.037-.742l11.434-22.851a.7.7,0,0,1,.669-.408h12.176a.783.783,0,0,1,.668.408.824.824,0,0,1-.037.779l-8.91,14.059h9.021a.788.788,0,0,1,.705.445.663.663,0,0,1-.074.779l-24.39,28.935a.877.877,0,0,1-.594.259A.747.747,0,0,1,81.453,335.623Zm126.812-.853v-4.007h5.68l1.113,4.007Zm-8.873,0v-4.007h7.276v4.007Zm-8.947,0,1.151-4.007h6.125v4.007Zm26.58-6.344a1.212,1.212,0,0,0-1.3-1.038h-5.9a5.323,5.323,0,0,1,5.012-3.487,5.351,5.351,0,0,1,3.415,9.5Zm4.826,1.818a.136.136,0,0,1-.037-.111v-1.6a.131.131,0,0,1,.149-.149l2.97.779c.111.037.111.223,0,.334l-2.97.779A.137.137,0,0,1,221.852,330.245Zm-1.671-5.156-1.151-1.15a.135.135,0,0,1-.037-.111.08.08,0,0,1,.074-.074l2.635-1.521c.111-.037.26.074.186.186l-1.522,2.634a.08.08,0,0,1-.074.074A.137.137,0,0,1,220.181,325.088Zm-11.471-.037-1.336-2.411c-.037-.111.111-.222.186-.185l2.45,1.335a.13.13,0,0,1,.037.074.134.134,0,0,1-.037.111l-1.113,1.113a.137.137,0,0,1-.111.037Zm45.327-5.9V309.026h-3.044v15.209H230.724V291.813a4.054,4.054,0,0,1,4.046-4.043h12.177a4.054,4.054,0,0,1,4.046,4.043v14.208h2.042a4.054,4.054,0,0,1,4.047,4.043v9.126a2.042,2.042,0,0,0,4.083,0V304.574a5.426,5.426,0,0,1-2.042.408,5.061,5.061,0,0,1-1.819-9.793l-4.27-4.266,2.153-2.152,7.536,7.568a4.955,4.955,0,0,1,1.485,3.561v19.253a5.086,5.086,0,0,1-10.172,0Zm3.044-19.253a2.059,2.059,0,0,0,2.042,2.041,2.035,2.035,0,0,0,2.042-2.041,2.042,2.042,0,0,0-4.083,0Zm-22.274,2.041h12.177V291.813H234.808Zm-40.835,20.773a.83.83,0,0,1-.334-1l8.947-21.219h-8.2a.793.793,0,0,1-.705-1.15l11.954-23.927a.788.788,0,0,1,.705-.445H219.1a.8.8,0,0,1,.705.408.9.9,0,0,1-.037.816l-9.318,14.727h9.466a.763.763,0,0,1,.705.445.723.723,0,0,1-.111.853l-25.541,30.307a.775.775,0,0,1-.594.3A.747.747,0,0,1,193.973,322.714Zm20.084-.149c-.037,0-.074-.037,0-.037a.135.135,0,0,1-.037-.111l.78-2.968c0-.111.185-.111.222,0l.78,2.968a.131.131,0,0,1-.148.148ZM62.223,320.86c-13.773-5.082-2.821-22.814,3.638-29.787a.546.546,0,0,1,.557-.556.358.358,0,0,1,.557.259.478.478,0,0,1,.148.371c.26,5.231,3.119,7.9,6.163,11.87,2.153,2.782,4.083,6.64,3.415,10.238A10.173,10.173,0,0,1,66.37,321.61,11.926,11.926,0,0,1,62.223,320.86ZM59.1,311.14a7.068,7.068,0,0,0,.26,2.3,7.445,7.445,0,0,0,2.9,4.155,3.666,3.666,0,0,0,2.858.742c.928-.333,3.119-1.521,2.562-2.893-.928-2.226-4.27-3.338-5.9-5.119a7.44,7.44,0,0,1-1.485-3.078A27.754,27.754,0,0,0,59.1,311.14Zm106.061,7.122c0-.816-.111-1.632-.037-2.448a1.459,1.459,0,0,0-.965-1.6,6.446,6.446,0,0,1-3.75-5.861c-.037-5.9-.074-11.8,0-17.658a6.874,6.874,0,0,1,4.789-6.454c.334-.111.705-.222,1.039-.334v-7.419c-.594-.519-1.3-.89-1.262-1.224.037-.52.557-.965.854-1.484h16.037c.3.482.891,1,.854,1.447,0,.371-.742.742-1.3,1.224v7.456c.372.111.742.222,1.077.334,2.784,1.113,4.678,3.042,4.714,6.121.111,6.083.074,12.13.037,18.214a5.012,5.012,0,0,1-2.3,4.6c-2.265,1.187-2.636,2.893-2.413,5.081Zm2.375-2.634a7.112,7.112,0,0,0,1.745.631q4.566.111,9.132,0a5.815,5.815,0,0,0,1.782-.668,1.3,1.3,0,0,0-.149-.333c-4.158-.037-8.278-.037-12.4-.037C167.615,315.369,167.578,315.48,167.541,315.629Zm3.267-33.089h9.206v-5.119h-9.206Zm114.413,30.826.965-16.693c-3.156,1.447-10.766,4.822-11.211,4.08-.445-.779,6.311-5.675,9.132-7.678a2.153,2.153,0,0,0-.036.482,3.3,3.3,0,0,0,6.608,0,2.114,2.114,0,0,0-.037-.482c2.784,2,9.577,6.9,9.206,7.678-.445.742-8.056-2.633-11.211-4.08l.965,16.693a2.711,2.711,0,0,1-4.381,0Zm-154.357-3.487a4.454,4.454,0,1,1,4.455,4.452A4.453,4.453,0,0,1,130.864,309.879Zm4.492-6.714a6.647,6.647,0,0,0-4.2,1.484c.668-6.974,2.413-23.815,4.2-23.815,1.744,0,3.527,16.841,4.195,23.815A6.724,6.724,0,0,0,135.356,303.165Zm149.791-9.608a2.19,2.19,0,1,1,2.19,2.189A2.19,2.19,0,0,1,285.146,293.557Zm-241.93,1.224v-3.265a.557.557,0,0,1,1.114,0v3.265a.557.557,0,0,1-1.114,0Zm-4.9-2.151a.562.562,0,0,1-.3-.7l.594-1.521a.564.564,0,0,1,.705-.3.549.549,0,0,1,.3.7l-.594,1.521a.56.56,0,0,1-.52.334A.4.4,0,0,1,38.316,292.63Zm10.469-.445-.631-1.484a.541.541,0,0,1,1-.408l.631,1.484a.563.563,0,0,1-.3.7.472.472,0,0,1-.223.037A.511.511,0,0,1,48.785,292.185Zm6.571-.816-3.119-3.116a.551.551,0,0,1,.78-.779l3.081,3.116a.538.538,0,0,1,0,.779.477.477,0,0,1-.372.148A.53.53,0,0,1,55.356,291.368Zm-23.907,0a.537.537,0,0,1,0-.779l3.118-3.116a.5.5,0,0,1,.742,0,.537.537,0,0,1,0,.779l-3.118,3.116a.477.477,0,0,1-.372.148A.532.532,0,0,1,31.449,291.368Zm255.888-1.113a3.375,3.375,0,0,0-2.079.742c.334-3.45,1.188-11.722,2.079-11.722s1.745,8.273,2.079,11.722A3.165,3.165,0,0,0,287.337,290.256Zm-254.96-11.24a11.4,11.4,0,1,1,11.4,11.388A11.419,11.419,0,0,1,32.377,279.016ZM42.734,273.9l-2.71,5.416a.522.522,0,0,0,.037.519.514.514,0,0,0,.445.26H41.4L39.987,284.8a.53.53,0,0,0,.259.63.689.689,0,0,0,.26.074.528.528,0,0,0,.445-.223l5.42-7.048a.508.508,0,0,0,.074-.557.5.5,0,0,0-.482-.3v.037H45.11l1.3-3.042a.515.515,0,0,0-.037-.519.45.45,0,0,0-.445-.26h-2.71A.535.535,0,0,0,42.734,273.9ZM79.671,289.4v-1.929h3.378v-5.713h2.858v5.713H89.36V289.4ZM30.3,284.728a.562.562,0,0,1,.3-.7l1.485-.631a.564.564,0,0,1,.705.3.53.53,0,0,1-.3.7L31,285.025a.471.471,0,0,1-.223.037A.512.512,0,0,1,30.3,284.728Zm238.255-.556v-5.119a.84.84,0,0,1,.854-.853.864.864,0,0,1,.854.853v5.119a.854.854,0,0,1-1.708,0Zm-211.9.631-1.522-.594a.541.541,0,1,1,.408-1l1.522.593a.53.53,0,0,1,.3.7.56.56,0,0,1-.52.334A.4.4,0,0,1,56.655,284.8Zm204.1-4.006a.847.847,0,0,1-.483-1.113l.965-2.374a.848.848,0,0,1,1.114-.482.874.874,0,0,1,.482,1.15l-.965,2.374a.8.8,0,0,1-.78.519A1.1,1.1,0,0,1,260.757,280.8Zm-162.784,0H68.348a1.185,1.185,0,0,1-1.3-1.038l3.415-17.62a1.213,1.213,0,0,1,1.3-1.039H96.525a1.212,1.212,0,0,1,1.3,1.039l4.306,17.62a1.211,1.211,0,0,1-1.3,1.038Zm-29.364-1.224h31.963L96.265,262.4H72.024Zm208.668.593-1-2.336a.848.848,0,0,1,1.559-.668l1,2.336a.83.83,0,0,1-.446,1.113,1.077,1.077,0,0,1-.334.074A.839.839,0,0,1,277.277,280.165Zm-221.03-.556a.557.557,0,1,1,0-1.113h3.267a.546.546,0,0,1,.557.557.571.571,0,0,1-.557.556Zm-28.213-.037a.557.557,0,1,1,0-1.113H31.3a.557.557,0,1,1,0,1.113Zm259.526-.779-4.9-4.9a.84.84,0,0,1,1.188-1.187l4.9,4.9a.827.827,0,0,1,0,1.187.738.738,0,0,1-.594.26A.79.79,0,0,1,287.56,278.793Zm-37.532,0a.828.828,0,0,1,0-1.187l4.9-4.9a.84.84,0,0,1,1.188,1.187l-4.9,4.9a.809.809,0,0,1-1.188,0Zm-129.187-8.68c8.983-6.417,11.248-16.693,11.248-16.693s-2.079,8.569-12.176,15.988a12.45,12.45,0,0,0-2.784,3.228c-.3-.074-9.17-14.876,11.879-22.48a18.038,18.038,0,0,0,5.457-3.561,21.749,21.749,0,0,1,3.266,14.689c-.52,3.524-4.64,13.652-17.225,12.167a11.3,11.3,0,0,0-1.559,4.341c-.594.148-2,.7-2,.7C117.5,275.009,118.836,271.522,120.841,270.113Zm-30.961,8.2V274.3h7.944l1.113,4.007Zm-8.872,0V274.3h7.276v4.007Zm-10.988,0L71.17,274.3h8.167v4.007Zm238.329-.779V275.6h3.378v-5.712h2.858V275.6h3.452v1.929Zm-56.835-18.065a17.893,17.893,0,1,1,17.894,17.88A17.9,17.9,0,0,1,251.513,259.467Zm16.26-8.087-4.269,8.532a.8.8,0,0,0,.037.816.9.9,0,0,0,.742.408h1.411l-2.227,7.419a.854.854,0,0,0,.445,1,.628.628,0,0,0,.372.111.794.794,0,0,0,.668-.334l8.538-11.055a.853.853,0,0,0,.074-.89.866.866,0,0,0-.78-.483v-.037H271.56l2.042-4.785a.9.9,0,0,0-.074-.816.844.844,0,0,0-.705-.371h-4.269A.865.865,0,0,0,267.773,251.38ZM32.006,274.823l-1.522-.593a.541.541,0,1,1,.408-1l1.522.593a.539.539,0,0,1-.222,1.038A.4.4,0,0,1,32.006,274.823Zm22.793-.445a.5.5,0,0,1,.3-.7l1.485-.631a.541.541,0,1,1,.409,1l-1.485.631a.479.479,0,0,1-.223.036A.511.511,0,0,1,54.8,274.379Zm102.719-1.447V271.04a.333.333,0,0,1,.334-.334.391.391,0,0,1,.334.334v1.892a.334.334,0,1,1-.668,0Zm-67.638,0v-4.006h6.793l1.151,4.006Zm-8.872,0v-4.006h7.276v4.006Zm-10.06,0,1.113-4.006h7.276v4.006Zm83.675-1.261a.3.3,0,0,1-.185-.408l.371-.89a.3.3,0,0,1,.409-.186.327.327,0,0,1,.185.445l-.371.89a.331.331,0,0,1-.3.186C154.7,271.708,154.659,271.671,154.622,271.671Zm6.126-.223-.372-.89a.317.317,0,0,1,.595-.223l.371.853a.373.373,0,0,1-.186.408.136.136,0,0,1-.111.037A.331.331,0,0,1,160.748,271.448Zm3.861-.519-1.819-1.817a.315.315,0,0,1,.446-.446l1.819,1.818a.338.338,0,0,1,0,.445.278.278,0,0,1-.445,0Zm-13.958,0a.338.338,0,0,1,0-.445l1.819-1.818a.315.315,0,0,1,.446.446l-1.819,1.817a.278.278,0,0,1-.445,0Zm-98.45-.334a.537.537,0,0,1,0-.779l3.119-3.116a.551.551,0,1,1,.78.778l-3.119,3.116a.477.477,0,0,1-.372.149A.619.619,0,0,1,52.2,270.595Zm-17.634,0-3.155-3.116a.551.551,0,0,1,.78-.779l3.118,3.116a.537.537,0,0,1,0,.779.476.476,0,0,1-.371.149A.533.533,0,0,1,34.567,270.595Zm116.64-6.862a6.645,6.645,0,1,1,6.645,6.64A6.636,6.636,0,0,1,151.207,263.732Zm6.051-2.968-1.6,3.153a.224.224,0,0,0,0,.3.313.313,0,0,0,.26.148h.557l-.817,2.745a.3.3,0,0,0,.149.371.224.224,0,0,0,.149.037.337.337,0,0,0,.259-.111l3.156-4.117a.361.361,0,0,0,.037-.334.379.379,0,0,0-.3-.186v.037h-.445l.78-1.78a.28.28,0,0,0-.037-.3.249.249,0,0,0-.26-.148h-1.6A.294.294,0,0,0,157.258,260.765Zm-54.608,8.42-2.487-1.447-.074-.371,1.039-1.039a.137.137,0,0,1,.111-.037c.037,0,.037.037.074.074L102.836,269a.149.149,0,0,1-.141.192A.134.134,0,0,1,102.65,269.185Zm145.6-.742a.83.83,0,0,1,.445-1.113l2.339-1a.831.831,0,0,1,1.113.446.86.86,0,0,1-.445,1.113l-2.339,1a1.081,1.081,0,0,1-.334.074A.839.839,0,0,1,248.247,268.443Zm78.4.483H297.026a1.186,1.186,0,0,1-1.3-1.039l3.415-17.62a1.213,1.213,0,0,1,1.3-1.039H325.2a1.213,1.213,0,0,1,1.3,1.039l4.306,17.62a1.212,1.212,0,0,1-1.3,1.039ZM297.286,267.7h31.963l-4.306-17.175H300.7Zm-7.648.853-2.376-.964a.858.858,0,1,1,.631-1.6l2.376.965a.941.941,0,0,1,.482,1.15.8.8,0,0,1-.779.519A1.085,1.085,0,0,1,289.638,268.555Zm-251.21-.816-.631-1.484a.541.541,0,1,1,1-.408l.632,1.484a.563.563,0,0,1-.3.7.472.472,0,0,1-.223.037A.512.512,0,0,1,38.428,267.738Zm9.837.223a.519.519,0,0,1-.3-.7l.594-1.521a.541.541,0,0,1,1,.408l-.595,1.521a.559.559,0,0,1-.52.334A.4.4,0,0,1,48.265,267.961Zm41.578-.333v-4.007h5.68l1.113,4.007Zm-8.872,0v-4.007h7.276v4.007Zm-8.947,0,1.151-4.007H79.3v4.007Zm77.922-.594a.373.373,0,0,1,.186-.408l.89-.371a.374.374,0,0,1,.409.186c.074.186,0,.371-.186.371l-.891.371a.137.137,0,0,1-.111.037A.331.331,0,0,1,149.945,267.034Zm15.443.074-.891-.371a.317.317,0,1,1,.223-.593l.89.371a.4.4,0,0,1,.186.445.331.331,0,0,1-.3.186C165.462,267.145,165.426,267.108,165.388,267.108Zm-122.172-.556v-3.265a.557.557,0,0,1,1.114,0v3.265a.571.571,0,0,1-.557.556A.6.6,0,0,1,43.217,266.552Zm275.341-.111v-4.007H326.5l1.113,4.007Zm-8.872,0v-4.007h7.276v4.007Zm-10.989,0,1.151-4.007h8.167v4.007ZM98.6,261.284a1.211,1.211,0,0,0-1.3-1.038H91.4a5.324,5.324,0,0,1,5.012-3.487,5.351,5.351,0,0,1,3.415,9.5Zm66.562,2.782a.334.334,0,1,1,0-.668h1.893a.359.359,0,0,1,.334.334.332.332,0,0,1-.334.333Zm-16.519,0a.334.334,0,1,1,0-.668h1.893a.334.334,0,0,1,0,.668ZM103.43,263.1a.136.136,0,0,1-.037-.111v-1.6a.131.131,0,0,1,.149-.149l2.97.779c.111.037.111.223,0,.334l-2.97.779A.137.137,0,0,1,103.43,263.1Zm102.793-5.268v-8.866H203.55v13.317H185.768V233.871a3.564,3.564,0,0,1,3.564-3.561h10.654a3.563,3.563,0,0,1,3.564,3.561V246.3h1.782a3.563,3.563,0,0,1,3.564,3.561v7.975a1.782,1.782,0,0,0,3.564,0v-12.76a4.789,4.789,0,0,1-1.782.371,4.45,4.45,0,0,1-1.6-8.606l-3.75-3.747,1.894-1.892,6.607,6.64a4.278,4.278,0,0,1,1.3,3.116v16.879a4.455,4.455,0,0,1-8.91,0Zm2.71-16.879a1.806,1.806,0,0,0,1.782,1.781,1.782,1.782,0,0,0,1.782-1.781,1.782,1.782,0,0,0-3.564,0Zm-19.564,1.781h10.654v-8.866H189.369Zm-38.385,18.584-.89-.371c-.186-.074-.26-.26-.186-.371a.3.3,0,0,1,.408-.185l.891.371a.3.3,0,0,1,.186.408.332.332,0,0,1-.3.185C151.059,261.358,151.021,261.321,150.984,261.321Zm13.29-.3a.328.328,0,0,1,.186-.446l.891-.371a.317.317,0,1,1,.222.593l-.89.371a.138.138,0,0,1-.111.036A.33.33,0,0,1,164.274,261.025Zm154.283.037v-4.007h6.793l1.151,4.007Zm-8.872,0v-4.007h7.276v4.007Zm-10.061,0,1.114-4.007h7.276v4.007Zm-10.654-.742a.853.853,0,1,1,0-1.707h5.123a.853.853,0,1,1,0,1.707Zm-44.325,0a.853.853,0,1,1,0-1.707h5.123a.853.853,0,1,1,0,1.707ZM228.423,252.2a25,25,0,0,0,9.132-13.54s-1.67,6.937-9.874,12.947a9.563,9.563,0,0,0-2.265,2.6c-.26-.037-7.425-12.056,9.615-18.214a14.384,14.384,0,0,0,4.418-2.893A17.885,17.885,0,0,1,242.121,245c-.445,2.893-3.787,11.092-13.958,9.867a9.139,9.139,0,0,0-1.262,3.524c-.482.148-1.634.593-1.634.593C225.713,256.165,226.826,253.346,228.423,252.2Zm-65.633,6.6a.339.339,0,0,1,0-.446l1.819-1.817a.315.315,0,1,1,.445.445l-1.819,1.818a.321.321,0,0,1-.223.111A.265.265,0,0,1,162.789,258.8Zm-10.32,0-1.819-1.818a.315.315,0,1,1,.445-.445l1.819,1.817a.339.339,0,0,1,0,.446.279.279,0,0,1-.446,0Zm-50.71-.853-1.151-1.15a.135.135,0,0,1-.037-.111.08.08,0,0,1,.074-.074l2.635-1.521c.111-.037.26.074.186.186l-1.522,2.634a.08.08,0,0,1-.074.074A.137.137,0,0,1,101.759,257.946Zm-11.471-.037L88.952,255.5c-.037-.111.111-.222.186-.186l2.45,1.336a.13.13,0,0,1,.037.074.136.136,0,0,1-.037.111l-1.113,1.113a.137.137,0,0,1-.111.037Zm241.039-.594-2.487-1.447-.074-.371,1.04-1.039a.137.137,0,0,1,.111-.037c.037,0,.037.037.074.074l1.521,2.634a.149.149,0,0,1-.141.192A.135.135,0,0,1,331.327,257.314Zm-170.876-.036a.346.346,0,0,1-.185-.371l.371-.89a.317.317,0,0,1,.594.222l-.371.89a.331.331,0,0,1-.3.186C160.525,257.315,160.488,257.278,160.451,257.278Zm-5.754-.149-.371-.928a.317.317,0,0,1,.594-.222l.371.89a.374.374,0,0,1-.185.408.137.137,0,0,1-.111.037A.331.331,0,0,1,154.7,257.129Zm2.821-.7v-1.892a.334.334,0,1,1,.668,0v1.892a.334.334,0,0,1-.668,0ZM28.071,252.27V243.4H25.4v13.317H7.616V228.307a3.564,3.564,0,0,1,3.564-3.561H21.8a3.564,3.564,0,0,1,3.564,3.561v12.427h1.782a3.564,3.564,0,0,1,3.564,3.561v7.975a1.782,1.782,0,0,0,3.564,0V239.51a4.788,4.788,0,0,1-1.782.371,4.45,4.45,0,0,1-1.6-8.606l-3.75-3.747,1.894-1.892,6.608,6.64a4.462,4.462,0,0,1,1.336,3.115V252.27a4.455,4.455,0,0,1-8.91,0Zm2.673-16.879a1.806,1.806,0,0,0,1.782,1.781,1.782,1.782,0,0,0,1.782-1.781,1.782,1.782,0,0,0-3.564,0Zm-19.564,1.781H21.833v-8.866H11.179Zm42.58,7.307c12.881-9.2,16.149-23.964,16.149-23.964S66.976,232.8,52.46,243.441a18.181,18.181,0,0,0-3.972,4.637c-.409-.074-13.142-21.33,17.04-32.236a26.869,26.869,0,0,0,7.833-5.119A31.322,31.322,0,0,1,78,231.793c-.78,5.045-6.682,19.586-24.724,17.435a16.11,16.11,0,0,0-2.227,6.232c-.89.223-2.9,1.039-2.9,1.039C48.97,251.491,50.9,246.52,53.76,244.48Zm255.888,11.277V251.75h7.276v4.007Zm8.872,0V251.75H324.2l1.114,4.006Zm-17.819,0,1.151-4.006h6.125v4.006Zm-205.067-.333c-.037,0-.074-.037,0-.037a.134.134,0,0,1-.037-.111l.78-2.968c0-.111.185-.111.222,0l.78,2.968a.131.131,0,0,1-.148.148Zm231.647-6.01a1.212,1.212,0,0,0-1.3-1.038h-5.9a5.325,5.325,0,0,1,5.012-3.487,5.351,5.351,0,0,1,3.415,9.5ZM163.2,253.606a.467.467,0,0,1-.185-.593l5.531-13.058h-5.086a.464.464,0,0,1-.408-.222.456.456,0,0,1-.037-.483l7.35-14.726a.516.516,0,0,1,.446-.26h7.87a.514.514,0,0,1,.445.26.389.389,0,0,1,0,.482l-5.754,9.052H179.2a.482.482,0,0,1,.446.3.392.392,0,0,1-.111.482l-15.7,18.659a.457.457,0,0,1-.372.186A.689.689,0,0,1,163.2,253.606Zm87.685-.705-2.375-.965a.869.869,0,0,1-.483-1.075.848.848,0,0,1,1.114-.483l2.376.965a.846.846,0,0,1,.482,1.113.8.8,0,0,1-.78.52A1.086,1.086,0,0,1,250.882,252.9Zm35.787-.779a.842.842,0,0,1,.446-1.113l2.338-1a.848.848,0,1,1,.668,1.558l-2.338,1a1.086,1.086,0,0,1-.334.074A.84.84,0,0,1,286.669,252.122Zm45.438-.89a.136.136,0,0,1-.037-.111v-1.6a.131.131,0,0,1,.149-.149l2.971.779c.111.037.111.223,0,.334l-2.971.779A.137.137,0,0,1,332.107,251.231Zm-77.178-5.008-4.9-4.9a.84.84,0,1,1,1.188-1.187l4.9,4.9a.827.827,0,0,1,0,1.187.738.738,0,0,1-.594.26A.876.876,0,0,1,254.929,246.223Zm27.731-.037a.827.827,0,0,1,0-1.187l4.9-4.9a.84.84,0,1,1,1.188,1.187l-4.9,4.9a.808.808,0,0,1-1.188,0Zm47.776-.111-1.15-1.15a.136.136,0,0,1-.037-.111.08.08,0,0,1,.074-.074l2.635-1.521c.111-.037.26.074.186.186l-1.522,2.634a.08.08,0,0,1-.074.074A.137.137,0,0,1,330.436,246.075Zm-11.471-.037-1.336-2.411c-.037-.111.111-.222.186-.186l2.45,1.336a.13.13,0,0,1,.037.074.136.136,0,0,1-.037.111l-1.114,1.113a.137.137,0,0,1-.111.037Zm5.346-2.486c-.037,0-.074-.036,0-.036a.137.137,0,0,1-.037-.111l.78-2.968c0-.111.186-.111.223,0l.78,2.968a.13.13,0,0,1-.148.148Zm-63.369-1.78-1-2.337a.848.848,0,0,1,1.559-.668l1,2.337a.83.83,0,0,1-.445,1.113,1.1,1.1,0,0,1-.334.074A.839.839,0,0,1,260.942,241.772Zm15.48.3a.807.807,0,0,1-.482-1.076l.965-2.374a.858.858,0,0,1,1.6.631l-.965,2.374a.8.8,0,0,1-.78.52A1.086,1.086,0,0,1,276.423,242.069ZM141.555,231.942a8.948,8.948,0,0,1,8.91-8.977,8.9,8.9,0,1,1,0,17.806A8.893,8.893,0,0,1,141.555,231.942Zm4.9-.037a4.046,4.046,0,0,0,8.092,0,4.046,4.046,0,0,0-8.092,0Zm-23.35-.074a8.91,8.91,0,1,1,8.946,8.94A8.87,8.87,0,0,1,123.105,231.831Zm4.863.111a4,4,0,0,0,4.083,3.969,4.025,4.025,0,1,0-.111-8.049A4,4,0,0,0,127.968,231.942ZM89.212,231.9a8.91,8.91,0,1,1,8.835,8.866A8.841,8.841,0,0,1,89.212,231.9Zm4.864,0a3.936,3.936,0,0,0,4.009,3.969,3.892,3.892,0,0,0,4.01-3.969,4.009,4.009,0,1,0-8.019,0Zm174.477,7.975v-5.119a.854.854,0,0,1,1.708,0v5.119a.84.84,0,0,1-.854.853A.863.863,0,0,1,268.553,239.88Zm67.23-9.5v-8.866H333.11v13.317H315.328V206.42a3.564,3.564,0,0,1,3.564-3.561h10.654a3.564,3.564,0,0,1,3.564,3.561v12.427h1.781a3.564,3.564,0,0,1,3.564,3.561v7.975a1.782,1.782,0,0,0,3.564,0v-12.76a4.788,4.788,0,0,1-1.782.371,4.45,4.45,0,0,1-1.6-8.606l-3.75-3.747,1.894-1.892,6.608,6.64a4.28,4.28,0,0,1,1.3,3.116v16.879a4.455,4.455,0,0,1-8.91,0Zm2.71-16.879a1.806,1.806,0,0,0,1.782,1.781,1.782,1.782,0,0,0,1.781-1.781,1.782,1.782,0,0,0-3.564,0Zm-19.564,1.781h10.655V206.42H318.928ZM147.941,231.868a2.6,2.6,0,0,1,2.6-2.56,2.56,2.56,0,0,1-.037,5.119A2.565,2.565,0,0,1,147.941,231.868Zm-18.487,0a2.519,2.519,0,0,1,2.561-2.56,2.6,2.6,0,0,1,2.562,2.6,2.542,2.542,0,0,1-2.6,2.522A2.466,2.466,0,0,1,129.453,231.868ZM95.56,231.9a2.52,2.52,0,0,1,2.524-2.6,2.622,2.622,0,0,1,2.6,2.56,2.542,2.542,0,0,1-2.561,2.559A2.488,2.488,0,0,1,95.56,231.9Zm186.171.668c0-.816-.111-1.632-.037-2.449a1.459,1.459,0,0,0-.965-1.595,6.446,6.446,0,0,1-3.749-5.861c-.037-5.9-.074-11.8,0-17.658a6.873,6.873,0,0,1,4.789-6.454c.334-.111.705-.223,1.039-.334V190.8c-.594-.52-1.3-.89-1.262-1.225.037-.519.557-.964.854-1.484h16.037c.3.483.891,1,.854,1.447,0,.371-.742.742-1.3,1.225v7.456c.372.111.742.223,1.077.334,2.784,1.113,4.677,3.042,4.714,6.121.111,6.083.074,12.13.037,18.214a5.011,5.011,0,0,1-2.3,4.6c-2.264,1.187-2.635,2.893-2.413,5.082Zm2.375-2.634a7.142,7.142,0,0,0,1.745.631q4.566.111,9.132,0a5.832,5.832,0,0,0,1.782-.668,1.319,1.319,0,0,0-.149-.334c-4.158-.037-8.278-.037-12.4-.037C284.181,229.679,284.144,229.79,284.107,229.939Zm3.267-33.089h9.206V191.73h-9.206ZM114.9,231.979h-4.455c-1.336,0-1.856-.52-1.856-1.855,0-1.521.037-3.042,0-4.562a1.634,1.634,0,0,1,1.113-1.781c.52-.186,1.151-.7,1.485-.556a12.237,12.237,0,0,0,5.436.525,20.423,20.423,0,0,1,3.213-.006c.928.111,1.485.556,1.448,1.521.037,1.707.037,3.45,0,5.156,0,1.038-.594,1.521-1.744,1.558-.507.012-1.019.016-1.534.016C116.98,232,115.94,231.979,114.9,231.979ZM247.1,228.417l1.3-21.923c-4.121,1.892-14.144,6.343-14.7,5.341-.557-.964,8.316-7.419,12.027-10.053a3.454,3.454,0,0,0-.036.631,4.343,4.343,0,0,0,8.687,0,3.6,3.6,0,0,0-.037-.631c3.712,2.633,12.585,9.089,11.953,10.053-.557,1-10.543-3.45-14.7-5.341l1.3,21.923a3.621,3.621,0,0,1-5.791,0Zm-142.589-4.266a8.586,8.586,0,0,0-4.6-2.522,8.423,8.423,0,0,0-7.759,2.226,3.16,3.16,0,0,1-2.375.928q-3.676-.056-7.35,0a1.185,1.185,0,0,1-1.411-1.262,3.9,3.9,0,0,1,.148-1.743c.186-.446.742-.7,1.114-1.039.074.037.149.111.222.149,0-.334.037-.631.037-.965,0-2.745.037-5.49,0-8.235a5.754,5.754,0,0,1,2.822-5.119,1.932,1.932,0,0,0,.742-1.113c.408-2.04.705-4.117,1.188-6.12.817-3.525,2.561-6.232,6.348-7.086a6.435,6.435,0,0,1,1.188-.111H106.1c1.448,0,1.967.519,1.967,1.966,0,7.382,0,14.8-.037,22.183,0,.965.26,1.225,1.226,1.225,4.381-.037,8.8-.037,13.179,0,.705,0,.928-.186.928-.89,0-.668-.185-.89-.89-.928a13.365,13.365,0,0,1-2.821-26.226,33.834,33.834,0,0,1,5.865-.556c.891-.037,1.819,0,2.71,0,.371-2.152.445-2.226,2.635-2.226h7.722c2,0,2.19.149,2.45,2.263h4.974a13.289,13.289,0,0,1,9.1,3.561,13.4,13.4,0,0,1-8.167,23.259c-1,.074-1.04.148-.78,1.818h11.323c1.633,0,2.079.519,2.042,2.114q-.056,1.39,0,2.782a1.035,1.035,0,0,1-1.077,1.15,3.187,3.187,0,0,1-1.188,0c-.3-.149-.705-.482-.742-.779a13.614,13.614,0,0,1-.037-2.152H108.107c0,.668-.037,1.372,0,2.04a1.7,1.7,0,0,1-.928,1.892,2.388,2.388,0,0,1-.946.188A2.467,2.467,0,0,1,104.506,224.151Zm37.457-6.529c.668,0,1-.111,1-.927,0-.779-.334-.89-1-.89H127.412a9.822,9.822,0,0,0-1,.074v1.669a7.63,7.63,0,0,0,.78.074c3.291,0,6.567-.016,9.847-.016Q139.5,217.607,141.964,217.623Zm-50.71-20.105a14.824,14.824,0,0,0-1.151,3.338c-.408,1.781-.705,3.562-1.04,5.416h15.815c0-3.635,0-7.2-.037-10.943-3.3,0-6.534.037-9.764,0h-.119A3.977,3.977,0,0,0,91.253,197.517Zm31.778-3.079a7.9,7.9,0,0,0-7.722,7.642c0,.593.074,1.187.78,1.075a1.4,1.4,0,0,0,.854-.964c.483-3.858,2.858-6.084,6.719-6.084h21.977c.594,0,1.225-.111,1.188-.853-.037-.7-.594-.853-1.225-.853-3.768,0-7.527-.009-11.286-.009S126.8,194.4,123.031,194.438ZM4.794,218.847c0-.816-.111-1.632-.037-2.449a1.46,1.46,0,0,0-.965-1.6,6.446,6.446,0,0,1-3.75-5.861c-.036-5.9-.074-11.8,0-17.657a6.874,6.874,0,0,1,4.789-6.455c.334-.111.705-.222,1.039-.333v-7.419c-.594-.519-1.3-.89-1.262-1.224.037-.519.557-.965.854-1.484H21.5c.3.482.891,1,.854,1.447,0,.371-.742.742-1.3,1.224V184.5c.371.111.742.223,1.076.333,2.784,1.113,4.678,3.042,4.715,6.121.111,6.084.074,12.13.037,18.214a5.012,5.012,0,0,1-2.3,4.6c-2.265,1.187-2.636,2.893-2.413,5.082Zm2.376-2.634a7.1,7.1,0,0,0,1.744.631q4.566.111,9.133,0a5.817,5.817,0,0,0,1.782-.668,1.325,1.325,0,0,0-.149-.333c-4.158-.037-8.278-.037-12.4-.037C7.245,215.954,7.208,216.065,7.171,216.213Zm3.266-33.089h9.207v-5.119H10.437Zm172.176,34.61a53.527,53.527,0,0,1-.074-5.453c.149-1.855-.594-2.708-2.19-3.6-5.234-2.783-8.316-7.16-8.39-13.169-.111-13.206-.148-26.412,0-39.618.074-6.788,4.307-12.167,10.692-14.43.78-.26,1.559-.519,2.338-.742V124.069c-1.3-1.187-2.9-2.04-2.821-2.745.074-1.15,1.226-2.189,1.931-3.3h35.935c.705,1.113,1.968,2.226,1.931,3.265-.037.853-1.671,1.632-2.858,2.708v16.693c.853.26,1.633.482,2.375.779,6.237,2.486,10.469,6.826,10.618,13.688.3,13.614.149,27.228.074,40.842-.037,4.192-1.6,8.421-5.16,10.275-5.123,2.708-5.9,6.566-5.457,11.462Zm5.308-5.972c1.3.483,2.636,1.373,3.935,1.373,6.831.148,13.624.148,20.455,0,1.336-.037,2.635-1,3.972-1.521-.111-.26-.185-.483-.3-.742H188.219C188.107,211.168,188.033,211.465,187.921,211.762Zm7.388-74.116h20.641V126.183H195.309Zm51.824,64.768a2.9,2.9,0,1,1,2.9,2.893A2.895,2.895,0,0,1,247.132,202.414Zm-191-.519L58.7,158.456c-8.2,3.784-28.028,12.576-29.141,10.609C28.4,167.1,46.038,154.3,53.351,149.108a6.924,6.924,0,0,0-.111,1.261,8.612,8.612,0,0,0,17.225,0,6.977,6.977,0,0,0-.074-1.261C77.7,154.3,95.337,167.1,94.149,169.065,93,171.031,73.212,162.2,65.008,158.456l2.561,43.438s-1.448,2.856-5.717,2.856S56.135,201.895,56.135,201.895Zm193.93-3.821a4.39,4.39,0,0,0-2.71.965c.409-4.526,1.559-15.395,2.71-15.395s2.3,10.869,2.71,15.395A4.627,4.627,0,0,0,250.065,198.074Zm77.809-3.82a.638.638,0,0,1-.259-.779l7.016-16.619h-6.422a.591.591,0,0,1-.52-.3.571.571,0,0,1-.037-.593l9.355-18.733a.69.69,0,0,1,.557-.334h9.986a.691.691,0,0,1,.557.334.757.757,0,0,1-.037.631L340.757,169.4h7.388a.669.669,0,0,1,.557.964L328.691,194.1a.6.6,0,0,1-.482.223A.553.553,0,0,1,327.875,194.253ZM147.755,172V152.41h-5.865v29.379h-39.2V119.172a7.808,7.808,0,0,1,7.833-7.827h23.5a7.808,7.808,0,0,1,7.833,7.827v27.414h3.935a7.808,7.808,0,0,1,7.833,7.827v17.62a3.935,3.935,0,0,0,7.87,0V143.8a10.083,10.083,0,0,1-3.935.816,9.777,9.777,0,0,1-3.49-18.919l-8.278-8.272,4.158-4.155,14.589,14.541-.074.074a9.918,9.918,0,0,1,2.9,6.9V172a9.8,9.8,0,0,1-19.6,0Zm5.828-37.207a3.935,3.935,0,1,0,3.935-3.932A3.96,3.96,0,0,0,153.583,134.79Zm-43.063,3.932h23.5V119.135h-23.5Zm175.989,41.555a11.923,11.923,0,0,1-4.147-.75c-13.773-5.082-2.821-22.814,3.638-29.787a.546.546,0,0,1,.557-.557.358.358,0,0,1,.557.26.476.476,0,0,1,.149.371c.26,5.231,3.118,7.9,6.163,11.871,2.153,2.782,4.083,6.64,3.415,10.238a10.172,10.172,0,0,1-10.329,8.355Zm-7.265-10.469a7.067,7.067,0,0,0,.26,2.3,7.447,7.447,0,0,0,2.9,4.155,3.668,3.668,0,0,0,2.858.742c.928-.333,3.118-1.521,2.561-2.893-.928-2.226-4.269-3.338-5.9-5.119a7.447,7.447,0,0,1-1.485-3.079A27.885,27.885,0,0,0,279.244,169.807ZM261.908,174v-8.866h-2.673V178.45H241.453V150.035a3.564,3.564,0,0,1,3.564-3.561h10.654a3.564,3.564,0,0,1,3.564,3.561v12.427h1.782a3.564,3.564,0,0,1,3.564,3.561V174a1.782,1.782,0,0,0,3.564,0v-12.76a4.776,4.776,0,0,1-1.782.371,4.45,4.45,0,0,1-1.6-8.606l-3.75-3.747,1.894-1.892,6.607,6.64a4.278,4.278,0,0,1,1.3,3.116V174a4.455,4.455,0,0,1-8.91,0Zm2.71-16.878a1.782,1.782,0,1,0,1.782-1.78A1.806,1.806,0,0,0,264.617,157.12ZM245.054,158.9h10.654v-8.866H245.054ZM.563,174.3a.83.83,0,0,1-.334-1l8.947-21.219H.971a.831.831,0,0,1-.668-.371.824.824,0,0,1-.037-.779l11.991-23.89a.788.788,0,0,1,.705-.445H25.694A.8.8,0,0,1,26.4,127a.9.9,0,0,1-.037.816l-9.318,14.727h9.466a.764.764,0,0,1,.705.445.723.723,0,0,1-.111.853L1.565,174.111a.775.775,0,0,1-.594.3A.747.747,0,0,1,.563,174.3Zm55.61-23.926a5.717,5.717,0,1,1,5.717,5.713A5.715,5.715,0,0,1,56.172,150.369Zm278.125-5.6a4.846,4.846,0,0,1,4.826-4.859,4.822,4.822,0,1,1-4.826,4.859Zm2.635-.037a2.191,2.191,0,0,0,4.38,0,2.19,2.19,0,0,0-4.38,0Zm-12.621-.036a4.807,4.807,0,1,1,4.826,4.822A4.814,4.814,0,0,1,324.312,144.694Zm2.635.036a2.139,2.139,0,0,0,2.19,2.152,2.117,2.117,0,0,0,2.153-2.189,2.172,2.172,0,0,0-4.343.036Zm-20.937,0a4.777,4.777,0,0,1,4.863-4.822,4.8,4.8,0,1,1-.074,9.608A4.752,4.752,0,0,1,306.01,144.73Zm2.635,0a2.108,2.108,0,0,0,2.153,2.152,2.139,2.139,0,0,0,2.19-2.152,2.162,2.162,0,0,0-2.153-2.189A2.126,2.126,0,0,0,308.645,144.73Zm-229.9,3.339a.467.467,0,0,1-.185-.593l5.494-13.058H79a.464.464,0,0,1-.408-.222.456.456,0,0,1-.037-.483l7.35-14.726a.514.514,0,0,1,.445-.26h7.87a.514.514,0,0,1,.445.26.389.389,0,0,1,0,.482l-5.754,9.052h5.828a.482.482,0,0,1,.446.3.393.393,0,0,1-.111.483l-15.7,18.659a.455.455,0,0,1-.371.186A.689.689,0,0,1,78.743,148.069Zm230.682-3.339A1.373,1.373,0,1,1,310.8,146.1,1.356,1.356,0,0,1,309.425,144.73Zm28.288-.037a1.427,1.427,0,0,1,1.411-1.372,1.316,1.316,0,0,1,1.336,1.372,1.347,1.347,0,0,1-1.374,1.373A1.37,1.37,0,0,1,337.713,144.693Zm-9.986,0a1.4,1.4,0,0,1,1.411-1.372,1.42,1.42,0,0,1,1.373,1.372,1.379,1.379,0,0,1-1.411,1.373A1.347,1.347,0,0,1,327.727,144.693Zm-7.8.038h-2.413c-.705,0-1-.3-1-1v-2.449a.86.86,0,0,1,.594-.964c.26-.074.595-.371.78-.3a6.657,6.657,0,0,0,2.976.3,11.737,11.737,0,0,1,1.7,0,.88.88,0,0,1,.854.779q.056,1.39,0,2.782a.834.834,0,0,1-.965.853ZM61.889,141.8a8.561,8.561,0,0,0-5.382,1.892c.853-8.977,3.118-30.529,5.382-30.529s4.529,21.552,5.383,30.529A8.563,8.563,0,0,0,61.889,141.8Zm210.821.334v-1.929h3.378v-5.713h2.858v5.713H282.4v1.929Zm28.845-1.892a2.618,2.618,0,0,1,.074-.928,2.131,2.131,0,0,1,.594-.556c.037.037.074.037.111.074a2.449,2.449,0,0,0,.037-.52c0-1.484.037-2.968,0-4.452a3.1,3.1,0,0,1,1.522-2.782.969.969,0,0,0,.408-.593c.26-1.113.408-2.226.668-3.3.445-1.892,1.373-3.376,3.415-3.821a1.739,1.739,0,0,1,.632-.074H315.1c.78,0,1.04.3,1.04,1.075,0,4.007.037,7.975,0,11.982,0,.519.148.668.668.668,2.376-.037,4.751,0,7.127,0,.372,0,.482-.111.482-.482s-.111-.483-.482-.52a7.292,7.292,0,0,1-6.757-6.454,7.2,7.2,0,0,1,5.234-7.716,18.238,18.238,0,0,1,3.193-.3c.52-.037,1,0,1.485,0,.185-1.187.222-1.224,1.411-1.224h4.158c1.114,0,1.188.074,1.336,1.224h2.673a7.261,7.261,0,0,1,.482,14.5c-.52.037-.557.074-.408.965h6.125c.891,0,1.151.26,1.113,1.113-.036.483,0,1,0,1.484,0,.446-.222.594-.594.631a1.21,1.21,0,0,1-.631,0,.733.733,0,0,1-.408-.408,5.752,5.752,0,0,1-.037-1.15H316.182v1.075c.037.446-.037.853-.483,1.039a1.39,1.39,0,0,1-1.448-.26,4.746,4.746,0,0,0-2.487-1.372,4.612,4.612,0,0,0-4.195,1.224,1.764,1.764,0,0,1-1.3.52c-1.336-.037-2.635-.037-3.972,0-.031,0-.06,0-.089,0C301.788,140.913,301.59,140.659,301.555,140.242Zm24.538-4.155v.89a1.667,1.667,0,0,0,.409.037h7.981c.371,0,.557-.037.557-.482,0-.408-.186-.483-.557-.483h-7.871C326.465,136.05,326.279,136.087,326.093,136.087Zm-18.97-9.9a7.263,7.263,0,0,0-.631,1.781c-.223.964-.372,1.929-.557,2.93h8.538V125H309.2A2.183,2.183,0,0,0,307.123,126.183Zm17.151-1.669a4.242,4.242,0,0,0-4.158,4.118c0,.333.037.668.409.593a.786.786,0,0,0,.445-.52,3.408,3.408,0,0,1,3.638-3.3h11.88c.334,0,.631-.037.631-.445-.037-.371-.334-.446-.668-.446-2.7,0-5.411-.016-8.121-.016Q326.3,124.5,324.274,124.514Zm-85.383,6.492c8.983-6.417,11.248-16.693,11.248-16.693s-2.079,8.569-12.176,15.988a12.441,12.441,0,0,0-2.784,3.227c-.3-.074-9.17-14.875,11.879-22.48a18.048,18.048,0,0,0,5.457-3.561,21.75,21.75,0,0,1,3.266,14.69c-.52,3.524-4.64,13.651-17.225,12.167a11.3,11.3,0,0,0-1.559,4.34c-.594.149-2,.7-2,.7C235.55,135.9,236.887,132.415,238.892,131.006Zm52.12,2.522H261.387a1.185,1.185,0,0,1-1.3-1.038l3.415-17.62a1.211,1.211,0,0,1,1.3-1.038h24.762a1.211,1.211,0,0,1,1.3,1.038l4.306,17.62a1.211,1.211,0,0,1-1.3,1.038ZM261.647,132.3H293.61L289.3,115.129H265.063Zm21.272-1.261v-4.007h7.944l1.113,4.007Zm-8.872,0v-4.007h7.276v4.007Zm-10.988,0,1.151-4.007h8.167v4.007Zm19.861-5.379v-4.006h6.793l1.151,4.006Zm-8.872,0v-4.006h7.276v4.006Zm-10.06,0,1.113-4.006h7.276v4.006Zm31.7-3.747L293.2,120.47l-.074-.371,1.039-1.039a.137.137,0,0,1,.111-.037c.037,0,.037.037.074.074l1.522,2.634a.149.149,0,0,1-.141.192A.154.154,0,0,1,295.689,121.917Zm-12.807-1.557v-4.007h5.68l1.113,4.007Zm-8.872,0v-4.007h7.276v4.007Zm-8.947,0,1.151-4.007h6.125v4.007Zm26.58-6.344a1.212,1.212,0,0,0-1.3-1.038h-5.9a5.322,5.322,0,0,1,5.012-3.487,5.351,5.351,0,0,1,3.415,9.5ZM27.328,118.764v-1.929h3.378v-5.713h2.858v5.713h3.452v1.929Zm269.141-2.931a.136.136,0,0,1-.037-.111v-1.6a.131.131,0,0,1,.149-.149l2.97.779c.112.037.112.223,0,.334l-2.97.779A.137.137,0,0,1,296.469,115.834ZM164.5,114.127V112.05a.333.333,0,0,1,.334-.334c.223,0,.371.149.334.334v2.077a.334.334,0,1,1-.668,0Zm-3.118-1.372a.327.327,0,0,1-.186-.445l.371-.965a.328.328,0,0,1,.446-.186.339.339,0,0,1,.185.446l-.371.964a.357.357,0,0,1-.334.223C161.453,112.792,161.416,112.755,161.379,112.755Zm6.644-.223-.408-.964a.341.341,0,1,1,.631-.26l.446.965a.328.328,0,0,1-.186.445.281.281,0,0,1-.149.037A.325.325,0,0,1,168.023,112.532Zm4.121-.556-1.967-1.966a.341.341,0,0,1,.482-.482l2,1.966a.316.316,0,0,1,0,.482.4.4,0,0,1-.26.111A.337.337,0,0,1,172.144,111.976Zm-15.109,0a.316.316,0,0,1,0-.482L159,109.528a.359.359,0,0,1,.52,0,.316.316,0,0,1,0,.482l-1.967,1.966a.4.4,0,0,1-.26.111A.335.335,0,0,1,157.035,111.976ZM220.07,105.3a6.255,6.255,0,1,1,12.511-.037,6.155,6.155,0,0,1-6.237,6.232A6.272,6.272,0,0,1,220.07,105.3Zm3.452-.037a2.812,2.812,0,0,0,2.821,2.783,2.8,2.8,0,1,0,.037-5.6h-.069A2.782,2.782,0,0,0,223.523,105.261Zm-40.167,0a6.237,6.237,0,1,1,6.2,6.232A6.225,6.225,0,0,1,183.356,105.261Zm3.415,0a2.822,2.822,0,1,0,2.858-2.819h-.072A2.738,2.738,0,0,0,186.771,105.261Zm20.307-.074a6.256,6.256,0,0,1,6.311-6.2,6.232,6.232,0,1,1-6.311,6.2Zm3.452.074a2.821,2.821,0,1,0,2.784-2.856A2.82,2.82,0,0,0,210.53,105.261Zm-52.9-1.113a7.2,7.2,0,1,1,7.2,7.2A7.205,7.205,0,0,1,157.629,104.149Zm6.534-3.228-1.708,3.45a.277.277,0,0,0,0,.333.459.459,0,0,0,.3.149h.557l-.891,3a.372.372,0,0,0,.186.408.224.224,0,0,0,.149.037.471.471,0,0,0,.259-.149l3.453-4.452a.437.437,0,0,0,.037-.371.294.294,0,0,0-.3-.186h-.52l.817-1.929a.361.361,0,0,0-.037-.334.458.458,0,0,0-.3-.148h-1.708A.378.378,0,0,0,164.163,100.921ZM74.1,110.529c-13.773-5.082-2.821-22.814,3.638-29.788a.546.546,0,0,1,.557-.556.358.358,0,0,1,.557.259.477.477,0,0,1,.149.371c.26,5.231,3.119,7.9,6.163,11.87,2.153,2.783,4.083,6.64,3.415,10.238a10.173,10.173,0,0,1-10.331,8.355A11.924,11.924,0,0,1,74.1,110.529Zm-3.119-9.719a7.068,7.068,0,0,0,.26,2.3,7.445,7.445,0,0,0,2.9,4.154,3.665,3.665,0,0,0,2.858.742c.928-.333,3.119-1.521,2.561-2.893-.928-2.226-4.269-3.338-5.9-5.119a7.447,7.447,0,0,1-1.485-3.078A27.846,27.846,0,0,0,70.985,100.81ZM294.8,110.678l-1.15-1.15a.134.134,0,0,1-.037-.111.08.08,0,0,1,.074-.074l2.635-1.521c.111-.037.26.074.186.186l-1.522,2.634a.08.08,0,0,1-.074.074A.137.137,0,0,1,294.8,110.678Zm-11.471-.037-1.336-2.411c-.037-.111.111-.222.186-.186l2.45,1.336a.13.13,0,0,1,.037.074.136.136,0,0,1-.037.111l-1.113,1.113a.137.137,0,0,1-.111.037Zm-237.7-.483H16.005a1.185,1.185,0,0,1-1.3-1.038L18.121,91.5a1.212,1.212,0,0,1,1.3-1.038H44.182a1.211,1.211,0,0,1,1.3,1.038l4.306,17.62a1.211,1.211,0,0,1-1.3,1.038Zm-29.364-1.224H48.228L43.922,91.759H19.68Zm295.349-.742v-3.265a.557.557,0,0,1,1.114,0v3.265a.557.557,0,0,1-1.114,0ZM106.474,96.47c12.882-9.2,16.149-23.964,16.149-23.964s-2.933,12.278-17.448,22.925a18.155,18.155,0,0,0-3.972,4.636c-.409-.074-13.142-21.329,17.039-32.235a26.858,26.858,0,0,0,7.833-5.119,31.32,31.32,0,0,1,4.641,21.07c-.78,5.045-6.682,19.586-24.724,17.435a16.11,16.11,0,0,0-2.227,6.232c-.891.223-2.9,1.039-2.9,1.039C101.685,103.481,103.615,98.51,106.474,96.47Zm182.2,11.685c-.037,0-.074-.037,0-.037a.135.135,0,0,1-.037-.111l.78-2.968c0-.111.185-.111.222,0l.78,2.968a.131.131,0,0,1-.148.148Zm-132.38-.371a.327.327,0,0,1,.185-.445l.965-.408a.327.327,0,0,1,.445.186.343.343,0,0,1-.148.445l-.965.408a.281.281,0,0,1-.149.037A.324.324,0,0,1,156.293,107.784Zm16.705.037-.965-.371a.341.341,0,1,1,.26-.631l.965.371a.338.338,0,0,1,.186.445.357.357,0,0,1-.334.223C173.073,107.858,173.035,107.821,173,107.821Zm-135.461-.149v-4.007h7.944l1.113,4.007Zm-8.872,0v-4.007H35.94v4.007Zm-10.988,0,1.151-4.007h8.167v4.007Zm193.856-2.449a1.814,1.814,0,0,1,1.819-1.78,1.767,1.767,0,0,1,1.782,1.817,1.79,1.79,0,0,1-1.819,1.781A1.767,1.767,0,0,1,211.532,105.224Zm-23.758.037a1.767,1.767,0,0,1,1.782-1.817,1.79,1.79,0,0,1,1.819,1.78,1.767,1.767,0,0,1-1.782,1.818A1.746,1.746,0,0,1,187.773,105.261Zm36.752-.037a1.813,1.813,0,0,1,1.819-1.78,1.781,1.781,0,1,1,0,3.561A1.79,1.79,0,0,1,224.525,105.224Zm82.189.816a.562.562,0,0,1-.3-.7l.594-1.521a.564.564,0,0,1,.705-.3.549.549,0,0,1,.3.7l-.594,1.521a.56.56,0,0,1-.52.334A.4.4,0,0,1,306.715,106.04Zm10.469-.445-.631-1.484a.541.541,0,0,1,1-.408l.631,1.484a.562.562,0,0,1-.3.7.472.472,0,0,1-.223.037A.511.511,0,0,1,317.183,105.6Zm-78.4-3.116,2.562-43.438c-8.2,3.784-28.028,12.576-29.141,10.609-1.151-1.966,16.482-14.764,23.8-19.957a6.919,6.919,0,0,0-.111,1.261,8.612,8.612,0,0,0,17.225,0,6.974,6.974,0,0,0-.074-1.261c7.314,5.193,24.947,17.991,23.759,19.957-1.151,1.966-20.937-6.862-29.141-10.609l2.561,43.438s-1.448,2.856-5.717,2.856S238.78,102.479,238.78,102.479Zm-37.42,2.856h-3.118c-.928,0-1.3-.371-1.3-1.3v-3.19a1.153,1.153,0,0,1,.779-1.262c.372-.148.78-.519,1.04-.408a8.368,8.368,0,0,0,3.775.371,13.782,13.782,0,0,1,2.277,0c.668.074,1.039.371,1.039,1.076.037,1.187.037,2.411,0,3.6q0,1.113-1.225,1.113Zm122.394-.556-3.119-3.116a.551.551,0,0,1,.78-.779L324.5,104a.538.538,0,0,1,0,.779.477.477,0,0,1-.372.148A.53.53,0,0,1,323.754,104.779Zm-23.907,0a.537.537,0,0,1,0-.779l3.118-3.116a.5.5,0,0,1,.742,0,.537.537,0,0,1,0,.779l-3.118,3.116a.539.539,0,0,1-.742,0Zm-144.965-.26a.334.334,0,1,1,0-.668h2.079a.334.334,0,0,1,0,.668Zm17.856-.037a.334.334,0,1,1,0-.668h2.079a.359.359,0,0,1,.334.334.332.332,0,0,1-.334.333ZM300.775,92.427a11.4,11.4,0,1,1,11.4,11.388A11.419,11.419,0,0,1,300.775,92.427Zm10.357-5.119-2.71,5.416a.523.523,0,0,0,.037.52.515.515,0,0,0,.445.259h.891l-1.411,4.711a.531.531,0,0,0,.259.631.689.689,0,0,0,.26.074.53.53,0,0,0,.446-.223l5.42-7.048a.508.508,0,0,0,.074-.557.5.5,0,0,0-.482-.3v.037h-.854l1.3-3.042a.515.515,0,0,0-.037-.519.45.45,0,0,0-.445-.26h-2.71A.535.535,0,0,0,311.132,87.307Zm-34,15.061a.83.83,0,0,1-.334-1l8.947-21.219h-8.2a.793.793,0,0,1-.705-1.15l11.954-23.927a.788.788,0,0,1,.705-.445h12.77a.8.8,0,0,1,.705.408.9.9,0,0,1-.037.816L293.61,70.578h9.466a.764.764,0,0,1,.705.445.723.723,0,0,1-.111.853L278.13,102.183a.775.775,0,0,1-.594.3A.746.746,0,0,1,277.128,102.368Zm-239.591-.074V98.288H44.33l1.151,4.006Zm-8.872,0V98.288H35.94v4.006Zm-10.06,0,1.113-4.006h7.276v4.006Zm138.8-.779-.965-.371a.341.341,0,0,1,.26-.631l.965.371a.328.328,0,0,1,.185.446.355.355,0,0,1-.334.222C157.481,101.552,157.443,101.515,157.406,101.515Zm14.4-.3a.321.321,0,0,1,.223-.446l.965-.408a.341.341,0,1,1,.259.631l-.965.408a.281.281,0,0,1-.149.037A.325.325,0,0,1,171.81,101.218Zm22.238-1.447a5.844,5.844,0,0,0-3.23-1.781,5.909,5.909,0,0,0-5.457,1.558,2.182,2.182,0,0,1-1.67.668q-2.562-.056-5.123,0a.842.842,0,0,1-.965-.89,3.357,3.357,0,0,1,.111-1.225c.149-.3.52-.482.78-.7.037.037.111.074.149.111,0-.223.037-.445.037-.668,0-1.892.037-3.821,0-5.75a4.07,4.07,0,0,1,1.967-3.6,1.456,1.456,0,0,0,.52-.779c.334-1.41.52-2.856.854-4.266.594-2.486,1.782-4.377,4.455-4.971a3.045,3.045,0,0,1,.817-.074H195.2c1,0,1.373.371,1.373,1.372,0,5.193.037,10.35,0,15.543,0,.668.186.853.854.853,3.081-.037,6.162,0,9.243,0,.483,0,.631-.148.631-.631s-.148-.631-.631-.668a9.36,9.36,0,0,1-2-18.362,25.077,25.077,0,0,1,4.12-.371c.631-.037,1.263,0,1.894,0,.259-1.484.334-1.558,1.856-1.558h5.42c1.411,0,1.522.111,1.707,1.6h3.49a9.274,9.274,0,0,1,6.385,2.485,9.406,9.406,0,0,1-5.717,16.322c-.705.037-.742.111-.557,1.261h7.944c1.151,0,1.448.334,1.337,1.41a16.712,16.712,0,0,0,0,1.929c.037.556-.26.779-.742.816a2.017,2.017,0,0,1-.817,0,.8.8,0,0,1-.52-.519,10.138,10.138,0,0,1-.037-1.521H196.534v1.41a1.174,1.174,0,0,1-.631,1.336,1.619,1.619,0,0,1-.646.127A1.745,1.745,0,0,1,194.048,99.772Zm15.368-5.713v1.15c.223,0,.409.037.557.037H220.33c.446,0,.705-.074.705-.593,0-.556-.222-.631-.705-.631H210.121C209.9,94.022,209.676,94.059,209.416,94.059ZM184.841,81.187a10.288,10.288,0,0,0-.817,2.336c-.3,1.225-.482,2.486-.742,3.784h11.063c0-2.559,0-5.082.037-7.641-2.339,0-4.6.037-6.868,0l-.122,0A2.709,2.709,0,0,0,184.841,81.187ZM207.04,79a5.561,5.561,0,0,0-5.42,5.341c0,.408.074.816.557.742a.979.979,0,0,0,.594-.668,4.417,4.417,0,0,1,4.715-4.266h15.406c.408,0,.817-.074.817-.593s-.409-.593-.854-.593C217.583,79,212.311,78.961,207.04,79ZM159,98.844l-1.93-1.966a.341.341,0,1,1,.482-.482l1.967,1.966a.316.316,0,0,1,0,.482.4.4,0,0,1-.259.111A.337.337,0,0,1,159,98.844Zm11.211-.037a.316.316,0,0,1,0-.482l1.967-1.966a.341.341,0,1,1,.482.482L170.7,98.807a.4.4,0,0,1-.26.111A.263.263,0,0,1,170.214,98.807Zm-119.907-.26L47.82,97.1l-.074-.371,1.039-1.039a.137.137,0,0,1,.111-.037c.037,0,.037.037.074.074l1.522,2.634a.149.149,0,0,1-.141.192A.152.152,0,0,1,50.307,98.547ZM298.7,98.139a.562.562,0,0,1,.3-.7l1.485-.631a.564.564,0,0,1,.705.3.531.531,0,0,1-.3.7l-1.485.631a.472.472,0,0,1-.223.037A.512.512,0,0,1,298.7,98.139Zm26.357.074-1.522-.593a.541.541,0,1,1,.409-1l1.521.593a.53.53,0,0,1,.3.7.56.56,0,0,1-.52.334A.4.4,0,0,1,325.053,98.214Zm-163.6-1.187-.372-.965a.341.341,0,0,1,.631-.26l.409.965a.327.327,0,0,1-.186.445.281.281,0,0,1-.149.037A.324.324,0,0,1,161.453,97.027Zm6.236.148a.327.327,0,0,1-.186-.445l.372-.965a.341.341,0,0,1,.631.26l-.372.965a.356.356,0,0,1-.334.222C167.764,97.212,167.727,97.175,167.689,97.175ZM37.5,96.99V92.983h5.68l1.113,4.007Zm-8.872,0V92.983H35.9V96.99Zm-8.947,0,1.151-4.007h6.125V96.99Zm144.816-.7V94.208a.334.334,0,1,1,.668,0v2.077a.334.334,0,0,1-.668,0ZM46.261,90.646a1.212,1.212,0,0,0-1.3-1.038h-5.9a5.324,5.324,0,0,1,5.012-3.487,5.351,5.351,0,0,1,3.415,9.5ZM324.645,93.02a.557.557,0,1,1,0-1.113h3.267a.526.526,0,0,1,.557.557.57.57,0,0,1-.557.556Zm-28.213-.037a.557.557,0,1,1,0-1.113H299.7a.557.557,0,1,1,0,1.113ZM51.086,92.464a.136.136,0,0,1-.037-.111v-1.6a.131.131,0,0,1,.149-.149l2.97.779c.111.037.111.223,0,.334L51.2,92.5A.137.137,0,0,1,51.086,92.464ZM300.4,88.234l-1.522-.593a.541.541,0,1,1,.408-1l1.522.593a.539.539,0,0,1-.223,1.038A.4.4,0,0,1,300.4,88.234ZM323.2,87.79a.494.494,0,0,1,.3-.7l1.485-.631a.541.541,0,1,1,.408,1l-1.485.631a.467.467,0,0,1-.222.037A.51.51,0,0,1,323.2,87.79Zm-176.965-.26c0-.816-.111-1.632-.037-2.449a1.459,1.459,0,0,0-.965-1.595,6.446,6.446,0,0,1-3.75-5.861c-.037-5.9-.074-11.8,0-17.658a6.872,6.872,0,0,1,4.789-6.454c.334-.111.705-.223,1.039-.334V45.761c-.594-.52-1.3-.89-1.262-1.225.037-.519.557-.964.854-1.484h16.037c.3.483.891,1,.854,1.447,0,.371-.742.742-1.3,1.225v7.456c.372.111.742.223,1.077.334,2.784,1.113,4.678,3.042,4.714,6.12.111,6.084.074,12.131.037,18.214a5.012,5.012,0,0,1-2.3,4.6c-2.265,1.187-2.636,2.893-2.413,5.082Zm2.375-2.633a7.141,7.141,0,0,0,1.745.631q4.566.111,9.133,0a5.835,5.835,0,0,0,1.782-.668,1.318,1.318,0,0,0-.149-.334c-4.158-.037-8.278-.037-12.4-.037C148.682,84.636,148.645,84.748,148.608,84.9Zm3.267-33.089h9.206V46.688h-9.206Zm-102.46,35.5-1.151-1.15a.134.134,0,0,1-.037-.111.08.08,0,0,1,.074-.074l2.635-1.521c.111-.037.26.074.186.186L49.6,87.27a.08.08,0,0,1-.074.074A.137.137,0,0,1,49.416,87.307ZM37.945,87.27l-1.336-2.411c-.037-.111.111-.222.186-.185l2.45,1.335a.13.13,0,0,1,.037.074.136.136,0,0,1-.037.111l-1.113,1.113a.137.137,0,0,1-.111.037Zm5.346-2.486c-.037,0-.074-.037,0-.037a.135.135,0,0,1-.037-.111l.78-2.968c0-.111.186-.111.222,0l.78,2.968a.131.131,0,0,1-.148.148ZM320.6,84.006a.537.537,0,0,1,0-.779l3.119-3.116a.551.551,0,1,1,.78.778l-3.119,3.116a.477.477,0,0,1-.371.149A.619.619,0,0,1,320.6,84.006Zm-17.634,0-3.155-3.116a.551.551,0,0,1,.779-.778l3.118,3.116a.537.537,0,0,1,0,.779.476.476,0,0,1-.371.149A.533.533,0,0,1,302.965,84.006ZM57.323,83.338V80.073a.557.557,0,0,1,1.114,0v3.265a.557.557,0,0,1-1.114,0Zm249.5-2.189-.631-1.484a.541.541,0,1,1,1-.408l.632,1.484a.563.563,0,0,1-.3.7.472.472,0,0,1-.223.037A.512.512,0,0,1,306.826,81.149Zm9.837.223a.519.519,0,0,1-.3-.7l.594-1.521a.541.541,0,0,1,1,.408l-.595,1.521a.559.559,0,0,1-.52.334A.4.4,0,0,1,316.663,81.372ZM52.423,81.186a.562.562,0,0,1-.3-.7l.594-1.521a.564.564,0,0,1,.705-.3.549.549,0,0,1,.3.7l-.594,1.521a.56.56,0,0,1-.52.334A.4.4,0,0,1,52.423,81.186Zm10.469-.445-.631-1.484a.541.541,0,0,1,1-.408l.631,1.484a.563.563,0,0,1-.3.7.472.472,0,0,1-.223.037A.511.511,0,0,1,62.892,80.742Zm248.723-.779V76.7a.557.557,0,0,1,1.114,0v3.265a.571.571,0,0,1-.557.556A.6.6,0,0,1,311.615,79.963ZM69.462,79.925l-3.118-3.116a.551.551,0,0,1,.78-.779L70.2,79.146a.538.538,0,0,1,0,.779.479.479,0,0,1-.372.148A.533.533,0,0,1,69.462,79.925Zm-23.907,0a.537.537,0,0,1,0-.779l3.118-3.116a.5.5,0,0,1,.742,0,.537.537,0,0,1,0,.779L46.3,79.925a.479.479,0,0,1-.372.148A.532.532,0,0,1,45.555,79.925Zm.928-12.353a11.4,11.4,0,1,1,11.4,11.388A11.419,11.419,0,0,1,46.483,67.573ZM56.84,62.454l-2.71,5.416a.523.523,0,0,0,.037.52.515.515,0,0,0,.445.259H55.5L54.093,73.36a.531.531,0,0,0,.259.631.689.689,0,0,0,.26.074.528.528,0,0,0,.445-.223l5.42-7.048a.508.508,0,0,0,.074-.557.5.5,0,0,0-.482-.3v.037h-.854l1.3-3.042a.515.515,0,0,0-.037-.519.45.45,0,0,0-.445-.26h-2.71A.535.535,0,0,0,56.84,62.454ZM44.4,73.285a.562.562,0,0,1,.3-.7l1.485-.631a.564.564,0,0,1,.705.3.53.53,0,0,1-.3.7l-1.485.631a.472.472,0,0,1-.223.037A.512.512,0,0,1,44.4,73.285Zm26.357.074-1.522-.593a.541.541,0,1,1,.408-1l1.522.593a.53.53,0,0,1,.3.7.56.56,0,0,1-.52.334A.4.4,0,0,1,70.762,73.36Zm-.408-5.193a.557.557,0,1,1,0-1.113H73.62a.526.526,0,0,1,.557.557.571.571,0,0,1-.557.556ZM42.14,68.129a.557.557,0,1,1,0-1.113h3.267a.557.557,0,1,1,0,1.113Zm151.09-5.416V53.847h-2.673V67.164H172.775V38.749a3.564,3.564,0,0,1,3.564-3.561h10.654a3.564,3.564,0,0,1,3.564,3.561V51.176h1.782a3.564,3.564,0,0,1,3.564,3.561v7.975a1.782,1.782,0,0,0,3.564,0V49.952a4.789,4.789,0,0,1-1.782.371,4.45,4.45,0,0,1-1.6-8.606l-3.75-3.747,1.893-1.892,6.608,6.64a4.278,4.278,0,0,1,1.3,3.116V62.713a4.455,4.455,0,0,1-8.91,0Zm2.71-16.879a1.806,1.806,0,0,0,1.782,1.781,1.782,1.782,0,0,0,1.782-1.781,1.782,1.782,0,0,0-3.564,0Zm-19.564,1.781H187.03V38.749H176.376ZM46.112,63.38l-1.522-.593a.541.541,0,1,1,.408-1l1.522.593a.539.539,0,0,1-.222,1.038A.4.4,0,0,1,46.112,63.38Zm22.794-.445a.494.494,0,0,1,.3-.7l1.485-.631a.541.541,0,1,1,.409,1l-1.485.631a.472.472,0,0,1-.223.037A.51.51,0,0,1,68.906,62.936Zm-2.6-3.784a.537.537,0,0,1,0-.779l3.119-3.116a.551.551,0,1,1,.78.778l-3.119,3.116a.477.477,0,0,1-.372.149A.619.619,0,0,1,66.307,59.152Zm-17.634,0-3.155-3.116a.551.551,0,1,1,.78-.778l3.118,3.116a.537.537,0,0,1,0,.779.476.476,0,0,1-.371.149A.533.533,0,0,1,48.673,59.152ZM111.3,52.994a6.255,6.255,0,1,1,12.511-.037,6.155,6.155,0,0,1-6.237,6.232A6.272,6.272,0,0,1,111.3,52.994Zm3.452-.037a2.812,2.812,0,0,0,2.821,2.783,2.8,2.8,0,1,0,.037-5.6h-.069A2.781,2.781,0,0,0,114.752,52.956Zm-40.167,0a6.237,6.237,0,1,1,6.2,6.232A6.225,6.225,0,0,1,74.585,52.956Zm3.416,0a2.821,2.821,0,1,0,2.858-2.819h-.072A2.737,2.737,0,0,0,78,52.956Zm20.306-.074a6.256,6.256,0,0,1,6.311-6.2,6.232,6.232,0,1,1-6.311,6.2Zm3.452.074a2.821,2.821,0,1,0,2.784-2.856A2.82,2.82,0,0,0,101.76,52.956Zm137.058-2a5.717,5.717,0,1,1,5.717,5.713A5.715,5.715,0,0,1,238.817,50.954ZM52.534,56.3,51.9,54.812a.541.541,0,1,1,1-.408l.632,1.484a.563.563,0,0,1-.3.7.472.472,0,0,1-.223.037A.512.512,0,0,1,52.534,56.3Zm9.837.223a.519.519,0,0,1-.3-.7l.594-1.521a.541.541,0,0,1,1,.408l-.595,1.521a.559.559,0,0,1-.52.334A.4.4,0,0,1,62.371,56.518Zm-5.049-1.41V51.844a.557.557,0,0,1,1.114,0v3.265a.571.571,0,0,1-.557.556A.6.6,0,0,1,57.323,55.109ZM264.8,48.171a25,25,0,0,0,9.132-13.54s-1.67,6.937-9.874,12.946a9.574,9.574,0,0,0-2.265,2.6c-.26-.036-7.425-12.056,9.615-18.213a14.38,14.38,0,0,0,4.418-2.894A17.885,17.885,0,0,1,278.5,40.975c-.445,2.893-3.787,11.092-13.958,9.868a9.131,9.131,0,0,0-1.262,3.524c-.482.149-1.634.593-1.634.593C262.093,52.141,263.207,49.322,264.8,48.171ZM102.762,52.92a1.813,1.813,0,0,1,1.819-1.781,1.767,1.767,0,0,1,1.782,1.817,1.79,1.79,0,0,1-1.819,1.781A1.766,1.766,0,0,1,102.762,52.92ZM79,52.956a1.767,1.767,0,0,1,1.782-1.817A1.79,1.79,0,0,1,82.6,52.92a1.767,1.767,0,0,1-1.782,1.817A1.746,1.746,0,0,1,79,52.956Zm36.752-.036a1.814,1.814,0,0,1,1.819-1.781,1.781,1.781,0,1,1,0,3.561A1.79,1.79,0,0,1,115.755,52.92Zm-23.165.111H89.472c-.928,0-1.3-.371-1.3-1.3v-3.19a1.153,1.153,0,0,1,.78-1.262c.371-.149.779-.519,1.039-.408a8.37,8.37,0,0,0,3.775.371,13.776,13.776,0,0,1,2.276,0c.668.074,1.039.371,1.039,1.076.037,1.187.037,2.411,0,3.6q0,1.113-1.225,1.113Zm38.273-1.854a.83.83,0,0,1-.334-1l8.947-21.219h-8.2a.793.793,0,0,1-.705-1.15L142.52,3.88a.788.788,0,0,1,.705-.445H156a.8.8,0,0,1,.705.408.9.9,0,0,1-.037.816l-9.318,14.727h9.466a.764.764,0,0,1,.705.445.723.723,0,0,1-.111.853L131.866,50.991a.775.775,0,0,1-.594.3A.747.747,0,0,1,130.864,51.176Zm-45.587-3.71a5.844,5.844,0,0,0-3.23-1.781,5.909,5.909,0,0,0-5.457,1.558,2.182,2.182,0,0,1-1.67.668q-2.562-.056-5.123,0a.842.842,0,0,1-.965-.89,3.357,3.357,0,0,1,.111-1.225c.149-.3.52-.482.78-.7.037.037.111.074.149.111,0-.223.037-.445.037-.668,0-1.892.037-3.821,0-5.75a4.07,4.07,0,0,1,1.967-3.6,1.456,1.456,0,0,0,.52-.779c.334-1.41.52-2.856.854-4.266.594-2.486,1.782-4.377,4.455-4.971a3.045,3.045,0,0,1,.817-.074h7.907c1,0,1.373.371,1.373,1.372,0,5.193.037,10.35,0,15.543,0,.668.186.853.854.853,3.081-.037,6.162,0,9.243,0,.483,0,.631-.148.631-.631s-.148-.631-.631-.668a9.36,9.36,0,0,1-2-18.362,25.077,25.077,0,0,1,4.12-.371c.631-.037,1.263,0,1.894,0,.259-1.484.334-1.558,1.856-1.558h5.42c1.411,0,1.522.111,1.707,1.6h3.49a9.274,9.274,0,0,1,6.385,2.485A9.406,9.406,0,0,1,115.05,41.68c-.705.037-.742.111-.557,1.261h7.945c1.151,0,1.448.334,1.336,1.41a16.712,16.712,0,0,0,0,1.929c.037.556-.26.779-.742.816a2.042,2.042,0,0,1-.817,0,.8.8,0,0,1-.52-.52,10.137,10.137,0,0,1-.037-1.521H87.764v1.41a1.174,1.174,0,0,1-.631,1.336,1.619,1.619,0,0,1-.646.128A1.743,1.743,0,0,1,85.277,47.467Zm15.368-5.713V42.9c.223,0,.409.037.557.037H111.56c.446,0,.705-.074.705-.593,0-.556-.222-.631-.705-.631H101.351C101.129,41.717,100.906,41.754,100.646,41.754ZM76.07,28.882a10.287,10.287,0,0,0-.817,2.336c-.3,1.225-.482,2.486-.742,3.784H85.574c0-2.559,0-5.082.037-7.641-2.339,0-4.6.037-6.867,0l-.122,0A2.711,2.711,0,0,0,76.07,28.882Zm22.2-2.189a5.561,5.561,0,0,0-5.42,5.341c0,.408.074.816.557.742A.981.981,0,0,0,94,32.109a4.416,4.416,0,0,1,4.714-4.266h15.406c.408,0,.817-.074.817-.593s-.409-.593-.854-.593C108.813,26.694,103.541,26.656,98.27,26.694ZM244.534,42.385a8.559,8.559,0,0,0-5.382,1.892c.854-8.977,3.118-30.529,5.382-30.529s4.529,21.552,5.383,30.529A8.563,8.563,0,0,0,244.534,42.385Zm-39.016-1.521V38.935H208.9V33.222h2.858v5.713h3.453v1.929Zm18.3-8.607H194.2a1.185,1.185,0,0,1-1.3-1.038l3.415-17.62a1.212,1.212,0,0,1,1.3-1.038h24.76a1.212,1.212,0,0,1,1.3,1.038l4.306,17.62a1.211,1.211,0,0,1-1.3,1.038Zm-29.364-1.224h31.963l-4.306-17.175H197.871ZM167.281,30.4C153.509,25.321,164.46,7.589,170.919.616a.546.546,0,0,1,.557-.557.358.358,0,0,1,.557.26.476.476,0,0,1,.149.371c.26,5.231,3.119,7.9,6.163,11.871,2.153,2.782,4.083,6.64,3.415,10.238a10.173,10.173,0,0,1-10.331,8.355A11.924,11.924,0,0,1,167.281,30.4Zm-3.118-9.719a7.068,7.068,0,0,0,.26,2.3,7.447,7.447,0,0,0,2.9,4.154,3.668,3.668,0,0,0,2.858.742c.928-.333,3.118-1.521,2.561-2.893-.928-2.226-4.269-3.338-5.9-5.119a7.446,7.446,0,0,1-1.485-3.079A27.881,27.881,0,0,0,164.163,20.684Zm51.564,9.089V25.766h7.944l1.113,4.007Zm-8.872,0V25.766h7.276v4.007Zm-10.988,0,1.151-4.007h8.167v4.007Zm19.861-5.379V20.388h6.793l1.151,4.006Zm-8.872,0V20.388h7.276v4.006Zm-10.06,0,1.113-4.006h7.276v4.006Zm31.7-3.747L226.01,19.2l-.074-.371,1.039-1.039a.137.137,0,0,1,.111-.037c.037,0,.037.037.074.074l1.522,2.634a.15.15,0,0,1-.141.192A.147.147,0,0,1,228.5,20.647ZM215.69,19.089V15.083h5.68l1.113,4.007Zm-8.872,0V15.083h7.276v4.007Zm-8.947,0,1.151-4.007h6.125v4.007Zm26.58-6.344a1.212,1.212,0,0,0-1.3-1.038h-5.9a5.324,5.324,0,0,1,5.012-3.487,5.351,5.351,0,0,1,3.415,9.5Zm4.826,1.818a.136.136,0,0,1-.037-.111v-1.6a.131.131,0,0,1,.149-.149l2.97.779c.111.037.111.223,0,.334l-2.97.779A.137.137,0,0,1,229.277,14.564Zm-1.671-5.156-1.151-1.15a.134.134,0,0,1-.037-.111.08.08,0,0,1,.074-.074l2.635-1.521c.111-.037.26.074.186.186L227.792,9.37a.08.08,0,0,1-.074.074A.137.137,0,0,1,227.606,9.407ZM216.135,9.37,214.8,6.959c-.037-.111.111-.222.186-.185l2.45,1.335a.13.13,0,0,1,.037.074.135.135,0,0,1-.037.111l-1.113,1.113a.137.137,0,0,1-.111.037Zm5.346-2.486c-.037,0-.074-.037,0-.037a.135.135,0,0,1-.037-.111l.78-2.968c0-.111.185-.111.222,0l.78,2.968a.131.131,0,0,1-.148.148Z" transform="translate(-3027.922 -1025.796)" fill="#fff"/>
  </g>
</svg>
