<svg id="_004-gift" data-name="004-gift" xmlns="http://www.w3.org/2000/svg" width="34.048" height="34.048" viewBox="0 0 16.048 16.048">
  <g id="Group_397" data-name="Group 397" transform="translate(0 0)">
    <path id="Path_1145" data-name="Path 1145" d="M14.637,3.761H12.724A2.349,2.349,0,0,0,10.845,0,2.11,2.11,0,0,0,9.033.88,9.128,9.128,0,0,0,8.024,2.971,9.127,9.127,0,0,0,7.015.88,2.11,2.11,0,0,0,5.2,0,2.349,2.349,0,0,0,3.324,3.761H1.41A1.412,1.412,0,0,0,0,5.172v.94a1.413,1.413,0,0,0,.94,1.33v7.2a1.412,1.412,0,0,0,1.41,1.41H13.7a1.412,1.412,0,0,0,1.41-1.41v-7.2a1.413,1.413,0,0,0,.94-1.33v-.94A1.412,1.412,0,0,0,14.637,3.761Zm-5.75-.416C9.607,1.518,9.881.94,10.845.94a1.41,1.41,0,1,1,0,2.821H8.722ZM5.2.94c.964,0,1.238.578,1.958,2.405l.164.416H5.2A1.41,1.41,0,0,1,5.2.94Zm.94,14.167H2.351a.471.471,0,0,1-.47-.47V7.522H6.143Zm0-8.525H1.41a.471.471,0,0,1-.47-.47v-.94a.471.471,0,0,1,.47-.47H6.143Zm2.821,8.525H7.084V4.7H8.964Zm5.2-.47a.471.471,0,0,1-.47.47H9.9V7.522h4.263Zm.94-8.525a.471.471,0,0,1-.47.47H9.9V4.7h4.733a.471.471,0,0,1,.47.47Z" transform="translate(0 0)"/>
  </g>
</svg>
