<svg xmlns="http://www.w3.org/2000/svg" width="16.882" height="16.048" viewBox="0 0 16.882 16.048">
  <path id="_001-house" data-name="001-house" d="M8.721,1.254l4.016,3.737,4.016,3.737a.417.417,0,0,1,.023.58.408.408,0,0,1-.3.128v.006H14.443v7.335a.414.414,0,0,1-.412.412h-3.2a.409.409,0,0,1-.406-.412v-5.64H6.458v5.64a.414.414,0,0,1-.412.412h-3.2a.409.409,0,0,1-.406-.412V9.441H.406A.412.412,0,0,1,.151,8.71l4-3.719L8.164,1.248a.406.406,0,0,1,.557.006ZM12.18,5.588,8.443,2.107,4.706,5.589,1.451,8.618h1.4a.414.414,0,0,1,.412.412v7.335H5.64V10.729a.409.409,0,0,1,.406-.412h4.787a.414.414,0,0,1,.412.412v5.634h2.379V9.03a.409.409,0,0,1,.406-.412h1.4Z" transform="translate(0 -1.14)" fill="#1e201d"/>
</svg>
