<svg xmlns="http://www.w3.org/2000/svg" xmlns:xlink="http://www.w3.org/1999/xlink" width="214.772" height="60.667" viewBox="0 0 214.772 60.667">
  <defs>
    <linearGradient id="linear-gradient" x1="0.5" y1="-0.763" x2="0.5" y2="0.917" gradientUnits="objectBoundingBox">
      <stop offset="0" stop-color="#fffff8"/>
      <stop offset="0.172" stop-color="#bee323"/>
      <stop offset="0.296" stop-color="#9ef200"/>
      <stop offset="0.812" stop-color="#70bb0a"/>
      <stop offset="1" stop-color="#4f9f06"/>
    </linearGradient>
    <linearGradient id="linear-gradient-2" x1="0.501" y1="-0.794" x2="0.501" y2="0.927" xlink:href="#linear-gradient"/>
    <linearGradient id="linear-gradient-3" x1="0.5" y1="-0.796" x2="0.5" y2="0.927" xlink:href="#linear-gradient"/>
    <linearGradient id="linear-gradient-4" x1="0.499" y1="-0.763" x2="0.499" y2="0.917" xlink:href="#linear-gradient"/>
    <linearGradient id="linear-gradient-5" x1="0.5" y1="-0.794" x2="0.5" y2="0.927" xlink:href="#linear-gradient"/>
    <linearGradient id="linear-gradient-6" x1="0.501" y1="-0.763" x2="0.501" y2="0.917" xlink:href="#linear-gradient"/>
    <linearGradient id="linear-gradient-7" x1="-0.683" y1="0.628" x2="1.579" y2="0.404" xlink:href="#linear-gradient"/>
    <linearGradient id="linear-gradient-8" x1="-0.769" y1="0.524" x2="0.853" y2="0.495" xlink:href="#linear-gradient"/>
    <linearGradient id="linear-gradient-9" x1="-1436.598" y1="89.308" x2="-1445.893" y2="97.928" xlink:href="#linear-gradient"/>
    <linearGradient id="linear-gradient-10" x1="-1444.682" y1="169.659" x2="-1455.437" y2="188.532" xlink:href="#linear-gradient"/>
    <linearGradient id="linear-gradient-11" x1="-748.967" y1="49.223" x2="-755.245" y2="55.433" xlink:href="#linear-gradient"/>
    <linearGradient id="linear-gradient-12" x1="-647.213" y1="36.353" x2="-653.07" y2="41.331" xlink:href="#linear-gradient"/>
    <linearGradient id="linear-gradient-13" x1="-619.794" y1="34.227" x2="-624.595" y2="38.217" xlink:href="#linear-gradient"/>
    <linearGradient id="linear-gradient-14" x1="-252.137" y1="210.74" x2="-253.666" y2="229.837" xlink:href="#linear-gradient"/>
    <linearGradient id="linear-gradient-15" x1="-360.044" y1="580.898" x2="-362.206" y2="632.914" xlink:href="#linear-gradient"/>
    <linearGradient id="linear-gradient-16" x1="-163.84" y1="90.205" x2="-165.149" y2="101.072" xlink:href="#linear-gradient"/>
    <linearGradient id="linear-gradient-17" x1="-114.766" y1="68.666" x2="-115.871" y2="78.76" xlink:href="#linear-gradient"/>
    <linearGradient id="linear-gradient-18" x1="-118.961" y1="63.18" x2="-120.034" y2="71.924" xlink:href="#linear-gradient"/>
  </defs>
  <g id="Group_108" data-name="Group 108" transform="translate(-89 -61.9)">
    <g id="Group_10" data-name="Group 10" transform="translate(89 61.9)">
      <g id="Group_1" data-name="Group 1" transform="translate(51.063 16.019)">
        <path id="Path_1" data-name="Path 1" d="M160.818,62.1a8.6,8.6,0,0,1-4,7.661,14.382,14.382,0,0,1-7.991,2.163,23.137,23.137,0,0,1-9.494-2.016l1.723-7.221a6.083,6.083,0,0,0,2.639,1.283,13.8,13.8,0,0,0,4.032.66c1.943,0,2.933-.55,2.933-1.65,0-.77-.99-1.356-2.933-1.8a21.547,21.547,0,0,1-5.5-1.723,6.1,6.1,0,0,1-2.933-5.645,9.075,9.075,0,0,1,3.409-7.185,12.589,12.589,0,0,1,8.468-2.933c4.252,0,7.038.513,8.394,1.5l-1.21,8.174c-3.042-1.65-5.389-2.456-7.038-2.456a1.833,1.833,0,0,0-1.943,1.063.976.976,0,0,0-.11.44c0,.66.99,1.246,2.969,1.723a18.889,18.889,0,0,1,5.535,1.979A6.7,6.7,0,0,1,160.818,62.1Z" transform="translate(-139.3 -43.7)" fill="url(#linear-gradient)"/>
        <path id="Path_2" data-name="Path 2" d="M228.768,72.166h-11l-1.063-2.749H208.46L207.4,72.166h-11L207.03,44.6h11.034Zm-14.516-9.054-1.65-4.289-1.686,4.289Z" transform="translate(-175.469 -44.27)" fill="url(#linear-gradient-2)"/>
        <path id="Path_3" data-name="Path 3" d="M315.86,72.229H304.826l-4.435-7.551h-.037v7.551H291.3V44.7h15.506a8.3,8.3,0,0,1,6.342,2.933,10.142,10.142,0,0,1,2.639,7.075,10.526,10.526,0,0,1-1.356,5.315,8.826,8.826,0,0,1-3.7,3.629Zm-9.054-17.412a2.627,2.627,0,0,0-.66-1.76,2.05,2.05,0,0,0-1.65-.733h-4.142v5.022H304.5a2.226,2.226,0,0,0,1.65-.733A2.653,2.653,0,0,0,306.806,54.817Z" transform="translate(-235.582 -44.333)" fill="url(#linear-gradient-3)"/>
        <path id="Path_4" data-name="Path 4" d="M392.952,57.813a14.076,14.076,0,1,1-24.047-9.971A13.643,13.643,0,0,1,378.913,43.7h8.944v9.054h-8.944a4.979,4.979,0,0,0-3.629,1.466,5.045,5.045,0,0,0,0,7.185,5.146,5.146,0,0,0,7.625-.477h-5.352V54.66h15.432v3.152Z" transform="translate(-282.139 -43.7)" fill="url(#linear-gradient-4)"/>
        <path id="Path_5" data-name="Path 5" d="M468.431,72.166h-11l-1.063-2.749H448.16L447.1,72.166h-11L446.73,44.6h11.034Zm-14.516-9.054-1.65-4.289-1.686,4.289Z" transform="translate(-327.303 -44.27)" fill="url(#linear-gradient-5)"/>
        <path id="Path_6" data-name="Path 6" d="M548.718,62.1a8.6,8.6,0,0,1-4,7.661,14.383,14.383,0,0,1-7.991,2.163,23.138,23.138,0,0,1-9.494-2.016l1.723-7.221a6.084,6.084,0,0,0,2.639,1.283,13.8,13.8,0,0,0,4.032.66c1.943,0,2.933-.55,2.933-1.65,0-.77-.99-1.356-2.933-1.8a21.548,21.548,0,0,1-5.5-1.723,6.1,6.1,0,0,1-2.932-5.645,9.075,9.075,0,0,1,3.409-7.185,12.59,12.59,0,0,1,8.468-2.933c4.252,0,7.038.513,8.394,1.5l-1.21,8.174c-3.042-1.65-5.389-2.456-7.038-2.456a1.834,1.834,0,0,0-1.943,1.063.976.976,0,0,0-.11.44c0,.66.99,1.246,2.969,1.723a18.891,18.891,0,0,1,5.535,1.979A6.623,6.623,0,0,1,548.718,62.1Z" transform="translate(-385.008 -43.7)" fill="url(#linear-gradient-6)"/>
      </g>
      <g id="Group_9" data-name="Group 9">
        <g id="Group_8" data-name="Group 8">
          <path id="Path_7" data-name="Path 7" d="M45.271.2c-.037.073-.037.037-.037.11V.383h0V.53c-.037.33-.293,2.163-.33,2.456-1.576,12.28,2.859,27.6-3.336,39.406a24.645,24.645,0,0,1-7.7,8.651,59.966,59.966,0,0,1-15.359,8.1c-2.823.99-5.535,1.063-8.431,1.5h-.073a2.85,2.85,0,0,1-1.1-.147.135.135,0,0,1-.11-.037H8.761a.036.036,0,0,1-.037-.037c-.11-.11-.257-.22-.367-.33l-.073-.073a2.033,2.033,0,0,1-.22-.293.19.19,0,0,1-.073-.147c-.22-.33-.44-.7-.66-1.026-.367-.587-.733-1.136-1.1-1.723-.22-.367-.477-.77-.7-1.136A51.617,51.617,0,0,1,2.786,50.42c-.183-.4-.367-.806-.513-1.21h0a30.355,30.355,0,0,1-2.2-9.054,18.762,18.762,0,0,1,.22-4.985h0a20.1,20.1,0,0,1,.623-2.456h0a7.131,7.131,0,0,1,.293-.806C5.022,21.461,12.793,13.8,22.287,8.741A47.622,47.622,0,0,1,27.273,6.4c.4-.183.806-.33,1.21-.477h0c.623-.257,1.21-.477,1.833-.7.22-.073.4-.147.623-.22a3.6,3.6,0,0,1,.587-.183c.587-.183,1.21-.367,1.833-.513,1.43-.367,2.9-.7,4.362-1.026l1.21-.33c.623-.183,1.21-.367,1.8-.55.22-.073.4-.147.623-.22.293-.11.55-.22.806-.33.513-.22.99-.477,1.5-.733C44.171.787,44.721.493,45.271.2Z" transform="translate(0 -0.127)" fill="url(#linear-gradient-7)"/>
          <path id="Path_9" data-name="Path 9" d="M45.3.293h0c-.037.11-.183.33-.4.77-.916,1.686-3.776,3.922-6.3,6.3-.806.77-1.613,1.576-2.383,2.419-.513.55-1.026,1.136-1.5,1.723h0c-.037.037-.037.073-.073.073h0c-.183.22-.33.4-.513.623a71.122,71.122,0,0,0-4.839,6.818c-.073.11-.11.183-.183.293-1.393,2.2-2.676,4.472-3.959,6.782-.7,1.283-1.356,2.529-2.053,3.812-.183.367-.367.733-.587,1.1h0c-1.21,2.309-2.383,4.619-3.556,6.891-1.21,2.346-2.529,4.949-3.812,7.625-.037.073-.037.11-.073.183-.99,2.053-1.943,4.179-2.823,6.232-.073.183-.147.33-.22.513,0,.037-.037.073-.037.11-.22.477-.4.99-.623,1.466-.293.7-.587,1.393-.843,2.089-.073.183-.147.367-.22.587v.037c-.257.733-.587,1.54-.88,2.309-.037.037-.037.11-.073.147-.147.4-.293.77-.44,1.136H8.861a.036.036,0,0,1-.037-.037c-.11-.11-.257-.22-.367-.33L8.384,59.9a2.033,2.033,0,0,1-.22-.293.278.278,0,0,1-.073-.147c-.22-.33-.44-.66-.66-1.026-.367-.587-.733-1.136-1.1-1.723-.22-.367-.477-.77-.7-1.136a51.616,51.616,0,0,1-2.749-5.279c-.183-.4-.33-.806-.513-1.21h0a30.355,30.355,0,0,1-2.2-9.054,18.762,18.762,0,0,1,.22-4.985h0a20.1,20.1,0,0,1,.623-2.456h0a7.131,7.131,0,0,1,.293-.806C5.782,19.575,15.643,11.144,27.336,6.232c.4-.183.806-.33,1.21-.477h0c.623-.257,1.21-.477,1.833-.7h0c.22-.073.4-.147.623-.22h0a3.6,3.6,0,0,1,.587-.183c.587-.183,1.21-.367,1.833-.513,1.43-.367,2.9-.7,4.362-1.026l1.21-.33c.623-.183,1.21-.33,1.8-.55.22-.073.4-.147.623-.22.293-.11.55-.22.806-.33.513-.22.99-.477,1.5-.733.55-.293,1.063-.587,1.65-.916L45.408,0a1.54,1.54,0,0,0-.073.183h0c-.037.037-.037.11-.073.183C45.041.7,45.225.4,45.3.293Z" transform="translate(-0.063 0)" fill="url(#linear-gradient-8)"/>
          <g id="Group_5" data-name="Group 5" transform="translate(6.415 4.912)">
            <g id="Group_4" data-name="Group 4" opacity="0.5">
              <g id="Group_3" data-name="Group 3">
                <path id="Path_10" data-name="Path 10" d="M77.1,21.2a17.773,17.773,0,0,1,1.943,6.6c.073,2.273-.806,3.886-1.466,5.938.55-2.163,1.32-3.886,1.246-6.232A18.373,18.373,0,0,0,77.1,21.2Z" transform="translate(-55.253 -18.341)" fill="url(#linear-gradient-9)"/>
                <path id="Path_11" data-name="Path 11" d="M95.86,13.4A7.282,7.282,0,0,1,94.1,20,8.112,8.112,0,0,0,95.86,13.4Z" transform="translate(-66.021 -13.4)" fill="url(#linear-gradient-10)"/>
                <path id="Path_12" data-name="Path 12" d="M57.957,32.7c1.393,3.262,3.226,5.535,3.446,9.311.257,4.509-1.979,9.018-3.7,13.16,1.576-4.179,3.629-8.724,3.409-13.16C60.926,38.272,59.2,35.962,57.957,32.7Z" transform="translate(-42.964 -25.625)" fill="url(#linear-gradient-11)"/>
                <path id="Path_13" data-name="Path 13" d="M35.7,48.7c2.529,4.325,4.4,8.211,4.289,13.343-.11,5.682-1.8,11.217-2.713,16.825.293-2.566,1.026-4.8,1.393-7.441a62.654,62.654,0,0,0,.953-10.154C39.476,56.471,37.973,52.769,35.7,48.7Z" transform="translate(-29.028 -35.76)" fill="url(#linear-gradient-12)"/>
                <path id="Path_14" data-name="Path 14" d="M17.5,68.5a41.528,41.528,0,0,1,4.362,16.129c.367,5.755-.257,10.484-.623,16.019.22-5.1.293-10.154.293-15.249A58.073,58.073,0,0,0,17.5,68.5Z" transform="translate(-17.5 -48.302)" fill="url(#linear-gradient-13)"/>
              </g>
              <path id="Path_15" data-name="Path 15" d="M88.37,42.522c-2.163-.147-4.729-.293-6.672.587-2.273,1.026-3.006,2.749-4.4,4.545,1.21-1.833,1.76-3.592,3.922-4.582C83.385,42.119,85.988,42.339,88.37,42.522Z" transform="translate(-55.379 -31.745)" fill="url(#linear-gradient-14)"/>
              <path id="Path_16" data-name="Path 16" d="M99.571,28.071a10.664,10.664,0,0,0-7.771,1.8A9.846,9.846,0,0,1,99.571,28.071Z" transform="translate(-64.564 -22.609)" fill="url(#linear-gradient-15)"/>
              <path id="Path_17" data-name="Path 17" d="M76.572,57.3c-3.3.367-6.158-.293-9.128,1.76-3.592,2.493-5.718,6.672-7.845,10.447,2.016-3.849,4-8.174,7.661-10.667C70.3,56.787,73.2,57.557,76.572,57.3Z" transform="translate(-44.167 -41.208)" fill="url(#linear-gradient-16)"/>
              <path id="Path_18" data-name="Path 18" d="M67.92,80.444C63.485,80.3,59.929,79.6,55.713,81.8c-2.859,1.5-5.352,4.326-7.478,6.891-1.76,2.126-3.006,4.8-4.435,7.148,3.006-5.022,6.085-10.594,11-13.783C59.269,79.051,63.008,80.3,67.92,80.444Z" transform="translate(-34.159 -55.627)" fill="url(#linear-gradient-17)"/>
              <path id="Path_19" data-name="Path 19" d="M50.6,111a28.567,28.567,0,0,0-14.7,5.5c-4.4,3.372-5.975,6.965-8.5,11.51.733-2.016,1.21-4.326,2.309-6.122,1.393-2.273,3.262-3.666,5.1-5.425C39.9,113.346,44.665,111.367,50.6,111Z" transform="translate(-23.771 -75.223)" fill="url(#linear-gradient-18)"/>
            </g>
            <path id="Path_20" data-name="Path 20" d="M51.9,24.1c-.293.33-.55.66-.806.99-.477.55-.916,1.1-1.32,1.613-.037.037-.037.073-.073.11-.147.183-.293.367-.44.587a51.252,51.252,0,0,0-3.482,5.059h0c-.183.33-.367.66-.587,1.026-.4.733-.843,1.54-1.283,2.456-.733,1.466-1.576,3.079-2.456,4.765l-.77,1.43c-2.236,4.252-4.655,8.8-6.635,12.72-.33.66-.66,1.283-.953,1.943h0c-.147.293-.293.55-.44.843-1.136,2.273-2.273,4.509-3.372,6.782-.99,2.053-2.016,4.142-3.006,6.268-.073.11-.11.257-.183.367-.7,1.5-1.5,3.116-2.236,4.619a.919.919,0,0,1-.147.257.135.135,0,0,1-.11-.037,1.788,1.788,0,0,0,.11-.257h0c.147-.367.33-.77.477-1.136.037-.037.037-.11.073-.147.183-.44.33-.843.477-1.21.147-.33.257-.66.4-.99V72.12h0c.33-.88.66-1.686.99-2.493.22-.55.44-1.136.7-1.686,0-.037.037-.073.037-.11a1.842,1.842,0,0,0,.183-.477c.623-1.5,1.32-3.006,2.089-4.692.257-.55.513-1.136.806-1.723.037-.073.037-.11.073-.183,2.2-4.655,5.132-10.484,7.588-15.066l.55-.99c.44-.806.88-1.576,1.246-2.273.183-.33.367-.66.55-.953,1.43-2.456,2.676-4.619,3.922-6.635.037-.073.11-.183.147-.257a71.308,71.308,0,0,1,4.912-7c.147-.183.33-.4.477-.623h0c.037-.037.037-.073.073-.073h0C50.286,25.933,51.056,25.016,51.9,24.1Z" transform="translate(-21.364 -20.178)" fill="#468b06"/>
            <path id="Path_21" data-name="Path 21" d="M101.267,20.846c.4-.44.843-.843,1.283-1.246-.44.4-.843.843-1.283,1.246a4.019,4.019,0,0,1-.367.4c.11-.11.22-.257.367-.4Z" transform="translate(-70.328 -17.327)" fill="#468b06"/>
          </g>
          <g id="Group_6" data-name="Group 6" transform="translate(1.561 4.142)">
            <path id="Path_22" data-name="Path 22" d="M40.087,11.3a70.065,70.065,0,0,0-8.578,3.043,61.627,61.627,0,0,0-8.028,4.179,45.614,45.614,0,0,0-13.2,12.207,31.838,31.838,0,0,0-4.069,8.028,27.052,27.052,0,0,0-1.393,8.871,26.058,26.058,0,0,0,1.686,8.834A33.618,33.618,0,0,0,10.8,64.452a33.2,33.2,0,0,1-4.619-7.881,25.706,25.706,0,0,1-1.906-8.944,26.414,26.414,0,0,1,1.32-9.091A32.5,32.5,0,0,1,9.7,30.325,40.341,40.341,0,0,1,15.82,23.47a48.931,48.931,0,0,1,7.368-5.425A54.945,54.945,0,0,1,31.4,14.013,55.474,55.474,0,0,1,40.087,11.3Z" transform="translate(-4.258 -11.3)" fill="#fcee21"/>
          </g>
          <g id="Group_7" data-name="Group 7" transform="translate(33.174 9.457)">
            <path id="Path_23" data-name="Path 23" d="M100.764,25.8c.147,3.666.33,7.295.44,10.96a84.707,84.707,0,0,1-.147,11,30.214,30.214,0,0,1-1.063,5.425,23.1,23.1,0,0,1-2.236,5.059A33.109,33.109,0,0,1,90.5,66.452a39.775,39.775,0,0,0,6.781-8.5,22.682,22.682,0,0,0,2.053-4.985,28.915,28.915,0,0,0,.99-5.315c.183-1.8.257-3.629.293-5.425.037-1.833.037-3.629.037-5.462v-5.5C100.654,29.429,100.691,27.6,100.764,25.8Z" transform="translate(-90.5 -25.8)" fill="#fcee21"/>
          </g>
          <path id="Path_24" data-name="Path 24" d="M80.743.2c-.037.073-.037.037-.037.11V.383h0V.53c-.037.33-.293,2.163-.33,2.456-1.576,12.28,2.859,27.6-3.336,39.406A24.682,24.682,0,0,1,56,17.869a25.1,25.1,0,0,1,1.723-9.128A47.623,47.623,0,0,1,62.708,6.4c.4-.183.806-.33,1.21-.477h0c.623-.257,1.21-.477,1.833-.7.22-.073.4-.147.623-.22a3.6,3.6,0,0,1,.587-.183c.587-.183,1.21-.367,1.833-.513,1.43-.367,2.9-.7,4.362-1.026l1.21-.33c.623-.183,1.21-.367,1.8-.55.22-.073.4-.147.623-.22.293-.11.55-.22.806-.33.513-.22.99-.477,1.5-.733.55-.33,1.1-.623,1.65-.916Z" transform="translate(-35.472 -0.127)" fill="#fff" opacity="0.35"/>
        </g>
        <path id="Path_26" data-name="Path 26" d="M51.052,48.169c-.733.623-1.54,1.246-2.309,1.906-.037.037-.11.073-.147.147-.4.33-.77.66-1.136.99a108.614,108.614,0,0,0-13.343,14c-.257.33-.513.623-.733.953-1.686,2.163-3.3,4.435-4.875,6.818A74.584,74.584,0,0,0,23.816,81.2a2.85,2.85,0,0,1-1.1-.147.919.919,0,0,1-.147.257.135.135,0,0,1-.11-.037,1.787,1.787,0,0,0,.11-.257h0a.036.036,0,0,1-.037-.037c-.11-.11-.257-.22-.367-.33l-.073-.073a2.032,2.032,0,0,1-.22-.293.278.278,0,0,1-.073-.147q1.1-2.914,2.309-5.718c.037-.11.11-.22.147-.33,1.54-3.519,3.262-6.965,5.132-10.337a.036.036,0,0,1,.037-.037c1.063-1.943,2.2-3.886,3.336-5.792.293-.477.623-1.136.916-1.686-.953.11-1.906.183-2.859.293a.624.624,0,0,0-.257.037c-1.54.147-3.079.293-4.582.44a50.131,50.131,0,0,1,4.839-7.038c.11-.147.22-.257.33-.4,2.163-2.713,4.692-5.609,7.221-8.248l.257-.257c1.76-1.833,3.519-3.519,5.169-4.985a1.594,1.594,0,0,0,.257-.22,34.687,34.687,0,0,1,3.812-2.933H47.9c.073-.037.147-.11.22-.147.037-.037.073-.037.11-.073-.843,1.466-1.723,2.933-2.529,4.4-.073.147-.183.293-.257.477-1.246,2.236-2.419,4.472-3.519,6.782-.11.257-.257.513-.367.77-.66,1.393-1.246,2.823-1.833,4.252C43.464,48.976,47.276,48.572,51.052,48.169Z" transform="translate(-13.809 -20.713)" fill="#fff"/>
        <path id="Path_27" data-name="Path 27" d="M41.9,144.256l.22-3.556c-.037.99-.073,1.98-.147,2.969A2.85,2.85,0,0,0,41.9,144.256Z" transform="translate(-26.541 -89.124)" fill="#39b54a"/>
      </g>
    </g>
  </g>
</svg>
