<svg xmlns="http://www.w3.org/2000/svg" width="247.981" height="68.853" viewBox="0 0 247.981 68.853">
  <path id="Union_9" data-name="Union 9" d="M2984.441,68.853h-.084a86.3,86.3,0,0,1,4.51-7.682c1.837-2.8,3.758-5.47,5.72-8.059l.877-1.128a129.334,129.334,0,0,1,15.658-16.535c.417-.375.876-.793,1.335-1.169a.75.75,0,0,1,.209-.167c.919-.751,1.879-1.5,2.756-2.255-4.468.459-8.935.96-13.361,1.461.669-1.712,1.378-3.382,2.13-5.052a8.981,8.981,0,0,1,.417-.919q1.943-4.072,4.135-8.017c.083-.167.208-.375.292-.543,1-1.712,2-3.465,3.007-5.178-.042.042-.083.042-.126.084-.084.042-.167.125-.25.167h-.042a36.98,36.98,0,0,0-4.509,3.424c-.125.084-.209.209-.334.292-1.921,1.67-4.009,3.674-6.1,5.846-.084.125-.209.209-.292.334-3.007,3.132-5.972,6.556-8.519,9.729l-.375.5a57.933,57.933,0,0,0-5.72,8.35c1.837-.209,3.632-.375,5.428-.543a1.043,1.043,0,0,1,.334-.041c1.128-.125,2.255-.209,3.382-.334-.292.626-.71,1.419-1.044,2-1.336,2.255-2.672,4.551-3.925,6.847a.041.041,0,0,0-.041.042c-2.213,3.966-4.218,8.059-6.054,12.192-.042.125-.125.25-.167.375-.626,1.42-1.253,2.923-1.837,4.384q-.251-.375-.5-.751c-.459-.668-.835-1.294-1.253-1.962-.25-.418-.543-.877-.793-1.294a63.6,63.6,0,0,1-3.132-6.013c-.209-.459-.417-.919-.584-1.378a34.585,34.585,0,0,1-2.506-10.313,21.356,21.356,0,0,1,.25-5.679,22.848,22.848,0,0,1,.71-2.8,8.848,8.848,0,0,1,.334-.96c4.3-11.858,13.195-20.627,24.009-26.431,1.837-.96,3.758-1.878,5.678-2.672.46-.167.919-.375,1.378-.543.669-.293,1.378-.543,2.088-.793.25-.084.459-.167.71-.251.209-.084.459-.125.668-.209.668-.209,1.378-.418,2.088-.584,1.669-.418,3.34-.752,4.969-1.169l1.378-.376a18.874,18.874,0,0,0,2.046-.626c.25-.084.459-.166.71-.25.292-.125.625-.25.918-.376.585-.25,1.169-.543,1.712-.835.585-.334,1.211-.668,1.838-1-.042.084-.042.041,0,.125V.376c-.042.375-.335,2.463-.376,2.8-1.8,13.988,3.3,31.441-3.8,44.886a28.057,28.057,0,0,1-8.769,9.854,66.988,66.988,0,0,1-17.5,9.228c-3.215,1.128-6.3,1.211-9.6,1.712Zm212.071-20.376,1.962-8.225a6.93,6.93,0,0,0,3.006,1.461,15.723,15.723,0,0,0,4.594.752c2.213,0,3.34-.626,3.34-1.879,0-.877-1.127-1.545-3.34-2.046a24.558,24.558,0,0,1-6.263-1.963,6.947,6.947,0,0,1-3.341-6.431,10.336,10.336,0,0,1,3.884-8.184,14.339,14.339,0,0,1,9.645-3.34c4.844,0,8.017.584,9.562,1.712l-1.378,9.311c-3.466-1.879-6.138-2.8-8.017-2.8a2.086,2.086,0,0,0-2.212,1.211,1.107,1.107,0,0,0-.126.5c0,.752,1.128,1.42,3.382,1.963a21.527,21.527,0,0,1,6.305,2.254,7.5,7.5,0,0,1,3.466,6.806,9.8,9.8,0,0,1-4.551,8.727,16.387,16.387,0,0,1-9.1,2.463A26.347,26.347,0,0,1,3196.512,48.477Zm-63.175-2.422a15.473,15.473,0,0,1-4.676-11.357,16.037,16.037,0,0,1,16.075-16.075h10.188V28.936h-10.188a5.671,5.671,0,0,0-4.134,1.67,5.793,5.793,0,1,0,8.685,7.641h-6.1V31.065h17.578V34.7h-.042a15.475,15.475,0,0,1-4.676,11.357,16.027,16.027,0,0,1-22.714,0Zm-98.791,2.422,1.962-8.225a6.929,6.929,0,0,0,3.007,1.461,15.716,15.716,0,0,0,4.593.752c2.213,0,3.341-.626,3.341-1.879,0-.877-1.128-1.545-3.341-2.046a24.558,24.558,0,0,1-6.263-1.963,6.947,6.947,0,0,1-3.341-6.431,10.339,10.339,0,0,1,3.884-8.184,14.339,14.339,0,0,1,9.645-3.34c4.844,0,8.017.584,9.562,1.712l-1.378,9.311c-3.466-1.879-6.138-2.8-8.017-2.8a2.087,2.087,0,0,0-2.212,1.211,1.106,1.106,0,0,0-.125.5c0,.752,1.127,1.42,3.381,1.963a21.527,21.527,0,0,1,6.305,2.254,7.585,7.585,0,0,1,3.466,6.806,9.8,9.8,0,0,1-4.551,8.727,16.387,16.387,0,0,1-9.1,2.463A26.345,26.345,0,0,1,3034.546,48.477ZM3182.733,50.4l-1.211-3.131h-9.353l-1.21,3.131h-12.527L3170.54,19h12.569l12.151,31.4Zm-7.767-10.313h3.758l-1.879-4.885ZM3113.378,50.4l-5.052-8.643h-.042v8.6h-10.313V19h17.662a9.452,9.452,0,0,1,7.223,3.341,11.552,11.552,0,0,1,3.006,8.059,11.988,11.988,0,0,1-1.545,6.054,10.049,10.049,0,0,1-4.217,4.134l5.846,9.812ZM3108.284,33.4H3113a2.534,2.534,0,0,0,1.878-.835,3.1,3.1,0,0,0,0-4.05,2.335,2.335,0,0,0-1.879-.835h-4.719Zm-25.6,16.994-1.211-3.131h-9.394l-1.211,3.131h-12.526L3070.455,19h12.568l12.192,31.4Zm-7.766-10.313h3.757L3076.8,35.2Z" transform="translate(-2973)" fill="#fff"/>
</svg>
