<?xml version="1.0" encoding="iso-8859-1"?>
<!-- Generator: Adobe Illustrator 19.0.0, SVG Export Plug-In . SVG Version: 6.00 Build 0)  -->
<svg version="1.1" id="Capa_1" xmlns="http://www.w3.org/2000/svg" xmlns:xlink="http://www.w3.org/1999/xlink" x="0px" y="0px"
	 viewBox="0 0 512 512" fill= "#8CC63F" width= "280" height= "180" style="enable-background:new 0 0 512 512;" xml:space="preserve">
<g>
	<g>
		<path d="M494.683,96.974H17.317C7.752,96.974,0,104.726,0,114.291v283.418c0,9.565,7.752,17.317,17.317,17.317h477.366
			c9.565,0,17.317-7.752,17.317-17.317V114.291C512,104.726,504.248,96.974,494.683,96.974z M477.366,380.392H34.634V131.608
			h442.733V380.392z"/>
	</g>
</g>
<g>
	<g>
		<path d="M442.554,194.531c-16.001-0.369-29.11-13.149-29.848-29.098c-0.433-9.236-8.047-16.509-17.299-16.509h-278.8
			c-9.253,0-16.872,7.267-17.299,16.509c-0.745,15.949-14.107,28.729-30.431,29.098c-9.409,0.214-16.924,7.902-16.924,17.311v87.738
			c0,9.409,7.516,17.097,16.924,17.311c16.607,0.381,29.693,12.878,30.426,29.081c0.421,9.241,8.041,16.526,17.299,16.526h278.223
			c9.253,0,16.872-7.267,17.305-16.514c0.739-15.943,14.107-28.723,30.426-29.092c9.409-0.214,16.924-7.902,16.924-17.311v-87.738
			C459.478,202.433,451.963,194.745,442.554,194.531z M424.839,284.867c-21,6.101-37.756,22.344-44.348,42.998H130.95
			c-6.592-20.659-23.349-36.896-44.366-42.998v-58.311c21.005-6.101,37.756-22.344,44.354-42.998h250.107
			c6.528,20.607,23.06,36.816,43.794,42.951V284.867z"/>
	</g>
</g>
<g>
	<g>
		<path d="M255.711,195.103c-33.421,0-60.609,27.187-60.609,60.609c0,33.421,27.187,60.609,60.609,60.609
			c33.421,0,60.609-27.187,60.609-60.609C316.32,222.29,289.133,195.103,255.711,195.103z M255.711,281.687
			c-14.321,0-25.975-11.654-25.975-25.975c0-14.321,11.654-25.975,25.975-25.975c14.321,0,25.975,11.654,25.975,25.975
			C281.687,270.032,270.032,281.687,255.711,281.687z"/>
	</g>
</g>
<g>
	<g>
		<path d="M120.063,238.972c-9.236,0-16.74,7.504-16.74,16.74c0,9.236,7.504,16.74,16.74,16.74c9.236,0,16.74-7.504,16.74-16.74
			C136.803,246.476,129.299,238.972,120.063,238.972z"/>
	</g>
</g>
<g>
	<g>
		<path d="M120.063,236.091c-10.823,0-19.626,8.803-19.626,19.626c0,10.823,8.803,19.626,19.626,19.626s19.626-8.808,19.626-19.626
			C139.689,244.894,130.886,236.091,120.063,236.091z M120.063,269.565c-7.637,0-13.853-6.217-13.853-13.853
			c0-7.637,6.217-13.853,13.853-13.853c7.643,0,13.853,6.217,13.853,13.853C133.917,263.348,127.706,269.565,120.063,269.565z"/>
	</g>
</g>
<g>
	<g>
		<path d="M391.36,238.972c-9.236,0-16.74,7.504-16.74,16.74c0,9.236,7.504,16.74,16.74,16.74s16.74-7.504,16.74-16.74
			C408.099,246.476,400.595,238.972,391.36,238.972z"/>
	</g>
</g>
<g>
	<g>
		<path d="M391.36,236.091c-10.817,0-19.62,8.803-19.62,19.626c0,10.823,8.803,19.626,19.62,19.626
			c10.823,0,19.626-8.808,19.626-19.626C410.985,244.894,402.183,236.091,391.36,236.091z M391.36,269.565
			c-7.637,0-13.848-6.217-13.848-13.853c0-7.637,6.211-13.853,13.848-13.853s13.853,6.217,13.853,13.853
			C405.213,263.348,398.996,269.565,391.36,269.565z"/>
	</g>
</g>
<g>
</g>
<g>
</g>
<g>
</g>
<g>
</g>
<g>
</g>
<g>
</g>
<g>
</g>
<g>
</g>
<g>
</g>
<g>
</g>
<g>
</g>
<g>
</g>
<g>
</g>
<g>
</g>
<g>
</g>
</svg>
