<svg xmlns="http://www.w3.org/2000/svg" xmlns:xlink="http://www.w3.org/1999/xlink" width="275.323" height="205.419" viewBox="0 0 275.323 205.419"><defs><style>.a,.ae{fill:#fff;}.b{fill:url(#a);}.c{fill:#006837;}.d{fill:#8cc63f;}.e{fill:#ffd600;}.f{fill:#8c6239;}.g{fill:#00377e;}.h{fill:#c69c6d;}.i{fill:#12122a;}.j{fill:#009245;}.k{fill:#d8ac80;}.l{fill:#43c950;}.m{fill:#39b54a;}.n{fill:#009b46;}.o{fill:#037c39;}.p{fill:#8f5420;}.q{fill:#9b5d24;}.r{fill:#a09a9d;}.s{fill:#a46128;}.t{fill:#bf6f2c;}.u{fill:#8b8487;}.v{fill:#817679;}.w{fill:#8e8183;}.x{fill:#978686;}.y{fill:#8c655d;}.z{fill:#94898c;}.aa{fill:#aea8a7;}.ab{fill:#bfbabc;}.ac{fill:#a76328;}.ad{fill:#80ad3a;}.ae{opacity:0.925;}.af{fill:#a67c52;}.ag{fill:#1e6cab;}.ah{fill:#e7ad00;}.ai{fill:#ff5f00;}.aj{fill:#fcf8f0;}.ak{fill:#6388f7;}.al{fill:#ffe54c;}</style><linearGradient id="a" y1="0.5" x2="1" y2="0.5" gradientUnits="objectBoundingBox"><stop offset="0" stop-color="#8cc63f"/><stop offset="1" stop-color="#009245"/></linearGradient></defs><g transform="translate(-49.677 -101.459)"><g transform="translate(-759.835 -207.146)"><g transform="translate(820.218 486.401)"><path class="a" d="M821.884,519.771a.681.681,0,0,1-.577-1.043l9.8-15.635a.681.681,0,0,1,1.154.723l-9.8,15.635A.68.68,0,0,1,821.884,519.771Z" transform="translate(-821.204 -502.774)"/><g transform="translate(5.229)"><path class="a" d="M827.594,519.771a.681.681,0,0,1-.576-1.043l9.8-15.635a.681.681,0,1,1,1.154.723l-9.8,15.635A.683.683,0,0,1,827.594,519.771Z" transform="translate(-826.914 -502.774)"/></g><g transform="translate(10.456)"><path class="a" d="M833.3,519.771a.681.681,0,0,1-.576-1.043l9.8-15.635a.681.681,0,1,1,1.154.723l-9.8,15.635A.681.681,0,0,1,833.3,519.771Z" transform="translate(-832.623 -502.774)"/></g><g transform="translate(15.685)"><path class="a" d="M839.013,519.771a.681.681,0,0,1-.576-1.043l9.8-15.635a.681.681,0,1,1,1.154.723l-9.8,15.635A.682.682,0,0,1,839.013,519.771Z" transform="translate(-838.333 -502.774)"/></g><g transform="translate(20.913)"><path class="a" d="M844.723,519.771a.681.681,0,0,1-.577-1.043l9.8-15.635a.681.681,0,1,1,1.154.723l-9.8,15.635A.68.68,0,0,1,844.723,519.771Z" transform="translate(-844.043 -502.774)"/></g><g transform="translate(26.141)"><path class="a" d="M850.432,519.771a.681.681,0,0,1-.576-1.043l9.8-15.635a.681.681,0,1,1,1.154.723l-9.8,15.635A.681.681,0,0,1,850.432,519.771Z" transform="translate(-849.752 -502.774)"/></g><g transform="translate(31.369)"><path class="a" d="M856.142,519.771a.681.681,0,0,1-.576-1.043l9.8-15.635a.681.681,0,0,1,1.155.723l-9.8,15.635A.681.681,0,0,1,856.142,519.771Z" transform="translate(-855.462 -502.774)"/></g><g transform="translate(36.598)"><path class="a" d="M861.851,519.771a.681.681,0,0,1-.576-1.043l9.8-15.635a.681.681,0,1,1,1.154.723l-9.8,15.635A.681.681,0,0,1,861.851,519.771Z" transform="translate(-861.172 -502.774)"/></g><g transform="translate(41.826)"><path class="a" d="M867.561,519.771a.681.681,0,0,1-.576-1.043l9.8-15.635a.681.681,0,1,1,1.154.723l-9.8,15.635A.681.681,0,0,1,867.561,519.771Z" transform="translate(-866.881 -502.774)"/></g><g transform="translate(47.055)"><path class="a" d="M873.272,519.771a.681.681,0,0,1-.576-1.043l9.8-15.635a.681.681,0,1,1,1.154.723l-9.8,15.635A.682.682,0,0,1,873.272,519.771Z" transform="translate(-872.592 -502.774)"/></g></g><g transform="translate(811.34 314.188)"><path class="b" d="M817.055,376.584a94.424,94.424,0,0,0,38.339,111.828c27.058,17.13,61.046,19.429,92.881,15.937,25.133-2.757,50.418-9.219,72.459-21.907,25.025-14.405,40.134-35.035,49.5-62.135,7.124-20.616,10.741-43.3,4.543-64.219s-24.022-39.359-45.755-41.226c-12.941-1.113-25.956,3.647-36.353,11.433s-18.376,18.417-24.732,29.746c-3.479,6.2-6.559,12.716-11.2,18.1s-11.254,9.606-18.36,9.408c-6.465-.181-12.333-3.965-16.882-8.562s-8.118-10.066-12.436-14.882c-13.129-14.643-30.637-21.547-49.982-18.221-18.2,3.129-34.083,14.552-40.856,31.613Q817.61,375.031,817.055,376.584Z" transform="translate(-811.508 -314.702)"/></g><g transform="translate(888.181 327.279)"><path class="c" d="M897.613,341.988a24.175,24.175,0,0,0,6.121,4.762l16.992,10.5c1.749,1.08,3.6,2.194,5.656,2.266,4.136.147,7.336-4.251,7.238-8.389s-2.59-7.833-5.391-10.88c-6.228-6.777-14.424-10.319-23.516-11.2C897.345,328.334,892.341,335.651,897.613,341.988Z" transform="translate(-895.426 -328.998)"/></g><g transform="translate(925.201 360.099)"><path class="d" d="M944.544,368.007c-1.2-3.327-6.3-4.509-8.171-1.2-1.83,3.241,1.514,6.866,4.95,6.315A4.1,4.1,0,0,0,944.544,368.007Z" transform="translate(-935.855 -364.841)"/></g><g transform="translate(809.513 445.864)"><path class="a" d="M829.257,490.518a1.821,1.821,0,0,1-1.322-.566,87.144,87.144,0,0,1-18.3-28.972,1.826,1.826,0,0,1,3.415-1.3,83.5,83.5,0,0,0,17.531,27.746,1.826,1.826,0,0,1-1.321,3.088Z" transform="translate(-809.513 -458.505)"/></g><g transform="translate(1060.266 322.851)"><path class="a" d="M1103.864,356.039a1.828,1.828,0,0,1-1.761-1.343,52.945,52.945,0,0,0-18.052-27.275,1.827,1.827,0,0,1,2.268-2.864,56.621,56.621,0,0,1,19.306,29.171,1.828,1.828,0,0,1-1.762,2.312Z" transform="translate(-1083.359 -324.162)"/></g><g transform="translate(827.406 335.608)"><path class="a" d="M830.881,352.023a1.827,1.827,0,0,1-1.4-3A31.9,31.9,0,0,1,848.77,338.11a1.827,1.827,0,1,1,.475,3.623c-6.038.792-12.7,4.576-16.967,9.64A1.822,1.822,0,0,1,830.881,352.023Z" transform="translate(-829.054 -338.095)"/></g><g transform="translate(937.656 501.656)"><path class="a" d="M960.012,530.562c-3.06,0-6.044-.132-8.9-.4a1.827,1.827,0,0,1,.345-3.638,114.546,114.546,0,0,0,49.06-6.96,1.827,1.827,0,0,1,1.343,3.4C989.639,527.792,974.028,530.562,960.012,530.562Z" transform="translate(-949.457 -519.434)"/></g><g transform="translate(995.392 498.943)"><path class="a" d="M1014.334,520.123a1.748,1.748,0,0,1-.356-.032,2.011,2.011,0,0,1-.339-.105,1.876,1.876,0,0,1-.314-.169,1.494,1.494,0,0,1-.282-.234,1.775,1.775,0,0,1-.533-1.283,1.874,1.874,0,0,1,.032-.363,1.73,1.73,0,0,1,.105-.34,1.877,1.877,0,0,1,.169-.314,2.26,2.26,0,0,1,.226-.282,1.845,1.845,0,0,1,1.646-.493,1.761,1.761,0,0,1,.346.105,1.58,1.58,0,0,1,.315.161,2.326,2.326,0,0,1,.274.226,1.7,1.7,0,0,1,.226.282,1.2,1.2,0,0,1,.169.314,1.73,1.73,0,0,1,.105.34,1.8,1.8,0,0,1,.032.363,1.775,1.775,0,0,1-.533,1.283,1.447,1.447,0,0,1-.274.234,2.8,2.8,0,0,1-.315.169,2.538,2.538,0,0,1-.339.105A1.867,1.867,0,0,1,1014.334,520.123Z" transform="translate(-1012.51 -516.472)"/></g><g transform="translate(919.271 495.129)"><path class="c" d="M929.4,518.4a7.381,7.381,0,0,0,3.445,6.527c5.663,3.715,18.442.244,13.948-8.52C943.788,510.552,930.024,510.749,929.4,518.4Z" transform="translate(-929.378 -512.306)"/></g><g transform="translate(1067.12 399.222)"><path class="e" d="M1093.9,413.134a25.708,25.708,0,0,0-2.741,8.454,8.525,8.525,0,0,0,.135,5.033,5.681,5.681,0,0,0,3.95,2.986c4.013.94,8.28-1.661,10.171-5.325,2.086-4.042,2.35-11.436-.719-15.141C1101.314,405.062,1095.848,409.816,1093.9,413.134Z" transform="translate(-1090.844 -407.567)"/></g><g transform="translate(963.258 308.605)"><path class="d" d="M978.41,321.253a9.571,9.571,0,0,0-.7,6.381c.937,2.994,4.2,4.839,7.334,4.869a14.7,14.7,0,0,0,8.639-3.3,18.049,18.049,0,0,0,6.086-7.223,10.7,10.7,0,0,0-.182-9.231C993.691,302.1,981.156,314.552,978.41,321.253Z" transform="translate(-977.416 -308.605)"/></g><g transform="translate(957.708 337.501)"><path class="c" d="M973.781,340.582a3.649,3.649,0,0,1,5.005,1.516,4.177,4.177,0,0,1-1.721,5.289c-3.748,2.016-7.725-2.766-4.558-5.918A4.524,4.524,0,0,1,973.781,340.582Z" transform="translate(-971.355 -340.162)"/></g><g transform="translate(887.819 454.148)"><path class="a" d="M896.461,467.8a.8.8,0,0,1,.241.585.84.84,0,0,1-.063.323.907.907,0,0,1-.178.272.825.825,0,0,1-.6.241.858.858,0,0,1-.314-.063.828.828,0,0,1-.271-.178.8.8,0,0,1-.188-.272.84.84,0,0,1-.063-.323.83.83,0,0,1,.251-.585.7.7,0,0,1,.271-.188A.836.836,0,0,1,896.461,467.8Zm7.816,0a.7.7,0,0,0-.272-.188.841.841,0,0,0-.909.188.739.739,0,0,0-.188.261.887.887,0,0,0-.062.324.875.875,0,0,0,.25.6.823.823,0,0,0,.272.178.811.811,0,0,0,.313.063.866.866,0,0,0,.324-.063.944.944,0,0,0,.272-.178,1.133,1.133,0,0,0,.178-.272.84.84,0,0,0,.062-.323.886.886,0,0,0-.062-.324A.911.911,0,0,0,904.277,467.8Zm6.906-.188a.692.692,0,0,0-.271.188.708.708,0,0,0-.178.261.718.718,0,0,0-.063.324.814.814,0,0,0,.512.773.814.814,0,0,0,.313.063.863.863,0,0,0,.324-.063.942.942,0,0,0,.272-.178.861.861,0,0,0,.241-.6.8.8,0,0,0-.241-.585A.841.841,0,0,0,911.183,467.611Zm8.725.188a.692.692,0,0,0-.273-.188.841.841,0,0,0-.909.188.7.7,0,0,0-.178.271.673.673,0,0,0-.072.314.858.858,0,0,0,.062.323.932.932,0,0,0,.188.272.846.846,0,0,0,1.182,0,.831.831,0,0,0,.24-.6.814.814,0,0,0-.062-.314A.835.835,0,0,0,919.909,467.8Zm6.906-.188a.7.7,0,0,0-.272.188.713.713,0,0,0-.188.271.8.8,0,0,0-.063.314.835.835,0,0,0,.523.773.807.807,0,0,0,.313.063.866.866,0,0,0,.324-.063.937.937,0,0,0,.271-.178.907.907,0,0,0,.178-.272.839.839,0,0,0,.063-.323.82.82,0,0,0-.241-.585A.843.843,0,0,0,926.815,467.611Zm7.543,1.368a.819.819,0,0,0,.273.178.807.807,0,0,0,.313.063.858.858,0,0,0,.323-.063.93.93,0,0,0,.272-.178,1.1,1.1,0,0,0,.178-.272.849.849,0,0,0,.072-.323.841.841,0,0,0-1.681,0,.84.84,0,0,0,.062.323A.93.93,0,0,0,934.358,468.979Zm-38.806,6.446a.72.72,0,0,0-.271.189.828.828,0,0,0-.251.585.845.845,0,0,0,.063.324.81.81,0,0,0,.188.272.843.843,0,0,0,.271.178.857.857,0,0,0,.314.062.831.831,0,0,0,.6-.24.918.918,0,0,0,.178-.272.845.845,0,0,0,.063-.324.8.8,0,0,0-.241-.585A.835.835,0,0,0,895.552,475.426Zm7.816,0a.717.717,0,0,0-.272.189.814.814,0,0,0-.25.585.877.877,0,0,0,.25.6.827.827,0,0,0,.585.24.865.865,0,0,0,.324-.062.963.963,0,0,0,.272-.178,1.151,1.151,0,0,0,.178-.272.844.844,0,0,0,.062-.324.822.822,0,0,0-.24-.585A.84.84,0,0,0,903.368,475.426Zm7.815,0a.713.713,0,0,0-.271.189.666.666,0,0,0-.178.272.647.647,0,0,0-.063.313.814.814,0,0,0,.512.774.813.813,0,0,0,.313.062.833.833,0,0,0,.6-.24,1.119,1.119,0,0,0,.178-.272.845.845,0,0,0,.063-.324.818.818,0,0,0-.241-.585A.84.84,0,0,0,911.183,475.426Zm7.543.189a.835.835,0,0,0-.25.585.844.844,0,0,0,.25.6.831.831,0,0,0,1.422-.6.808.808,0,0,0-.24-.585A.859.859,0,0,0,918.727,475.614Zm9,0a.838.838,0,0,0-.908-.189.724.724,0,0,0-.272.189.814.814,0,0,0-.251.585.845.845,0,0,0,.063.324.926.926,0,0,0,.188.272.848.848,0,0,0,.272.178.806.806,0,0,0,.313.062.865.865,0,0,0,.324-.062.956.956,0,0,0,.271-.178.863.863,0,0,0,.241-.6.877.877,0,0,0-.063-.323A.85.85,0,0,0,927.723,475.614Zm6.908-.189a.714.714,0,0,0-.273.189.831.831,0,0,0-.25.585.844.844,0,0,0,.062.324.824.824,0,0,0,.188.272.833.833,0,0,0,.273.178.806.806,0,0,0,.313.062.857.857,0,0,0,.323-.062.791.791,0,0,0,.45-.45.854.854,0,0,0,.072-.324.831.831,0,0,0-.25-.585A.843.843,0,0,0,934.631,475.426Zm-38.17,8a.836.836,0,0,0-.909-.188.92.92,0,0,0-.459.46.8.8,0,0,0-.063.314.869.869,0,0,0,.251.594.817.817,0,0,0,.585.241.823.823,0,0,0,.836-.835.854.854,0,0,0-.241-.586Zm6.907-.188a.714.714,0,0,0-.272.188.817.817,0,0,0-.25.586.873.873,0,0,0,.25.594.82.82,0,0,0,.585.241.848.848,0,0,0,.324-.063.907.907,0,0,0,.272-.178,1.127,1.127,0,0,0,.178-.271.843.843,0,0,0,.062-.323.808.808,0,0,0-.24-.586A.841.841,0,0,0,903.368,483.242Zm7.815,0a.711.711,0,0,0-.271.188.672.672,0,0,0-.178.272.651.651,0,0,0-.063.314.821.821,0,0,0,.241.594.85.85,0,0,0,.584.241.845.845,0,0,0,.324-.063.905.905,0,0,0,.272-.178.859.859,0,0,0,.241-.594.822.822,0,0,0-.241-.586A.841.841,0,0,0,911.183,483.242Zm7.543.188a.839.839,0,0,0-.25.586.862.862,0,0,0,.062.323.928.928,0,0,0,.188.271.831.831,0,0,0,1.422-.594.812.812,0,0,0-.24-.586A.861.861,0,0,0,918.727,483.43Zm8.088-.188a.917.917,0,0,0-.46.46.8.8,0,0,0-.063.314.834.834,0,0,0,.251.594.8.8,0,0,0,.272.178.791.791,0,0,0,.313.063.848.848,0,0,0,.324-.063.9.9,0,0,0,.271-.178,1.047,1.047,0,0,0,.178-.271.843.843,0,0,0,.063-.323.822.822,0,0,0-.241-.586A.839.839,0,0,0,926.815,483.242Zm7.543.188a.83.83,0,0,0-.188.909.926.926,0,0,0,.188.271.859.859,0,0,0,.586.241.841.841,0,0,0,.323-.063.9.9,0,0,0,.272-.178,1.1,1.1,0,0,0,.178-.271.853.853,0,0,0,.072-.323.835.835,0,0,0-.25-.586A.86.86,0,0,0,934.358,483.43Zm-37.9,7.816a.835.835,0,0,0-.909-.189.721.721,0,0,0-.271.189.711.711,0,0,0-.188.271.8.8,0,0,0-.063.314.835.835,0,0,0,.251.6.82.82,0,0,0,.585.24.821.821,0,0,0,.836-.835.849.849,0,0,0-.241-.585Zm7.544-.189a.836.836,0,0,0-.909.189.812.812,0,0,0-.25.585.838.838,0,0,0,.25.6.824.824,0,0,0,.272.178.794.794,0,0,0,.313.062.847.847,0,0,0,.324-.062.945.945,0,0,0,.272-.178.829.829,0,0,0,.24-.6.8.8,0,0,0-.24-.585A.718.718,0,0,0,904.005,491.057Zm8.087.189a.84.84,0,0,0-.909-.189.714.714,0,0,0-.271.189.669.669,0,0,0-.178.271.8.8,0,0,0-.063.314.814.814,0,0,0,.512.773.846.846,0,0,0,.637,0,.943.943,0,0,0,.272-.178.843.843,0,0,0,.241-.6.8.8,0,0,0-.063-.314A.819.819,0,0,0,912.093,491.246Zm6.634-.011a.835.835,0,0,0,0,1.191.828.828,0,0,0,.273.178.787.787,0,0,0,.313.062.836.836,0,0,0,.323-.062.949.949,0,0,0,.273-.178.833.833,0,0,0,.24-.6.851.851,0,0,0-.24-.6A.882.882,0,0,0,918.727,491.235Zm9,.011a.838.838,0,0,0-.908-.189.724.724,0,0,0-.272.189.813.813,0,0,0-.251.585.852.852,0,0,0,.063.324.923.923,0,0,0,.188.271.834.834,0,0,0,.272.178.79.79,0,0,0,.313.062.847.847,0,0,0,.324-.062.939.939,0,0,0,.271-.178.861.861,0,0,0,.241-.6.886.886,0,0,0-.063-.324A.856.856,0,0,0,927.723,491.246Zm6.635-.011a.877.877,0,0,0-.25.6.851.851,0,0,0,.062.324.939.939,0,0,0,.188.271.82.82,0,0,0,.273.178.79.79,0,0,0,.313.062.84.84,0,0,0,.323-.062.932.932,0,0,0,.272-.178,1.115,1.115,0,0,0,.178-.271.861.861,0,0,0,.072-.324.841.841,0,0,0-1.431-.6Zm-37.9,7.826a.837.837,0,0,0-.909-.188.7.7,0,0,0-.271.188.83.83,0,0,0-.251.585.85.85,0,0,0,.251.6.829.829,0,0,0,.271.178.84.84,0,0,0,.314.063.825.825,0,0,0,.6-.241,1.063,1.063,0,0,0,.178-.271.848.848,0,0,0,.063-.324.849.849,0,0,0-.241-.585Zm7.544-.188a.837.837,0,0,0-.909.188.815.815,0,0,0-.25.585.875.875,0,0,0,.25.6.824.824,0,0,0,.272.178.794.794,0,0,0,.313.063.848.848,0,0,0,.324-.063.945.945,0,0,0,.272-.178.826.826,0,0,0,.24-.6.806.806,0,0,0-.24-.585A.7.7,0,0,0,904.005,498.873Zm7.178,0a.692.692,0,0,0-.271.188.675.675,0,0,0-.178.271.655.655,0,0,0-.063.314.814.814,0,0,0,.512.773.835.835,0,0,0,.637,0,.943.943,0,0,0,.272-.178.861.861,0,0,0,.241-.6.82.82,0,0,0-.241-.585A.841.841,0,0,0,911.183,498.873Zm8.453,0a.848.848,0,0,0-1.159.773.879.879,0,0,0,.25.6.831.831,0,0,0,1.422-.6.81.81,0,0,0-.24-.585A.692.692,0,0,0,919.636,498.873Zm7.179,0a.7.7,0,0,0-.272.188.72.72,0,0,0-.188.271.8.8,0,0,0-.063.314.835.835,0,0,0,.523.773.791.791,0,0,0,.313.063.848.848,0,0,0,.324-.063.939.939,0,0,0,.271-.178,1.063,1.063,0,0,0,.178-.271.847.847,0,0,0,.063-.324.82.82,0,0,0-.241-.585A.839.839,0,0,0,926.815,498.873Zm7.816,0a.693.693,0,0,0-.273.188.833.833,0,0,0-.25.585.848.848,0,0,0,.062.324.938.938,0,0,0,.188.271.82.82,0,0,0,.273.178.791.791,0,0,0,.313.063.841.841,0,0,0,.323-.063.932.932,0,0,0,.272-.178,1.114,1.114,0,0,0,.178-.271.857.857,0,0,0,.072-.324.848.848,0,0,0-1.158-.773Z" transform="translate(-895.03 -467.551)"/></g><g transform="translate(846.245 328.77)"><g transform="translate(51.251 74.215)"><path class="f" d="M908.948,411.677c7.353,3.036,18.692,39.6,18.692,39.6l43.869-2.13,1.4,6.6s-45.029,11.681-50.371,9.114-16.938-24.7-16.938-24.7Z" transform="translate(-905.598 -411.677)"/><g transform="translate(1.323)"><path class="g" d="M909.07,411.677c5.483,1.372,10.251,11.861,13.327,19.508s7.472,19.333,7.472,19.333l19.569-1.238.855,12.939s-26.6,6.507-30.563,3.012S907.043,441,907.043,441Z" transform="translate(-907.043 -411.677)"/></g></g><g transform="translate(112.149)"><g transform="translate(7.243 142.461)"><path class="h" d="M981.814,486.208c-2.145,2.44-2.408,5.291-.593,6.653s-.929,2.98,1.249,4,1.1,4.147,3.808,3.925c2.682-.219,4.138-5.746,4.138-5.746Z" transform="translate(-980.015 -486.208)"/></g><g transform="translate(25.572 8.997)"><g transform="translate(27.18 128.471)"><path class="g" d="M1035.825,495.432l1.054,7.3-7.164,12.359,52.886,4.566s17.252-20.343,8.627-38.9Z" transform="translate(-1029.715 -480.755)"/></g><g transform="translate(71.706 131.073)"><path class="i" d="M1083.873,499.718c-1.477-.789-2.458-3.748-2.786-8.47a61.955,61.955,0,0,1-.069-6.463l-1.107.293a62.141,62.141,0,0,0,.082,6.235c.381,5.507,1.611,8.7,3.658,9.51a143.938,143.938,0,0,1-5.31,18.346l1.138.1c.944-2.656,1.954-5.687,2.891-8.874,3.516-11.965,4.565-20.958,3.134-26.8l-1.064.282C1085.469,488.12,1085.017,493.813,1083.873,499.718Z" transform="translate(-1078.341 -483.597)"/><g transform="translate(11.991 7.368)"><path class="i" d="M1095.336,492.6a.549.549,0,0,0-.389.4l-3.5,14.976a.548.548,0,0,0,.324.632l2.8,1.158q.235-.489.465-.993l-2.419-1,3.317-14.2,2.9-.8c0-.375-.009-.752-.025-1.129Z" transform="translate(-1091.436 -491.644)"/></g></g><g transform="translate(8.267 43.967)"><path class="c" d="M1016.887,425.786l-7.827-18.8s9.25-13.555,28.939-17.891c8.351-1.839,27.768.7,31.907,3.237l4.558,29.913s10.528,31.217,15.381,44.7c1.66,4.611,2.568,7.1,2.568,7.1l-59.837,15.994Z" transform="translate(-1009.06 -388.469)"/></g><g transform="translate(12.716 68.97)"><path class="j" d="M1021.158,437.769a.467.467,0,0,1-.467-.467V427.192l-6.7-10.7a.467.467,0,1,1,.791-.5l6.772,10.816a.463.463,0,0,1,.071.249V437.3A.468.468,0,0,1,1021.158,437.769Z" transform="translate(-1013.919 -415.774)"/></g><g transform="translate(0 62.487)"><path class="c" d="M1008.3,408.694c-3.422,4.306-8.267,27.007-8.267,27.007l18.123-7.409Z" transform="translate(-1000.032 -408.694)"/></g><g transform="translate(3.704)"><g transform="translate(5.407 6.164)"><path d="M1009.982,348.341s.1,5.4,1.088,16.249c.619,6.766,2.785-17.406,2.785-17.406Z" transform="translate(-1009.982 -347.184)"/></g><g transform="translate(0 23.204)"><path class="k" d="M1012.1,366.68s-7.85-3.485-8.02,3.362c-.188,7.53,9.476,3.723,9.476,3.723Z" transform="translate(-1004.077 -365.794)"/></g><g transform="translate(6.768)"><path class="h" d="M1041.035,387.1l.312-20.28s8.16,1.393,7.735-5.019c-.379-5.713-6.569-5.14-9.078-2.015,0,0,2.078-20.5-15.173-19.284-6.123.433-10.5,2.5-12.418,6.716-.961,2.117-.929,3.618-.943,8.04a135.621,135.621,0,0,0,.614,15.413c1.508,9.94,9.408,13.536,14.635,13.188l.6,6.148s.463,5.391,5.5,4.772C1039.527,393.957,1041.035,387.1,1041.035,387.1Z" transform="translate(-1011.469 -340.453)"/></g><g transform="translate(28.878 9.449)"><path d="M1035.707,350.772s-.918,6.759,3.005,9.182c0,0,1.326,2.818,3.009,2.5l.319-1.8-1.181-5.742Z" transform="translate(-1035.614 -350.772)"/></g><g transform="translate(6.311 14.808)"><path d="M1011.428,356.624s.436,12.374,2.488,17.736c0,0,8.808-7.973,15.261-5.786a13.167,13.167,0,0,1,4.653,3.187l2.234-2.691.57-8.622,3.009,2.5s.857,13.966-3.254,18.6-12.362,5.386-16.687,3.936-7.313-6.429-8.072-12.3C1010.273,362.7,1011.428,356.624,1011.428,356.624Z" transform="translate(-1010.97 -356.624)"/></g><g transform="translate(11.03 19.927)"><path d="M1019.74,363.513a1.851,1.851,0,1,1-2.318-1.213A1.85,1.85,0,0,1,1019.74,363.513Z" transform="translate(-1016.122 -362.215)"/></g><g transform="translate(19.439 18.705)"><path d="M1028.923,362.179a1.85,1.85,0,1,1-2.318-1.214A1.849,1.849,0,0,1,1028.923,362.179Z" transform="translate(-1025.306 -360.88)"/></g><g transform="translate(36.92 19.257)"><path d="M1044.85,365.762a.445.445,0,0,1-.442-.411,3.592,3.592,0,0,1,4.513-3.749.445.445,0,0,1-.231.86,2.7,2.7,0,0,0-3.4,2.819.446.446,0,0,1-.409.479Z" transform="translate(-1044.398 -361.483)"/></g><g transform="translate(37.812 20.427)"><path d="M1047.139,364.9a.444.444,0,0,1-.306-.122l-1.323-1.251a.445.445,0,0,1,.612-.646l1.323,1.251a.445.445,0,0,1-.306.768Z" transform="translate(-1045.371 -362.761)"/></g><g transform="translate(18.983 12.284)"><path d="M1025.253,355.948a.445.445,0,0,1-.269-.8,6.423,6.423,0,0,1,6.3-.793.445.445,0,1,1-.347.82,5.519,5.519,0,0,0-5.415.681A.444.444,0,0,1,1025.253,355.948Z" transform="translate(-1024.808 -353.868)"/></g><g transform="translate(8.465 14.247)"><path d="M1013.767,358.4a.445.445,0,0,1-.351-.72,4.686,4.686,0,0,1,6.114-.93.445.445,0,0,1-.506.733,3.76,3.76,0,0,0-4.906.746A.444.444,0,0,1,1013.767,358.4Z" transform="translate(-1013.322 -356.012)"/></g><g transform="translate(25.415 22.594)"><path class="k" d="M1032.111,368.977a2.663,2.663,0,1,0,1.2-3.57A2.663,2.663,0,0,0,1032.111,368.977Z" transform="translate(-1031.833 -365.128)"/></g><g transform="translate(8.178 24.662)"><path class="k" d="M1013.287,371.235a2.663,2.663,0,1,0,1.2-3.57A2.663,2.663,0,0,0,1013.287,371.235Z" transform="translate(-1013.008 -367.385)"/></g></g><g transform="translate(18.666 20.151)"><path class="i" d="M1021.2,369.285a.445.445,0,0,1-.359-.182,1.734,1.734,0,0,1-.367-1.531,2.071,2.071,0,0,1,1.02-1.169l.622-3.575a.445.445,0,1,1,.876.153l-.66,3.8a.444.444,0,0,1-.269.335,1.348,1.348,0,0,0-.732.7.907.907,0,0,0,.228.762.445.445,0,0,1-.1.622A.44.44,0,0,1,1021.2,369.285Z" transform="translate(-1020.417 -362.46)"/></g><g transform="translate(19.896 27.75)"><path class="a" d="M1022.3,374.62a.537.537,0,0,1,0-1.073c2.228-.009,3.347-.72,3.744-2.377a.537.537,0,1,1,1.044.25c-.514,2.144-2.078,3.19-4.784,3.2Z" transform="translate(-1021.76 -370.759)"/></g></g><g transform="translate(0 72.65)"><path class="l" d="M991.849,416.1a.543.543,0,0,1,.371-.288,40.784,40.784,0,0,0,4.616-2.071,19.526,19.526,0,0,0,4.551-2.847c.108-.1.211-.272.407-.147a1.663,1.663,0,0,1,.244.532c.639,1.722,1.287,3.441,1.913,5.169.058.6-.348.952-.724,1.3a17.7,17.7,0,0,1-2.148,1.515,2.891,2.891,0,0,0-1.146,3.4,1.034,1.034,0,0,1,.4.623c.311.825.611,1.654.924,2.479a2.276,2.276,0,0,0,1.019,1.281,1.275,1.275,0,0,0,1.287-.074,11.971,11.971,0,0,0,2.9-2.281c.081-.1.159-.207.288-.21l.041-.1a.684.684,0,0,1-.125-.431.114.114,0,0,1,.113-.116l1.388,3.571a2.183,2.183,0,0,0,.011.372,3.032,3.032,0,0,1-.864,2.725,13.617,13.617,0,0,1-2.3,1.8.347.347,0,0,1-.223.138,5.537,5.537,0,0,1-5.452-1.089,12.735,12.735,0,0,1-3.163-4.447c-.824-1.735-1.459-3.556-2.131-5.356-.067-.18-.082-.39-.25-.525l-1.61-4.327A1.307,1.307,0,0,0,991.849,416.1Z" transform="translate(-973.77 -410.03)"/><path class="m" d="M1022.115,444.421c-.608-1.636-1.133-3.309-1.839-4.9-2.275-5.133-5.924-8.776-11.47-10.278a7.609,7.609,0,0,0-1.641-.294c-.183.157-.123.358-.1.549a2.914,2.914,0,0,1-.855,2.439,6.5,6.5,0,0,1-1.654,1.348,5.81,5.81,0,0,0-.684.516,5.354,5.354,0,0,1-1.132.468,1.231,1.231,0,0,0-.67.41c-.163.376-.559.452-.863.6-1.642.781-3.185,1.749-4.815,2.548-1.936.95-3.856,1.934-5.823,2.82a29.768,29.768,0,0,0-4.976,2.911,17.755,17.755,0,0,0-3.521,3.165,8.349,8.349,0,0,0-1.953,3.619,5.922,5.922,0,0,0,.822,4.239c1.3,2.244,2.646,4.451,4.141,6.569a2.045,2.045,0,0,0,.57.639c.255.073.494-.08.745-.048a16.307,16.307,0,0,0,2.316-.5c3.2-.853,6.341-1.868,9.448-3.007.942-.345,1.938-.565,2.855-.975,2.3-1.027,4.681-1.836,6.972-2.886a80.959,80.959,0,0,0,7.508-3.782,26.5,26.5,0,0,0,5.289-3.892,7.058,7.058,0,0,0,1.245-1.62C1022.143,444.871,1022.277,444.662,1022.115,444.421Z" transform="translate(-972.772 -411.569)"/><path class="j" d="M990.108,501.72a14.334,14.334,0,0,0,6.281,6.817,19.866,19.866,0,0,0,12.242,2.376A40.916,40.916,0,0,0,1030.219,502a16.76,16.76,0,0,0,5.525-7.89c.074-.22.116-.45.173-.675-.253-.295-.375.027-.488.135-.48.46-.886.99-1.375,1.443a22.541,22.541,0,0,1-6.24,4.066,25.8,25.8,0,0,1-5.474,1.751,20.221,20.221,0,0,1-11.317-.558,10.172,10.172,0,0,1-2.3-1.291,1.01,1.01,0,0,0-.691-.252.917.917,0,0,0-.18.025c-2.232.734-4.458,1.485-6.722,2.115a30.433,30.433,0,0,1-7.662,1.377,4.655,4.655,0,0,1-3.2-.895c-.079-.065-.172-.137-.3-.063A.487.487,0,0,0,990.108,501.72Z" transform="translate(-973.61 -416.996)"/><path class="j" d="M987.409,495.453a.09.09,0,0,0-.074.052,4.851,4.851,0,0,0,1.939.488,26.075,26.075,0,0,0,6.316-.528c2.48-.432,4.874-1.2,7.309-1.812a1.551,1.551,0,0,0,.77-.362c.168-.275-.02-.436-.2-.594-1.506-1.367-2.979-2.77-4.372-4.251a54.126,54.126,0,0,1-7.056-8.976,28.242,28.242,0,0,1-2.116-4.417c-.629-1.609-1.208-3.239-1.814-4.857a1.365,1.365,0,0,0-.42-.737.431.431,0,0,0-.17-.057c-1.084.147-2.131.486-3.212.657a15.981,15.981,0,0,1-3.643.244,5.575,5.575,0,0,1-2.066-.551c-.167-.081-.434-.4-.568.066a7.015,7.015,0,0,0,.25.714q4.456,12,8.913,24a6.15,6.15,0,0,1,.247.713A.415.415,0,0,1,987.409,495.453Z" transform="translate(-972.605 -414.98)"/><path class="j" d="M985.079,460.7c-.558-.83-1.108-1.665-1.675-2.488-.89-1.294-1.695-2.639-2.464-4.007-.307-.544-.665-1.065-.916-1.633a5.272,5.272,0,0,1-.394-2.985,8.146,8.146,0,0,1,2.18-4.048,23.221,23.221,0,0,1,6.024-4.653c1.545-.906,3.219-1.55,4.8-2.371,1.743-.9,3.546-1.685,5.235-2.7,1.1-.661,2.28-1.185,3.427-1.766.145-.073.32-.1.265-.331a.906.906,0,0,0-.727.088c-.864.31-1.719.645-2.584.952-.692.245-.895.161-1.149-.53-1.568-4.255-3.2-8.485-4.751-12.748-.514-1.439-1.057-2.868-1.591-4.3a1.1,1.1,0,0,0-.411-.616.372.372,0,0,0-.306-.025c-.184.313,0,.594.1.87q1.839,4.983,3.694,9.959c.062.168.117.341.187.505.157.372.067.619-.332.744a1.217,1.217,0,0,0-.529.252c-.029.042-.078.089-.07.136.114.622-.251.935-.743,1.169-.132.1-.347.145-.268.389a7.711,7.711,0,0,1,1.223.105,2.115,2.115,0,0,1,1.414,2.857,8.29,8.29,0,0,1-1.589,2.364,4.752,4.752,0,0,1-2.036,1.069,40.793,40.793,0,0,1-5.862,1.645c-.655.135-.841-.1-.639-.735.033-.1.076-.2.112-.3.341-.966.163-1.339-.818-1.667a4.046,4.046,0,0,1-1.326-.548.173.173,0,0,1,.114-.179c1.432-.671,2.811-1.45,4.258-2.1,1.329-.593,2.584-1.346,3.968-1.825.144-.049.414-.113.23-.395a2.932,2.932,0,0,0-1.152.31,5.292,5.292,0,0,1-1.222.334,1.131,1.131,0,0,1-1.247-.334,1.412,1.412,0,0,0-1.007.292,35.662,35.662,0,0,0-4.531,2.8c-.359.255-.447.239-.619-.189-.208-.516-.395-1.042-.584-1.565a6.3,6.3,0,0,0-.605-1.319c-.41-1.07-.8-2.149-1.2-3.22-.081-.213-.127-.455-.363-.572-.336.242-.144.56-.038.783a12.376,12.376,0,0,1,.613,1.7,2.484,2.484,0,0,1,.34.755,2.95,2.95,0,0,1,.168.95c.548,1.754,1.263,3.447,1.875,5.175a10.962,10.962,0,0,1,.5,1.482c.127.64.057.737-.584.754a3.376,3.376,0,0,1-3.092-1.3.29.29,0,0,0-.169-.063,15.19,15.19,0,0,0-5.014,9.116,17.938,17.938,0,0,0,.545,8.257c.729,1.96,1.471,3.915,2.174,5.885.029.4.352.455.644.533a10.5,10.5,0,0,0,3.416.208,35.28,35.28,0,0,0,4.52-.609C984.721,460.974,984.962,460.952,985.079,460.7Z" transform="translate(-972.176 -410.52)"/><path class="m" d="M1009.731,497.954c.124.1.283.054.431.164a13.063,13.063,0,0,0,6.04,2.318,25.415,25.415,0,0,0,7.578-.253,14.977,14.977,0,0,0,2.435-.643c.646-.214,1.321-.323,1.955-.591a27.38,27.38,0,0,0,6.008-3.292,23.52,23.52,0,0,0,3.151-3.006c.078-.086.13-.177.256-.085a14.663,14.663,0,0,0-.345-9.553c-.211.06-.251.246-.289.418a4.939,4.939,0,0,1-1.536,2.427,18.815,18.815,0,0,1-3.7,2.6c-1.895,1.113-3.887,2.03-5.874,2.959-1.351.632-2.732,1.2-4.106,1.777-3.7,1.559-7.481,2.9-11.237,4.3C1010.218,497.6,1009.892,497.645,1009.731,497.954Z" transform="translate(-975.278 -416.128)"/><path class="l" d="M1022.607,445.845a5.028,5.028,0,0,1-1.56,2.275,27.452,27.452,0,0,1-4.511,3.345,59.349,59.349,0,0,1-5.37,2.9c-1.417.688-2.877,1.282-4.3,1.953-1.307.615-2.7.987-4,1.6a21.059,21.059,0,0,1-3,1.187c-1.469.433-2.869,1.051-4.327,1.5-1.4.43-2.787.934-4.2,1.331-1.5.419-3.015.749-4.523,1.118-.873.082-1.08.551-.919,1.283a6.53,6.53,0,0,0,.814,2.256,1.593,1.593,0,0,0,1.52.891h0c.661.235,1.239-.143,1.823-.3,1.871-.519,3.7-1.175,5.547-1.773,2.793-.906,5.544-1.924,8.268-3,2.489-.985,4.982-1.966,7.433-3.053,2.253-1,4.489-2.036,6.659-3.2a20.117,20.117,0,0,0,4.77-3.317,5.749,5.749,0,0,0,1.272-1.858c.029-.05.058-.1.087-.153a1.122,1.122,0,0,0,.026-.481c.008-.146-.024-.289-.026-.436a12.109,12.109,0,0,0,0-2.346,5.127,5.127,0,0,0-.226-.93C1023.61,445.938,1023.332,445.778,1022.607,445.845Z" transform="translate(-973.263 -412.992)"/><path class="l" d="M1009.418,497.572q4.152-1.542,8.3-3.084c1.365-.5,2.688-1.112,4.044-1.64,1.751-.681,3.486-1.424,5.163-2.268,1.433-.722,2.9-1.378,4.281-2.218a28.222,28.222,0,0,0,3.363-2.2,6.273,6.273,0,0,0,2.149-2.763c.087-.255.016-.548.205-.771.006-.645.023-1.29.014-1.934a3.671,3.671,0,0,0-.359-1.619.854.854,0,0,0-1.137-.53.936.936,0,0,0-.318.332,11.894,11.894,0,0,1-3.494,3.55,44.532,44.532,0,0,1-7.111,4.164c-2.372,1.165-4.8,2.2-7.248,3.2-2.349.961-4.74,1.8-7.107,2.709-.618.238-1.289.328-1.9.6-.561.243-1.141.441-1.715.65a.714.714,0,0,0-.526.82,3.322,3.322,0,0,0,2.39,3,2.65,2.65,0,0,0,.9.033Z" transform="translate(-974.965 -415.746)"/><path class="n" d="M1007.783,498.956a3.718,3.718,0,0,1-2.588-1.384,3.271,3.271,0,0,1-.576-1.966c-.021-.218.2-.272.365-.334l1.763-.655a.194.194,0,0,0-.252-.138,4.407,4.407,0,0,0-2.015.864c-1.5.476-3.028.836-4.54,1.259a45.691,45.691,0,0,1-4.706,1.019,23.418,23.418,0,0,1-5.186.342c-.65-.035-1.239-.353-1.89-.344-.414.287-.365.707-.286,1.109a3.657,3.657,0,0,0,1.242,2.131,2.859,2.859,0,0,1,.812.959l-.093-.375a5.192,5.192,0,0,0,4.055,1.048,30.963,30.963,0,0,0,6.411-1.2c1.791-.508,3.576-1.027,5.339-1.63C1006.35,499.418,1007.077,499.218,1007.783,498.956Z" transform="translate(-973.43 -417.094)"/><path class="n" d="M987.218,468.568c-1.191-.249-1.614-1.188-1.926-2.2-.067-.215-.1-.451-.178-.669-.319-.874-.155-1.249.689-1.563-.246-.117-.431.083-.647.124a20.56,20.56,0,0,1-3.621.642,13.842,13.842,0,0,1-4.84-.054c-.24-.06-.5-.087-.649-.331-.257-.955-.663-1.858-.994-2.786-.3-.846-.619-1.687-.94-2.526-.061-.161-.064-.362-.245-.461a1.983,1.983,0,0,0,.238.819q.834,2.277,1.688,4.547c.1.255.181.455-.068.719a.983.983,0,0,0-.11,1.022,2.723,2.723,0,0,1,.382,1,2.7,2.7,0,0,0,.89,1.128,2.172,2.172,0,0,1,.747,1.072q4.627,12.495,9.27,24.984c.062.168.1.342.154.515l.123-.049a1.656,1.656,0,0,0-.185-.614q-4.644-12.518-9.295-25.035c-.013-.034-.041-.065-.039-.093,0-.06.03-.063.061-.01,1.98,1.177,4.1.891,6.21.562A24.437,24.437,0,0,0,987.218,468.568Z" transform="translate(-972.253 -414.081)"/><path class="o" d="M1000.677,423.725c.412,1.113.809,2.232,1.243,3.337a1.766,1.766,0,0,0,1.13,1.207,3.188,3.188,0,0,0,1.912-.864,8.674,8.674,0,0,0,1.7-1.384,1.689,1.689,0,0,0,.253-2.184,1.8,1.8,0,0,0-1.086-.5c-.571.091-1.138-.125-1.71-.031a10.65,10.65,0,0,0-2.531.357c.064-.011.172-.017.2-.147Z" transform="translate(-974.514 -411.091)"/><path class="m" d="M991.6,416.041a46.408,46.408,0,0,0,5.584-2.505,32.965,32.965,0,0,0,3.371-1.98,3.045,3.045,0,0,0,.911-.9c.168.11.169.306.229.466.59,1.571,1.17,3.147,1.76,4.718.06.161.065.358.242.46.052-.212-.074-.383-.141-.563-.609-1.656-1.248-3.3-1.826-4.967a1.057,1.057,0,0,0-1.117-.8,14.041,14.041,0,0,0-3.151.4,62.085,62.085,0,0,0-8.536,2.5.125.125,0,0,0,.075.152,11.884,11.884,0,0,0,2.279-.611,41.055,41.055,0,0,1,6.955-1.732,8.19,8.19,0,0,1,1.347-.081c.2,0,.427,0,.511.22s-.082.378-.22.516a8.677,8.677,0,0,1-1.884,1.345c-1.952,1.123-4.011,2.032-6.057,2.963-.178.081-.378.133-.462.342Z" transform="translate(-973.523 -409.968)"/><path class="j" d="M1007.133,423.888c-.135.273.2.395.19.68a2.455,2.455,0,0,1-1.27,2.044c-.4.267-.745.61-1.154.873a7.309,7.309,0,0,1-1.63.835,1.473,1.473,0,0,0,1.462-.183c.715-.472,1.42-.957,2.087-1.5a3.553,3.553,0,0,0,.874-1,.417.417,0,0,0,.112-.267l-.114-.413a1.725,1.725,0,0,0-.281-.722A.458.458,0,0,0,1007.133,423.888Z" transform="translate(-974.733 -411.142)"/><path class="m" d="M972.111,420.954h0c-.059-.452.284-.674.559-.913a15.658,15.658,0,0,1,2.89-1.866,75.9,75.9,0,0,1,8.1-3.656,36.7,36.7,0,0,1,3.849-1.383l.034.109c-.133.307-.442.343-.7.448-1.783.713-3.606,1.316-5.37,2.087a60.9,60.9,0,0,0-5.668,2.737,6.7,6.7,0,0,0-2.446,1.9c-.031.024-.061.049-.092.075a3.508,3.508,0,0,0,1.949.169c.31-.032.623-.185.94-.029a.231.231,0,0,1-.047.316,7.436,7.436,0,0,1-3.44.469c-.089,0-.158-.076-.231-.126l-.136-.063-.124-.074Z" transform="translate(-972.105 -410.235)"/><path class="m" d="M1005.189,433.261a5.748,5.748,0,0,1-5.745-1.218,13.7,13.7,0,0,1-2.97-4.269,56.6,56.6,0,0,1-2.247-5.4c-.054-.147-.072-.324-.256-.387q2.406,6.479,4.812,12.958c.229.615.492.742,1.115.514,1.149-.419,2.295-.851,3.442-1.276.244-.326.656-.3.974-.477C1004.6,433.546,1004.978,433.57,1005.189,433.261Z" transform="translate(-973.949 -410.981)"/><path class="o" d="M973.277,420.222a.863.863,0,0,0,.814.412,6.6,6.6,0,0,0,2.11-.236c.34,1.14.776,2.244,1.2,3.354a3.37,3.37,0,0,0,.583,1.191,1.087,1.087,0,0,0,.769-.158c1.206-.546,2.405-1.1,3.647-1.564a6.368,6.368,0,0,1,1.722-.388c.269-.027.415-.234.587-.4a4.282,4.282,0,0,1,.91-.59c.43-.287.776-.729,1.361-.729a11.043,11.043,0,0,1,1.387-.29,6.387,6.387,0,0,1,.845-.158.594.594,0,0,1,.635.3c.236.224.568.2.844.324.407.177.443.319.19.732-.181.264-.543.279-.73.535a.819.819,0,0,0,.081.674c.2.444.245.936.466,1.369.135.15.319.121.491.132.243.015.452.076.529.345.342,1,.748,1.975,1.1,2.969a.66.66,0,0,0,.346.453,1.8,1.8,0,0,1,.749-.265c.442-.133.555-.31.372-.771-.564-1.422-1.077-2.865-1.61-4.3q-1.213-3.266-2.422-6.534c-.07-.19-.238-.377-.1-.608a51.957,51.957,0,0,0,7.455-3.7,5.04,5.04,0,0,0,1.173-.939c.153-.177.342-.347.239-.614-.113-.289-.388-.3-.637-.3a14.794,14.794,0,0,0-3.408.426,76.2,76.2,0,0,0-7.332,2.126c-1.346.5-2.7.988-4.035,1.518a54.04,54.04,0,0,0-8.66,4.136A3.912,3.912,0,0,0,973.277,420.222Z" transform="translate(-972.204 -410.01)"/><path class="n" d="M976.111,421.569a10.094,10.094,0,0,1-3.643.432q2.869,7.727,5.734,15.458c.071.19.3.409.013.62a2.927,2.927,0,0,0,2.757,1.5,1.559,1.559,0,0,0,.16-.01c1.436-.019,1.335-.02.913-1.323-.7-2.15-1.55-4.249-2.337-6.368l-.034-.1c-.565-1.666-1.206-3.3-1.8-4.96a3.051,3.051,0,0,1-.22-.721,24.249,24.249,0,0,0-.982-2.85C976.477,422.692,976.274,422.138,976.111,421.569Z" transform="translate(-972.135 -410.946)"/><path class="m" d="M992.03,432.18c-.065.059-.121.146-.2.169a39.44,39.44,0,0,0-4.595,2.078c-1.432.635-2.807,1.4-4.274,2.145a4.966,4.966,0,0,0,1.285.628c.138.038.282.06.419.1.939.3,1.093.638.729,1.543-.135.338-.4.7-.135,1.057s.655.183,1,.1c1.144-.282,2.3-.514,3.421-.875a20.217,20.217,0,0,0,2.308-.721,10.412,10.412,0,0,0,1.686-.814,6.482,6.482,0,0,0,1.957-2.577,2.136,2.136,0,0,0-.526-2.727,2.042,2.042,0,0,0-2.173-.46A.763.763,0,0,0,992.03,432.18Z" transform="translate(-973.021 -411.799)"/><path class="o" d="M980.708,432.455a16.088,16.088,0,0,1,1.156,2.823c.289.7.259.68.885.217a32.029,32.029,0,0,1,4.007-2.527,6.426,6.426,0,0,1,1.4-.631.547.547,0,0,0-.006-.471,9.283,9.283,0,0,0-.842-2.027.353.353,0,0,0-.446.046,6.493,6.493,0,0,1-1.767.774c-1.338.469-2.631,1.039-3.918,1.626a.768.768,0,0,1-.311.07A.228.228,0,0,0,980.708,432.455Z" transform="translate(-972.83 -411.639)"/><path class="p" d="M987.776,429.5l.942,2.534a.635.635,0,0,0,.811.494,6.029,6.029,0,0,0,1.651-.376c-.717-.557-.437-1.169-.1-1.788.28-.521.521-1.064.84-1.564a3.928,3.928,0,0,1,.581-.773c.325-.307.543-.3.7.1a3.572,3.572,0,0,1,.434,2.779.189.189,0,0,0,.044.2,3.1,3.1,0,0,1,.309-.2c.469-.242.654-.576.371-1.074l-1.366-3.643c-.5.022-.774.467-1.19.662a11.968,11.968,0,0,1-3.892,1.267c-.338.033-.62.09-.5.535a.659.659,0,0,0,.028.158C987.555,429.033,987.563,429.316,987.776,429.5Z" transform="translate(-973.393 -411.335)"/><path class="q" d="M993.968,431.236c.626-1.162-.017-2.169-.422-3.189-.157-.4-.476-.375-.809-.059a5.126,5.126,0,0,0-.906,1.318,10.033,10.033,0,0,0-.866,1.781c-.241.77-.2.862.506,1.2l1.222-.436.9-.352C993.655,431.317,993.839,431.317,993.968,431.236Z" transform="translate(-973.684 -411.468)"/><path class="j" d="M980.34,431.741l.105-.031a.437.437,0,0,0,.51-.23,1.439,1.439,0,0,1-.8-1c-.474-1.319-.969-2.633-1.462-3.946-.093-.247-.147-.527-.411-.673-.545-1.481-1.093-2.96-1.633-4.443-.043-.119-.1-.126-.194-.1a.206.206,0,0,1-.022.234.612.612,0,0,0-.065.459c.513,1.355,1.013,2.716,1.517,4.075.033.086.065.172.1.259.147.4.287.795.445,1.186.06.147.074.37.337.3.221.087.226.309.293.486C979.493,429.454,979.915,430.6,980.34,431.741Z" transform="translate(-972.462 -410.924)"/><path class="j" d="M978.915,428.273a6.568,6.568,0,0,1-.742-1.686c-.158.048-.11.158-.073.256.667,1.793,1.323,3.589,2,5.377.012.03.049.051.074.077h0c.231-.281-.143-.515-.062-.784-.234-.206-.171-.565-.4-.774A22.424,22.424,0,0,0,978.915,428.273Z" transform="translate(-972.607 -411.37)"/><path class="m" d="M990.606,473.362a22,22,0,0,0,1.656,3.723,34.293,34.293,0,0,0,2.753,4.148c.721.886,1.371,1.831,2.106,2.7.7.826,1.488,1.572,2.195,2.391,1.026,1.19,2.182,2.253,3.3,3.347a12.855,12.855,0,0,0,1.643,1.521c.151.1.307.2.27.419.586-.218,1.171-.439,1.759-.65.161-.059.319-.181.507-.076,2.7-.826,5.334-1.829,7.955-2.862,1.2-.473,2.415-.919,3.593-1.441,2.007-.89,4.023-1.775,5.961-2.8a35.26,35.26,0,0,0,7.49-4.848,7.528,7.528,0,0,0,2.031-2.466.4.4,0,0,0,.132-.3q-1.64-4.4-3.28-8.8-3.075-8.273-6.148-16.547c-.069-.185-.15-.364-.226-.548l-.07.37h0c-.108.16.01.3.048.44l-.1.039h0c-1.044,2.24-3.049,3.426-5.037,4.652-1.358.836-2.814,1.475-4.217,2.22-.852.452-1.735.85-2.625,1.221-2.3.962-4.619,1.886-6.921,2.841-2.693,1.116-5.429,2.11-8.17,3.089q-2.832,1.012-5.713,1.908c-1,.31-2.036.537-3.056.8a1.2,1.2,0,0,1,.339.6C989.394,470.091,990.007,471.725,990.606,473.362Zm42.863,2.293.008.03-.011-.029Z" transform="translate(-973.483 -413.367)"/><path class="p" d="M991.973,425.744c-.062-.737-.543-1.366-.546-2.119-.146-.213-.328-.137-.51-.064a1.11,1.11,0,0,0-.232.359,1.13,1.13,0,0,1-1.987.349.378.378,0,0,0-.483.083c-.375.4-.753.79-1.116,1.2a.229.229,0,0,0-.028.2,9.659,9.659,0,0,0,.734,1.529.707.707,0,0,0,.964.5,11.427,11.427,0,0,0,3.088-1.2C992.243,426.336,992.246,426.124,991.973,425.744Z" transform="translate(-973.366 -411.108)"/><path class="r" d="M992.407,423c.385-.349.246-.632-.145-.818a7.369,7.369,0,0,0-.95-.31,1.232,1.232,0,0,0-1.042.036c-.215.138-.472.231-.561.509.035.224.225.258.392.294a2.088,2.088,0,0,1,.967.515A1.408,1.408,0,0,0,992.407,423Z" transform="translate(-973.589 -410.964)"/><path class="s" d="M991.995,425.945c.288.576-.173.832-.532.98a18.759,18.759,0,0,1-2.671.95.652.652,0,0,1-.854-.423c-.254-.055-.366.116-.474.295-.3.357-.048.676.069,1,.1-.161-.089-.3-.04-.435a10.746,10.746,0,0,0,5.494-2.16C992.733,425.721,992.35,425.9,991.995,425.945Z" transform="translate(-973.388 -411.309)"/><path class="t" d="M989.595,421.639a4.028,4.028,0,0,0-1.49.322c-.353.175-.877.129-.915.711a2.647,2.647,0,0,0,2.457-.862A.156.156,0,0,0,989.595,421.639Z" transform="translate(-973.377 -410.952)"/><path class="u" d="M986.618,422.77a2.129,2.129,0,0,0-.924.588c-.018.364.292.346.509.437a1.131,1.131,0,0,0,.748-.5,1,1,0,0,0,.034-.58C986.84,422.589,986.729,422.678,986.618,422.77Z" transform="translate(-973.251 -411.038)"/><path class="v" d="M986.144,423.815c-.081-.233-.435-.126-.49-.392l-.434.394c.107.234.012.573.359.68A.766.766,0,0,0,986.144,423.815Z" transform="translate(-973.211 -411.103)"/><path class="w" d="M989.816,421.623c.016.029.031.058.045.088a1.024,1.024,0,0,0,.422.3c.325-.189.7-.054,1.038-.162,0-.35-.257-.4-.516-.4A2.1,2.1,0,0,0,989.816,421.623Z" transform="translate(-973.598 -410.936)"/><path class="x" d="M992.528,423.117a3.3,3.3,0,0,1-1.342.146.239.239,0,0,0-.034.15.215.215,0,0,0,.153.165l.467.017C992.062,423.5,992.378,423.438,992.528,423.117Z" transform="translate(-973.711 -411.077)"/><path class="y" d="M986.7,422.713c.115-.016.229-.1.348-.012a.069.069,0,0,0,.1-.029c.172-.406.647-.406.916-.682C987.43,421.892,987.114,422.392,986.7,422.713Z" transform="translate(-973.336 -410.981)"/><path class="r" d="M986.172,423.785l-.565.682c.072.166-.073.306-.054.465.34.745.889.846,1.459.268a5.041,5.041,0,0,0,.963-1.466c.138-.028.14.487.37.1a.965.965,0,0,0-.3-.73,1.514,1.514,0,0,0-1.135.18Z" transform="translate(-973.239 -411.072)"/><path class="z" d="M988.293,423.967c-.2-.043-.159-.268-.273-.357-.281.411-.552.828-.843,1.23-.616.848-.9.869-1.626.138q-.2,1.314,1.166.961a.319.319,0,0,0,.269-.231l1.114-1.178c.118-.125.219-.293.436-.181C988.613,424.122,988.479,424.028,988.293,423.967Z" transform="translate(-973.236 -411.119)"/><path class="aa" d="M988.521,423.889l.243.383a1.2,1.2,0,0,0,2.054-.136,4.9,4.9,0,0,0,.241-.594l-.1-.215c-.188-.009-.274.145-.394.245a1.235,1.235,0,0,1-1.662.043c-.258-.194-.341-.353.006-.55.107-.06.479-.135.113-.376-.316.035-.628.075-.791.4Z" transform="translate(-973.465 -411.041)"/><path class="ab" d="M989.161,422.739c-.049.107-.153.138-.247.189-.162.088-.435.051-.457.3s.2.359.374.481c.82.574,1.412.463,2.146-.4-.007-.034-.013-.067-.018-.1-.254-.572-.864-.459-1.3-.678A.354.354,0,0,0,989.161,422.739Z" transform="translate(-973.484 -411.025)"/><path class="ac" d="M989.036,422.674l.5-.206.511-.434c-.082-.183-.189-.331-.422-.3a3.728,3.728,0,0,1-2.45.917.594.594,0,0,1-.1.029.4.4,0,0,0-.042.487,3.4,3.4,0,0,0,1.092-.156Z" transform="translate(-973.358 -410.96)"/></g><g transform="translate(34.689)"><path class="d" d="M1030.019,347.979c7.189,3.437,9.9,10.95,9.9,10.95a11.3,11.3,0,0,1,3.609-2.2s1.917-10.332,1.767-11.624-9.995-10.306-10.638-10.9-10.084-3.678-10.677-3.579-9.77,3.262-10.031,3.736-3.958,12.625-3.958,12.625S1022.6,344.433,1030.019,347.979Z" transform="translate(-1009.988 -330.627)"/><path class="a" d="M5.107,0c-.062.033-.124.066-.182.1s-.112.058-.17.083L4.664.219l-.07.025a1.894,1.894,0,0,1-.2.062L4.255.343c-.161.041-.327.074-.492.116-.07.017-.141.037-.207.058-.021.008-.045.012-.066.021L3.42.562c-.07.025-.141.05-.207.079h0c-.045.017-.091.037-.136.054-.19.079-.38.17-.562.265A4.9,4.9,0,0,0,.136,3.577a.866.866,0,0,0-.033.1h0a2.267,2.267,0,0,0-.07.277h0a2.116,2.116,0,0,0-.025.562A3.424,3.424,0,0,0,.256,5.533h0c.017.045.037.091.058.136a6.286,6.286,0,0,0,.31.6L.7,6.393c.041.066.079.128.124.194l.05.074c.058-.145.12-.294.182-.434,0-.012.012-.025.017-.037.182-.409.38-.815.6-1.207a0,0,0,0,1,0,0c.124-.227.256-.455.389-.678.033-.058.074-.136.1-.2-.112.012-.223.021-.335.033a.1.1,0,0,0-.033,0c-.178.017-.356.033-.538.054a5.738,5.738,0,0,1,.566-.827l.037-.05c.252-.314.546-.653.844-.963.008-.012.021-.021.029-.033.207-.215.413-.413.6-.579.012-.008.021-.021.033-.029a3.647,3.647,0,0,1,.447-.339h0c.008,0,.017-.012.025-.017s.008,0,.012-.008c-.1.17-.2.343-.3.513-.008.017-.021.037-.029.054q-.217.391-.409.794a.885.885,0,0,0-.041.091c-.074.165-.145.331-.211.5.438-.05.881-.1,1.323-.145-.087.074-.182.149-.273.223a.073.073,0,0,0-.021.017c-.045.037-.091.079-.132.116A12.811,12.811,0,0,0,2.225,5.148l-.087.112c-.194.256-.385.521-.566.8a8.542,8.542,0,0,0-.447.761h.017a4.988,4.988,0,0,0,.951-.17,6.638,6.638,0,0,0,1.733-.914,2.78,2.78,0,0,0,.868-.976c.7-1.331.2-3.06.376-4.445,0-.033.033-.24.037-.277V.021h0V.012c0-.008,0,0,0-.012Z" transform="translate(7.168 3.382)"/></g><g transform="translate(30.817 135.234)"><path class="h" d="M1023.959,478.315l-3.565,1.024s-7.26,1.733-8.334,2.953-6.625,5.448-5.844,5.779c.508.215,3.838-.916,6.106-1.732-.353.461-.728.962-1.135,1.516-.578.79-6.486,9.523-5.26,10.378.638.821,3.271-1.264,3.271-1.264s1,2.428,4.908.353a4.05,4.05,0,0,0,.749-.508,5.991,5.991,0,0,0,1.212-.99,2.794,2.794,0,0,0,.95,1.616c.748.507,2.47-1.417,2.47-1.417l9.127-12.143Z" transform="translate(-1005.76 -478.315)"/></g><g transform="translate(49.016 57.371)"><path class="h" d="M1025.635,471.145l29.382-27.193,16.557-50.67s7.128,13.139,7.325,26.032-11.239,32.647-11.239,32.647-8.624,12.605-37.371,24.748Z" transform="translate(-1025.635 -393.282)"/></g><g transform="translate(80.767 56.829)"><path class="c" d="M1074.227,392.69c6.412,3.424,8.781,19.826,9.176,28.107s-5.527,21.105-5.527,21.105l-17.566-11.6Z" transform="translate(-1060.31 -392.69)"/></g><g transform="translate(20.543 11.39)"><path class="ad" d="M1028.708,349.034c-3.628-.924-19.928,1.623-19.928,1.623s-16.326.616-14.016-3.926,15.691-4.187,22.929-2.529A35.256,35.256,0,0,1,1028.708,349.034Z" transform="translate(-994.54 -343.067)"/></g><g transform="translate(82.549 59.953)"><path class="j" d="M1062.723,428.854a.468.468,0,0,1-.445-.612l10.341-31.818a.467.467,0,0,1,.889.288l-10.341,31.818A.467.467,0,0,1,1062.723,428.854Z" transform="translate(-1062.255 -396.101)"/></g><g transform="translate(98.629 98.784)"><path class="j" d="M1080.284,446.162a.439.439,0,0,1-.128-.018.467.467,0,0,1-.321-.578l1.924-6.718a.467.467,0,0,1,.9.257l-1.924,6.718A.467.467,0,0,1,1080.284,446.162Z" transform="translate(-1079.816 -438.509)"/></g><g transform="translate(61.484 154.088)"><path class="i" d="M1039.7,503.559a.446.446,0,0,1-.375-.684l2.383-3.762a.445.445,0,0,1,.752.476l-2.383,3.762A.444.444,0,0,1,1039.7,503.559Z" transform="translate(-1039.251 -498.906)"/></g><g transform="translate(7.853 142.014)"><path class="h" d="M985.118,500.528c1.868.581,4.261-4.783,3.535-5.58s-2.429.523-2.429.523,1.645-2.426.819-3.785c-.636-1.048-2.309.507-2.309.507s1.093-3.407.368-4.5-1.667.858-1.667.858-.36-5.931-2.753-.639l1.449,3.7,1.377,4.059Z" transform="translate(-980.681 -485.72)"/></g><path class="ae" d="M12.479,0c-.152.081-.3.162-.445.243s-.273.141-.414.2c-.071.03-.152.061-.222.091s-.111.04-.172.061a4.628,4.628,0,0,1-.5.152L10.4.839c-.394.1-.8.182-1.2.283-.172.04-.344.091-.505.141-.051.02-.111.03-.162.051s-.111.04-.172.061c-.172.061-.344.121-.505.192h0c-.111.04-.222.091-.333.131-.465.192-.93.414-1.374.647a11.969,11.969,0,0,0-5.81,6.4,2.116,2.116,0,0,0-.081.232h0a5.539,5.539,0,0,0-.172.677h0A5.172,5.172,0,0,0,.02,11.024a8.367,8.367,0,0,0,.606,2.5h0c.04.111.091.222.141.333a15.361,15.361,0,0,0,.758,1.455c.061.1.131.212.192.313.1.162.192.313.3.475l.121.182c.141-.354.293-.717.445-1.061.01-.03.03-.061.04-.091.445-1,.93-1.991,1.465-2.95a.01.01,0,0,1,.01-.01c.3-.556.626-1.111.95-1.657.081-.141.182-.333.253-.485-.273.03-.546.051-.818.081a.251.251,0,0,0-.081.01c-.434.04-.869.081-1.314.131A14.02,14.02,0,0,1,4.476,8.225L4.567,8.1c.616-.768,1.334-1.6,2.061-2.354.02-.03.051-.051.071-.081.505-.525,1.01-1.01,1.475-1.415.03-.02.051-.051.081-.071a8.912,8.912,0,0,1,1.091-.829h.01c.02-.01.04-.03.061-.04s.02-.01.03-.02c-.242.414-.485.839-.727,1.253-.02.04-.051.091-.071.131q-.53.955-1,1.94a2.162,2.162,0,0,0-.1.222c-.182.4-.354.808-.515,1.223,1.071-.121,2.152-.243,3.233-.354-.212.182-.445.364-.667.546a.177.177,0,0,0-.051.04c-.111.091-.222.192-.323.283a31.306,31.306,0,0,0-3.789,4l-.212.273c-.475.626-.94,1.273-1.384,1.95a20.873,20.873,0,0,0-1.091,1.859h.04a12.188,12.188,0,0,0,2.324-.414,16.22,16.22,0,0,0,4.234-2.233,6.793,6.793,0,0,0,2.122-2.385c1.718-3.254.485-7.477.919-10.862.01-.081.081-.586.091-.677V.051h0V.03c-.01-.02-.01-.01,0-.03Z" transform="matrix(0.921, -0.391, 0.391, 0.921, 11.615, 133.098)"/></g><g transform="translate(0 19.383)"><g transform="translate(51.693 29.84)"><path d="M907.021,398.262a6.463,6.463,0,0,0,4.494,4.22,12.7,12.7,0,0,1-3.029-9.877c.18-1.409.6-2.784.725-4.2a5.408,5.408,0,0,0-1.016-4.023c.445.517-.516,3.175-.718,3.76a24.037,24.037,0,0,0-1.243,3.2A14.141,14.141,0,0,0,907.021,398.262Z" transform="translate(-906.082 -384.383)"/></g><g transform="translate(8.535 117.165)"><path class="d" d="M862.784,479.75a192.411,192.411,0,0,0-3.79,41.127s23.512,13.872,55.8,4.083c0,0-8.91-41.452-8.911-40.959S862.784,479.75,862.784,479.75Z" transform="translate(-858.949 -479.75)"/></g><path d="M892.412,353.571a24.467,24.467,0,0,0-18.133-.064,20.509,20.509,0,0,0-11.956,13.372c-.787,3.006-.811,6.152-1.187,9.237s-1.173,6.259-3.214,8.6c-2.5,2.866-6.716,4.37-7.954,7.963-.986,2.861.342,5.971,1.824,8.61s3.206,5.392,3.044,8.415c-.16,2.981-2.123,5.518-3.2,8.3-1.978,5.107,1.016,20.754,9.42,16.436a7,7,0,0,1-6-3.5,5.873,5.873,0,0,1,.743-6.281,3.1,3.1,0,0,0,.4,3.776,10.3,10.3,0,0,0,3.413,2.243,7.321,7.321,0,0,1,3.193,2.5,2.784,2.784,0,0,1-.527,3.682c-.407.265-.9.375-1.324.6-1.709.91-1.9,3.482-.809,5.085a8.3,8.3,0,0,0,4.881,2.917c7.328,1.994,14.146-.842,21.024-4.066,5.643-2.644,11.3-5.823,14.956-10.871,4.862-6.719,5.367-15.853,3.142-23.843-1.18-4.239-3.072-8.336-3.388-12.725-.668-9.287,5.807-18.3,3.905-27.417C903.386,360.439,898.217,355.855,892.412,353.571Z" transform="translate(-849.628 -351.795)"/><g transform="translate(10.617 50.89)"><path class="g" d="M905.206,411.314a60.294,60.294,0,0,0-19.093-3.942,110.27,110.27,0,0,0-14.83,3.48c-1.153.387-2.524,6.615-3.877,15.131-3.14,19.766-6.185,51.857-6.185,51.857s15.469,10.184,47.042,2.157l1.191-38.134.867-10.967Z" transform="translate(-861.222 -407.372)"/></g><g transform="translate(16.271 4.28)"><path class="af" d="M881.5,405.255l-5.347-19.273s-7.439,3.361-8.629-2.863c-1.061-5.544,4.988-6.539,8.16-4.183,0,0-7.087-19.046,9.676-22.177s19.086,20.011,19.674,25.61c1.035,9.86-5.607,15.258-10.681,16.227l.96,6.015s.9,5.259-4.058,5.923C884.642,411.418,881.5,405.255,881.5,405.255Z" transform="translate(-867.397 -356.469)"/></g><g transform="translate(51.766 22.466)"><path class="af" d="M906.161,378.355s6.622-5.279,8.49,1.211c2.054,7.138-8.115,5.912-8.115,5.912Z" transform="translate(-906.161 -376.33)"/></g><g transform="translate(36.175 23.783)"><path d="M889.136,379.506a1.824,1.824,0,1,0,1.909-1.735A1.823,1.823,0,0,0,889.136,379.506Z" transform="translate(-889.134 -377.769)"/></g><g transform="translate(45.102 22.848)"><path d="M898.886,378.485a1.824,1.824,0,1,0,1.909-1.735A1.825,1.825,0,0,0,898.886,378.485Z" transform="translate(-898.884 -376.748)"/></g><g transform="translate(41.838 24.761)"><path d="M895.792,385.025a.49.49,0,0,1-.131-.957c.885-.282,1.33-.589,1.482-1.03.242-.689-.181-1.877-1.225-3.439a.49.49,0,1,1,.815-.544c1.273,1.906,1.7,3.275,1.336,4.308A2.926,2.926,0,0,1,895.958,385,.507.507,0,0,1,895.792,385.025Z" transform="translate(-895.319 -378.836)"/></g><g transform="translate(38.759 31.319)"><path d="M896.209,388.42a6.833,6.833,0,0,1-4.078-1.554.49.49,0,1,1,.627-.754,5.819,5.819,0,0,0,3.889,1.329.469.469,0,0,1,.507.472.491.491,0,0,1-.472.507C896.526,388.425,896.368,388.425,896.209,388.42Z" transform="translate(-891.956 -385.999)"/></g><g transform="translate(52.741 24.753)"><path d="M908.125,384.506a.489.489,0,0,1-.472-.494,23.216,23.216,0,0,0-.419-4.6.49.49,0,0,1,.962-.186,24.342,24.342,0,0,1,.437,4.8.49.49,0,0,1-.494.485Z" transform="translate(-907.225 -378.828)"/></g><g transform="translate(53.292 26.199)"><path d="M908.3,381.972a.49.49,0,0,1-.1-.966l2.373-.584a.49.49,0,0,1,.235.951l-2.373.584A.459.459,0,0,1,908.3,381.972Z" transform="translate(-907.828 -380.407)"/></g><g transform="translate(18.433 27.805)"><path d="M874.82,385.689a.491.491,0,0,1-.464-.4,2.615,2.615,0,0,0-3.866-1.81.49.49,0,0,1-.484-.852,3.594,3.594,0,0,1,5.315,2.489.489.489,0,0,1-.4.569A.449.449,0,0,1,874.82,385.689Z" transform="translate(-869.758 -382.161)"/></g><g transform="translate(20.678 28.458)"><path d="M872.682,385.376a.49.49,0,0,1-.4-.749l.951-1.523a.49.49,0,0,1,.831.519l-.951,1.523A.488.488,0,0,1,872.682,385.376Z" transform="translate(-872.209 -382.874)"/></g><g transform="translate(33.254 17.81)"><path d="M886.5,373.567a.575.575,0,0,1-.329-1.03,6.37,6.37,0,0,1,6.254-.818.575.575,0,0,1-.444,1.06,5.279,5.279,0,0,0-5.109.668A.572.572,0,0,1,886.5,373.567Z" transform="translate(-885.944 -371.245)"/></g><g transform="translate(43.419 17.171)"><path d="M897.6,373.027a.569.569,0,0,1-.353-.139.575.575,0,0,1-.061-.809,4.635,4.635,0,0,1,6.163-.646.575.575,0,1,1-.7.914,3.5,3.5,0,0,0-4.595.481A.574.574,0,0,1,897.6,373.027Z" transform="translate(-897.045 -370.547)"/></g><g transform="translate(33.087 44.803)"><path class="f" d="M895.9,402.327c-3.31.871-10.136-1.6-10.136-1.6a17.8,17.8,0,0,0,10.612,4.587Z" transform="translate(-885.762 -400.724)"/></g><g transform="translate(31.613 27.732)"><path class="h" d="M889.349,385.245a2.626,2.626,0,1,1-2.034-3.108A2.626,2.626,0,0,1,889.349,385.245Z" transform="translate(-884.152 -382.081)"/></g><g transform="translate(47.32 27.033)"><path class="h" d="M906.5,384.482a2.626,2.626,0,1,1-2.034-3.108A2.626,2.626,0,0,1,906.5,384.482Z" transform="translate(-901.306 -381.318)"/></g><g transform="translate(19.208 1.926)"><path d="M884.243,391.775a5.012,5.012,0,0,1-4.569-1.828c-1.3-1.651-1.4-3.9-1.648-5.989a10.776,10.776,0,0,0-2.075-5.239,44.574,44.574,0,0,0-5.346-6.272l7.018-15.23,5.1-2.365,6.351-.952L895,355.762l4.808,2.472,4.246,6.389,1.474,5.37-1.061,5.609s-9.687-5.785-11.664-12.806a67.834,67.834,0,0,1-11.857,15.918,9.278,9.278,0,0,1,.189,3.59c-.126,1.222-.439,2.419-.569,3.642a6.172,6.172,0,0,0,.523,3.593A4.9,4.9,0,0,0,884.243,391.775Z" transform="translate(-870.605 -353.899)"/></g><g transform="translate(81.239 82.279)"><path class="af" d="M938.348,451.063l2.846-2.378s5.505-5.041,7.118-5.248,8.225-2.433,8.061-1.6c-.107.541-2.909,2.665-4.858,4.085.581-.034,1.206-.064,1.893-.089.977-.037,11.521-.035,11.543,1.46.322.988-2.88,2-2.88,2s1.448,2.193-2.46,4.262a4.035,4.035,0,0,1-.84.336,6.045,6.045,0,0,1-1.5.45,2.783,2.783,0,0,1,.806,1.691c0,.9-2.557,1.251-2.557,1.251l-15.172.754Z" transform="translate(-938.348 -441.652)"/></g><g transform="translate(12.669 54.321)"><path class="g" d="M871.472,411.167c-4.489,1.476-8.522,4.061-7.956,13.737.415,7.088,22.816,40.932,30.378,41.551s39.214-7.117,40.577-8.127,1.03-3.072,1.03-3.072-.679-8.177-1.954-9.407-33.654,4.621-33.654,4.621S876.524,409.507,871.472,411.167Z" transform="translate(-863.463 -411.118)"/></g><g transform="translate(26.98 46.668)"><path class="g" d="M881.784,412.667s-5.26-9.4-1.076-9.906l.532,1.825s10.105,2.569,14.571.9l-.365-2.294a2.04,2.04,0,0,1,2.5,1.553c.467,2.02,1.554,8.236.544,10.178S884.892,418.478,881.784,412.667Z" transform="translate(-879.092 -402.761)"/></g><g transform="translate(17.778 79.187)"><path class="ag" d="M898.823,468.354a37.693,37.693,0,0,1-5.788-.44c-6.65-1.034-21.341-22.778-23.959-29.021a.445.445,0,1,1,.821-.343c2.5,5.956,17.025,27.513,23.274,28.485a36.345,36.345,0,0,0,11.45-.046.444.444,0,0,1,.177.871A32.547,32.547,0,0,1,898.823,468.354Z" transform="translate(-869.042 -438.275)"/></g><g transform="translate(27.333 58.683)"><path class="ag" d="M901.245,451.318a.445.445,0,0,1-.379-.212l-21.323-34.545a.445.445,0,1,1,.758-.467l21.168,34.293,22.505-3.494a.445.445,0,0,1,.137.88l-22.8,3.539A.421.421,0,0,1,901.245,451.318Z" transform="translate(-879.477 -415.883)"/></g><g transform="translate(56.682 60.326)"><path class="ag" d="M913.229,446.479a.445.445,0,0,1-.28-.792c.061-.049,6.016-4.938,4.481-11.456-1.59-6.755-5.816-15.83-5.858-15.922a.445.445,0,1,1,.807-.376c.043.092,4.308,9.251,5.919,16.095,1.664,7.069-4.526,12.141-4.79,12.353A.445.445,0,0,1,913.229,446.479Z" transform="translate(-911.529 -417.676)"/></g><g transform="translate(28.431 54.185)"><path class="ag" d="M889.848,414.327a16.911,16.911,0,0,1-8.964-2.534.445.445,0,0,1,.473-.754,16.4,16.4,0,0,0,16.12.483.445.445,0,1,1,.428.781A16.824,16.824,0,0,1,889.848,414.327Z" transform="translate(-880.676 -410.97)"/></g><g transform="translate(30.061 49.844)"><path class="ag" d="M883.508,409.7a.445.445,0,0,1-.433-.343l-.606-2.579a.445.445,0,1,1,.866-.2l.606,2.579a.444.444,0,0,1-.331.535A.434.434,0,0,1,883.508,409.7Z" transform="translate(-882.457 -406.229)"/></g><g transform="translate(32.672 50.897)"><path class="ag" d="M886.2,409.94a.446.446,0,0,1-.43-.33l-.447-1.671a.445.445,0,0,1,.861-.23l.447,1.67a.446.446,0,0,1-.315.546A.456.456,0,0,1,886.2,409.94Z" transform="translate(-885.309 -407.379)"/></g></g></g><g transform="translate(811.18 362.313)"><path class="e" d="M812.328,373.968l23.267-6.656a1.372,1.372,0,0,1,1.686.908l3.58,11.425a1.372,1.372,0,0,1-.918,1.725l-23.166,6.858a1.371,1.371,0,0,1-1.7-.9L811.4,375.7A1.371,1.371,0,0,1,812.328,373.968Z" transform="translate(-811.334 -367.259)"/><g transform="translate(0.528 2.361)"><path class="ah" d="M837.768,369.837l.716,2.284-25.857,7.522-.717-2.262Z" transform="translate(-811.911 -369.837)"/></g><g transform="translate(21.427 8.547)"><path class="ai" d="M837.81,381.115a2.323,2.323,0,1,0-2.95-1.445A2.323,2.323,0,0,0,837.81,381.115Z" transform="translate(-834.733 -376.593)"/></g><g transform="translate(17.821 9.782)"><path class="aj" d="M833.871,382.463a2.323,2.323,0,1,0-2.949-1.445A2.322,2.322,0,0,0,833.871,382.463Z" transform="translate(-830.795 -377.941)"/></g></g><g transform="translate(1036.857 359.998)"><rect class="ak" width="46.937" height="13.653" rx="2.499" transform="translate(1.234 0) rotate(5.186)"/><g transform="translate(6.039 4.785)"><path class="al" d="M1067.485,369.957l.733,1.9,1.981.474-1.582,1.284.162,2.031-1.71-1.107-1.882.781.525-1.969-1.324-1.548,2.034-.11Z" transform="translate(-1064.388 -369.957)"/><g transform="translate(7.552 0.685)"><path class="al" d="M1075.733,370.705l.733,1.9,1.981.474-1.581,1.284.161,2.031-1.71-1.107-1.882.781.525-1.969-1.324-1.548,2.034-.109Z" transform="translate(-1072.635 -370.705)"/></g><g transform="translate(15.104 1.371)"><path class="al" d="M1083.98,371.454l.733,1.9,1.981.474-1.581,1.284.161,2.031-1.71-1.107-1.881.781.524-1.969-1.324-1.548,2.034-.11Z" transform="translate(-1080.883 -371.454)"/></g><g transform="translate(22.656 2.056)"><path class="al" d="M1092.228,372.2l.733,1.9,1.981.474-1.582,1.284.162,2.031-1.71-1.107-1.882.781.525-1.969-1.324-1.548,2.034-.11Z" transform="translate(-1089.13 -372.203)"/></g><g transform="translate(30.208 2.742)"><path class="al" d="M1100.475,372.951l.733,1.9,1.982.474-1.582,1.284.161,2.031-1.71-1.107-1.882.781.524-1.969-1.324-1.548,2.034-.11Z" transform="translate(-1097.378 -372.951)"/></g></g></g></g><path class="a" d="M2974.291,6.853h-.01a8.447,8.447,0,0,1,.509-.765c.208-.278.424-.544.646-.8l.1-.112a13.723,13.723,0,0,1,1.767-1.646c.047-.037.1-.079.151-.116a.082.082,0,0,1,.023-.017c.1-.075.212-.15.311-.224-.5.046-1.008.1-1.508.145.076-.17.156-.337.24-.5a.856.856,0,0,1,.047-.091q.219-.405.466-.8c.01-.017.023-.037.033-.054.113-.17.226-.345.339-.515,0,0-.01,0-.014.008s-.019.012-.028.017h0a4.136,4.136,0,0,0-.509.341c-.014.008-.024.021-.038.029-.217.166-.452.366-.688.582-.01.012-.024.021-.033.033-.339.312-.674.652-.961.968l-.042.05a5.781,5.781,0,0,0-.645.831c.207-.021.41-.037.612-.054a.134.134,0,0,1,.038,0c.127-.012.254-.021.382-.033-.033.062-.08.141-.118.2-.151.224-.3.453-.443.681a0,0,0,0,0,0,0c-.25.395-.476.8-.683,1.213,0,.012-.014.025-.019.037-.071.141-.141.291-.207.436l-.057-.075c-.052-.066-.094-.129-.141-.2-.028-.042-.061-.087-.089-.129a6.086,6.086,0,0,1-.354-.6c-.023-.046-.047-.091-.066-.137a3.114,3.114,0,0,1-.283-1.026,1.877,1.877,0,0,1,.028-.565,2.054,2.054,0,0,1,.08-.278.775.775,0,0,1,.038-.1,5.209,5.209,0,0,1,2.709-2.631c.208-.1.424-.187.641-.266.052-.017.1-.037.156-.054.075-.029.155-.054.236-.079l.08-.025c.023-.008.052-.012.075-.021.075-.021.155-.042.235-.058.188-.042.377-.075.561-.116L2978,.308a2.344,2.344,0,0,0,.231-.062l.08-.025.1-.037c.066-.025.132-.054.193-.083s.137-.066.207-.1c0,.008,0,0,0,.012V.037c0,.037-.038.245-.042.278-.2,1.392.372,3.129-.429,4.467a2.94,2.94,0,0,1-.989.981,7.953,7.953,0,0,1-1.974.918,6.365,6.365,0,0,1-1.083.17Zm23.929-2.028.221-.819a.823.823,0,0,0,.339.145,1.991,1.991,0,0,0,.518.075c.25,0,.377-.062.377-.187,0-.087-.127-.154-.377-.2a3.042,3.042,0,0,1-.707-.2.674.674,0,0,1-.377-.64.987.987,0,0,1,.438-.814,1.757,1.757,0,0,1,1.088-.332,2.253,2.253,0,0,1,1.079.17l-.156.927a2.318,2.318,0,0,0-.9-.278c-.132,0-.217.042-.25.121a.1.1,0,0,0-.014.05c0,.075.127.141.382.2a2.64,2.64,0,0,1,.711.224.725.725,0,0,1,.391.677.95.95,0,0,1-.513.869,2.039,2.039,0,0,1-1.027.245A3.314,3.314,0,0,1,2998.22,4.825Zm-7.128-.241a1.475,1.475,0,0,1,0-2.261,1.879,1.879,0,0,1,1.286-.47h1.15V2.88h-1.15a.687.687,0,0,0-.466.166.526.526,0,0,0,0,.814.678.678,0,0,0,.466.166.66.66,0,0,0,.514-.22h-.688V3.092h1.983v.362h0a1.454,1.454,0,0,1-.528,1.13,1.983,1.983,0,0,1-2.563,0Zm-11.147.241.221-.819a.824.824,0,0,0,.339.145,1.989,1.989,0,0,0,.518.075c.25,0,.377-.062.377-.187,0-.087-.127-.154-.377-.2a3.035,3.035,0,0,1-.707-.2.674.674,0,0,1-.377-.64.987.987,0,0,1,.438-.814,1.756,1.756,0,0,1,1.088-.332,2.253,2.253,0,0,1,1.079.17l-.155.927a2.318,2.318,0,0,0-.9-.278c-.132,0-.217.042-.25.121a.1.1,0,0,0-.014.05c0,.075.127.141.382.2a2.64,2.64,0,0,1,.711.224.734.734,0,0,1,.391.677.949.949,0,0,1-.514.869,2.039,2.039,0,0,1-1.027.245A3.315,3.315,0,0,1,2979.944,4.825Zm16.721.191-.137-.312h-1.055l-.136.312h-1.414l1.366-3.125h1.418l1.371,3.125Zm-.876-1.026h.424L2996,3.5Zm-6.949,1.026-.57-.86h0v.856H2987.1V1.891h1.993a1.132,1.132,0,0,1,.815.332,1.076,1.076,0,0,1,.339.8,1.105,1.105,0,0,1-.65,1.014l.66.977Zm-.575-1.691h.532a.3.3,0,0,0,.212-.083.285.285,0,0,0-.212-.486h-.532Zm-2.888,1.691-.137-.312h-1.06l-.137.312h-1.413L2984,1.891h1.418l1.376,3.125Zm-.876-1.026h.424l-.212-.486Z" transform="translate(-2594.525 1072.484) rotate(-17)"/></g></svg>