<svg xmlns="http://www.w3.org/2000/svg" xmlns:xlink="http://www.w3.org/1999/xlink" width="265.854" height="171.259" viewBox="0 0 265.854 171.259"><defs><style>.a{fill:none;}.b,.p{fill:#047e3e;}.c,.s{fill:#003c1d;}.d,.w{fill:#f5ffe8;}.e,.x{fill:#fff;}.f{fill:#8dbe34;}.f,.h,.i,.k,.n,.p,.q,.s,.u,.w,.x,.y,.z{fill-rule:evenodd;}.g{clip-path:url(#a);}.h{fill:#d8f4a7;}.i{fill:#d9f4a7;}.j{clip-path:url(#b);}.k{fill:#8ebe34;}.l{clip-path:url(#c);}.m{clip-path:url(#d);}.n{fill:#009245;}.o{clip-path:url(#e);}.q{fill:#006931;}.r{clip-path:url(#f);}.t{fill:#007236;}.u{fill:#def7be;}.v{clip-path:url(#g);}.y{fill:#d6bff2;}.z{fill:#8cc63f;}.aa{clip-path:url(#h);}.ab{clip-path:url(#i);}</style><clipPath id="a"><path class="a" d="M1199.387,346.111s15.467-41.54-14.789-42.591c-25.322-.881-9.795-24.915-30.027-29.708-18.429-4.365-24.064,22.717-11.883,28.863,7.607,3.838,13.43,14.181,10.591,25.517S1155.849,351.65,1199.387,346.111Z" transform="translate(-1136.225 -273.339)"/></clipPath><clipPath id="b"><path class="a" d="M1214.953,349.872s-12.29-47.122-42.231-26.161c-25.06,17.543-25.812-14.475-48.516-4-20.68,9.545-8.365,37.051,7.443,33.564a23.776,23.776,0,0,1,26.974,14.421C1163.312,379.558,1176.492,386.137,1214.953,349.872Z" transform="translate(-1113.305 -317.555)"/></clipPath><clipPath id="c"><path class="a" d="M1275.195,343.694s41.084,16.638,42.992-13.575c1.6-25.288,25.182-9.086,30.547-29.175,4.885-18.3-22.026-24.7-28.515-12.7-4.052,7.5-14.556,13.022-25.806,9.863S1270.892,300.016,1275.195,343.694Z" transform="translate(-1274.314 -282.13)"/></clipPath><clipPath id="d"><path class="a" d="M1273.4,344.73s19.436-22.674,33.243-15.527c10.173,5.265,14.167,11.59,20.671,3.437,8.273-10.371,27.433-5.879,29.995,9.755,2.287,13.965-14.99,20.023-22.637,16.851s-12.048,3.6-15.781,9.594-19.2,23.149-35.877,7.788C1266.152,361.095,1273.4,344.73,1273.4,344.73Z" transform="translate(-1271.853 -327.044)"/></clipPath><clipPath id="e"><path class="b" d="M1189.992,316.7l-9.874-13.768s12.974-11,23.282-14.243c14.063-4.42,82.378,2.861,88.776,7.481,5.822,4.2,11.661,40.546,4.446,70.717-.7,2.94-9.97,15.251-15.022,17.583C1274.7,387.659,1189.992,316.7,1189.992,316.7Z" transform="translate(-1180.118 -287.321)"/></clipPath><clipPath id="f"><path class="c" d="M1222.8,326.223l16.785,1.567-.187,39.541-16.785-1.567Z" transform="translate(-1222.617 -326.223)"/></clipPath><clipPath id="g"><path class="d" d="M1258.317,291.733c.372-7.462.653-29.541.653-29.541s.706-19.589-18.227-19.777c-11.2-.111-16.665,8.113-17.289,16.241-.442,5.754-.586,24.3-.993,28.411-.231,2.322-.209,5.232-8.828,5.854-4.216.3-8.724-1.928-8.863-3.678-.152-1.923-.86-20.305-.034-32.515.782-11.538,2.562-33.911,37.372-33.2,35.386.724,36.612,26.895,36.042,40.11-.828,19.193-.844,24.73-1.271,29.292-.276,2.942-5.432,5.358-10.176,5C1262.248,297.591,1258.172,294.659,1258.317,291.733Z" transform="translate(-1204.343 -223.514)"/></clipPath><clipPath id="h"><path class="e" d="M1120.462,408.648c-.106-.121-.741-.834.406-.342a6.4,6.4,0,0,0,2.617.273,6.684,6.684,0,0,1,1.887.133.954.954,0,0,1,.65.661,17.819,17.819,0,0,1-6.987.334c-.28-.68.106-.683-.2-.967C1118.868,408.557,1120.026,408.589,1120.462,408.648Z" transform="translate(-1118.837 -408.134)"/></clipPath><clipPath id="i"><path class="e" d="M1105.732,405.824c.046-.154.311-1.07.506.159a6.357,6.357,0,0,0,1.166,2.35,6.635,6.635,0,0,1,.9,1.661.954.954,0,0,1-.214.9,17.68,17.68,0,0,1-4.014-5.707c.427-.6.636-.277.714-.684C1104.957,404.432,1105.549,405.425,1105.732,405.824Z" transform="translate(-1104.071 -404.501)"/></clipPath></defs><g transform="translate(-1074.042 -223.514)"><g transform="translate(1130.686 268.9)"><path class="f" d="M1199.387,346.111s15.467-41.54-14.789-42.591c-25.322-.881-9.795-24.915-30.027-29.708-18.429-4.365-24.064,22.717-11.883,28.863,7.607,3.838,13.43,14.181,10.591,25.517S1155.849,351.65,1199.387,346.111Z" transform="translate(-1136.225 -273.339)"/><g class="g"><g transform="translate(-4.037 -5.068)"><path class="h" d="M1149.177,283.984a41.83,41.83,0,0,1,4.2-16.176s.05-.1.09.051a39.171,39.171,0,0,0-3.747,16.809l-.051.082.628.969.068.031.3.471a.16.16,0,0,1-.027.022q1.077,1.663,2.158,3.318c-.041-5.958,2.612-11.857,5.148-16.239.5-.868,1.022-1.723,1.538-2.58,0,0,.224-.391.323.223-3.3,6.312-6.642,12.912-6.4,19.529q2.354,3.6,4.727,7.183a12.56,12.56,0,0,1,.246-2.136c1.568-7.206,6.058-13.308,10.527-18.588,0,0,.436-.6.446-.08-.226.3-.452.6-.678.9q-1.379,1.857-2.7,3.759c-.111.161-.111.16-.226.319-3.487,4.874-6.535,10.353-7.218,16.42q2.592,3.915,5.2,7.818a21.421,21.421,0,0,1,.086-3.851q.123-.814.29-1.62a33.66,33.66,0,0,1,1.232-4.362s1.329-3.223,2.359-5.1a50.105,50.105,0,0,1,3.455-5.4s.434-.642.525.228c-.124.189-.247.377-.37.567-3.909,6.135-6.919,13.421-7.163,20.152q1.75,2.625,3.5,5.248a44.751,44.751,0,0,1,8.657-17.947s.2-.27.24.218a49.011,49.011,0,0,0-8.435,18.421q2.434,3.641,4.866,7.288a41.661,41.661,0,0,1,2.03-9.457,56.006,56.006,0,0,1,4.9-9.991l1.955-2.842s.448-.705.53.074c-.785,1.234-1.857,3.058-1.857,3.058-.127.2-.251.411-.376.617a44.344,44.344,0,0,0-6.55,17.948c-.044.417-.1.908-.139,1.333q2.338,3.51,4.667,7.032a69.414,69.414,0,0,1,11.2-26.363s.4-.639.438-.235a76.969,76.969,0,0,0-11.19,27.278q1.854,2.808,3.7,5.627c.211-.887.4-1.61.4-1.61,3.146-9.32,9.213-17.3,16.235-23.716a1.625,1.625,0,0,1,.534-.067l-.04.465c-6.81,6.394-12.736,14.247-15.834,23.578,0,0-.4,1.051-.768,2.159q2.714,4.157,5.4,8.349s1.278,2.035,2.344,3.778c0,0,.954,1.86,1.959,3.877,0,0,.542.884-.311.647-.767-1.14-1.567-2.247-2.387-3.338,0,0-2.546-4.007-4.325-6.833q-1.546-2.443-3.1-4.879c-.952.09-2.4.217-3.562.271a83.6,83.6,0,0,0-12.636,1.292,55.24,55.24,0,0,0-15.961,5.891l-.182,0a64.766,64.766,0,0,1,25.931-8.085l.22-.023a25.51,25.51,0,0,1,4.539-.188c.379.042.788.1,1.16.16l.015-.07q-2.08-3.249-4.175-6.488l-1,.082c-1.261-.1-2.522-.2-3.785-.271,0,0-2.386-.206-4.416-.2-7.243.028-14.435,2.072-21.187,5.085l-.377-.037c8.112-3.859,16.877-6.277,25.925-5.961,1.308.083,2.614.2,3.919.317,0,0,.09.026.343.091q-2.011-3.106-4.034-6.207c-8.572,1-17.152.166-26.238,4.989l-.378.026.069-.218a36.22,36.22,0,0,1,14.781-5.05c3.748-.353,7.567-.1,11.36-.37q-2.5-3.827-5-7.648c-.811.134-1.985.312-2.915.386a68.027,68.027,0,0,0-18.1,3.524l-.527-.035a3.89,3.89,0,0,1,.954-.6,58.915,58.915,0,0,1,20.252-3.79q-1.869-2.858-3.74-5.716c-1.375.215-3.862.595-5.264.756-4.44.522-8.807,1.219-12.829,3.064l-.31-.13a2.019,2.019,0,0,1,.671-.628,31.133,31.133,0,0,1,7.979-2.678s2.224-.351,3.717-.483c1.906-.167,3.816-.375,5.713-.4q-2.481-3.794-4.954-7.592c-.13-.016,0,0-.342.008,0,0-2.389.589-3.956,1.051-4.6,1.311-9.315,2.455-13.478,4.969l-.328-.024.07-.272a43.858,43.858,0,0,1,12.187-5.3,18.585,18.585,0,0,1,5.4-1.12q-1.472-2.263-2.937-4.531c-.033,0-.066-.008-.1-.015a29.984,29.984,0,0,0-11.278.246,61.392,61.392,0,0,0-11.562,3.307l-.252-.118a3,3,0,0,1,.775-.574c5.715-2.541,11.757-4.424,17.479-4.209a24.939,24.939,0,0,1,4.432.58q-2.346-3.637-4.672-7.284c-5.708-2.026-12.07-1.647-17.456-.1,0,0-.849-.277.419-.709a26.76,26.76,0,0,1,9.351-1.572,22.415,22.415,0,0,1,7.077,1.422q-3.345-5.262-6.625-10.558l-.226-.365s-.3-.519.474-.365Q1145.969,279.014,1149.177,283.984Z" transform="translate(-1131.793 -267.775)"/></g></g></g><g transform="translate(1109.807 309.177)"><path class="i" d="M1214.953,349.872s-12.29-47.122-42.231-26.161c-25.06,17.543-25.812-14.475-48.516-4-20.68,9.545-8.365,37.051,7.443,33.564a23.776,23.776,0,0,1,26.974,14.421C1163.312,379.558,1176.492,386.137,1214.953,349.872Z" transform="translate(-1113.305 -317.555)"/><g transform="translate(0)"><g class="j"><g transform="translate(-2.258 -5.866)"><path class="k" d="M1126.148,331.982a41.619,41.619,0,0,1-6.546-17.033s-.018-.124.12-.021a38.829,38.829,0,0,0,7.4,17.253l0,.107,1.242.385.086-.023.6.191a.166.166,0,0,1-.012.039q2.132.66,4.263,1.311c-3.948-5.126-5.253-12.147-5.674-17.772-.084-1.113-.142-2.229-.2-3.344,0,0-.04-.5.458-.04.946,7.848,2.047,15.974,6.621,21.523q4.638,1.414,9.28,2.8a12.373,12.373,0,0,1-1.163-2.026c-3.21-7.368-2.872-15.894-2.013-23.693,0,0,.026-.839.379-.392q-.034.635-.065,1.27c-.076,1.736-.126,3.476-.148,5.207,0,.22,0,.219-.009.44-.175,6.738.473,13.682,3.79,19.425q5.073,1.513,10.154,3.007a20.892,20.892,0,0,1-2.443-3.395c-.277-.528-.536-1.067-.782-1.611a33.641,33.641,0,0,1-1.67-4.665s-.828-3.749-1.062-6.116a53.4,53.4,0,0,1-.2-7.169s0-.869.656-.182c0,.253.009.506.015.759.244,8.134,2.113,16.614,6.292,22.614q3.413,1.007,6.828,2.008c-3.105-6.839-3.826-14.568-3.4-21.785,0,0,.023-.382.375.015-.15,7.566.823,15.3,3.926,22.036q4.741,1.391,9.484,2.788a41.185,41.185,0,0,1-4.24-9.65,58.083,58.083,0,0,1-1.816-12.185l.026-3.872s-.029-.935.561-.32c.05,1.636.209,3.989.209,3.989.012.269.026.536.04.805.412,7.074,1.855,14.147,5.44,20.264.23.392.5.854.739,1.253q4.562,1.349,9.125,2.712a71.091,71.091,0,0,1-6.461-30.906s-.03-.843.269-.521a78.594,78.594,0,0,0,7.073,31.691q3.635,1.089,7.266,2.2c-.378-.921-.668-1.683-.668-1.683-3.073-10.338-2.437-21.623.142-32.255a2.163,2.163,0,0,1,.473-.444l.265.431c-2.391,10.455-2.969,21.533.156,31.846,0,0,.305,1.2.673,2.424q5.351,1.634,10.7,3.32s2.571.837,4.744,1.575c0,0,2.142.92,4.437,1.938,0,0,1.1.373.124.784-1.489-.433-2.989-.812-4.5-1.162,0,0-5.089-1.627-8.663-2.786q-3.1-1-6.2-1.979c-.862.766-2.175,1.919-3.266,2.81a111.541,111.541,0,0,0-11.37,10.251,71.161,71.161,0,0,0-11.568,16.634l-.173.137a84.139,84.139,0,0,1,19.768-25.741l.2-.179a34.179,34.179,0,0,1,4.266-3.443c.394-.238.828-.482,1.226-.7l-.032-.071q-4.141-1.309-8.292-2.6l-.911.792c-1.284.824-2.568,1.652-3.836,2.5,0,0-2.441,1.547-4.4,3.021-6.983,5.261-12.6,12.228-17.149,19.715l-.389.24c5.312-9.2,12.2-17.632,21.155-23.9,1.319-.873,2.658-1.715,4-2.558,0,0,.1-.042.392-.168q-3.983-1.234-7.971-2.455c-7.632,7.059-16.473,12.541-22.1,23.283l-.347.3-.077-.239a46.822,46.822,0,0,1,10.98-15.054c3.391-3.014,7.251-5.556,10.74-8.532q-4.923-1.507-9.849-3.005c-.7.7-1.713,1.7-2.564,2.442a90.014,90.014,0,0,0-15.188,16.132l-.532.351a4.745,4.745,0,0,1,.529-1.206,77.96,77.96,0,0,1,17.1-17.919l-7.366-2.242c-1.188,1.18-3.344,3.307-4.594,4.46-3.95,3.661-7.715,7.421-10.394,11.925l-.384.112a2.315,2.315,0,0,1,.237-1.029,40.342,40.342,0,0,1,5.957-8.084s1.92-1.91,3.277-3.1c1.733-1.522,3.443-3.083,5.264-4.473q-4.888-1.489-9.768-2.988c-.136.082,0,0-.325.254,0,0-1.923,2.237-3.135,3.769-3.583,4.457-7.4,8.858-9.771,14.042l-.332.217-.111-.286a55.8,55.8,0,0,1,8.31-13.391,24.532,24.532,0,0,1,4.488-4.874q-2.908-.9-5.811-1.8a1.2,1.2,0,0,1-.108.06,40.154,40.154,0,0,0-10.742,8.366,80.283,80.283,0,0,0-9.01,11.218l-.322.08a3.585,3.585,0,0,1,.373-1.057c3.859-6.33,8.465-12.326,14.138-16.276a33.271,33.271,0,0,1,4.666-2.7q-4.654-1.451-9.295-2.925c-6.846,2.374-12.748,7.3-16.939,12.534,0,0-1,.373-.06-.916a35.492,35.492,0,0,1,8.01-8.12,29.844,29.844,0,0,1,7.775-3.885q-6.686-2.136-13.33-4.347l-.458-.153s-.63-.232.218-.658Q1119.788,330,1126.148,331.982Z" transform="translate(-1110.826 -311.115)"/></g></g></g></g><g transform="translate(1256.472 276.908)"><path class="f" d="M1275.195,343.694s41.084,16.638,42.992-13.575c1.6-25.288,25.182-9.086,30.547-29.175,4.885-18.3-22.026-24.7-28.515-12.7-4.052,7.5-14.556,13.022-25.806,9.863S1270.892,300.016,1275.195,343.694Z" transform="translate(-1274.314 -282.13)"/><g class="l"><g transform="translate(-4.832 -4.251)"><path class="h" d="M1337.74,295.229a41.828,41.828,0,0,1,16.05,4.659s.1.053-.054.088a39.179,39.179,0,0,0-16.7-4.223l-.08-.053-.986.6-.033.066-.479.286a.2.2,0,0,1-.022-.028q-1.692,1.029-3.378,2.063c5.958.128,11.779,2.946,16.087,5.606.853.527,1.693,1.07,2.535,1.611,0,0,.384.235-.233.316-6.215-3.48-12.718-7-19.34-6.95q-3.666,2.252-7.314,4.522a12.648,12.648,0,0,1,2.129.306c7.159,1.772,13.132,6.432,18.282,11.05,0,0,.592.454.068.448-.294-.235-.588-.469-.883-.7-1.211-.954-2.442-1.893-3.681-2.809-.159-.116-.158-.116-.312-.235-4.774-3.624-10.165-6.825-16.209-7.681q-3.987,2.481-7.963,4.975a21.47,21.47,0,0,1,3.848.194q.81.146,1.611.336a33.648,33.648,0,0,1,4.325,1.355s3.184,1.42,5.028,2.5a50.133,50.133,0,0,1,5.3,3.607s.63.452-.241.518c-.186-.129-.371-.258-.558-.385-6.022-4.082-13.22-7.3-19.942-7.733q-2.673,1.675-5.344,3.354a44.742,44.742,0,0,1,17.695,9.162s.263.213-.225.234a48.981,48.981,0,0,0-18.174-8.954q-3.71,2.33-7.423,4.658a41.661,41.661,0,0,1,9.4,2.3,56.024,56.024,0,0,1,9.848,5.18l2.787,2.035s.692.467-.089.527c-1.211-.82-3-1.943-3-1.943q-.3-.2-.6-.394a44.343,44.343,0,0,0-17.755-7.056l-1.328-.177q-3.576,2.237-7.162,4.466a69.406,69.406,0,0,1,26.035,11.943s.626.42.222.445a76.972,76.972,0,0,0-26.95-11.958q-2.858,1.774-5.729,3.537c.881.237,1.6.447,1.6.447,9.227,3.408,17.027,9.7,23.246,16.9a1.617,1.617,0,0,1,.052.536l-.463-.054c-6.2-6.989-13.881-13.134-23.12-16.5,0,0-1.04-.427-2.137-.829q-4.232,2.6-8.5,5.161s-2.071,1.22-3.843,2.235c0,0-1.886.9-3.931,1.849,0,0-.9.517-.638-.329,1.161-.734,2.29-1.5,3.4-2.291,0,0,4.077-2.431,6.952-4.129q2.487-1.476,4.965-2.962c-.064-.955-.149-2.4-.171-3.568a83.631,83.631,0,0,0-.933-12.668,55.228,55.228,0,0,0-5.436-16.12V294.4a64.754,64.754,0,0,1,7.346,26.15l.017.221a25.431,25.431,0,0,1,.058,4.543c-.053.377-.123.784-.193,1.155l.07.015q3.307-1.987,6.6-3.989l-.054-1c.136-1.256.269-2.515.377-3.775,0,0,.274-2.379.323-4.409.177-7.24-1.662-14.488-4.482-21.323l.047-.375c3.627,8.217,5.8,17.049,5.224,26.083-.12,1.305-.274,2.607-.428,3.908,0,0-.028.089-.1.34q3.163-1.922,6.319-3.857c-.755-8.6.321-17.148-4.243-26.368l-.016-.378.216.075a36.215,36.215,0,0,1,4.629,14.919c.246,3.756-.117,7.567.047,11.365q3.9-2.387,7.787-4.78c-.111-.813-.255-1.992-.3-2.924a68.036,68.036,0,0,0-3.01-18.192l.05-.526a3.888,3.888,0,0,1,.569.97,58.9,58.9,0,0,1,3.216,20.352q2.91-1.789,5.82-3.577c-.177-1.38-.486-3.878-.607-5.283-.4-4.453-.969-8.838-2.7-12.91l.139-.307a2.031,2.031,0,0,1,.608.69,31.11,31.11,0,0,1,2.45,8.052s.288,2.232.377,3.729c.113,1.909.267,3.825.233,5.722q3.864-2.373,7.729-4.737c.019-.13,0,0,0-.342,0,0-.522-2.4-.938-3.984-1.181-4.632-2.191-9.381-4.585-13.614l.033-.327.271.078a43.844,43.844,0,0,1,4.947,12.332,18.565,18.565,0,0,1,.967,5.432q2.305-1.406,4.613-2.807c0-.032.01-.066.018-.1a29.984,29.984,0,0,0,.074-11.281,61.393,61.393,0,0,0-2.978-11.651l.126-.25a3.006,3.006,0,0,1,.551.792c2.378,5.785,4.09,11.877,3.713,17.591a24.955,24.955,0,0,1-.705,4.415q3.7-2.244,7.413-4.464c2.186-5.648,1.988-12.018.591-17.446,0,0,.3-.841.7.439a26.743,26.743,0,0,1,1.306,9.392,22.433,22.433,0,0,1-1.621,7.034q5.355-3.195,10.741-6.324l.373-.215s.526-.285.351.484Q1342.8,292.165,1337.74,295.229Z" transform="translate(-1269.009 -277.463)"/></g></g></g><g transform="translate(1254.231 317.821)"><path class="i" d="M1273.4,344.73s19.436-22.674,33.243-15.527c10.173,5.265,14.167,11.59,20.671,3.437,8.273-10.371,27.433-5.879,29.995,9.755,2.287,13.965-14.99,20.023-22.637,16.851s-12.048,3.6-15.781,9.594-19.2,23.149-35.877,7.788C1266.152,361.095,1273.4,344.73,1273.4,344.73Z" transform="translate(-1271.853 -327.044)"/><g class="m"><g transform="translate(-14.741 -9.881)"><path class="k" d="M1342.819,340.977a41.636,41.636,0,0,1,14.723,10.782s.082.094-.09.082a38.823,38.823,0,0,0-15.56-10.5l-.062-.087-1.253.348-.06.066-.607.162a.158.158,0,0,1-.011-.039q-2.149.6-4.295,1.2c6.094,2.174,10.991,7.372,14.39,11.875.673.89,1.325,1.8,1.981,2.7,0,0,.3.4-.364.282-5.043-6.088-10.365-12.325-17.215-14.516q-4.665,1.321-9.318,2.671a12.341,12.341,0,0,1,2.075,1.074c6.687,4.459,11.016,11.811,14.515,18.834,0,0,.433.72-.107.535q-.315-.552-.633-1.1-1.313-2.252-2.693-4.459c-.119-.186-.117-.186-.23-.374-3.5-5.761-7.8-11.25-13.7-14.283q-5.086,1.473-10.166,2.966a20.957,20.957,0,0,1,3.891,1.532q.777.443,1.529.932a33.48,33.48,0,0,1,3.929,3.019s2.726,2.7,4.2,4.568a53.429,53.429,0,0,1,4.048,5.92s.472.73-.454.508c-.14-.21-.281-.42-.424-.629-4.606-6.708-10.767-12.828-17.529-15.612q-3.415,1-6.828,2.007c6.313,4.071,11.1,10.18,14.65,16.48,0,0,.188.332-.324.19-3.968-6.445-8.973-12.422-15.226-16.406q-4.74,1.4-9.485,2.787a41.176,41.176,0,0,1,8.789,5.82,58.082,58.082,0,0,1,8.122,9.264l2.073,3.271s.531.77-.3.572c-.927-1.348-2.335-3.241-2.335-3.241-.156-.219-.312-.436-.47-.655-4.174-5.726-9.215-10.893-15.54-14.1l-1.3-.654q-4.566,1.335-9.14,2.658a71.1,71.1,0,0,1,22.16,22.493s.481.692.055.583a78.581,78.581,0,0,0-23.1-22.821q-3.644,1.051-7.3,2.087c.816.569,1.472,1.054,1.472,1.054,8.178,7.03,13.751,16.865,17.337,27.2a2.162,2.162,0,0,1-.158.629l-.455-.219c-3.648-10.086-9.156-19.714-17.366-26.7,0,0-.9-.842-1.878-1.673q-5.384,1.521-10.792,3s-2.614.687-4.842,1.242c0,0-2.3.386-4.78.772,0,0-1.13.283-.528-.593,1.486-.442,2.951-.936,4.41-1.456,0,0,5.159-1.386,8.791-2.346q3.144-.836,6.284-1.69c.31-1.11.79-2.791,1.224-4.13a111.57,111.57,0,0,0,4.014-14.774,71.117,71.117,0,0,0,.725-20.248l.073-.209a84.142,84.142,0,0,1-2.693,32.343l-.069.258a34.185,34.185,0,0,1-1.723,5.2c-.2.413-.436.853-.652,1.252l.065.042q4.191-1.141,8.378-2.3l.337-1.159c.634-1.388,1.266-2.779,1.872-4.18,0,0,1.217-2.622,2.065-4.922,3.026-8.2,3.975-17.1,3.752-25.859l.2-.412c.514,10.612-.718,21.429-4.856,31.544-.637,1.448-1.307,2.882-1.977,4.314,0,0-.065.092-.238.353q4.017-1.118,8.031-2.25c2.6-10.066,7.065-19.461,5.98-31.536l.132-.437.193.159a46.821,46.821,0,0,1-1.086,18.6c-1.222,4.37-3.092,8.6-4.414,12.987q4.956-1.4,9.908-2.8c.2-.966.519-2.36.834-3.441a89.982,89.982,0,0,0,4.041-21.785l.259-.584a4.755,4.755,0,0,1,.207,1.3,77.93,77.93,0,0,1-4.678,24.32l7.407-2.1c.361-1.635,1.023-4.591,1.45-6.236,1.34-5.217,2.471-10.415,2.286-15.652l.263-.3a2.318,2.318,0,0,1,.357.993,40.353,40.353,0,0,1-.635,10.023s-.58,2.645-1.076,4.384c-.633,2.217-1.227,4.456-2.007,6.61q4.916-1.392,9.831-2.773c.071-.143,0,0,.137-.391,0,0,.406-2.921.6-4.865.6-5.688,1.425-11.452.618-17.1l.162-.363.249.181a55.76,55.76,0,0,1,.259,15.758,24.514,24.514,0,0,1-1.137,6.528q2.93-.82,5.86-1.633c.017-.035.036-.071.059-.108a40.165,40.165,0,0,0,4.506-12.848,80.311,80.311,0,0,0,1.5-14.309l.227-.242a3.565,3.565,0,0,1,.258,1.091c.18,7.411-.447,14.946-3.08,21.338a33.352,33.352,0,0,1-2.461,4.8q4.7-1.3,9.4-2.571c4.473-5.7,6.77-13.038,7.461-19.708,0,0,.641-.857.547.739a35.509,35.509,0,0,1-2.341,11.162,29.862,29.862,0,0,1-4.435,7.475q6.777-1.823,13.561-3.56l.468-.118s.656-.146.173.671Q1349.241,339.2,1342.819,340.977Z" transform="translate(-1255.671 -316.197)"/></g></g></g><g transform="translate(1167.342 223.514)"><path class="n" d="M1189.992,316.7l-9.874-13.768s12.974-11,23.282-14.243c14.063-4.42,82.378,2.861,88.776,7.481,5.822,4.2,11.661,40.546,4.446,70.717-.7,2.94-9.97,15.251-15.022,17.583C1274.7,387.659,1189.992,316.7,1189.992,316.7Z" transform="translate(-1176.791 -229.198)"/><g transform="translate(3.327 58.123)"><g class="o"><g transform="translate(89.513 3.257)"><path class="p" d="M1280.056,315.709s15.533-10.806,22.638-23.345,22.791,58.668,8.082,84.29-32.391,24.692-32.391,24.692S1281.976,316.006,1280.056,315.709Z" transform="translate(-1278.385 -290.897)"/></g></g></g><path class="q" d="M1179.793,304.227c-4.7,4.1-4.391,68.75.737,72.556,6.054,4.494,95.305,15.234,101.33,9.594,4.215-3.944,6.558-68.472-3.748-74.287C1266.625,305.608,1187.169,297.784,1179.793,304.227Z" transform="translate(-1176.466 -230.49)"/><g transform="translate(42.039 93.56)"><path class="n" d="M1222.8,326.223l16.785,1.567-.187,39.541-16.785-1.567Z" transform="translate(-1222.617 -326.223)"/><g class="r"><g transform="translate(5.713 -0.236)"><path class="s" d="M1229.089,325.965l11.554,1.079-.2,42.384-11.554-1.079Z" transform="translate(-1228.889 -325.965)"/></g></g></g><g transform="translate(22.351 59.787)"><ellipse class="t" cx="11.999" cy="5.665" rx="11.999" ry="5.665"/></g><g transform="translate(75.543 63.538)"><ellipse class="t" cx="6.054" cy="12.318" rx="6.054" ry="12.318" transform="translate(0 12.087) rotate(-86.683)"/></g><g transform="translate(25.394)"><path class="u" d="M1258.317,291.733c.372-7.462.653-29.541.653-29.541s.706-19.589-18.227-19.777c-11.2-.111-16.665,8.113-17.289,16.241-.442,5.754-.586,24.3-.993,28.411-.231,2.322-.209,5.232-8.828,5.854-4.216.3-8.724-1.928-8.863-3.678-.152-1.923-.86-20.305-.034-32.515.782-11.538,2.562-33.911,37.372-33.2,35.386.724,36.612,26.895,36.042,40.11-.828,19.193-.844,24.73-1.271,29.292-.276,2.942-5.432,5.358-10.176,5C1262.248,297.591,1258.172,294.659,1258.317,291.733Z" transform="translate(-1204.343 -223.514)"/><g class="v"><g transform="translate(-5.72 -13.595)"><path class="w" d="M1199.746,279.04s6.483,6.145,12.841.737c0,0,.031-13.369.894-23.421.473-5.513.279-16.049,10.007-21.342,16.794-9.136,23.023,4.167,37.61-9.966,4.9-4.751,5.319-21.18-20.735-15.144S1191.6,238.446,1199.746,279.04Z" transform="translate(-1198.064 -208.589)"/></g></g></g></g><g transform="translate(1074.042 304.903)"><path class="x" d="M1100.277,330.639a13.541,13.541,0,0,1-12.7,8.6,13.191,13.191,0,1,1,0-26.372,13.542,13.542,0,0,1,12.7,8.608h47.62v-4.1h8.516v4.1h3.613v-4.327h6.313v4.327h3.641v-4.262h4.464v13.484h-4.464v-.055ZM1087.6,320.054a5.975,5.975,0,1,1-6.183,5.972A6.084,6.084,0,0,1,1087.6,320.054Z" transform="translate(-1074.042 -312.863)"/></g><g transform="translate(1101.396 314.319)"><g transform="translate(2.947 8.288)"><path class="q" d="M1115.86,332.494c-1.783.38-3.187,2.414-3.538,4.433-.255,1.461-.089,3-.67,4.39-.818,1.958-3.033,2.1-3.976,3.861a2.831,2.831,0,0,0,.183,3.094c.249.234,1.191.424,1.2.668.069,1.518-1.951,3.306-.809,4.85a1.649,1.649,0,0,0,1.774.471c.065-.028.7-.5.717-.489.387.253.638,1.2.913,1.608.891,1.311,2.381,2.539,4,2.378a3.378,3.378,0,0,0,1.414-.52c2.85-1.73,7.15-.52,8.353-3.727,1.652-4.4-2.24-4.025-1.069-6.948,1.429-3.566-.654-4.106-.889-5.845-.208-1.535.117-3.213-.263-4.711C1122.625,333.727,1119.864,331.641,1115.86,332.494Z" transform="translate(-1107.307 -332.299)"/></g><g transform="translate(6.949 34.955)"><path class="q" d="M1117.854,361.935s1.7-1.355,2.133,1.187c1.176,6.825.278,18.509-.428,22.779a75.81,75.81,0,0,0,.36,18.249s-.272,2.181-1.453.626-6-13.422-3.136-19.4c0,0-6.975-14.088-1.59-21.676C1115.02,361.9,1117.854,361.935,1117.854,361.935Z" transform="translate(-1111.699 -361.574)"/></g><g transform="translate(10.119 11.475)"><path class="y" d="M1117.5,341.846a1.621,1.621,0,0,1-1.222-1.514s-.8.144-1.066-.844a.607.607,0,0,1,.558-.821c.694-.057,1.157,1.394,1.359,1.241.939-.714.454-1.333.253-1.837a.816.816,0,0,1,.984-1.018c3,.784,3.448-1.859,3.681-1.125.651,2.05-.315,5.309-1.137,6.483A26.661,26.661,0,0,1,1117.5,341.846Z" transform="translate(-1115.179 -335.797)"/></g><g transform="translate(10.587 20.765)"><path class="y" d="M1121.621,349.511c-.527-1.283-2.206-3.652-4.922-3.509-1.442.076-1.385,8.594.508,13.079.823,1.947,2.915,3.613,3.448,1.569S1122.149,350.794,1121.621,349.511Z" transform="translate(-1115.694 -345.996)"/></g><g transform="translate(11.25 16.187)"><path class="y" d="M1117.368,340.97a1.8,1.8,0,0,1,.422.895,3.211,3.211,0,0,1-1.194,2.785c-.951.908,2.256,2.033,2.772,1.122l.618-2.994S1120.383,341.384,1117.368,340.97Z" transform="translate(-1116.421 -340.97)"/></g><g transform="translate(7.868 30.175)"><path class="y" d="M1120.221,357.551l.493,2.6s-.347,5.618-1.849,7.861-1.682,2.27-2.03.925-.654-4.949-4.126-6.057a13.2,13.2,0,0,1,3.547-2.389c1.048-.4-.2-4.167-.2-4.167Z" transform="translate(-1112.709 -356.326)"/></g><g transform="translate(0.754 32.843)"><path class="q" d="M1113.839,359.542c1.919-1,5.674.751,5.774,3.337s-3.114,19.346-4.36,23.481-6.937,10.04-8.741,14.516c0,0-.553,2.124-1.46.41s2.342-11.707,6.269-16.063C1111.321,385.222,1100.585,366.47,1113.839,359.542Z" transform="translate(-1104.899 -359.255)"/></g><g transform="translate(10.266)"><g transform="translate(17.911)"><path class="y" d="M1135,326a8.068,8.068,0,0,1,.913-.915,4.155,4.155,0,0,0,.792-1.088c.233-.429.056-.387.16-.589.022-.043.155.028.244.314a.8.8,0,0,1-.108.663c.467-.3,2.076-1.407,2.208-1.151.07.136-1.757,1.315-1.734,1.309.193-.054,1.314-.48,1.725-.669s.46-.127.506-.109-.1.146-.23.215c-.417.223-1.694,1.007-1.852,1.07-.032.013,1.35-.382,1.864-.445.344-.042.606.025.043.253a11.611,11.611,0,0,1-1.253.368c-.19.052-.521.206-.71.259-.083.023.867-.054,1.2-.051a1.9,1.9,0,0,1,.526.074c.095.027-.032.179-.192.2a4.93,4.93,0,0,0-1.222.187,3.872,3.872,0,0,0-1.379.8C1136.225,326.948,1135,326,1135,326Z" transform="translate(-1135.004 -323.2)"/></g><g transform="translate(2.537 2.199)"><path class="y" d="M1118.538,344.374s.893,2.5,6.375-4.675l10.26-13s.044-1.949-1.548-.616-9.4,10.468-11.743,12.436S1117.147,342.272,1118.538,344.374Z" transform="translate(-1118.126 -325.614)"/></g><g transform="translate(0 12.523)"><path class="z" d="M1115.425,347.2c.309.835,1.458,1.014,2.834.451a14.889,14.889,0,0,0,2.8-2.428l5.12-5.883-2.351-2.392-6.1,5.389S1114.818,345.554,1115.425,347.2Z" transform="translate(-1115.341 -336.948)"/></g></g><g transform="translate(13.451 77.368)"><path class="x" d="M1120.462,408.648c-.106-.121-.741-.834.406-.342a6.4,6.4,0,0,0,2.617.273,6.684,6.684,0,0,1,1.887.133.954.954,0,0,1,.65.661,17.819,17.819,0,0,1-6.987.334c-.28-.68.106-.683-.2-.967C1118.868,408.557,1120.026,408.589,1120.462,408.648Z" transform="translate(-1118.837 -408.134)"/><g class="aa"><g transform="translate(-1.125 0.262)"><path class="e" d="M1120.465,409.491q-.284-.046-.574-.107c-.637-.111-1.554-.33-1.588-.337-.67-.164-1.567.4,1.109.87a15,15,0,0,0,9.009-.689l.857-.387.026-.141-.441.016c-.421.119-.832.245-1.248.379l.427-.323c.078-.144.04-.2-.207-.308-.446-.138-.456.1-.456.1a10.67,10.67,0,0,1-1.494.578c-.577-.036-2.816-.471-4.032-.061,0,0-.69.155-1.026.272Q1120.644,409.422,1120.465,409.491Zm4.771-.168a12.048,12.048,0,0,1-4.111.256,11.944,11.944,0,0,1,1.266-.443,3.368,3.368,0,0,1,1.334-.045c.411.051.632.118.853.148S1125.018,409.3,1125.236,409.324Zm-3.8-.06-.351.091S1121.492,409.24,1121.436,409.264Z" transform="translate(-1117.602 -408.421)"/></g></g></g><g transform="translate(0 74.058)"><path class="x" d="M1105.732,405.824c.046-.154.311-1.07.506.159a6.357,6.357,0,0,0,1.166,2.35,6.635,6.635,0,0,1,.9,1.661.954.954,0,0,1-.214.9,17.68,17.68,0,0,1-4.014-5.707c.427-.6.636-.277.714-.684C1104.957,404.432,1105.549,405.425,1105.732,405.824Z" transform="translate(-1104.071 -404.501)"/><g class="ab"><g transform="translate(-0.364 -0.715)"><path class="e" d="M1105.063,406.287c-.076-.177-.148-.356-.217-.54-.245-.6-.55-1.485-.562-1.518-.218-.65-1.172-1.109-.146,1.4a14.9,14.9,0,0,0,5.395,7.221l.786.515.134-.053-.249-.363c-.326-.291-.652-.569-.987-.848l.5.187c.164-.012.193-.074.151-.339-.121-.45-.332-.329-.332-.329a10.61,10.61,0,0,1-1.289-.949c-.277-.5-1.1-2.624-2.1-3.43,0,0-.5-.5-.779-.718C1105.268,406.441,1105.165,406.361,1105.063,406.287Zm2.69,3.93a11.964,11.964,0,0,1-2.413-3.326,12.045,12.045,0,0,1,1.052.829,3.33,3.33,0,0,1,.75,1.1c.176.373.238.595.331.8S1107.657,410.018,1107.753,410.216Zm-1.979-3.234-.264-.247S1105.824,407.016,1105.773,406.983Z" transform="translate(-1103.672 -403.716)"/></g></g></g><g transform="translate(8.042 19.396)"><path class="z" d="M1120.174,362.392a5.561,5.561,0,0,1-4.3.136,4.513,4.513,0,0,1-2.9-3.153s-.911-10.353,3.7-14.6l3.035-.285a21.364,21.364,0,0,1,1.894,1.27,25.658,25.658,0,0,1,1.552,5.182C1123.452,353.076,1121.623,357.729,1120.174,362.392Z" transform="translate(-1112.9 -344.493)"/></g></g></g></svg>