<svg id="Group_482" data-name="Group 482" xmlns="http://www.w3.org/2000/svg" xmlns:xlink="http://www.w3.org/1999/xlink" width="375" height="667" viewBox="0 0 375 667">
  <defs>
    <linearGradient id="linear-gradient" x1="0.518" y1="-0.109" x2="0.5" y2="1" gradientUnits="objectBoundingBox">
      <stop offset="0" stop-color="#8cc63f"/>
      <stop offset="1" stop-color="#009245"/>
    </linearGradient>
    <clipPath id="clip-path">
      <rect id="Rectangle_165" data-name="Rectangle 165" width="287" height="369" transform="translate(-2840 -1023)" fill="#fff"/>
    </clipPath>
  </defs>
  <rect id="Rectangle_28" data-name="Rectangle 28" width="375" height="667" fill="url(#linear-gradient)"/>
  <g id="Mask_Group_1" data-name="Mask Group 1" transform="translate(2840 1321)" opacity="0.06" clip-path="url(#clip-path)">
    <path id="Union_10" data-name="Union 10" d="M206.429,469.2c9.871-7.058,12.4-18.4,12.413-18.446-.006.024-2.29,9.455-13.451,17.655a12.883,12.883,0,0,0-3.066,3.56c-.346-.049-10.139-16.419,13.106-24.826a20.515,20.515,0,0,0,6.033-3.956,24.3,24.3,0,0,1,3.66,16.221c-.594,3.907-5.143,15.084-19.04,13.451a12.209,12.209,0,0,0-1.731,4.8,19.211,19.211,0,0,0-2.226.792C202.77,474.592,204.253,470.783,206.429,469.2Zm57.466,6.133v-2.572h4.5v-7.616H272.2v7.616h4.6v2.572Zm-89.611-8.7,2.67-45.2c-8.506,3.906-29.079,13.055-30.266,11.028s17.112-15.331,24.727-20.722a12.137,12.137,0,0,0-.1,1.336,8.951,8.951,0,1,0,17.9,0,12.19,12.19,0,0,0-.1-1.286c7.617,5.44,25.915,18.694,24.628,20.672-1.187,2.028-21.759-7.122-30.266-11.028l2.671,45.2s-1.484,2.967-5.935,2.967S174.284,466.629,174.284,466.629Zm113.992-2.77H248.811a1.578,1.578,0,0,1-1.731-1.384l4.549-23.491a1.616,1.616,0,0,1,1.732-1.385h32.986a1.615,1.615,0,0,1,1.731,1.385l5.737,23.491a1.614,1.614,0,0,1-1.731,1.384Zm-39.118-1.632h42.58L286,439.331H253.707Zm28.337-1.681V455.2h10.583l1.483,5.341Zm-11.82,0V455.2h9.693v5.341Zm-14.639,0,1.533-5.341h10.88v5.341Zm26.458-7.171v-5.341h9.049l1.534,5.341Zm-11.82,0v-5.341h9.693v5.341Zm-13.4,0,1.483-5.341h9.693v5.341Zm42.233-4.995-3.313-1.929-.1-.494,1.384-1.385a.182.182,0,0,1,.148-.049c.049,0,.049.049.1.1l2.028,3.512a.2.2,0,0,1-.188.257A.2.2,0,0,1,294.507,448.38Zm-186-.94a1.014,1.014,0,0,1-.4-1.236l11.374-27H109.054a1.02,1.02,0,0,1-.841-.494,1.009,1.009,0,0,1-.049-.989L123.4,387.255a.936.936,0,0,1,.891-.544h16.221a1.043,1.043,0,0,1,.89.544,1.1,1.1,0,0,1-.049,1.039l-11.869,18.743H141.5a1.05,1.05,0,0,1,.94.593.885.885,0,0,1-.1,1.039l-32.492,38.575a1.167,1.167,0,0,1-.791.346A1,1,0,0,1,108.51,447.44ZM277.446,446.3v-5.341h7.566L286.5,446.3Zm-11.82,0v-5.341h9.693V446.3Zm-11.919,0,1.534-5.341H263.4V446.3Zm35.41-8.457a1.615,1.615,0,0,0-1.732-1.384h-7.862a7.091,7.091,0,0,1,6.676-4.648,7.135,7.135,0,0,1,4.549,12.66Zm6.429,2.424a.182.182,0,0,1-.049-.148v-2.127a.175.175,0,0,1,.2-.2l3.956,1.039c.148.049.148.3,0,.445l-3.956,1.039A.182.182,0,0,1,295.546,440.27ZM293.32,433.4l-1.533-1.534a.18.18,0,0,1-.049-.148.106.106,0,0,1,.1-.1l3.511-2.028c.148-.049.347.1.247.247l-2.028,3.511a.106.106,0,0,1-.1.1A.182.182,0,0,1,293.32,433.4Zm-15.281-.049-1.78-3.215c-.049-.148.148-.3.247-.247l3.263,1.78a.173.173,0,0,1,.049.1.179.179,0,0,1-.049.148l-1.483,1.484a.182.182,0,0,1-.148.049Zm60.384-7.863v-13.5h-4.055v20.276h-27V389.035a5.4,5.4,0,0,1,5.39-5.39h16.222a5.4,5.4,0,0,1,5.39,5.39v18.941h2.72a5.4,5.4,0,0,1,5.391,5.39v12.166a2.72,2.72,0,0,0,5.44,0V406.048a7.223,7.223,0,0,1-2.72.544,6.747,6.747,0,0,1-2.423-13.055l-5.688-5.687,2.868-2.869,10.04,10.089a6.608,6.608,0,0,1,1.978,4.747v25.667a6.775,6.775,0,0,1-13.55,0Zm4.055-25.667a2.745,2.745,0,0,0,2.72,2.721,2.712,2.712,0,0,0,2.72-2.721,2.72,2.72,0,0,0-5.44,0ZM312.8,402.537h16.222v-13.5H312.8Zm-54.4,27.694a1.107,1.107,0,0,1-.445-1.335l11.919-28.288h-10.93a1.058,1.058,0,0,1-.94-1.533l15.925-31.9a1.049,1.049,0,0,1,.94-.593h17.012a1.06,1.06,0,0,1,.94.544,1.207,1.207,0,0,1-.049,1.088l-12.413,19.634h12.611a1.017,1.017,0,0,1,.94.593.965.965,0,0,1-.148,1.138l-34.024,40.4a1.032,1.032,0,0,1-.791.4A1,1,0,0,1,258.405,430.231Zm26.755-.2c-.049,0-.1-.049,0-.049a.18.18,0,0,1-.049-.148l1.039-3.956c0-.148.247-.148.3,0l1.039,3.956a.175.175,0,0,1-.2.2ZM82.893,427.758c-18.347-6.775-3.758-30.415,4.847-39.712a.728.728,0,0,1,.742-.742.477.477,0,0,1,.743.346.638.638,0,0,1,.2.5c.346,6.973,4.154,10.534,8.21,15.825,2.868,3.709,5.44,8.852,4.549,13.649-1.273,7.058-7.267,11.138-13.763,11.138A15.877,15.877,0,0,1,82.893,427.758ZM78.738,414.8a9.429,9.429,0,0,0,.346,3.066,9.925,9.925,0,0,0,3.857,5.539c1.088.693,2.522,1.385,3.808.989,1.237-.445,4.154-2.028,3.413-3.857-1.237-2.967-5.688-4.451-7.863-6.825a9.921,9.921,0,0,1-1.978-4.1A37.025,37.025,0,0,0,78.738,414.8Zm141.291,9.5c0-1.088-.149-2.175-.049-3.263a1.946,1.946,0,0,0-1.286-2.127,8.594,8.594,0,0,1-5-7.814c-.049-7.863-.1-15.727,0-23.54a9.163,9.163,0,0,1,6.38-8.6c.445-.148.94-.3,1.384-.445v-9.891c-.791-.692-1.731-1.187-1.681-1.632.049-.693.742-1.286,1.138-1.978h21.364c.4.643,1.187,1.335,1.138,1.929,0,.494-.989.989-1.732,1.632v9.94c.495.148.989.3,1.435.445,3.709,1.484,6.232,4.055,6.28,8.16.148,8.11.1,16.171.049,24.282,0,2.522-.94,5-3.065,6.133-3.017,1.582-3.512,3.857-3.215,6.774Zm3.164-3.511a9.472,9.472,0,0,0,2.325.841q6.083.148,12.165,0a7.742,7.742,0,0,0,2.374-.89,1.739,1.739,0,0,0-.2-.445c-5.539-.049-11.028-.049-16.518-.049C223.293,420.439,223.243,420.587,223.194,420.785Zm4.352-44.113H239.81v-6.825H227.546Zm152.418,41.1,1.286-22.254c-4.2,1.929-14.342,6.429-14.935,5.44-.593-1.039,8.407-7.566,12.165-10.237a2.87,2.87,0,0,0-.049.643,4.4,4.4,0,1,0,8.8,0,2.819,2.819,0,0,0-.049-.643c3.709,2.67,12.758,9.2,12.264,10.237-.593.989-10.732-3.511-14.936-5.44l1.286,22.254a3.61,3.61,0,0,1-5.836,0Zm-205.63-4.648a5.934,5.934,0,1,1,5.935,5.935A5.934,5.934,0,0,1,174.334,413.12Zm5.984-8.951a8.851,8.851,0,0,0-5.589,1.978c.89-9.3,3.215-31.749,5.589-31.749,2.324,0,4.7,22.452,5.588,31.749A8.954,8.954,0,0,0,180.318,404.168ZM379.865,391.36a2.918,2.918,0,1,1,2.918,2.918A2.918,2.918,0,0,1,379.865,391.36ZM57.572,392.991v-4.352a.742.742,0,0,1,1.484,0v4.352a.742.742,0,0,1-1.484,0Zm-6.528-2.868a.75.75,0,0,1-.4-.94l.791-2.028a.751.751,0,0,1,.94-.4.731.731,0,0,1,.4.94l-.791,2.028a.745.745,0,0,1-.692.445A.538.538,0,0,1,51.044,390.123Zm13.946-.593-.841-1.978a.721.721,0,0,1,1.335-.544l.841,1.978a.75.75,0,0,1-.4.94.628.628,0,0,1-.3.049A.681.681,0,0,1,64.991,389.53Zm8.753-1.088-4.154-4.154a.734.734,0,0,1,1.039-1.039l4.1,4.154a.718.718,0,0,1,0,1.039.635.635,0,0,1-.495.2A.706.706,0,0,1,73.744,388.442Zm-31.848,0a.717.717,0,0,1,0-1.039l4.153-4.154a.66.66,0,0,1,.989,0,.717.717,0,0,1,0,1.039l-4.153,4.154a.635.635,0,0,1-.5.2A.708.708,0,0,1,41.9,388.442Zm340.887-1.483a4.494,4.494,0,0,0-2.769.989c.445-4.6,1.582-15.628,2.769-15.628s2.325,11.029,2.769,15.628A4.215,4.215,0,0,0,382.783,386.959ZM43.132,371.974a15.183,15.183,0,1,1,15.183,15.182A15.218,15.218,0,0,1,43.132,371.974Zm13.8-6.825-3.61,7.22a.7.7,0,0,0,.049.692.685.685,0,0,0,.593.346h1.187l-1.879,6.281a.708.708,0,0,0,.346.841.918.918,0,0,0,.347.1.7.7,0,0,0,.593-.3l7.221-9.4a.678.678,0,0,0,.1-.742.663.663,0,0,0-.643-.4v.05H60.095l1.731-4.055a.687.687,0,0,0-.049-.692.6.6,0,0,0-.593-.346H57.572A.713.713,0,0,0,56.93,365.149Zm49.207,20.672v-2.572h4.5v-7.616h3.808v7.616h4.6v2.572Zm-65.774-6.232a.75.75,0,0,1,.4-.94l1.978-.841a.751.751,0,0,1,.94.4.707.707,0,0,1-.4.94l-1.978.841a.628.628,0,0,1-.3.049A.682.682,0,0,1,40.362,379.589Zm317.4-.742v-6.825a1.119,1.119,0,0,1,1.138-1.138,1.151,1.151,0,0,1,1.138,1.138v6.825a1.138,1.138,0,1,1-2.275,0Zm-282.284.841-2.028-.792a.721.721,0,1,1,.544-1.335l2.028.791a.707.707,0,0,1,.4.94.746.746,0,0,1-.692.445A.538.538,0,0,1,75.475,379.688Zm271.9-5.341a1.13,1.13,0,0,1-.643-1.484l1.286-3.165a1.129,1.129,0,0,1,1.484-.643,1.166,1.166,0,0,1,.643,1.533l-1.286,3.165a1.07,1.07,0,0,1-1.039.692A1.464,1.464,0,0,1,347.374,374.348Zm-216.857,0H91.052a1.578,1.578,0,0,1-1.731-1.384l4.549-23.491a1.616,1.616,0,0,1,1.732-1.385h32.986a1.615,1.615,0,0,1,1.731,1.385l5.737,23.491a1.614,1.614,0,0,1-1.731,1.384ZM91.4,372.715h42.58l-5.737-22.9H95.948Zm277.982.791-1.336-3.115a1.13,1.13,0,1,1,2.077-.89l1.336,3.115a1.107,1.107,0,0,1-.594,1.484,1.434,1.434,0,0,1-.445.1A1.118,1.118,0,0,1,369.381,373.506Zm-294.45-.742a.742.742,0,0,1,0-1.484h4.352a.728.728,0,0,1,.742.742.76.76,0,0,1-.742.742Zm-37.585-.049a.742.742,0,0,1,0-1.484H41.7a.742.742,0,0,1,0,1.484Zm345.734-1.039-6.528-6.528a1.119,1.119,0,0,1,1.582-1.582l6.528,6.528a1.1,1.1,0,0,1,0,1.582.983.983,0,0,1-.791.346A1.053,1.053,0,0,1,383.08,371.677Zm-50,0a1.1,1.1,0,0,1,0-1.582l6.529-6.528a1.119,1.119,0,0,1,1.582,1.582l-6.528,6.528a1.077,1.077,0,0,1-1.583,0ZM160.981,360.1c11.967-8.555,14.984-22.254,14.984-22.254s-2.769,11.424-16.221,21.315a16.6,16.6,0,0,0-3.709,4.3c-.4-.1-12.216-19.832,15.825-29.969a24.028,24.028,0,0,0,7.27-4.747,29.011,29.011,0,0,1,4.352,19.583c-.692,4.7-6.181,18.2-22.946,16.221a15.078,15.078,0,0,0-2.077,5.787c-.791.2-2.67.94-2.67.94C156.53,366.632,158.31,361.984,160.981,360.1Zm-41.245,10.93v-5.341h10.583l1.483,5.341Zm-11.82,0v-5.341h9.693v5.341Zm-14.639,0,1.533-5.341h10.88v5.341ZM410.773,370v-2.572h4.5v-7.615h3.808v7.615h4.6V370Zm-75.714-24.084A23.837,23.837,0,1,1,358.9,369.748,23.85,23.85,0,0,1,335.059,345.911ZM356.72,335.13,351.033,346.5a1.074,1.074,0,0,0,.049,1.088,1.2,1.2,0,0,0,.989.544h1.879l-2.967,9.89a1.138,1.138,0,0,0,.593,1.336.836.836,0,0,0,.495.148,1.058,1.058,0,0,0,.89-.446l11.374-14.737a1.138,1.138,0,0,0,.1-1.186,1.153,1.153,0,0,0-1.039-.644v-.049h-1.632l2.72-6.379a1.2,1.2,0,0,0-.1-1.088,1.124,1.124,0,0,0-.94-.494h-5.687A1.152,1.152,0,0,0,356.72,335.13ZM42.638,366.385l-2.028-.791a.721.721,0,1,1,.544-1.335l2.028.791a.718.718,0,0,1-.3,1.384A.538.538,0,0,1,42.638,366.385ZM73,365.792a.66.66,0,0,1,.4-.94l1.978-.841a.721.721,0,1,1,.545,1.335l-1.978.841a.638.638,0,0,1-.3.049A.681.681,0,0,1,73,365.792Zm136.84-1.929v-2.522a.444.444,0,0,1,.445-.445.522.522,0,0,1,.445.445v2.522a.445.445,0,1,1-.89,0Zm-90.105,0v-5.341h9.05l1.534,5.341Zm-11.82,0v-5.341h9.693v5.341Zm-13.4,0L96,358.522h9.693v5.341Zm111.469-1.681a.4.4,0,0,1-.247-.544l.494-1.186a.4.4,0,0,1,.545-.247.436.436,0,0,1,.247.593l-.494,1.187a.441.441,0,0,1-.4.247C206.083,362.231,206.033,362.182,205.984,362.182Zm8.16-.3-.5-1.186a.423.423,0,0,1,.792-.3l.494,1.138a.5.5,0,0,1-.247.544.181.181,0,0,1-.148.049A.441.441,0,0,1,214.144,361.885Zm5.143-.692-2.424-2.423a.42.42,0,0,1,.594-.594l2.423,2.424a.45.45,0,0,1,0,.593.37.37,0,0,1-.593,0Zm-18.595,0a.451.451,0,0,1,0-.593l2.423-2.424a.42.42,0,0,1,.594.594l-2.424,2.423a.37.37,0,0,1-.593,0ZM69.54,360.747a.717.717,0,0,1,0-1.039l4.154-4.154a.734.734,0,0,1,1.039,1.038l-4.154,4.154a.636.636,0,0,1-.5.2A.824.824,0,0,1,69.54,360.747Zm-23.491,0-4.2-4.154a.734.734,0,0,1,1.039-1.039l4.153,4.154a.717.717,0,0,1,0,1.039.634.634,0,0,1-.494.2A.709.709,0,0,1,46.049,360.747ZM201.434,351.6a8.852,8.852,0,1,1,8.852,8.852A8.844,8.844,0,0,1,201.434,351.6Zm8.061-3.956-2.127,4.2a.3.3,0,0,0,0,.4.417.417,0,0,0,.346.2h.742l-1.088,3.659a.405.405,0,0,0,.2.495.3.3,0,0,0,.2.049.449.449,0,0,0,.346-.148l4.2-5.489a.481.481,0,0,0,.049-.445.5.5,0,0,0-.4-.247v.049h-.593l1.039-2.373a.374.374,0,0,0-.049-.4.331.331,0,0,0-.346-.2h-2.127A.392.392,0,0,0,209.5,347.642Zm-72.748,11.226-3.313-1.929-.1-.494,1.384-1.385a.182.182,0,0,1,.148-.049c.049,0,.049.049.1.1L137,358.621a.2.2,0,0,1-.188.257A.179.179,0,0,1,136.748,358.868Zm193.96-.989a1.106,1.106,0,0,1,.593-1.483l3.116-1.336a1.106,1.106,0,0,1,1.483.594,1.146,1.146,0,0,1-.593,1.483l-3.116,1.336a1.44,1.44,0,0,1-.445.1A1.118,1.118,0,0,1,330.708,357.879Zm104.448.643H395.69a1.58,1.58,0,0,1-1.732-1.385l4.549-23.491a1.616,1.616,0,0,1,1.732-1.385h32.986a1.616,1.616,0,0,1,1.732,1.385l5.737,23.491a1.615,1.615,0,0,1-1.732,1.385Zm-39.118-1.633h42.58l-5.737-22.9H400.586Zm-10.188,1.138-3.165-1.285a1.143,1.143,0,0,1,.841-2.127l3.165,1.286a1.255,1.255,0,0,1,.643,1.533,1.069,1.069,0,0,1-1.038.692A1.445,1.445,0,0,1,385.849,358.027ZM51.193,356.939l-.841-1.978a.721.721,0,1,1,1.335-.544l.841,1.978a.751.751,0,0,1-.4.94.628.628,0,0,1-.3.049A.681.681,0,0,1,51.193,356.939Zm13.1.3a.692.692,0,0,1-.4-.94l.791-2.028a.721.721,0,0,1,1.336.544l-.792,2.028a.744.744,0,0,1-.692.445A.538.538,0,0,1,64.3,357.236Zm55.389-.445V351.45h7.566l1.483,5.341Zm-11.82,0V351.45h9.693v5.341Zm-11.919,0,1.534-5.341h8.159v5.341ZM199.753,356a.5.5,0,0,1,.247-.544l1.186-.495a.5.5,0,0,1,.544.247c.1.247,0,.495-.247.495l-1.187.494a.182.182,0,0,1-.148.049A.441.441,0,0,1,199.753,356Zm20.573.1-1.187-.494a.423.423,0,1,1,.3-.791l1.186.494a.535.535,0,0,1,.247.593.441.441,0,0,1-.4.247C220.424,356.148,220.376,356.1,220.326,356.1Zm-162.754-.742V351a.742.742,0,0,1,1.484,0v4.352a.761.761,0,0,1-.742.742A.8.8,0,0,1,57.572,355.357Zm366.8-.148v-5.342h10.583l1.482,5.342Zm-11.82,0v-5.342h9.693v5.342Zm-14.639,0,1.534-5.342h10.88v5.342Zm-266.558-6.875a1.614,1.614,0,0,0-1.731-1.384h-7.863a7.092,7.092,0,0,1,6.676-4.648,7.134,7.134,0,0,1,4.55,12.659Zm88.672,3.709a.445.445,0,1,1,0-.89h2.522a.479.479,0,0,1,.446.445.443.443,0,0,1-.446.445Zm-22.007,0a.445.445,0,1,1,0-.89h2.522a.445.445,0,0,1,0,.89Zm-60.236-1.285a.182.182,0,0,1-.049-.148v-2.127a.175.175,0,0,1,.2-.2l3.956,1.039c.149.049.149.3,0,.445l-3.956,1.039A.182.182,0,0,1,137.786,350.758Zm136.939-7.023v-11.82h-3.561V349.67H247.476V311.788a4.749,4.749,0,0,1,4.747-4.747h14.193a4.748,4.748,0,0,1,4.747,4.747v16.567h2.374a4.748,4.748,0,0,1,4.747,4.747v10.633a2.374,2.374,0,1,0,4.747,0V326.723a6.375,6.375,0,0,1-2.373.494,5.934,5.934,0,0,1-2.127-11.473l-4.995-4.995,2.523-2.522,8.8,8.852a5.705,5.705,0,0,1,1.732,4.154v22.5a5.935,5.935,0,1,1-11.869,0Zm3.61-22.5a2.407,2.407,0,0,0,2.374,2.374,2.374,2.374,0,0,0,2.373-2.374,2.374,2.374,0,0,0-4.747,0Zm-26.062,2.374h14.193v-11.82H252.273Zm-51.135,24.776-1.186-.494c-.247-.1-.346-.346-.247-.495a.4.4,0,0,1,.544-.247l1.187.494a.4.4,0,0,1,.247.544.442.442,0,0,1-.4.247C201.236,348.433,201.187,348.384,201.137,348.384Zm17.7-.4a.437.437,0,0,1,.247-.594l1.187-.494a.422.422,0,0,1,.3.791l-1.186.495a.184.184,0,0,1-.148.049A.44.44,0,0,1,218.842,347.989Zm205.532.049V342.7h9.049l1.534,5.342Zm-11.82,0V342.7h9.693v5.342Zm-13.4,0,1.484-5.342h9.693v5.342Zm-14.193-.989a1.138,1.138,0,0,1,0-2.275h6.825a1.138,1.138,0,1,1,0,2.275Zm-59.048,0a1.138,1.138,0,0,1,0-2.275h6.825a1.138,1.138,0,1,1,0,2.275ZM304.3,336.218c9.693-6.924,12.165-18.051,12.165-18.051s-2.225,9.248-13.154,17.26a12.747,12.747,0,0,0-3.017,3.461c-.347-.049-9.891-16.072,12.809-24.282a19.161,19.161,0,0,0,5.885-3.857,23.857,23.857,0,0,1,3.56,15.875c-.593,3.857-5.044,14.787-18.595,13.154a12.19,12.19,0,0,0-1.681,4.7c-.643.2-2.176.791-2.176.791C300.689,341.51,302.172,337.751,304.3,336.218Zm-87.435,8.8a.452.452,0,0,1,0-.594L219.288,342a.419.419,0,1,1,.593.593l-2.423,2.424a.428.428,0,0,1-.3.148A.353.353,0,0,1,216.864,345.021Zm-13.748,0-2.423-2.424a.419.419,0,1,1,.593-.593l2.424,2.423a.452.452,0,0,1,0,.594.371.371,0,0,1-.594,0Zm-67.555-1.138-1.533-1.534a.18.18,0,0,1-.049-.148.106.106,0,0,1,.1-.1l3.511-2.028c.148-.049.346.1.247.247l-2.028,3.511a.106.106,0,0,1-.1.1A.182.182,0,0,1,135.561,343.884Zm-15.281-.049-1.78-3.215c-.049-.148.148-.3.247-.247l3.263,1.781a.173.173,0,0,1,.049.1.181.181,0,0,1-.049.148l-1.483,1.484a.182.182,0,0,1-.148.049Zm321.106-.792-3.313-1.929-.1-.494,1.385-1.385a.182.182,0,0,1,.148-.049c.049,0,.049.049.1.1l2.027,3.512a.2.2,0,0,1-.188.257A.178.178,0,0,1,441.385,343.042Zm-227.637-.049a.462.462,0,0,1-.247-.5l.494-1.186a.422.422,0,1,1,.791.3l-.494,1.187a.441.441,0,0,1-.4.248C213.847,343.043,213.8,342.994,213.748,342.994Zm-7.665-.2-.494-1.237a.422.422,0,1,1,.791-.3l.494,1.186a.5.5,0,0,1-.247.545.182.182,0,0,1-.148.049A.441.441,0,0,1,206.083,342.8Zm3.758-.94v-2.522a.445.445,0,1,1,.89,0v2.522a.445.445,0,0,1-.89,0ZM37.4,336.317V324.5h-3.56v17.754H10.146V304.37a4.749,4.749,0,0,1,4.747-4.747H29.038a4.749,4.749,0,0,1,4.747,4.747v16.567h2.373a4.749,4.749,0,0,1,4.748,4.747v10.633a2.374,2.374,0,1,0,4.747,0V319.306a6.375,6.375,0,0,1-2.373.494,5.934,5.934,0,0,1-2.127-11.473l-4.995-4.995,2.523-2.522,8.8,8.852a5.951,5.951,0,0,1,1.78,4.154v22.5a5.935,5.935,0,0,1-11.869,0Zm3.56-22.5a2.407,2.407,0,0,0,2.374,2.374,2.374,2.374,0,0,0,2.373-2.374,2.374,2.374,0,0,0-4.747,0ZM14.893,316.19H29.086V304.37H14.893Zm56.724,9.742c17.16-12.264,21.513-31.947,21.513-31.947s-3.907,16.37-23.244,30.563a24.234,24.234,0,0,0-5.291,6.182c-.545-.1-17.507-28.436,22.7-42.976,5.39-1.978,10.435-6.825,10.435-6.825a41.78,41.78,0,0,1,6.181,28.09c-1.039,6.726-8.9,26.112-32.936,23.243a21.487,21.487,0,0,0-2.967,8.308c-1.186.3-3.857,1.385-3.857,1.385C65.237,335.279,67.81,328.652,71.618,325.931Zm340.888,15.035v-5.341H422.2v5.341Zm11.82,0v-5.341h7.565l1.484,5.341Zm-23.738,0,1.534-5.341h8.159v5.341ZM127.4,340.52c-.049,0-.1-.049,0-.049a.179.179,0,0,1-.049-.148l1.039-3.956c0-.148.247-.148.3,0l1.039,3.956a.175.175,0,0,1-.2.2ZM436,332.509a1.615,1.615,0,0,0-1.731-1.384H426.4a7.094,7.094,0,0,1,6.676-4.648,7.134,7.134,0,0,1,4.549,12.659ZM217.408,338.1a.622.622,0,0,1-.247-.791l7.368-17.409h-6.775a.618.618,0,0,1-.544-.3.609.609,0,0,1-.049-.643l9.791-19.633a.687.687,0,0,1,.594-.346H238.03a.684.684,0,0,1,.593.346.519.519,0,0,1,0,.643l-7.665,12.067h7.764a.642.642,0,0,1,.594.4.523.523,0,0,1-.148.643L218.249,337.95a.609.609,0,0,1-.495.247A.918.918,0,0,1,217.408,338.1Zm116.811-.94-3.164-1.286a1.159,1.159,0,0,1-.643-1.434,1.13,1.13,0,0,1,1.484-.643l3.165,1.286a1.129,1.129,0,0,1,.643,1.483,1.071,1.071,0,0,1-1.039.693A1.445,1.445,0,0,1,334.219,337.158Zm47.674-1.039a1.123,1.123,0,0,1,.594-1.484L385.6,333.3a1.13,1.13,0,1,1,.89,2.077l-3.115,1.335a1.445,1.445,0,0,1-.445.1A1.119,1.119,0,0,1,381.893,336.119Zm60.531-1.187a.182.182,0,0,1-.049-.148v-2.127a.175.175,0,0,1,.2-.2l3.957,1.039c.148.049.148.3,0,.445l-3.957,1.039A.182.182,0,0,1,442.424,334.932ZM339.61,328.256l-6.529-6.528a1.119,1.119,0,1,1,1.583-1.583l6.528,6.529a1.1,1.1,0,0,1,0,1.582.983.983,0,0,1-.791.346A1.166,1.166,0,0,1,339.61,328.256Zm36.942-.049a1.1,1.1,0,0,1,0-1.582l6.528-6.529a1.119,1.119,0,0,1,1.582,1.583l-6.528,6.528a1.076,1.076,0,0,1-1.582,0Zm63.646-.148-1.532-1.534a.182.182,0,0,1-.049-.148.106.106,0,0,1,.1-.1l3.51-2.028c.148-.049.346.1.247.247l-2.028,3.511a.106.106,0,0,1-.1.1A.182.182,0,0,1,440.2,328.058Zm-15.281-.049-1.779-3.215c-.049-.148.149-.3.248-.247l3.263,1.781a.173.173,0,0,1,.049.1.181.181,0,0,1-.049.148l-1.484,1.484a.182.182,0,0,1-.148.049Zm7.122-3.314c-.049,0-.1-.049,0-.049a.183.183,0,0,1-.049-.148l1.039-3.956c0-.148.247-.148.3,0l1.039,3.956a.174.174,0,0,1-.2.2Zm-84.418-2.373-1.335-3.116a1.13,1.13,0,0,1,2.077-.89l1.335,3.116a1.107,1.107,0,0,1-.593,1.484,1.469,1.469,0,0,1-.445.1A1.118,1.118,0,0,1,347.621,322.322Zm20.623.4a1.077,1.077,0,0,1-.643-1.435l1.285-3.165a1.144,1.144,0,1,1,2.127.841l-1.285,3.164a1.072,1.072,0,0,1-1.039.693A1.445,1.445,0,0,1,368.243,322.717Zm-179.667-13.5a11.925,11.925,0,0,1,11.869-11.968,11.869,11.869,0,0,1,0,23.738A11.852,11.852,0,0,1,188.576,309.217Zm6.529-.049a5.39,5.39,0,0,0,10.78,0,5.39,5.39,0,1,0-10.78,0Zm-31.107-.1a11.869,11.869,0,1,1,11.918,11.919A11.82,11.82,0,0,1,164,309.068Zm6.478.148a5.33,5.33,0,0,0,5.44,5.291,5.366,5.366,0,1,0-.148-10.731A5.33,5.33,0,0,0,170.476,309.217Zm-51.63-.049a11.869,11.869,0,1,1,11.77,11.82A11.782,11.782,0,0,1,118.846,309.167Zm6.479,0a5.246,5.246,0,0,0,5.341,5.291,5.187,5.187,0,0,0,5.342-5.291,5.341,5.341,0,1,0-10.682,0ZM357.759,319.8v-6.825a1.138,1.138,0,0,1,2.275,0V319.8a1.12,1.12,0,0,1-1.138,1.138A1.15,1.15,0,0,1,357.759,319.8Zm89.562-12.66V295.32h-3.56v17.754H420.071V275.192a4.749,4.749,0,0,1,4.747-4.747h14.193a4.749,4.749,0,0,1,4.748,4.747v16.567h2.373a4.749,4.749,0,0,1,4.747,4.747v10.633a2.374,2.374,0,1,0,4.747,0V290.128a6.375,6.375,0,0,1-2.373.494,5.934,5.934,0,0,1-2.127-11.473l-4.995-4.995,2.523-2.522,8.8,8.852a5.708,5.708,0,0,1,1.731,4.154v22.5a5.935,5.935,0,1,1-11.869,0Zm3.61-22.5a2.407,2.407,0,0,0,2.374,2.374,2.374,2.374,0,0,0,2.373-2.374,2.374,2.374,0,0,0-4.747,0Zm-26.062,2.374h14.194v-11.82H424.868ZM197.083,309.118a3.462,3.462,0,0,1,3.461-3.413,3.413,3.413,0,0,1-.049,6.825A3.419,3.419,0,0,1,197.083,309.118Zm-24.628,0a3.357,3.357,0,0,1,3.412-3.413,3.462,3.462,0,0,1,3.413,3.462,3.388,3.388,0,0,1-3.461,3.362A3.287,3.287,0,0,1,172.454,309.118Zm-45.151.049a3.358,3.358,0,0,1,3.362-3.462,3.494,3.494,0,0,1,3.461,3.413,3.387,3.387,0,0,1-3.412,3.412A3.316,3.316,0,0,1,127.3,309.167Zm248.012.89c0-1.088-.148-2.176-.049-3.264a1.945,1.945,0,0,0-1.286-2.126,8.594,8.594,0,0,1-4.995-7.814c-.049-7.863-.1-15.727,0-23.54a9.162,9.162,0,0,1,6.38-8.6c.445-.148.94-.3,1.384-.445v-9.89c-.791-.693-1.731-1.187-1.681-1.633.049-.692.742-1.285,1.138-1.978H397.57c.4.643,1.187,1.336,1.138,1.929,0,.495-.989.989-1.732,1.633v9.94c.495.148.989.3,1.435.445,3.709,1.483,6.231,4.055,6.28,8.16.148,8.11.1,16.171.049,24.282,0,2.522-.94,4.994-3.066,6.132-3.016,1.583-3.511,3.857-3.214,6.775Zm3.164-3.511a9.509,9.509,0,0,0,2.325.841q6.083.148,12.165,0a7.765,7.765,0,0,0,2.374-.89,1.758,1.758,0,0,0-.2-.445C389.607,306,384.118,306,378.628,306,378.579,306.2,378.529,306.348,378.48,306.546Zm4.352-44.113H395.1v-6.825H382.832ZM153.068,309.266h-5.935c-1.78,0-2.472-.693-2.472-2.473,0-2.028.049-4.055,0-6.082a2.178,2.178,0,0,1,1.483-2.374c.692-.247,1.534-.94,1.978-.742,2.364.964,4.807.832,7.242.7a27.189,27.189,0,0,1,4.28-.008c1.237.148,1.978.742,1.929,2.028.049,2.275.049,4.6,0,6.874,0,1.384-.791,2.028-2.324,2.077-.676.016-1.357.022-2.043.022C155.838,309.288,154.453,309.266,153.068,309.266Zm176.106-4.748,1.731-29.227c-5.49,2.522-18.842,8.456-19.584,7.121-.742-1.285,11.078-9.891,16.023-13.4a4.608,4.608,0,0,0-.049.841,5.786,5.786,0,1,0,11.572,0,4.8,4.8,0,0,0-.049-.841c4.946,3.511,16.765,12.117,15.924,13.4-.742,1.336-14.044-4.6-19.584-7.121l1.732,29.227a4.822,4.822,0,0,1-7.715,0Zm-189.953-5.687a11.436,11.436,0,0,0-6.132-3.362,11.216,11.216,0,0,0-10.337,2.967,4.209,4.209,0,0,1-3.164,1.237q-4.9-.074-9.792,0a1.579,1.579,0,0,1-1.879-1.682,5.2,5.2,0,0,1,.2-2.324c.247-.594.989-.94,1.484-1.385.1.049.2.148.3.2,0-.445.049-.841.049-1.286,0-3.659.049-7.319,0-10.978a7.672,7.672,0,0,1,3.759-6.825,2.575,2.575,0,0,0,.989-1.484c.544-2.72.94-5.489,1.582-8.159,1.088-4.7,3.412-8.309,8.456-9.446a8.567,8.567,0,0,1,1.583-.148h15.034c1.929,0,2.621.692,2.621,2.621,0,9.841,0,19.732-.049,29.573,0,1.286.346,1.633,1.633,1.633,5.836-.049,11.721-.049,17.556,0,.94,0,1.236-.247,1.236-1.187,0-.89-.247-1.187-1.186-1.237a17.82,17.82,0,0,1-3.758-34.964c2.472-.643,5.192-.544,7.813-.742,1.187-.049,2.424,0,3.611,0,.494-2.868.593-2.967,3.511-2.967h10.287c2.67,0,2.917.2,3.263,3.017h6.627a17.7,17.7,0,0,1,12.117,4.747,17.868,17.868,0,0,1-10.88,31.008c-1.336.1-1.385.2-1.039,2.424h15.084c2.175,0,2.769.692,2.72,2.819q-.074,1.854,0,3.709a1.379,1.379,0,0,1-1.435,1.533,4.242,4.242,0,0,1-1.582,0c-.4-.2-.94-.643-.989-1.039a18.164,18.164,0,0,1-.049-2.868H144.018c0,.89-.049,1.83,0,2.72a2.261,2.261,0,0,1-1.236,2.523,3.179,3.179,0,0,1-1.261.25A3.285,3.285,0,0,1,139.221,298.831Zm49.9-8.7c.89,0,1.335-.148,1.335-1.236,0-1.039-.445-1.187-1.335-1.187H169.735a13.078,13.078,0,0,0-1.336.1v2.226a10.156,10.156,0,0,0,1.039.1c4.385,0,8.748-.022,13.118-.022Q185.834,290.105,189.121,290.127Zm-67.555-26.8a19.773,19.773,0,0,0-1.533,4.451c-.544,2.374-.94,4.748-1.385,7.221h21.068c0-4.846,0-9.594-.049-14.589-4.4,0-8.7.049-13.007,0l-.158,0A5.3,5.3,0,0,0,121.566,263.323Zm42.333-4.1a10.525,10.525,0,0,0-10.287,10.188c0,.791.1,1.582,1.039,1.434a1.863,1.863,0,0,0,1.138-1.285c.643-5.143,3.808-8.111,8.951-8.111h29.277c.791,0,1.632-.148,1.582-1.138-.049-.94-.791-1.138-1.632-1.138-5.02,0-10.027-.013-15.035-.013S168.918,259.169,163.9,259.218ZM6.387,291.759c0-1.088-.148-2.176-.049-3.264a1.946,1.946,0,0,0-1.286-2.127,8.594,8.594,0,0,1-5-7.814c-.049-7.863-.1-15.726,0-23.54a9.163,9.163,0,0,1,6.38-8.606c.445-.148.94-.3,1.384-.445v-9.891c-.791-.692-1.731-1.187-1.681-1.632.049-.692.742-1.286,1.138-1.978H28.642c.4.643,1.187,1.336,1.138,1.929,0,.494-.989.989-1.731,1.632v9.94c.494.149.989.3,1.434.445,3.709,1.484,6.232,4.055,6.281,8.16.148,8.111.1,16.171.049,24.282,0,2.522-.94,4.995-3.066,6.133-3.017,1.582-3.512,3.857-3.215,6.775Zm3.165-3.512a9.454,9.454,0,0,0,2.324.841q6.083.148,12.166,0a7.746,7.746,0,0,0,2.373-.89,1.767,1.767,0,0,0-.2-.445C20.679,287.7,15.19,287.7,9.7,287.7,9.652,287.9,9.6,288.05,9.553,288.247ZM13.9,244.135H26.169V237.31H13.9Zm229.369,46.14a71.427,71.427,0,0,1-.1-7.269c.2-2.473-.791-3.61-2.918-4.8-6.973-3.71-11.078-9.545-11.177-17.556-.148-17.606-.2-35.212,0-52.817.1-9.049,5.737-16.221,14.243-19.238,1.039-.346,2.077-.692,3.115-.989V165.4c-1.731-1.582-3.857-2.72-3.758-3.659.1-1.534,1.633-2.918,2.572-4.4h47.871c.94,1.484,2.622,2.967,2.572,4.352-.05,1.138-2.226,2.176-3.808,3.61v22.254c1.137.347,2.175.643,3.164,1.039,8.309,3.314,13.946,9.1,14.144,18.248.4,18.15.2,36.3.1,54.449-.049,5.588-2.127,11.227-6.874,13.7-6.825,3.61-7.863,8.753-7.27,15.281Zm7.071-7.962c1.732.644,3.512,1.831,5.242,1.831,9.1.2,18.149.2,27.249,0,1.78-.049,3.511-1.336,5.291-2.028-.148-.346-.247-.643-.4-.989H250.74C250.592,281.522,250.493,281.918,250.344,282.313Zm9.842-98.809h27.5V168.223h-27.5Zm69.038,86.347a3.857,3.857,0,1,1,3.857,3.857A3.858,3.858,0,0,1,329.224,269.851Zm-254.442-.692,3.413-57.911c-10.93,5.045-37.338,16.765-38.822,14.144-1.534-2.621,21.957-19.682,31.7-26.606a9.237,9.237,0,0,0-.148,1.681,11.473,11.473,0,1,0,22.946,0,9.308,9.308,0,0,0-.1-1.681c9.743,6.924,33.233,23.985,31.651,26.606-1.534,2.621-27.892-9.148-38.822-14.144l3.412,57.911s-1.929,3.808-7.616,3.808S74.782,269.159,74.782,269.159Zm258.349-5.094a5.845,5.845,0,0,0-3.611,1.286c.544-6.034,2.077-20.524,3.611-20.524s3.065,14.49,3.61,20.524A6.161,6.161,0,0,0,333.13,264.065Zm103.656-5.093a.851.851,0,0,1-.346-1.039l9.346-22.155h-8.555a.787.787,0,0,1-.692-.4.762.762,0,0,1-.049-.791l12.462-24.974a.918.918,0,0,1,.742-.445H463a.92.92,0,0,1,.742.445,1.01,1.01,0,0,1-.049.841l-9.742,15.38h9.841a.891.891,0,0,1,.742,1.285l-26.656,31.651a.8.8,0,0,1-.643.3A.736.736,0,0,1,436.786,258.971ZM196.835,229.3V203.188h-7.814v39.167H136.8V158.876a10.405,10.405,0,0,1,10.435-10.435h31.3a10.405,10.405,0,0,1,10.435,10.435v36.547h5.242a10.405,10.405,0,0,1,10.435,10.435v23.491a5.242,5.242,0,0,0,10.484,0V191.714a13.424,13.424,0,0,1-5.242,1.088,13.036,13.036,0,0,1-4.649-25.222l-11.028-11.028,5.539-5.54L219.189,170.4l-.1.1a13.228,13.228,0,0,1,3.857,9.2v49.6a13.056,13.056,0,0,1-26.112,0Zm7.764-49.6a5.242,5.242,0,1,0,5.243-5.242A5.277,5.277,0,0,0,204.6,179.7Zm-57.367,5.242h31.3V158.827h-31.3Zm234.447,55.4a15.874,15.874,0,0,1-5.524-1c-18.347-6.775-3.758-30.415,4.846-39.712a.728.728,0,0,1,.742-.743.477.477,0,0,1,.742.346.635.635,0,0,1,.2.494c.346,6.973,4.154,10.535,8.21,15.826,2.868,3.709,5.44,8.852,4.549,13.649-1.272,7.058-7.266,11.138-13.761,11.138ZM372,226.381a9.429,9.429,0,0,0,.347,3.066,9.928,9.928,0,0,0,3.857,5.539c1.088.692,2.522,1.385,3.808.989,1.237-.445,4.154-2.028,3.412-3.857-1.236-2.967-5.687-4.451-7.863-6.825a9.93,9.93,0,0,1-1.978-4.1A37.194,37.194,0,0,0,372,226.381Zm-23.095,5.588v-11.82h-3.56V237.9H321.657V200.021a4.749,4.749,0,0,1,4.747-4.747H340.6a4.749,4.749,0,0,1,4.748,4.747v16.567h2.373a4.749,4.749,0,0,1,4.747,4.747v10.633a2.374,2.374,0,1,0,4.747,0V214.957a6.357,6.357,0,0,1-2.373.494,5.934,5.934,0,0,1-2.127-11.473l-4.995-4.995,2.523-2.522,8.8,8.852a5.705,5.705,0,0,1,1.732,4.154v22.5a5.935,5.935,0,1,1-11.869,0Zm3.61-22.5a2.374,2.374,0,1,0,2.374-2.373A2.407,2.407,0,0,0,352.517,209.467Zm-26.062,2.374h14.193v-11.82H326.454ZM.75,232.365A1.107,1.107,0,0,1,.3,231.03l11.919-28.288H1.293a1.107,1.107,0,0,1-.89-.494,1.1,1.1,0,0,1-.049-1.039L16.328,169.36a1.049,1.049,0,0,1,.94-.593H34.23a1.061,1.061,0,0,1,.94.544,1.207,1.207,0,0,1-.049,1.088L22.707,190.032H35.318a1.018,1.018,0,0,1,.94.593.965.965,0,0,1-.148,1.138L2.084,232.118a1.032,1.032,0,0,1-.791.4A1,1,0,0,1,.75,232.365Zm74.082-31.9a7.616,7.616,0,1,1,7.616,7.616A7.616,7.616,0,0,1,74.831,200.467ZM445.342,193a6.458,6.458,0,0,1,6.429-6.478A6.429,6.429,0,1,1,445.342,193Zm3.511-.049a2.918,2.918,0,0,0,5.836,0,2.918,2.918,0,1,0-5.836,0ZM432.04,192.9a6.4,6.4,0,1,1,6.429,6.429A6.416,6.416,0,0,1,432.04,192.9Zm3.511.049a2.851,2.851,0,0,0,2.918,2.869,2.821,2.821,0,0,0,2.868-2.918,2.893,2.893,0,1,0-5.786.049Zm-27.892,0a6.365,6.365,0,0,1,6.478-6.429,6.4,6.4,0,1,1-.1,12.809A6.332,6.332,0,0,1,407.659,192.949Zm3.511,0a2.81,2.81,0,0,0,2.868,2.869,2.851,2.851,0,0,0,2.918-2.869,2.882,2.882,0,0,0-2.868-2.918A2.833,2.833,0,0,0,411.17,192.949ZM104.9,197.4a.622.622,0,0,1-.247-.791l7.319-17.409h-6.726a.618.618,0,0,1-.544-.3.609.609,0,0,1-.049-.644l9.792-19.633a.684.684,0,0,1,.593-.346h10.484a.684.684,0,0,1,.593.346.519.519,0,0,1,0,.643l-7.665,12.067h7.764a.642.642,0,0,1,.594.4.525.525,0,0,1-.148.643l-20.92,24.875a.606.606,0,0,1-.494.247A.918.918,0,0,1,104.9,197.4Zm307.309-4.451a1.83,1.83,0,1,1,1.83,1.83A1.808,1.808,0,0,1,412.208,192.949Zm37.684-.049a1.9,1.9,0,0,1,1.879-1.83,1.753,1.753,0,0,1,1.78,1.83,1.8,1.8,0,0,1-1.83,1.831A1.826,1.826,0,0,1,449.892,192.9Zm-13.3,0a1.868,1.868,0,0,1,1.879-1.83,1.892,1.892,0,0,1,1.83,1.83,1.837,1.837,0,0,1-1.879,1.831A1.8,1.8,0,0,1,436.589,192.9Zm-10.385.05h-3.215c-.94,0-1.336-.4-1.336-1.336V188.35a1.147,1.147,0,0,1,.791-1.285c.346-.1.792-.495,1.039-.4a8.861,8.861,0,0,0,3.965.4,15.627,15.627,0,0,1,2.267,0,1.172,1.172,0,0,1,1.138,1.039q.074,1.854,0,3.709a1.112,1.112,0,0,1-1.286,1.138ZM82.447,189.043a11.4,11.4,0,0,0-7.17,2.522c1.137-11.968,4.154-40.7,7.17-40.7s6.034,28.732,7.171,40.7A11.4,11.4,0,0,0,82.447,189.043Zm280.85.446v-2.572h4.5V179.3h3.808v7.616h4.6v2.572Zm38.426-2.523a3.492,3.492,0,0,1,.1-1.237,2.84,2.84,0,0,1,.791-.742c.049.049.1.049.148.1a3.268,3.268,0,0,0,.049-.693c0-1.978.049-3.956,0-5.935a4.13,4.13,0,0,1,2.028-3.709,1.292,1.292,0,0,0,.544-.791c.346-1.484.544-2.967.89-4.4.593-2.523,1.83-4.5,4.549-5.094a2.316,2.316,0,0,1,.842-.1h8.11c1.039,0,1.385.4,1.385,1.434,0,5.342.049,10.633,0,15.974,0,.692.2.89.89.89,3.165-.049,6.33,0,9.495,0,.495,0,.643-.148.643-.643s-.148-.644-.643-.693a9.717,9.717,0,0,1-9-8.6,9.6,9.6,0,0,1,6.973-10.286,24.279,24.279,0,0,1,4.253-.4c.692-.049,1.335,0,1.978,0,.247-1.582.3-1.632,1.879-1.632h5.539c1.484,0,1.582.1,1.78,1.632h3.561a9.68,9.68,0,0,1,.643,19.337c-.692.049-.742.1-.544,1.286h8.159c1.187,0,1.534.346,1.483,1.483-.049.644,0,1.336,0,1.978,0,.594-.3.792-.791.841a1.611,1.611,0,0,1-.841,0,.978.978,0,0,1-.544-.544,7.677,7.677,0,0,1-.049-1.533H421.209v1.434c.049.594-.049,1.138-.643,1.385a1.851,1.851,0,0,1-1.929-.347,6.322,6.322,0,0,0-3.313-1.83,6.141,6.141,0,0,0-5.588,1.632,2.348,2.348,0,0,1-1.732.693c-1.78-.049-3.511-.049-5.291,0-.041,0-.08,0-.118,0C402.034,187.861,401.77,187.521,401.724,186.966Zm32.689-5.54v1.187a2.22,2.22,0,0,0,.544.049H445.59c.494,0,.742-.049.742-.643,0-.545-.247-.644-.742-.644H435.105C434.908,181.377,434.66,181.426,434.413,181.426Zm-25.271-13.2a9.689,9.689,0,0,0-.841,2.374c-.3,1.285-.495,2.571-.742,3.906h11.374V166.64h-7.023A2.907,2.907,0,0,0,409.142,168.223ZM431.99,166a5.653,5.653,0,0,0-5.539,5.49c0,.445.049.89.544.791a1.048,1.048,0,0,0,.593-.693c.347-2.819,2.077-4.4,4.847-4.4H448.26c.445,0,.841-.049.841-.593-.049-.495-.445-.594-.89-.594-3.594,0-7.209-.022-10.818-.022Q434.687,165.975,431.99,166Zm-113.745,8.655C330.213,166.1,333.23,152.4,333.23,152.4s-2.769,11.424-16.221,21.315a16.583,16.583,0,0,0-3.709,4.3c-.4-.1-12.216-19.831,15.825-29.969a24.042,24.042,0,0,0,7.27-4.747,29.012,29.012,0,0,1,4.352,19.584c-.692,4.7-6.181,18.2-22.946,16.221a15.069,15.069,0,0,0-2.077,5.786c-.791.2-2.67.94-2.67.94C313.794,181.18,315.574,176.531,318.245,174.652Zm69.433,3.362H348.214a1.578,1.578,0,0,1-1.731-1.384l4.549-23.491a1.614,1.614,0,0,1,1.731-1.384H385.75a1.614,1.614,0,0,1,1.731,1.384l5.737,23.491a1.614,1.614,0,0,1-1.731,1.384Zm-39.118-1.632h42.58l-5.737-22.9H353.11ZM376.9,174.7V169.36h10.583l1.483,5.342Zm-11.82,0V169.36h9.693V174.7Zm-14.639,0,1.533-5.342h10.88V174.7Zm26.458-7.171V162.19h9.049l1.534,5.341Zm-11.82,0V162.19h9.693v5.341Zm-13.4,0,1.483-5.341h9.693v5.341Zm42.233-4.995-3.313-1.929-.1-.494,1.384-1.385a.182.182,0,0,1,.148-.049c.049,0,.049.049.1.1l2.028,3.512a.2.2,0,0,1-.188.257A.205.205,0,0,1,393.909,162.536Zm-17.061-2.076v-5.341h7.566l1.483,5.341Zm-11.82,0v-5.341h9.693v5.341Zm-11.919,0,1.534-5.341H362.8v5.341ZM388.519,152a1.615,1.615,0,0,0-1.732-1.384h-7.862a7.09,7.09,0,0,1,6.676-4.648,7.135,7.135,0,0,1,4.549,12.66ZM36.406,158.333V155.76h4.5v-7.616h3.808v7.616h4.6v2.572Zm358.542-3.907a.182.182,0,0,1-.049-.148V152.15a.175.175,0,0,1,.2-.2l3.956,1.039c.149.049.149.3,0,.446l-3.956,1.039A.182.182,0,0,1,394.948,154.426Zm-175.81-2.275v-2.769a.444.444,0,0,1,.445-.445c.3,0,.494.2.445.445v2.769a.445.445,0,1,1-.89,0Zm-4.154-1.83a.436.436,0,0,1-.247-.593l.494-1.286a.437.437,0,0,1,.594-.247.452.452,0,0,1,.247.594l-.494,1.285a.476.476,0,0,1-.446.3C215.084,150.37,215.034,150.321,214.985,150.321Zm8.852-.3-.544-1.285a.455.455,0,1,1,.841-.347l.594,1.286a.437.437,0,0,1-.247.593.374.374,0,0,1-.2.049A.433.433,0,0,1,223.836,150.024Zm5.49-.742-2.621-2.621a.454.454,0,0,1,.643-.643l2.67,2.621a.422.422,0,0,1,0,.643.535.535,0,0,1-.346.148A.449.449,0,0,1,229.326,149.282Zm-20.128,0a.422.422,0,0,1,0-.643l2.621-2.621a.477.477,0,0,1,.692,0,.422.422,0,0,1,0,.643l-2.621,2.621a.535.535,0,0,1-.346.148A.446.446,0,0,1,209.2,149.282Zm83.974-8.9a8.333,8.333,0,1,1,16.666-.049,8.2,8.2,0,0,1-8.309,8.309A8.359,8.359,0,0,1,293.172,140.38Zm4.6-.049a3.747,3.747,0,0,0,3.758,3.71,3.735,3.735,0,1,0,.049-7.468l-.092,0A3.708,3.708,0,0,0,297.771,140.331Zm-53.509,0a8.308,8.308,0,1,1,8.259,8.309A8.3,8.3,0,0,1,244.262,140.331Zm4.549,0a3.759,3.759,0,1,0,3.808-3.758l-.1,0A3.648,3.648,0,0,0,248.811,140.331Zm27.052-.1a8.337,8.337,0,0,1,8.407-8.259,8.309,8.309,0,1,1-8.407,8.259Zm4.6.1a3.759,3.759,0,1,0,3.709-3.808A3.758,3.758,0,0,0,280.462,140.331Zm-70.473-1.483a9.594,9.594,0,1,1,9.594,9.594A9.6,9.6,0,0,1,209.99,138.848Zm8.7-4.3-2.275,4.6a.37.37,0,0,0,0,.445.611.611,0,0,0,.4.2h.742l-1.187,4.006a.5.5,0,0,0,.247.544.3.3,0,0,0,.2.049.627.627,0,0,0,.346-.2l4.6-5.935a.583.583,0,0,0,.049-.494.392.392,0,0,0-.4-.247h-.692l1.088-2.571a.481.481,0,0,0-.049-.445.61.61,0,0,0-.4-.2h-2.275A.5.5,0,0,0,218.694,134.545ZM98.718,147.353c-18.347-6.775-3.758-30.415,4.847-39.712a.727.727,0,0,1,.742-.742.477.477,0,0,1,.742.346.636.636,0,0,1,.2.495c.346,6.973,4.154,10.534,8.21,15.825,2.868,3.71,5.44,8.852,4.549,13.649-1.273,7.058-7.268,11.138-13.763,11.138A15.874,15.874,0,0,1,98.718,147.353ZM94.564,134.4a9.429,9.429,0,0,0,.346,3.066A9.925,9.925,0,0,0,98.768,143c1.088.693,2.522,1.385,3.808.989,1.237-.445,4.154-2.028,3.412-3.857-1.236-2.967-5.687-4.451-7.863-6.825a9.932,9.932,0,0,1-1.978-4.1A37.142,37.142,0,0,0,94.564,134.4Zm298.158,13.155-1.533-1.534a.179.179,0,0,1-.049-.148.106.106,0,0,1,.1-.1l3.511-2.028c.148-.049.346.1.247.247L392.97,147.5a.106.106,0,0,1-.1.1A.182.182,0,0,1,392.722,147.551Zm-15.281-.049-1.78-3.215c-.049-.148.148-.3.247-.248l3.263,1.781a.173.173,0,0,1,.049.1.181.181,0,0,1-.049.148l-1.483,1.484a.182.182,0,0,1-.148.049Zm-316.654-.644H21.322a1.578,1.578,0,0,1-1.731-1.384l4.55-23.491a1.614,1.614,0,0,1,1.732-1.384H58.858a1.614,1.614,0,0,1,1.731,1.384l5.737,23.491a1.614,1.614,0,0,1-1.731,1.384Zm-39.119-1.632h42.58l-5.737-22.9H26.218Zm393.457-.989v-4.352a.742.742,0,0,1,1.484,0v4.352a.742.742,0,0,1-1.484,0ZM141.842,128.61C159,116.346,163.355,96.663,163.355,96.663s-3.907,16.369-23.243,30.563a24.2,24.2,0,0,0-5.291,6.181c-.545-.1-17.507-28.435,22.7-42.975,5.391-1.978,10.435-6.825,10.435-6.825a41.778,41.778,0,0,1,6.182,28.09c-1.039,6.726-8.9,26.112-32.936,23.243a21.487,21.487,0,0,0-2.967,8.308c-1.187.3-3.857,1.385-3.857,1.385C135.463,137.957,138.034,131.33,141.842,128.61Zm242.721,15.578c-.049,0-.1-.049,0-.049a.18.18,0,0,1-.049-.148l1.039-3.956c0-.148.247-.148.3,0l1.039,3.956a.175.175,0,0,1-.2.2Zm-176.353-.494a.436.436,0,0,1,.247-.593l1.286-.545a.436.436,0,0,1,.593.248.458.458,0,0,1-.2.593l-1.286.544a.374.374,0,0,1-.2.049A.431.431,0,0,1,208.21,143.694Zm22.254.049-1.286-.495a.455.455,0,1,1,.346-.841l1.285.5a.451.451,0,0,1,.247.593.476.476,0,0,1-.445.3C230.563,143.793,230.513,143.743,230.464,143.743Zm-180.458-.2V138.2H60.589l1.483,5.341Zm-11.82,0V138.2h9.693v5.341Zm-14.639,0L25.08,138.2H35.96v5.341Zm258.25-3.264a2.417,2.417,0,0,1,2.424-2.373,2.355,2.355,0,0,1,2.374,2.423,2.386,2.386,0,0,1-2.424,2.374A2.355,2.355,0,0,1,281.8,140.281Zm-31.65.049a2.355,2.355,0,0,1,2.374-2.423,2.385,2.385,0,0,1,2.423,2.373,2.355,2.355,0,0,1-2.373,2.424A2.326,2.326,0,0,1,250.147,140.331Zm48.96-.049a2.417,2.417,0,0,1,2.423-2.373,2.374,2.374,0,1,1,0,4.748A2.385,2.385,0,0,1,299.107,140.281Zm109.49,1.088a.75.75,0,0,1-.4-.94l.791-2.028a.751.751,0,0,1,.94-.4.731.731,0,0,1,.4.94l-.791,2.028a.745.745,0,0,1-.692.446A.538.538,0,0,1,408.6,141.369Zm13.946-.593L421.7,138.8a.721.721,0,1,1,1.335-.544l.841,1.978a.75.75,0,0,1-.4.94.628.628,0,0,1-.3.049A.681.681,0,0,1,422.544,140.776ZM318.1,136.622l3.413-57.911c-10.93,5.044-37.338,16.765-38.822,14.144-1.534-2.621,21.957-19.683,31.7-26.606a9.23,9.23,0,0,0-.148,1.681,11.473,11.473,0,0,0,22.946,0,9.3,9.3,0,0,0-.1-1.681c9.743,6.923,33.233,23.985,31.651,26.606-1.534,2.621-27.892-9.149-38.822-14.144l3.412,57.911s-1.929,3.808-7.616,3.808S318.1,136.622,318.1,136.622Zm-49.85,3.808h-4.154c-1.237,0-1.731-.494-1.731-1.731v-4.253a1.537,1.537,0,0,1,1.038-1.682c.495-.2,1.039-.692,1.385-.544a11.14,11.14,0,0,0,5.028.494,18.348,18.348,0,0,1,3.033,0c.89.1,1.384.495,1.384,1.435.049,1.582.049,3.215,0,4.8q0,1.484-1.632,1.483Zm163.05-.742-4.154-4.154a.734.734,0,0,1,1.039-1.039l4.1,4.154a.718.718,0,0,1,0,1.039.635.635,0,0,1-.5.2A.706.706,0,0,1,431.3,139.688Zm-31.848,0a.717.717,0,0,1,0-1.039L403.6,134.5a.66.66,0,0,1,.989,0,.717.717,0,0,1,0,1.039l-4.154,4.154a.718.718,0,0,1-.988,0Zm-193.118-.347a.445.445,0,1,1,0-.89H209.1a.445.445,0,0,1,0,.89Zm23.787-.049a.445.445,0,1,1,0-.89h2.769a.479.479,0,0,1,.445.445.443.443,0,0,1-.445.445ZM400.685,123.22A15.183,15.183,0,1,1,415.868,138.4,15.218,15.218,0,0,1,400.685,123.22Zm13.8-6.825-3.61,7.22a.7.7,0,0,0,.049.693.686.686,0,0,0,.593.346H412.7l-1.879,6.281a.707.707,0,0,0,.346.841.918.918,0,0,0,.346.1.706.706,0,0,0,.594-.3l7.22-9.4a.678.678,0,0,0,.1-.743.663.663,0,0,0-.643-.4v.049h-1.138l1.731-4.055a.687.687,0,0,0-.049-.692.6.6,0,0,0-.593-.346h-3.611A.713.713,0,0,0,414.482,116.4Zm-45.3,20.078a1.107,1.107,0,0,1-.445-1.335l11.919-28.288h-10.93a1.058,1.058,0,0,1-.94-1.533l15.925-31.9a1.049,1.049,0,0,1,.94-.593h17.012a1.061,1.061,0,0,1,.94.544,1.207,1.207,0,0,1-.049,1.088L391.14,94.091h12.611a1.018,1.018,0,0,1,.94.593.965.965,0,0,1-.148,1.138l-34.025,40.4a1.032,1.032,0,0,1-.791.4A.993.993,0,0,1,369.183,136.473Zm-319.177-.1v-5.341h9.049l1.534,5.341Zm-11.82,0v-5.341h9.693v5.341Zm-13.4,0,1.483-5.341H35.96v5.341Zm184.909-1.039-1.286-.494a.455.455,0,0,1,.346-.841l1.286.494a.437.437,0,0,1,.247.594.473.473,0,0,1-.445.3C209.792,135.385,209.742,135.336,209.693,135.336Zm19.188-.4a.428.428,0,0,1,.3-.594l1.286-.544a.454.454,0,0,1,.346.841l-1.285.545a.374.374,0,0,1-.2.049A.433.433,0,0,1,228.881,134.941Zm29.624-1.929a7.784,7.784,0,0,0-4.3-2.374,7.868,7.868,0,0,0-7.27,2.077,2.906,2.906,0,0,1-2.225.89q-3.413-.074-6.825,0a1.122,1.122,0,0,1-1.286-1.186,4.479,4.479,0,0,1,.148-1.633c.2-.4.692-.643,1.039-.94.049.049.148.1.2.148,0-.3.049-.593.049-.89,0-2.522.049-5.094,0-7.665a5.427,5.427,0,0,1,2.621-4.8,1.941,1.941,0,0,0,.692-1.039c.445-1.879.693-3.808,1.138-5.687.791-3.314,2.374-5.836,5.935-6.627a4.054,4.054,0,0,1,1.088-.1h10.534c1.336,0,1.83.494,1.83,1.83,0,6.924.049,13.8,0,20.722,0,.89.247,1.137,1.138,1.137,4.1-.049,8.209,0,12.314,0,.643,0,.841-.2.841-.841s-.2-.841-.841-.89a12.48,12.48,0,0,1-2.67-24.48,33.383,33.383,0,0,1,5.489-.494c.841-.049,1.682,0,2.523,0,.346-1.978.445-2.077,2.472-2.077h7.221c1.879,0,2.028.148,2.274,2.127h4.649a12.349,12.349,0,0,1,8.506,3.313,12.541,12.541,0,0,1-7.616,21.76c-.94.049-.989.148-.742,1.681h10.583c1.534,0,1.929.446,1.781,1.879a22.3,22.3,0,0,0,0,2.572c.049.742-.346,1.039-.989,1.087a2.685,2.685,0,0,1-1.088,0,1.068,1.068,0,0,1-.692-.692,13.524,13.524,0,0,1-.049-2.028H261.818v1.879c.049.743-.049,1.435-.841,1.781a2.155,2.155,0,0,1-.86.169A2.323,2.323,0,0,1,258.505,133.012Zm20.473-7.616v1.533c.3,0,.545.049.743.049h13.8c.594,0,.94-.1.94-.791,0-.742-.3-.841-.94-.841h-13.6C279.622,125.347,279.325,125.4,278.978,125.4Zm-32.738-17.16a13.72,13.72,0,0,0-1.088,3.115c-.4,1.633-.643,3.314-.989,5.045H258.9c0-3.412,0-6.775.049-10.187-3.116,0-6.133.049-9.149,0l-.162,0A3.609,3.609,0,0,0,246.24,108.236Zm29.574-2.918a7.41,7.41,0,0,0-7.221,7.121c0,.544.1,1.088.742.989a1.3,1.3,0,0,0,.791-.89c.445-3.61,2.671-5.687,6.281-5.687h20.524c.544,0,1.088-.1,1.088-.791s-.544-.791-1.138-.791C289.859,105.318,282.836,105.269,275.814,105.318ZM211.82,131.775l-2.571-2.621a.454.454,0,0,1,.643-.643l2.621,2.621a.422.422,0,0,1,0,.643.535.535,0,0,1-.346.148A.449.449,0,0,1,211.82,131.775Zm14.936-.049a.422.422,0,0,1,0-.643l2.621-2.621a.454.454,0,0,1,.643.643l-2.621,2.621a.535.535,0,0,1-.346.148A.35.35,0,0,1,226.755,131.726Zm-159.737-.346L63.7,129.451l-.1-.494,1.384-1.385a.182.182,0,0,1,.149-.049c.049,0,.049.049.1.1l2.028,3.512a.2.2,0,0,1-.188.256A.2.2,0,0,1,67.018,131.379Zm330.9-.544a.75.75,0,0,1,.4-.94l1.978-.841a.751.751,0,0,1,.94.4.708.708,0,0,1-.4.94l-1.978.841a.628.628,0,0,1-.3.049A.682.682,0,0,1,397.915,130.836Zm35.113.1L431,130.144a.721.721,0,1,1,.544-1.336l2.027.791a.707.707,0,0,1,.4.94.746.746,0,0,1-.692.446A.538.538,0,0,1,433.028,130.935Zm-217.944-1.582-.495-1.286a.455.455,0,0,1,.841-.347l.544,1.286a.436.436,0,0,1-.247.593.374.374,0,0,1-.2.049A.431.431,0,0,1,215.084,129.353Zm8.308.2a.436.436,0,0,1-.247-.593l.495-1.286a.455.455,0,0,1,.841.347l-.5,1.286a.474.474,0,0,1-.445.3C223.491,129.6,223.441,129.55,223.392,129.55ZM49.956,129.3v-5.342h7.566l1.483,5.342Zm-11.82,0v-5.342H47.83V129.3Zm-11.919,0,1.534-5.342h8.159V129.3Zm192.92-.94v-2.769a.445.445,0,1,1,.89,0v2.769a.445.445,0,0,1-.89,0ZM61.628,120.846a1.615,1.615,0,0,0-1.732-1.384H52.034a7.092,7.092,0,0,1,6.676-4.648,7.134,7.134,0,0,1,4.549,12.659Zm370.856,3.165a.742.742,0,0,1,0-1.484h4.352a.7.7,0,0,1,.742.743.76.76,0,0,1-.742.742Zm-37.585-.049a.742.742,0,0,1,0-1.484h4.352a.742.742,0,0,1,0,1.484Zm-326.842-.692a.182.182,0,0,1-.049-.148v-2.127a.175.175,0,0,1,.2-.2l3.956,1.039c.148.049.148.3,0,.446L68.2,123.319A.182.182,0,0,1,68.056,123.269Zm332.134-5.638-2.028-.791a.721.721,0,1,1,.544-1.335l2.028.791a.718.718,0,0,1-.3,1.384A.535.535,0,0,1,400.19,117.631Zm30.365-.593a.659.659,0,0,1,.4-.94l1.978-.841a.721.721,0,1,1,.544,1.335l-1.978.841a.622.622,0,0,1-.3.049A.68.68,0,0,1,430.556,117.038Zm-235.748-.347c0-1.088-.148-2.176-.049-3.264a1.945,1.945,0,0,0-1.286-2.126,8.594,8.594,0,0,1-4.995-7.814c-.05-7.863-.1-15.727,0-23.54a9.161,9.161,0,0,1,6.38-8.6c.445-.148.94-.3,1.384-.446v-9.89c-.791-.693-1.731-1.187-1.681-1.633.049-.692.742-1.285,1.138-1.978h21.364c.4.643,1.187,1.336,1.138,1.929,0,.495-.989.989-1.732,1.633V70.9c.5.149.989.3,1.435.446,3.709,1.483,6.232,4.055,6.28,8.159.148,8.111.1,16.172.049,24.282,0,2.523-.94,5-3.065,6.133-3.017,1.582-3.512,3.857-3.215,6.775Zm3.164-3.511a9.51,9.51,0,0,0,2.325.841q6.083.148,12.166,0a7.769,7.769,0,0,0,2.373-.89,1.758,1.758,0,0,0-.2-.446c-5.539-.049-11.028-.049-16.518-.049C198.071,112.834,198.022,112.982,197.972,113.18Zm4.352-44.114h12.264V62.242H202.325ZM65.831,116.4,64.3,114.862a.179.179,0,0,1-.049-.148.106.106,0,0,1,.1-.1l3.511-2.028c.148-.049.347.1.248.247l-2.028,3.511a.106.106,0,0,1-.1.1A.182.182,0,0,1,65.831,116.4Zm-15.281-.049-1.78-3.215c-.049-.149.149-.3.248-.247l3.263,1.78a.173.173,0,0,1,.049.1.181.181,0,0,1-.049.148L50.8,116.4a.182.182,0,0,1-.149.049Zm7.122-3.314c-.049,0-.1-.05,0-.05a.18.18,0,0,1-.049-.148l1.039-3.956c0-.148.247-.148.3,0l1.039,3.956a.175.175,0,0,1-.2.2Zm369.422-1.039a.717.717,0,0,1,0-1.039l4.154-4.154a.734.734,0,1,1,1.039,1.038l-4.154,4.154a.635.635,0,0,1-.494.2A.825.825,0,0,1,427.093,111.993Zm-23.491,0-4.2-4.154a.734.734,0,1,1,1.038-1.038l4.154,4.154a.717.717,0,0,1,0,1.039.634.634,0,0,1-.494.2A.709.709,0,0,1,403.6,111.993ZM76.364,111.1v-4.352a.742.742,0,0,1,1.484,0V111.1a.742.742,0,0,1-1.484,0Zm332.382-2.918-.841-1.978a.721.721,0,1,1,1.335-.544l.842,1.978a.751.751,0,0,1-.4.94.628.628,0,0,1-.3.049A.681.681,0,0,1,408.746,108.185Zm13.1.3a.692.692,0,0,1-.4-.94l.791-2.028a.721.721,0,1,1,1.336.544l-.792,2.028a.745.745,0,0,1-.692.446A.538.538,0,0,1,421.851,108.482Zm-352.014-.247a.75.75,0,0,1-.4-.94l.791-2.028a.751.751,0,0,1,.94-.4.731.731,0,0,1,.4.94l-.791,2.028a.745.745,0,0,1-.692.445A.538.538,0,0,1,69.836,108.235Zm13.946-.593-.841-1.978a.721.721,0,1,1,1.335-.545l.841,1.978a.75.75,0,0,1-.4.94.628.628,0,0,1-.3.049A.681.681,0,0,1,83.783,107.642ZM415.125,106.6v-4.352a.742.742,0,0,1,1.484,0V106.6a.761.761,0,0,1-.742.742A.8.8,0,0,1,415.125,106.6Zm-322.589-.049L88.382,102.4a.734.734,0,0,1,1.039-1.039l4.1,4.154a.718.718,0,0,1,0,1.039.638.638,0,0,1-.495.2A.71.71,0,0,1,92.536,106.554Zm-31.848,0a.717.717,0,0,1,0-1.039l4.153-4.154a.66.66,0,0,1,.989,0,.717.717,0,0,1,0,1.039l-4.154,4.154a.638.638,0,0,1-.495.2A.708.708,0,0,1,60.688,106.554Zm1.236-16.468a15.183,15.183,0,1,1,15.183,15.182A15.218,15.218,0,0,1,61.924,90.086Zm13.8-6.825-3.61,7.22a.7.7,0,0,0,.049.693.686.686,0,0,0,.593.346h1.187L72.062,97.8a.708.708,0,0,0,.346.841.918.918,0,0,0,.347.1.7.7,0,0,0,.593-.3l7.221-9.4a.678.678,0,0,0,.1-.743.663.663,0,0,0-.643-.4v.049H78.887L80.618,83.9a.687.687,0,0,0-.049-.692.6.6,0,0,0-.593-.347H76.364A.713.713,0,0,0,75.722,83.261ZM59.154,97.7a.75.75,0,0,1,.4-.94l1.978-.841a.751.751,0,0,1,.94.4.707.707,0,0,1-.4.94l-1.978.841a.628.628,0,0,1-.3.049A.682.682,0,0,1,59.154,97.7Zm35.113.1-2.028-.791a.721.721,0,1,1,.544-1.336l2.028.791a.707.707,0,0,1,.4.94.746.746,0,0,1-.692.445A.538.538,0,0,1,94.267,97.8Zm-.544-6.924a.742.742,0,1,1,0-1.484h4.351a.7.7,0,0,1,.742.743.76.76,0,0,1-.742.742Zm-37.586-.049a.742.742,0,0,1,0-1.484H60.49a.742.742,0,0,1,0,1.484Zm201.279-7.221V71.787h-3.56V89.541H230.167V51.659a4.749,4.749,0,0,1,4.747-4.747h14.193a4.749,4.749,0,0,1,4.748,4.747V68.226h2.373a4.749,4.749,0,0,1,4.747,4.747V83.606a2.374,2.374,0,1,0,4.748,0V66.595a6.375,6.375,0,0,1-2.373.494,5.933,5.933,0,0,1-2.127-11.473l-5-4.995,2.522-2.522,8.8,8.852a5.705,5.705,0,0,1,1.732,4.153v22.5a5.935,5.935,0,0,1-11.869,0Zm3.61-22.5a2.407,2.407,0,0,0,2.374,2.374,2.374,2.374,0,0,0,2.373-2.374,2.374,2.374,0,0,0-4.748,0Zm-26.062,2.374h14.193V51.659H234.964ZM61.43,84.5,59.4,83.705a.721.721,0,1,1,.544-1.335l2.028.791a.718.718,0,0,1-.3,1.384A.538.538,0,0,1,61.43,84.5ZM91.795,83.9a.659.659,0,0,1,.4-.94l1.978-.841a.721.721,0,1,1,.545,1.335l-1.978.841a.628.628,0,0,1-.3.049A.68.68,0,0,1,91.795,83.9Zm-3.462-5.045a.717.717,0,0,1,0-1.039l4.154-4.154A.734.734,0,0,1,93.525,74.7l-4.154,4.154a.636.636,0,0,1-.5.2A.824.824,0,0,1,88.332,78.859Zm-23.491,0-4.2-4.154a.734.734,0,0,1,1.039-1.038l4.154,4.154a.717.717,0,0,1,0,1.039.634.634,0,0,1-.494.2A.709.709,0,0,1,64.841,78.859Zm83.43-8.21a8.333,8.333,0,1,1,16.666-.049,8.2,8.2,0,0,1-8.309,8.309A8.359,8.359,0,0,1,148.271,70.649Zm4.6-.049a3.747,3.747,0,0,0,3.758,3.71,3.735,3.735,0,1,0,.049-7.468h-.092A3.707,3.707,0,0,0,152.87,70.6Zm-53.51,0a8.308,8.308,0,1,1,8.259,8.309A8.3,8.3,0,0,1,99.361,70.6Zm4.55,0a3.758,3.758,0,1,0,3.808-3.758h-.1A3.647,3.647,0,0,0,103.911,70.6Zm27.051-.1a8.337,8.337,0,0,1,8.407-8.259,8.309,8.309,0,1,1-8.407,8.259Zm4.6.1a3.759,3.759,0,1,0,3.709-3.808A3.758,3.758,0,0,0,135.562,70.6ZM318.146,67.93a7.616,7.616,0,1,1,7.616,7.616A7.616,7.616,0,0,1,318.146,67.93ZM69.985,75.051l-.841-1.978a.721.721,0,1,1,1.335-.544l.841,1.978a.751.751,0,0,1-.4.94.628.628,0,0,1-.3.049A.681.681,0,0,1,69.985,75.051Zm13.1.3a.692.692,0,0,1-.4-.94l.791-2.028a.721.721,0,0,1,1.336.544l-.792,2.028a.744.744,0,0,1-.692.445A.538.538,0,0,1,83.09,75.348Zm-6.726-1.879V69.116a.742.742,0,0,1,1.484,0v4.352a.761.761,0,0,1-.742.742A.8.8,0,0,1,76.364,73.469Zm276.4-9.248c9.693-6.924,12.165-18.05,12.165-18.05s-2.225,9.247-13.154,17.259a12.762,12.762,0,0,0-3.017,3.461c-.346-.049-9.891-16.072,12.809-24.281a19.156,19.156,0,0,0,5.885-3.858,23.857,23.857,0,0,1,3.56,15.875c-.593,3.857-5.045,14.787-18.595,13.155a12.179,12.179,0,0,0-1.681,4.7c-.643.2-2.176.791-2.176.791C349.154,69.512,350.637,65.754,352.764,64.22ZM136.9,70.551a2.416,2.416,0,0,1,2.423-2.374,2.355,2.355,0,0,1,2.374,2.423,2.386,2.386,0,0,1-2.424,2.374A2.354,2.354,0,0,1,136.9,70.551Zm-31.651.049a2.355,2.355,0,0,1,2.374-2.423,2.385,2.385,0,0,1,2.423,2.374,2.355,2.355,0,0,1-2.373,2.423A2.326,2.326,0,0,1,105.246,70.6Zm48.96-.049a2.417,2.417,0,0,1,2.423-2.374,2.374,2.374,0,1,1,0,4.747A2.385,2.385,0,0,1,154.206,70.551Zm-30.859.148h-4.154c-1.237,0-1.731-.494-1.731-1.731V64.715a1.537,1.537,0,0,1,1.039-1.682c.494-.2,1.038-.692,1.384-.544a11.142,11.142,0,0,0,5.029.494,18.337,18.337,0,0,1,3.032,0c.89.1,1.384.495,1.384,1.435.049,1.582.049,3.215,0,4.8q0,1.484-1.632,1.483Zm50.987-2.472a1.107,1.107,0,0,1-.445-1.335L185.807,38.6h-10.93a1.058,1.058,0,0,1-.94-1.533l15.925-31.9a1.049,1.049,0,0,1,.94-.593h17.012a1.061,1.061,0,0,1,.94.544,1.207,1.207,0,0,1-.049,1.088L196.291,25.844H208.9a1.018,1.018,0,0,1,.94.593.965.965,0,0,1-.148,1.138l-34.025,40.4a1.032,1.032,0,0,1-.791.4A1,1,0,0,1,174.334,68.226ZM113.6,63.281a7.784,7.784,0,0,0-4.3-2.374,7.868,7.868,0,0,0-7.27,2.077,2.906,2.906,0,0,1-2.225.89q-3.413-.074-6.825,0A1.122,1.122,0,0,1,91.7,62.688a4.479,4.479,0,0,1,.148-1.633c.2-.4.692-.643,1.039-.94.049.049.148.1.2.148,0-.3.049-.593.049-.89,0-2.522.049-5.094,0-7.665a5.427,5.427,0,0,1,2.621-4.8,1.941,1.941,0,0,0,.692-1.039c.446-1.879.693-3.808,1.138-5.687.791-3.314,2.374-5.836,5.935-6.627a4.054,4.054,0,0,1,1.088-.1h10.534c1.336,0,1.83.494,1.83,1.83,0,6.924.049,13.8,0,20.722,0,.89.247,1.137,1.138,1.137,4.1-.049,8.209,0,12.314,0,.643,0,.841-.2.841-.841s-.2-.841-.841-.89a12.48,12.48,0,0,1-2.67-24.48,33.383,33.383,0,0,1,5.489-.494c.841-.05,1.682,0,2.523,0,.346-1.978.445-2.077,2.472-2.077h7.221c1.879,0,2.028.148,2.274,2.127h4.649a12.349,12.349,0,0,1,8.506,3.313,12.541,12.541,0,0,1-7.616,21.76c-.94.049-.989.148-.742,1.681h10.584c1.533,0,1.929.446,1.78,1.879a22.3,22.3,0,0,0,0,2.572c.049.742-.346,1.039-.989,1.088a2.718,2.718,0,0,1-1.088,0,1.071,1.071,0,0,1-.692-.693,13.525,13.525,0,0,1-.049-2.028H116.917v1.879c.049.743-.049,1.435-.841,1.781a2.156,2.156,0,0,1-.86.17A2.322,2.322,0,0,1,113.6,63.281Zm20.473-7.616V57.2c.3,0,.545.049.743.049h13.8c.594,0,.94-.1.94-.791,0-.742-.3-.841-.94-.841h-13.6C134.721,55.616,134.424,55.665,134.077,55.665ZM101.339,38.5a13.72,13.72,0,0,0-1.088,3.115c-.4,1.633-.643,3.314-.989,5.044H114c0-3.412,0-6.775.049-10.187-3.116,0-6.133.049-9.148,0l-.162,0A3.611,3.611,0,0,0,101.339,38.5Zm29.574-2.918a7.411,7.411,0,0,0-7.221,7.121c0,.544.1,1.088.742.989a1.308,1.308,0,0,0,.792-.89c.445-3.61,2.67-5.687,6.28-5.687H152.03c.544,0,1.088-.1,1.088-.791s-.544-.791-1.138-.791C144.958,35.587,137.935,35.537,130.913,35.587Zm194.849,20.92a11.4,11.4,0,0,0-7.17,2.522c1.138-11.968,4.154-40.7,7.17-40.7s6.034,28.733,7.171,40.7A11.4,11.4,0,0,0,325.762,56.507Zm-51.976-2.028V51.907h4.5V44.291h3.808v7.616h4.6v2.572ZM298.167,43H258.7a1.578,1.578,0,0,1-1.731-1.384l4.549-23.491a1.614,1.614,0,0,1,1.732-1.384h32.985a1.614,1.614,0,0,1,1.732,1.384l5.737,23.491A1.614,1.614,0,0,1,301.975,43Zm-39.118-1.632h42.58l-5.737-22.9H263.6Zm-36.2-.841C204.5,33.757,219.09,10.118,227.695.821a.728.728,0,0,1,.742-.743.477.477,0,0,1,.742.347.635.635,0,0,1,.2.494c.346,6.973,4.154,10.535,8.21,15.826,2.868,3.709,5.44,8.852,4.549,13.649-1.273,7.059-7.268,11.138-13.763,11.138A15.874,15.874,0,0,1,222.848,40.532Zm-4.154-12.957a9.429,9.429,0,0,0,.346,3.066A9.928,9.928,0,0,0,222.9,36.18c1.088.692,2.522,1.385,3.808.989,1.237-.445,4.154-2.028,3.412-3.857-1.236-2.967-5.687-4.45-7.863-6.825a9.93,9.93,0,0,1-1.978-4.1A37.19,37.19,0,0,0,218.694,27.575Zm68.692,12.117V34.35h10.583l1.483,5.341Zm-11.82,0V34.35h9.693v5.341Zm-14.638,0,1.533-5.341h10.88v5.341Zm26.458-7.171V27.18h9.049l1.534,5.341Zm-11.82,0V27.18h9.693v5.341Zm-13.4,0,1.483-5.341h9.693v5.341ZM304.4,27.526,301.085,25.6l-.1-.494,1.384-1.385a.182.182,0,0,1,.148-.049c.049,0,.049.049.1.1l2.028,3.512a.2.2,0,0,1-.188.257A.2.2,0,0,1,304.4,27.526Zm-17.061-2.076V20.108H294.9l1.483,5.341Zm-11.82,0V20.108h9.693v5.341Zm-11.919,0,1.534-5.341h8.159v5.341Zm35.41-8.457a1.615,1.615,0,0,0-1.732-1.384h-7.862a7.092,7.092,0,0,1,6.676-4.649,7.134,7.134,0,0,1,4.549,12.659Zm6.429,2.424a.182.182,0,0,1-.049-.149V17.141a.175.175,0,0,1,.2-.2l3.956,1.039c.148.049.148.3,0,.445l-3.956,1.039A.182.182,0,0,1,305.437,19.416Zm-2.226-6.874-1.533-1.534a.179.179,0,0,1-.049-.148.106.106,0,0,1,.1-.1l3.511-2.028c.148-.05.346.1.247.247l-2.028,3.511a.106.106,0,0,1-.1.1A.182.182,0,0,1,303.211,12.542Zm-15.281-.049-1.78-3.215c-.049-.149.148-.3.247-.247l3.263,1.78a.173.173,0,0,1,.05.1.18.18,0,0,1-.05.148l-1.483,1.484a.182.182,0,0,1-.148.05Zm7.122-3.314c-.049,0-.1-.049,0-.049A.18.18,0,0,1,295,8.981l1.039-3.956c0-.148.247-.148.3,0l1.039,3.956a.175.175,0,0,1-.2.2Z" transform="translate(-3031.56 -987.495)" fill="#fff"/>
  </g>
</svg>
