<svg id="Group_486" data-name="Group 486" xmlns="http://www.w3.org/2000/svg" xmlns:xlink="http://www.w3.org/1999/xlink" width="272.225" height="170" viewBox="0 0 272.225 170">
  <defs>
    <linearGradient id="linear-gradient" x1="0.518" y1="-0.109" x2="0.5" y2="1" gradientUnits="objectBoundingBox">
      <stop offset="0" stop-color="#8cc63f"/>
      <stop offset="1" stop-color="#009245"/>
    </linearGradient>
    <clipPath id="clip-path">
      <rect id="Rectangle_165" data-name="Rectangle 165" width="272" height="170" transform="translate(-2912 -972)" fill="#fff"/>
    </clipPath>
  </defs>
  <g id="Group_411" data-name="Group 411">
    <rect id="Rectangle_67" data-name="Rectangle 67" width="272.225" height="170" fill="url(#linear-gradient)"/>
  </g>
  <g id="Mask_Group_1" data-name="Mask Group 1" transform="translate(2912 972)" opacity="0.06" clip-path="url(#clip-path)">
    <path id="Union_10" data-name="Union 10" d="M152.3,347.061a25.2,25.2,0,0,0,9.158-13.645c0,.018-1.689,6.994-9.924,13.059a9.524,9.524,0,0,0-2.262,2.634c-.256-.037-7.48-12.145,9.669-18.363a15.133,15.133,0,0,0,4.451-2.926,18.012,18.012,0,0,1,2.7,12c-.438,2.89-3.795,11.157-14.048,9.95a9.046,9.046,0,0,0-1.277,3.548,14.149,14.149,0,0,0-1.642.586C149.6,351.048,150.694,348.231,152.3,347.061Zm42.4,4.536v-1.9h3.32v-5.633h2.809v5.633h3.394v1.9Zm-66.113-6.438,1.97-33.434c-6.275,2.889-21.454,9.657-22.33,8.157s12.625-11.34,18.243-15.327a9,9,0,0,0-.073.988,6.6,6.6,0,1,0,13.208,0,9.04,9.04,0,0,0-.073-.951c5.619,4.024,19.119,13.828,18.17,15.291-.876,1.5-16.054-5.268-22.33-8.157l1.971,33.434a5.465,5.465,0,0,1-8.757,0Zm84.1-2.049H183.568a1.165,1.165,0,0,1-1.277-1.024l3.357-17.376a1.193,1.193,0,0,1,1.278-1.025h24.336a1.192,1.192,0,0,1,1.277,1.025l4.232,17.376a1.192,1.192,0,0,1-1.277,1.024ZM183.823,341.9h31.415l-4.232-16.936H187.18Zm20.907-1.244v-3.951h7.808l1.094,3.951Zm-8.72,0v-3.951h7.151v3.951Zm-10.8,0,1.131-3.951h8.027v3.951Zm19.52-5.3V331.4h6.677l1.131,3.95Zm-8.72,0V331.4h7.151v3.95Zm-9.888,0,1.094-3.95h7.151v3.95Zm31.159-3.695-2.444-1.427-.073-.365,1.021-1.025a.134.134,0,0,1,.11-.037c.037,0,.037.037.073.073l1.5,2.6a.148.148,0,0,1-.139.19A.143.143,0,0,1,217.281,331.66Zm-137.225-.7a.751.751,0,0,1-.292-.914l8.392-19.973h-7.7a.766.766,0,0,1-.657-1.1l11.238-22.534a.69.69,0,0,1,.657-.4h11.967a.77.77,0,0,1,.657.4.815.815,0,0,1-.037.768l-8.757,13.864h8.866a.775.775,0,0,1,.693.439.656.656,0,0,1-.073.768L81.041,330.819a.86.86,0,0,1-.584.256A.732.732,0,0,1,80.057,330.965Zm124.637-.841v-3.951h5.582l1.094,3.951Zm-8.72,0v-3.951h7.151v3.951Zm-8.793,0,1.131-3.951h6.02v3.951Zm26.124-6.256a1.192,1.192,0,0,0-1.278-1.024h-5.8a5.233,5.233,0,0,1,4.926-3.438,5.28,5.28,0,0,1,3.357,9.365Zm4.743,1.793a.135.135,0,0,1-.037-.11v-1.573a.129.129,0,0,1,.146-.146l2.919.768c.11.037.11.22,0,.329l-2.919.768A.134.134,0,0,1,218.047,325.661Zm-1.642-5.085-1.131-1.134a.133.133,0,0,1-.036-.109.079.079,0,0,1,.073-.073l2.59-1.5c.11-.037.256.073.183.183l-1.5,2.6a.079.079,0,0,1-.073.073A.134.134,0,0,1,216.405,320.576Zm-11.274-.037-1.313-2.378c-.037-.11.11-.219.183-.182l2.408,1.317a.128.128,0,0,1,.037.073.133.133,0,0,1-.037.109l-1.094,1.1a.134.134,0,0,1-.11.037Zm44.55-5.816v-9.986h-2.992v15H226.768V287.763a3.991,3.991,0,0,1,3.977-3.987h11.968a3.991,3.991,0,0,1,3.977,3.987v14.011H248.7a3.991,3.991,0,0,1,3.977,3.987v9a2.007,2.007,0,1,0,4.013,0V300.347a5.318,5.318,0,0,1-2.007.4,4.993,4.993,0,0,1-1.788-9.657l-4.2-4.207,2.116-2.122,7.407,7.463a4.894,4.894,0,0,1,1.459,3.512v18.986a5,5,0,1,1-10,0Zm2.992-18.986a2.028,2.028,0,0,0,2.007,2.012,2,2,0,0,0,2.007-2.012,2.007,2.007,0,1,0-4.013,0Zm-21.892,2.012h11.968v-9.987H230.781Zm-40.135,20.485a.82.82,0,0,1-.329-.987l8.793-20.924h-8.064a.782.782,0,0,1-.693-1.134l11.749-23.6a.774.774,0,0,1,.693-.439h12.551a.782.782,0,0,1,.693.4.9.9,0,0,1-.037.8l-9.158,14.523h9.3a.75.75,0,0,1,.693.439.715.715,0,0,1-.11.841l-25.1,29.887a.761.761,0,0,1-.584.292A.733.733,0,0,1,190.646,318.235Zm19.739-.146c-.037,0-.073-.037,0-.037a.133.133,0,0,1-.037-.109l.766-2.926c0-.11.182-.11.218,0l.766,2.926a.129.129,0,0,1-.145.146ZM61.156,316.406c-13.536-5.011-2.773-22.5,3.576-29.374a.538.538,0,0,1,.547-.549.352.352,0,0,1,.548.256.473.473,0,0,1,.145.366c.256,5.158,3.065,7.792,6.057,11.705,2.116,2.743,4.013,6.548,3.357,10.1a10.006,10.006,0,0,1-10.154,8.239A11.686,11.686,0,0,1,61.156,316.406Zm-3.065-9.584a6.992,6.992,0,0,0,.256,2.268,7.341,7.341,0,0,0,2.846,4.1,3.594,3.594,0,0,0,2.809.732c.912-.329,3.065-1.5,2.518-2.853-.912-2.195-4.2-3.292-5.8-5.048a7.346,7.346,0,0,1-1.459-3.036A27.44,27.44,0,0,0,58.091,306.822Zm104.242,7.023c0-.8-.11-1.609-.037-2.414a1.439,1.439,0,0,0-.949-1.573,6.358,6.358,0,0,1-3.685-5.78c-.037-5.816-.073-11.633,0-17.412a6.776,6.776,0,0,1,4.707-6.365c.328-.11.693-.219,1.021-.329v-7.316c-.584-.512-1.277-.878-1.24-1.207.037-.513.547-.951.839-1.463h15.762c.292.475.876.987.839,1.427,0,.365-.73.732-1.278,1.207v7.353c.365.11.73.219,1.058.329,2.736,1.1,4.6,3,4.633,6.036.11,6,.073,11.962.036,17.961a4.948,4.948,0,0,1-2.262,4.536c-2.226,1.17-2.591,2.853-2.372,5.011Zm2.335-2.6a6.975,6.975,0,0,0,1.715.622q4.488.11,8.975,0a5.7,5.7,0,0,0,1.752-.658,1.288,1.288,0,0,0-.146-.329c-4.086-.037-8.136-.037-12.186-.037C164.741,310.992,164.7,311.1,164.668,311.248Zm3.211-32.629h9.048v-5.048h-9.048Zm112.451,30.4.949-16.461c-3.1,1.427-10.582,4.755-11.019,4.024-.438-.768,6.2-5.6,8.975-7.572a2.129,2.129,0,0,0-.036.475,3.247,3.247,0,1,0,6.495,0,2.088,2.088,0,0,0-.037-.475c2.736,1.975,9.413,6.8,9.048,7.572-.438.732-7.918-2.6-11.019-4.024l.949,16.461a2.66,2.66,0,0,1-4.305,0Zm-151.71-3.438a4.378,4.378,0,1,1,4.378,4.39A4.384,4.384,0,0,1,128.62,305.578Zm4.415-6.621a6.519,6.519,0,0,0-4.123,1.463c.657-6.877,2.372-23.484,4.123-23.484,1.714,0,3.466,16.608,4.123,23.484A6.6,6.6,0,0,0,133.035,298.957Zm147.222-9.474a2.153,2.153,0,1,1,2.153,2.158A2.156,2.156,0,0,1,280.256,289.483ZM42.475,290.69V287.47a.547.547,0,1,1,1.095,0v3.219a.547.547,0,1,1-1.095,0Zm-4.816-2.122a.555.555,0,0,1-.292-.7l.584-1.5a.553.553,0,0,1,.693-.293.542.542,0,0,1,.292.7l-.584,1.5a.55.55,0,0,1-.511.33A.4.4,0,0,1,37.659,288.568Zm10.289-.439-.62-1.463a.532.532,0,1,1,.985-.4l.62,1.463a.556.556,0,0,1-.291.7.462.462,0,0,1-.219.037A.5.5,0,0,1,47.949,288.129Zm6.458-.8-3.065-3.073a.543.543,0,1,1,.766-.768l3.029,3.073a.532.532,0,0,1,0,.768.468.468,0,0,1-.365.146A.52.52,0,0,1,54.407,287.324Zm-23.5,0a.531.531,0,0,1,0-.768l3.064-3.073a.486.486,0,0,1,.73,0,.531.531,0,0,1,0,.768l-3.064,3.073a.468.468,0,0,1-.365.146A.522.522,0,0,1,30.91,287.324Zm251.5-1.1a3.31,3.31,0,0,0-2.043.732c.329-3.4,1.167-11.56,2.043-11.56s1.715,8.158,2.043,11.56A3.1,3.1,0,0,0,282.409,286.227ZM31.821,275.143a11.2,11.2,0,1,1,11.2,11.23A11.242,11.242,0,0,1,31.821,275.143ZM42,270.1l-2.663,5.34a.516.516,0,0,0,.037.512.505.505,0,0,0,.438.256h.876L39.3,280.85a.524.524,0,0,0,.255.622.676.676,0,0,0,.256.073.518.518,0,0,0,.438-.22l5.327-6.95a.5.5,0,0,0,.073-.549.489.489,0,0,0-.474-.292v.037h-.839l1.277-3a.509.509,0,0,0-.037-.512.442.442,0,0,0-.438-.256H42.475A.526.526,0,0,0,42,270.1Zm36.3,15.291v-1.9h3.32V277.85h2.809v5.633h3.393v1.9Zm-48.527-4.609a.555.555,0,0,1,.292-.7l1.459-.622a.553.553,0,0,1,.693.292.524.524,0,0,1-.292.7l-1.459.622a.462.462,0,0,1-.219.037A.5.5,0,0,1,29.778,280.777Zm234.169-.549V275.18a.827.827,0,0,1,.839-.841.85.85,0,0,1,.839.841v5.048a.839.839,0,1,1-1.679,0Zm-208.263.622-1.5-.586a.533.533,0,0,1,.4-.987l1.5.585a.524.524,0,0,1,.292.7.551.551,0,0,1-.511.33A.4.4,0,0,1,55.684,280.85Zm200.6-3.95a.836.836,0,0,1-.475-1.1l.949-2.341a.833.833,0,0,1,1.095-.475.863.863,0,0,1,.474,1.134l-.949,2.341a.79.79,0,0,1-.766.512A1.078,1.078,0,0,1,256.285,276.9Zm-159.992,0H67.176a1.165,1.165,0,0,1-1.277-1.024L69.256,258.5a1.193,1.193,0,0,1,1.278-1.025H94.87a1.192,1.192,0,0,1,1.277,1.025l4.232,17.376A1.192,1.192,0,0,1,99.1,276.9Zm-28.861-1.207H98.846l-4.232-16.937H70.788Zm205.09.585-.985-2.3a.834.834,0,1,1,1.533-.658l.985,2.3a.819.819,0,0,1-.438,1.1,1.057,1.057,0,0,1-.328.073A.825.825,0,0,1,272.521,276.277Zm-217.239-.549a.549.549,0,0,1,0-1.1h3.211a.538.538,0,0,1,.547.549.562.562,0,0,1-.547.549Zm-27.729-.037a.549.549,0,0,1,0-1.1h3.211a.549.549,0,0,1,0,1.1Zm255.076-.768-4.816-4.828a.826.826,0,1,1,1.167-1.17l4.816,4.828a.818.818,0,0,1,0,1.17.725.725,0,0,1-.584.256A.776.776,0,0,1,282.628,274.924Zm-36.888,0a.819.819,0,0,1,0-1.17l4.817-4.828a.826.826,0,1,1,1.167,1.17l-4.816,4.828a.794.794,0,0,1-1.168,0Zm-126.972-8.56c8.829-6.328,11.055-16.461,11.055-16.461s-2.043,8.45-11.967,15.766a12.268,12.268,0,0,0-2.736,3.183c-.292-.073-9.012-14.669,11.675-22.168a17.726,17.726,0,0,0,5.364-3.512,21.5,21.5,0,0,1,3.21,14.485c-.511,3.475-4.56,13.462-16.929,12a11.171,11.171,0,0,0-1.533,4.281c-.584.146-1.97.7-1.97.7C115.484,271.192,116.8,267.754,118.768,266.364Zm-30.43,8.084V270.5h7.808l1.094,3.951Zm-8.72,0V270.5H86.77v3.951Zm-10.8,0,1.131-3.951h8.027v3.951Zm234.242-.768v-1.9h3.32v-5.633h2.809v5.633h3.393v1.9ZM247.2,255.865A17.586,17.586,0,1,1,264.786,273.5,17.619,17.619,0,0,1,247.2,255.865Zm15.981-7.975-4.2,8.413a.8.8,0,0,0,.037.8.887.887,0,0,0,.73.4h1.386l-2.189,7.316a.843.843,0,0,0,.438.988.616.616,0,0,0,.365.11.78.78,0,0,0,.657-.33l8.392-10.9a.854.854,0,0,0-.693-1.353V253.3h-1.2l2.007-4.719a.893.893,0,0,0-.073-.8.829.829,0,0,0-.693-.365h-4.2A.85.85,0,0,0,263.181,247.891ZM31.457,271.009l-1.5-.585a.533.533,0,0,1,.4-.987l1.5.585a.532.532,0,0,1-.218,1.024A.4.4,0,0,1,31.457,271.009Zm22.4-.439a.488.488,0,0,1,.292-.7l1.459-.622a.533.533,0,0,1,.4.987l-1.459.622a.47.47,0,0,1-.219.036A.5.5,0,0,1,53.859,270.57Zm100.957-1.427v-1.865a.328.328,0,0,1,.329-.33.385.385,0,0,1,.328.33v1.865a.328.328,0,1,1-.657,0Zm-66.478,0v-3.95h6.677l1.131,3.95Zm-8.72,0v-3.95H86.77v3.95Zm-9.888,0,1.094-3.95h7.151v3.95Zm82.24-1.244a.3.3,0,0,1-.182-.4l.365-.877a.3.3,0,0,1,.4-.183.323.323,0,0,1,.182.439l-.365.878a.325.325,0,0,1-.292.183C152.044,267.937,152.007,267.9,151.971,267.9Zm6.021-.22-.365-.877a.312.312,0,1,1,.584-.22l.365.841a.368.368,0,0,1-.183.4.133.133,0,0,1-.109.037A.325.325,0,0,1,157.991,267.681Zm3.795-.512L160,265.376a.31.31,0,1,1,.438-.439l1.787,1.793a.334.334,0,0,1,0,.439.273.273,0,0,1-.438,0Zm-13.719,0a.334.334,0,0,1,0-.439l1.787-1.793a.31.31,0,0,1,.438.439l-1.788,1.792a.273.273,0,0,1-.438,0Zm-96.762-.33a.531.531,0,0,1,0-.768L54.37,263a.542.542,0,1,1,.766.768l-3.065,3.073a.468.468,0,0,1-.365.146A.607.607,0,0,1,51.305,266.839Zm-17.331,0-3.1-3.073A.543.543,0,0,1,31.64,263l3.064,3.073a.531.531,0,0,1,0,.768.467.467,0,0,1-.365.146A.523.523,0,0,1,33.974,266.839Zm114.64-6.767a6.531,6.531,0,1,1,6.531,6.548A6.533,6.533,0,0,1,148.614,260.072Zm5.947-2.926-1.569,3.11a.221.221,0,0,0,0,.292.307.307,0,0,0,.256.146h.547l-.8,2.707a.3.3,0,0,0,.146.366.219.219,0,0,0,.146.037.331.331,0,0,0,.255-.11l3.1-4.06a.357.357,0,0,0,.037-.33.372.372,0,0,0-.292-.183v.037h-.438l.766-1.755a.277.277,0,0,0-.037-.293.244.244,0,0,0-.256-.146h-1.569A.289.289,0,0,0,154.561,257.146Zm-53.672,8.3-2.444-1.427-.073-.366,1.021-1.025a.134.134,0,0,1,.11-.037c.037,0,.037.037.073.073l1.5,2.6a.147.147,0,0,1-.139.19A.132.132,0,0,1,100.89,265.449Zm143.1-.732a.819.819,0,0,1,.438-1.1l2.3-.988a.816.816,0,0,1,1.094.439.849.849,0,0,1-.438,1.1l-2.3.988a1.06,1.06,0,0,1-.328.073A.825.825,0,0,1,243.989,264.717Zm77.059.476H291.932a1.167,1.167,0,0,1-1.277-1.025l3.357-17.376a1.193,1.193,0,0,1,1.278-1.025h24.336a1.193,1.193,0,0,1,1.278,1.025l4.232,17.376a1.192,1.192,0,0,1-1.278,1.025Zm-28.861-1.208H323.6l-4.232-16.937H295.544Zm-7.516.841-2.335-.951a.845.845,0,0,1,.62-1.573l2.335.951a.929.929,0,0,1,.474,1.134.789.789,0,0,1-.766.512A1.064,1.064,0,0,1,284.671,264.827Zm-246.9-.8-.62-1.463a.532.532,0,1,1,.985-.4l.621,1.463a.556.556,0,0,1-.292.7.462.462,0,0,1-.219.037A.5.5,0,0,1,37.769,264.022Zm9.669.22a.512.512,0,0,1-.291-.7l.584-1.5a.532.532,0,1,1,.985.4l-.584,1.5a.549.549,0,0,1-.511.33A.4.4,0,0,1,47.437,264.242Zm40.865-.329v-3.951h5.582l1.094,3.951Zm-8.72,0v-3.951h7.151v3.951Zm-8.793,0,1.131-3.951h6.02v3.951Zm76.585-.586a.368.368,0,0,1,.183-.4l.875-.366a.367.367,0,0,1,.4.183c.073.183,0,.366-.183.366l-.876.365a.134.134,0,0,1-.11.037A.325.325,0,0,1,147.374,263.327Zm15.178.073-.876-.365a.312.312,0,0,1,.219-.585l.875.365a.4.4,0,0,1,.183.439.325.325,0,0,1-.292.183C162.624,263.437,162.589,263.4,162.552,263.4Zm-120.077-.549v-3.219a.547.547,0,1,1,1.095,0v3.219a.562.562,0,0,1-.547.549A.589.589,0,0,1,42.475,262.852Zm270.619-.109v-3.952H320.9L322,262.743Zm-8.72,0v-3.952h7.151v3.952Zm-10.8,0,1.131-3.952h8.027v3.952ZM96.913,257.658a1.192,1.192,0,0,0-1.277-1.024h-5.8A5.233,5.233,0,0,1,94.76,253.2a5.28,5.28,0,0,1,3.357,9.364Zm65.42,2.743a.329.329,0,0,1,0-.658h1.861a.353.353,0,0,1,.329.329.327.327,0,0,1-.329.329Zm-16.236,0a.329.329,0,0,1,0-.658h1.861a.329.329,0,0,1,0,.658Zm-44.441-.951a.135.135,0,0,1-.037-.11v-1.573a.129.129,0,0,1,.146-.146l2.919.768c.11.037.11.22,0,.33l-2.919.768A.134.134,0,0,1,101.656,259.45Zm101.03-5.195v-8.743h-2.627v13.133H182.582V230.625a3.508,3.508,0,0,1,3.5-3.512h10.471a3.508,3.508,0,0,1,3.5,3.512v12.255h1.752a3.508,3.508,0,0,1,3.5,3.512v7.865a1.751,1.751,0,1,0,3.5,0V241.672a4.693,4.693,0,0,1-1.751.365,4.391,4.391,0,0,1-1.569-8.487l-3.685-3.695,1.861-1.865,6.494,6.548a4.226,4.226,0,0,1,1.278,3.072v16.644a4.378,4.378,0,1,1-8.757,0Zm2.663-16.644a1.778,1.778,0,0,0,1.752,1.756,1.754,1.754,0,0,0,1.751-1.756,1.751,1.751,0,1,0-3.5,0Zm-19.228,1.756h10.471v-8.743H186.122Zm-37.727,18.326-.875-.365c-.183-.073-.256-.256-.183-.366a.3.3,0,0,1,.4-.182l.876.366a.3.3,0,0,1,.183.4.326.326,0,0,1-.292.182C148.468,257.731,148.431,257.694,148.395,257.694Zm13.062-.292a.323.323,0,0,1,.183-.439l.876-.365a.312.312,0,0,1,.218.585l-.875.366a.136.136,0,0,1-.11.036A.325.325,0,0,1,161.457,257.4Zm151.637.037v-3.951h6.677l1.131,3.951Zm-8.72,0v-3.951h7.151v3.951Zm-9.888,0,1.095-3.951h7.151v3.951Zm-10.471-.732a.841.841,0,0,1,0-1.683h5.035a.841.841,0,0,1,0,1.683Zm-43.564,0a.841.841,0,0,1,0-1.683h5.035a.841.841,0,0,1,0,1.683ZM224.505,248.7a24.667,24.667,0,0,0,8.975-13.352s-1.641,6.841-9.705,12.767a9.423,9.423,0,0,0-2.226,2.56c-.256-.037-7.3-11.888,9.45-17.961a14.135,14.135,0,0,0,4.342-2.853,17.681,17.681,0,0,1,2.627,11.743,11.869,11.869,0,0,1-13.719,9.73,9.031,9.031,0,0,0-1.24,3.475c-.474.146-1.606.585-1.606.585C221.842,252.609,222.936,249.829,224.505,248.7ZM160,255.207a.335.335,0,0,1,0-.439l1.788-1.792a.31.31,0,1,1,.438.439l-1.787,1.793a.315.315,0,0,1-.219.11A.26.26,0,0,1,160,255.207Zm-10.143,0-1.787-1.793a.31.31,0,1,1,.438-.439l1.788,1.792a.335.335,0,0,1,0,.439.273.273,0,0,1-.438,0Zm-49.841-.841-1.131-1.134a.133.133,0,0,1-.037-.109.079.079,0,0,1,.073-.073l2.59-1.5c.11-.037.256.073.183.183l-1.5,2.6a.079.079,0,0,1-.073.073A.134.134,0,0,1,100.014,254.366Zm-11.274-.037-1.313-2.378c-.037-.11.11-.219.183-.183l2.408,1.317a.128.128,0,0,1,.037.073.134.134,0,0,1-.037.109l-1.094,1.1a.134.134,0,0,1-.11.037Zm236.905-.586-2.444-1.427-.073-.365,1.022-1.025a.134.134,0,0,1,.11-.037c.037,0,.037.037.073.073l1.5,2.6a.147.147,0,0,1-.139.19A.132.132,0,0,1,325.645,253.743ZM157.7,253.707a.342.342,0,0,1-.182-.366l.365-.877a.312.312,0,1,1,.584.219l-.365.878a.325.325,0,0,1-.292.183C157.772,253.744,157.735,253.707,157.7,253.707Zm-5.655-.146-.365-.915a.312.312,0,1,1,.584-.219l.365.877a.369.369,0,0,1-.182.4.134.134,0,0,1-.11.037A.325.325,0,0,1,152.044,253.561Zm2.773-.695V251a.328.328,0,1,1,.657,0v1.865a.328.328,0,1,1-.657,0Zm-127.227-4.1v-8.743H24.962v13.133H7.485V225.138a3.508,3.508,0,0,1,3.5-3.512H21.423a3.508,3.508,0,0,1,3.5,3.512v12.255h1.751a3.508,3.508,0,0,1,3.5,3.512v7.865a1.751,1.751,0,1,0,3.5,0V236.186a4.693,4.693,0,0,1-1.751.365,4.391,4.391,0,0,1-1.569-8.487l-3.685-3.695,1.861-1.865,6.495,6.548a4.407,4.407,0,0,1,1.313,3.072v16.644a4.378,4.378,0,1,1-8.757,0Zm2.627-16.644a1.778,1.778,0,0,0,1.752,1.756,1.754,1.754,0,0,0,1.751-1.756,1.751,1.751,0,1,0-3.5,0Zm-19.228,1.756H21.459v-8.743H10.988Zm41.85,7.206c12.661-9.072,15.872-23.631,15.872-23.631s-2.882,12.109-17.149,22.607a17.915,17.915,0,0,0-3.9,4.573c-.4-.073-12.916-21.034,16.747-31.789a26.405,26.405,0,0,0,7.7-5.048,30.963,30.963,0,0,1,4.56,20.778c-.766,4.975-6.567,19.314-24.3,17.193a15.92,15.92,0,0,0-2.189,6.145c-.875.22-2.846,1.025-2.846,1.025C48.131,248,50.028,243.1,52.838,241.087Zm251.5,11.121v-3.951h7.151v3.951Zm8.72,0v-3.95h5.582l1.095,3.95Zm-17.514,0,1.131-3.95h6.02v3.95Zm-201.55-.329c-.037,0-.073-.037,0-.037a.133.133,0,0,1-.037-.109l.766-2.927c0-.11.182-.11.218,0l.766,2.927a.129.129,0,0,1-.145.146Zm227.674-5.926a1.192,1.192,0,0,0-1.277-1.024h-5.8a5.235,5.235,0,0,1,4.926-3.438,5.28,5.28,0,0,1,3.357,9.364ZM160.4,250.086a.461.461,0,0,1-.182-.585l5.436-12.877h-5a.49.49,0,0,1-.438-.7l7.224-14.522a.506.506,0,0,1,.438-.256h7.735a.5.5,0,0,1,.438.256.385.385,0,0,1,0,.475l-5.655,8.926h5.728a.474.474,0,0,1,.438.292.387.387,0,0,1-.11.475l-15.433,18.4a.449.449,0,0,1-.365.183A.676.676,0,0,1,160.4,250.086Zm86.181-.7-2.335-.951a.858.858,0,0,1-.475-1.061.833.833,0,0,1,1.095-.476l2.335.951a.836.836,0,0,1,.474,1.1.79.79,0,0,1-.766.513A1.064,1.064,0,0,1,246.579,249.391Zm35.173-.768a.831.831,0,0,1,.438-1.1l2.3-.987a.835.835,0,0,1,.657,1.536l-2.3.987a1.064,1.064,0,0,1-.329.073A.826.826,0,0,1,281.752,248.622Zm44.659-.878a.135.135,0,0,1-.037-.11v-1.573a.129.129,0,0,1,.146-.146l2.92.768c.11.037.11.22,0,.33l-2.92.768A.134.134,0,0,1,326.411,247.744Zm-75.854-4.938-4.817-4.828a.827.827,0,0,1,1.168-1.171l4.816,4.829a.818.818,0,0,1,0,1.17.724.724,0,0,1-.584.256A.859.859,0,0,1,250.557,242.806Zm27.255-.037a.818.818,0,0,1,0-1.17l4.816-4.829a.827.827,0,0,1,1.167,1.171l-4.816,4.828a.793.793,0,0,1-1.167,0Zm46.957-.11-1.13-1.134a.135.135,0,0,1-.037-.11.079.079,0,0,1,.073-.073l2.59-1.5c.11-.037.256.073.183.183l-1.5,2.6a.079.079,0,0,1-.073.073A.134.134,0,0,1,324.769,242.66Zm-11.274-.037-1.313-2.378c-.037-.109.11-.219.183-.183l2.408,1.317a.128.128,0,0,1,.037.073.134.134,0,0,1-.037.109l-1.095,1.1a.134.134,0,0,1-.11.037Zm5.254-2.451c-.037,0-.073-.036,0-.036a.135.135,0,0,1-.037-.11l.766-2.926c0-.11.183-.11.219,0l.766,2.926a.128.128,0,0,1-.145.146Zm-62.282-1.755-.985-2.3a.834.834,0,1,1,1.533-.658l.985,2.3a.82.82,0,0,1-.438,1.1,1.082,1.082,0,0,1-.329.073A.825.825,0,0,1,256.467,238.416Zm15.215.293a.8.8,0,0,1-.474-1.061l.948-2.341a.844.844,0,1,1,1.569.622l-.948,2.341a.791.791,0,0,1-.766.513A1.064,1.064,0,0,1,271.682,238.709Zm-132.555-9.986a8.81,8.81,0,0,1,8.757-8.853,8.78,8.78,0,0,1,0,17.559A8.755,8.755,0,0,1,139.127,228.723Zm4.817-.037a3.977,3.977,0,0,0,7.953,0,3.977,3.977,0,1,0-7.953,0Zm-22.95-.073a8.757,8.757,0,1,1,8.793,8.816A8.732,8.732,0,0,1,120.994,228.613Zm4.779.11a3.937,3.937,0,0,0,4.013,3.914,3.969,3.969,0,0,0-.109-7.937A3.938,3.938,0,0,0,125.774,228.723Zm-38.092-.037a8.757,8.757,0,1,1,8.684,8.743A8.7,8.7,0,0,1,87.682,228.686Zm4.78,0A3.875,3.875,0,0,0,96.4,232.6a3.832,3.832,0,0,0,3.941-3.914,3.941,3.941,0,1,0-7.881,0Zm171.485,7.865V231.5a.839.839,0,1,1,1.679,0v5.048a.827.827,0,0,1-.839.841A.85.85,0,0,1,263.947,236.551Zm66.077-9.365v-8.743H327.4v13.133H309.92V203.555a3.508,3.508,0,0,1,3.5-3.512h10.471a3.508,3.508,0,0,1,3.5,3.512V215.81h1.751a3.508,3.508,0,0,1,3.5,3.512v7.865a1.751,1.751,0,1,0,3.5,0V214.6a4.693,4.693,0,0,1-1.751.365,4.391,4.391,0,0,1-1.569-8.487l-3.685-3.695,1.861-1.865,6.495,6.548a4.228,4.228,0,0,1,1.277,3.072v16.644a4.378,4.378,0,1,1-8.757,0Zm2.663-16.644a1.778,1.778,0,0,0,1.752,1.756,1.754,1.754,0,0,0,1.751-1.756,1.751,1.751,0,1,0-3.5,0ZM313.459,212.3h10.472v-8.743H313.459ZM145.4,228.65a2.557,2.557,0,0,1,2.554-2.524,2.524,2.524,0,0,1-.036,5.048A2.525,2.525,0,0,1,145.4,228.65Zm-18.17,0a2.48,2.48,0,0,1,2.517-2.524,2.558,2.558,0,0,1,2.518,2.561,2.5,2.5,0,0,1-2.554,2.487A2.428,2.428,0,0,1,127.233,228.65Zm-33.312.037a2.481,2.481,0,0,1,2.481-2.561,2.581,2.581,0,0,1,2.554,2.524,2.5,2.5,0,0,1-2.517,2.524A2.449,2.449,0,0,1,93.922,228.686Zm182.978.658c0-.8-.11-1.61-.036-2.415a1.439,1.439,0,0,0-.949-1.572,6.358,6.358,0,0,1-3.685-5.78c-.037-5.816-.073-11.633,0-17.413a6.775,6.775,0,0,1,4.707-6.365c.328-.11.693-.22,1.021-.33v-7.316c-.584-.513-1.277-.878-1.24-1.208.037-.512.547-.951.839-1.463h15.762c.292.476.876.988.839,1.427,0,.366-.73.732-1.278,1.208v7.352c.365.11.73.22,1.058.33,2.736,1.1,4.6,3,4.633,6.036.11,6,.073,11.962.037,17.961a4.946,4.946,0,0,1-2.262,4.536c-2.225,1.171-2.59,2.853-2.371,5.012Zm2.335-2.6a7.006,7.006,0,0,0,1.715.622q4.488.11,8.975,0a5.72,5.72,0,0,0,1.752-.658,1.3,1.3,0,0,0-.146-.33c-4.086-.037-8.136-.037-12.186-.037C279.307,226.491,279.271,226.6,279.234,226.748Zm3.211-32.63h9.048v-5.048h-9.048ZM112.931,228.759h-4.378c-1.313,0-1.824-.513-1.824-1.829,0-1.5.037-3,0-4.5a1.612,1.612,0,0,1,1.094-1.756c.511-.183,1.131-.7,1.459-.549a11.99,11.99,0,0,0,5.343.518,20.009,20.009,0,0,1,3.158-.006c.912.11,1.459.549,1.423,1.5.037,1.683.037,3.4,0,5.085,0,1.024-.584,1.5-1.714,1.536-.5.012-1,.016-1.507.016C114.974,228.775,113.952,228.759,112.931,228.759Zm129.927-3.512,1.277-21.618c-4.05,1.865-13.9,6.255-14.449,5.267-.547-.951,8.173-7.316,11.821-9.913a3.419,3.419,0,0,0-.036.622,4.269,4.269,0,1,0,8.538,0,3.558,3.558,0,0,0-.037-.622c3.649,2.6,12.369,8.963,11.748,9.913-.547.988-10.362-3.4-14.449-5.267l1.278,21.618a3.552,3.552,0,0,1-5.692,0ZM102.714,221.04a8.431,8.431,0,0,0-4.524-2.487,8.26,8.26,0,0,0-7.626,2.195,3.1,3.1,0,0,1-2.335.915q-3.612-.055-7.224,0a1.166,1.166,0,0,1-1.386-1.244,3.858,3.858,0,0,1,.145-1.719c.183-.439.73-.7,1.095-1.025.073.037.146.11.218.146,0-.33.037-.622.037-.951,0-2.707.037-5.414,0-8.12a5.679,5.679,0,0,1,2.774-5.048,1.905,1.905,0,0,0,.73-1.1c.4-2.012.693-4.06,1.167-6.035.8-3.476,2.517-6.146,6.239-6.987a6.307,6.307,0,0,1,1.168-.109h11.091c1.423,0,1.934.512,1.934,1.939,0,7.28,0,14.6-.037,21.875,0,.951.256,1.208,1.2,1.208,4.305-.037,8.647-.037,12.953,0,.693,0,.912-.183.912-.878,0-.658-.182-.878-.875-.915a13.186,13.186,0,0,1-2.773-25.862,33.147,33.147,0,0,1,5.764-.549c.876-.037,1.788,0,2.664,0,.365-2.122.438-2.195,2.59-2.195h7.59c1.97,0,2.152.146,2.408,2.232h4.889a13.037,13.037,0,0,1,8.939,3.512,13.223,13.223,0,0,1-8.027,22.936c-.985.073-1.022.146-.766,1.793h11.129c1.6,0,2.043.512,2.007,2.085q-.055,1.371,0,2.743a1.019,1.019,0,0,1-1.058,1.134,3.123,3.123,0,0,1-1.167,0c-.292-.146-.693-.475-.73-.768a13.471,13.471,0,0,1-.037-2.122H106.253c0,.658-.037,1.353,0,2.012a1.674,1.674,0,0,1-.912,1.866,2.34,2.34,0,0,1-.93.185A2.42,2.42,0,0,1,102.714,221.04Zm36.815-6.438c.657,0,.985-.109.985-.914,0-.768-.328-.878-.985-.878h-14.3a9.618,9.618,0,0,0-.985.073v1.646a7.472,7.472,0,0,0,.766.073c3.235,0,6.454-.016,9.678-.016Q137.1,214.586,139.529,214.6ZM89.689,194.776a14.651,14.651,0,0,0-1.131,3.292c-.4,1.756-.693,3.512-1.022,5.341h15.544c0-3.585,0-7.1-.037-10.791-3.248,0-6.422.037-9.6,0H93.33A3.907,3.907,0,0,0,89.689,194.776Zm31.233-3.036a7.775,7.775,0,0,0-7.59,7.536c0,.585.073,1.17.766,1.061a1.377,1.377,0,0,0,.839-.951c.475-3.8,2.809-6,6.6-6h21.6c.584,0,1.2-.11,1.167-.841-.037-.695-.584-.841-1.2-.841-3.7,0-7.4-.009-11.092-.009S124.624,191.7,120.921,191.74ZM4.712,215.81c0-.8-.11-1.61-.037-2.415a1.44,1.44,0,0,0-.949-1.573,6.358,6.358,0,0,1-3.685-5.78c-.036-5.816-.072-11.632,0-17.412a6.776,6.776,0,0,1,4.707-6.366c.328-.109.693-.219,1.021-.329V174.62c-.584-.512-1.277-.878-1.24-1.207.037-.512.547-.951.839-1.463H21.131c.292.475.876.988.839,1.427,0,.365-.73.732-1.277,1.207v7.353c.365.11.73.22,1.058.329,2.736,1.1,4.6,3,4.634,6.036.109,6,.073,11.962.037,17.961A4.947,4.947,0,0,1,24.16,210.8c-2.226,1.17-2.591,2.853-2.372,5.012Zm2.335-2.6a6.965,6.965,0,0,0,1.714.622q4.488.11,8.976,0a5.706,5.706,0,0,0,1.751-.658,1.309,1.309,0,0,0-.146-.329c-4.086-.037-8.136-.037-12.186-.037C7.121,212.957,7.084,213.067,7.048,213.212Zm3.21-32.629h9.049v-5.048H10.258Zm169.223,34.129a52.969,52.969,0,0,1-.073-5.377c.146-1.829-.584-2.67-2.153-3.548-5.145-2.744-8.173-7.061-8.246-12.986-.109-13.023-.145-26.046,0-39.068.073-6.694,4.233-12,10.508-14.23.766-.256,1.533-.512,2.3-.732V122.347c-1.277-1.17-2.846-2.012-2.773-2.707.073-1.134,1.2-2.158,1.9-3.256h35.318c.693,1.1,1.934,2.195,1.9,3.219-.037.841-1.642,1.61-2.809,2.67v16.461c.839.256,1.6.475,2.335.768,6.13,2.451,10.289,6.731,10.435,13.5.292,13.425.146,26.85.073,40.275-.037,4.133-1.569,8.3-5.072,10.133-5.035,2.67-5.8,6.475-5.364,11.3Zm5.217-5.89c1.278.476,2.591,1.354,3.868,1.354,6.714.146,13.39.146,20.1,0,1.313-.037,2.59-.988,3.9-1.5-.109-.256-.182-.476-.291-.732H184.991C184.881,208.237,184.808,208.53,184.7,208.823Zm7.261-73.088h20.287v-11.3H191.959ZM242.894,199.6a2.846,2.846,0,1,1,2.846,2.853A2.85,2.85,0,0,1,242.894,199.6Zm-187.722-.512,2.518-42.836c-8.064,3.731-27.547,12.4-28.642,10.462-1.131-1.939,16.2-14.559,23.387-19.68a6.85,6.85,0,0,0-.11,1.244,8.465,8.465,0,1,0,16.929,0,6.9,6.9,0,0,0-.073-1.244c7.188,5.121,24.519,17.741,23.352,19.68-1.131,1.939-20.578-6.767-28.642-10.462l2.517,42.836s-1.423,2.817-5.619,2.817S55.172,199.092,55.172,199.092Zm190.6-3.768a4.306,4.306,0,0,0-2.664.951c.4-4.463,1.533-15.181,2.664-15.181s2.262,10.718,2.663,15.181A4.538,4.538,0,0,0,245.777,195.325Zm76.475-3.767a.631.631,0,0,1-.255-.768l6.9-16.388H322.58a.581.581,0,0,1-.511-.293.565.565,0,0,1-.037-.585l9.194-18.473a.677.677,0,0,1,.547-.33h9.815a.678.678,0,0,1,.548.33.749.749,0,0,1-.036.622l-7.188,11.376h7.261a.64.64,0,0,1,.547.365.648.648,0,0,1,0,.585l-19.666,23.412a.587.587,0,0,1-.474.22A.542.542,0,0,1,322.252,191.557ZM145.221,169.609V150.295h-5.765v28.971H100.927V117.518a7.687,7.687,0,0,1,7.7-7.718h23.1a7.687,7.687,0,0,1,7.7,7.718v27.033h3.868a7.687,7.687,0,0,1,7.7,7.718v17.376a3.867,3.867,0,1,0,7.735,0V141.808a9.882,9.882,0,0,1-3.867.8,9.646,9.646,0,0,1-3.43-18.656l-8.136-8.157,4.086-4.1,14.339,14.34-.073.073a9.8,9.8,0,0,1,2.846,6.8v36.69a9.632,9.632,0,1,1-19.265,0Zm5.728-36.69a3.867,3.867,0,1,0,3.868-3.878A3.9,3.9,0,0,0,150.949,132.919ZM108.625,136.8h23.1V117.482h-23.1ZM281.6,177.774a11.685,11.685,0,0,1-4.076-.74c-13.536-5.012-2.773-22.5,3.576-29.374a.538.538,0,0,1,.547-.549.352.352,0,0,1,.547.256.47.47,0,0,1,.146.365c.256,5.158,3.065,7.792,6.057,11.706,2.116,2.743,4.013,6.548,3.357,10.1a10.005,10.005,0,0,1-10.152,8.239Zm-7.141-10.324a6.991,6.991,0,0,0,.256,2.268,7.343,7.343,0,0,0,2.846,4.1,3.6,3.6,0,0,0,2.809.732c.912-.329,3.065-1.5,2.517-2.853-.912-2.195-4.2-3.292-5.8-5.048a7.353,7.353,0,0,1-1.46-3.036A27.557,27.557,0,0,0,274.455,167.45Zm-17.039,4.133v-8.743h-2.627v13.133H237.312V147.953a3.508,3.508,0,0,1,3.5-3.512h10.471a3.508,3.508,0,0,1,3.5,3.512v12.255h1.751a3.508,3.508,0,0,1,3.5,3.512v7.865a1.751,1.751,0,1,0,3.5,0V159a4.679,4.679,0,0,1-1.751.365,4.391,4.391,0,0,1-1.569-8.487l-3.685-3.695,1.861-1.865,6.494,6.548a4.226,4.226,0,0,1,1.278,3.072v16.644a4.378,4.378,0,1,1-8.757,0Zm2.663-16.644a1.751,1.751,0,1,0,1.752-1.755A1.778,1.778,0,0,0,260.079,154.939ZM240.851,156.7h10.471v-8.743H240.851ZM.553,171.877a.82.82,0,0,1-.329-.987l8.793-20.924H.954A.816.816,0,0,1,.3,149.6a.815.815,0,0,1-.037-.768l11.785-23.558a.774.774,0,0,1,.693-.439H25.254a.782.782,0,0,1,.693.4.9.9,0,0,1-.037.8l-9.158,14.523h9.3a.751.751,0,0,1,.693.439.715.715,0,0,1-.11.841l-25.1,29.85a.761.761,0,0,1-.584.292A.733.733,0,0,1,.553,171.877Zm54.656-23.594a5.619,5.619,0,1,1,5.619,5.633A5.626,5.626,0,0,1,55.209,148.282Zm273.355-5.524a4.771,4.771,0,0,1,4.743-4.792,4.756,4.756,0,1,1-4.743,4.792Zm2.59-.037a2.153,2.153,0,0,0,4.305,0,2.153,2.153,0,1,0-4.305,0Zm-12.4-.036a4.725,4.725,0,1,1,4.743,4.755A4.74,4.74,0,0,1,318.75,142.686Zm2.59.036a2.106,2.106,0,0,0,2.153,2.122,2.084,2.084,0,0,0,2.116-2.158,2.135,2.135,0,1,0-4.269.036Zm-20.578,0a4.7,4.7,0,0,1,4.779-4.755,4.737,4.737,0,1,1-.073,9.474A4.678,4.678,0,0,1,300.762,142.722Zm2.59,0a2.076,2.076,0,0,0,2.116,2.122,2.106,2.106,0,0,0,2.153-2.122,2.129,2.129,0,0,0-2.116-2.158A2.093,2.093,0,0,0,303.352,142.722Zm-225.96,3.293a.461.461,0,0,1-.182-.585l5.4-12.877H77.648a.49.49,0,0,1-.438-.7l7.224-14.522a.5.5,0,0,1,.438-.256h7.735a.5.5,0,0,1,.438.256.385.385,0,0,1,0,.475l-5.655,8.926h5.728a.474.474,0,0,1,.438.292.389.389,0,0,1-.11.476L78.013,145.9a.447.447,0,0,1-.365.183A.675.675,0,0,1,77.393,146.014Zm226.726-3.293a1.35,1.35,0,1,1,1.35,1.353A1.335,1.335,0,0,1,304.119,142.722Zm27.8-.037a1.4,1.4,0,0,1,1.386-1.353,1.3,1.3,0,0,1,1.313,1.353,1.327,1.327,0,0,1-1.35,1.354A1.349,1.349,0,0,1,331.921,142.685Zm-9.815,0a1.38,1.38,0,0,1,1.386-1.353,1.4,1.4,0,0,1,1.35,1.353,1.357,1.357,0,0,1-1.386,1.354A1.327,1.327,0,0,1,322.106,142.685Zm-7.662.037h-2.372c-.693,0-.985-.293-.985-.988V139.32a.849.849,0,0,1,.584-.951c.256-.073.584-.366.766-.293a6.522,6.522,0,0,0,2.925.3,11.5,11.5,0,0,1,1.673,0,.866.866,0,0,1,.839.768q.055,1.371,0,2.743a.821.821,0,0,1-.949.841Zm-253.617-2.89a8.4,8.4,0,0,0-5.29,1.865c.839-8.853,3.064-30.106,5.29-30.106s4.451,21.253,5.291,30.106A8.4,8.4,0,0,0,60.828,139.832Zm207.206.33v-1.9h3.32v-5.633h2.809v5.633h3.393v1.9Zm28.35-1.866a2.589,2.589,0,0,1,.073-.915,2.1,2.1,0,0,1,.584-.549c.037.037.073.037.11.073a2.425,2.425,0,0,0,.036-.513c0-1.463.037-2.926,0-4.39a3.056,3.056,0,0,1,1.5-2.743.956.956,0,0,0,.4-.585c.256-1.1.4-2.195.657-3.255.438-1.866,1.35-3.329,3.357-3.768a1.7,1.7,0,0,1,.621-.073H309.7c.766,0,1.022.292,1.022,1.06,0,3.951.036,7.865,0,11.816,0,.512.145.658.657.658,2.335-.037,4.67,0,7.005,0,.365,0,.474-.11.474-.475s-.109-.476-.474-.513a7.177,7.177,0,0,1-6.641-6.365,7.1,7.1,0,0,1,5.145-7.608,17.869,17.869,0,0,1,3.138-.293c.511-.037.985,0,1.459,0,.182-1.17.218-1.207,1.386-1.207h4.086c1.095,0,1.167.073,1.313,1.207H330.9a7.133,7.133,0,0,1,4.816,1.9,7.157,7.157,0,0,1-4.342,12.4c-.511.037-.547.073-.4.951h6.02c.876,0,1.131.256,1.094,1.1-.036.476,0,.988,0,1.463,0,.439-.218.586-.584.622a1.186,1.186,0,0,1-.62,0,.722.722,0,0,1-.4-.4,5.7,5.7,0,0,1-.036-1.134H310.759v1.06c.037.439-.036.841-.475,1.025a1.363,1.363,0,0,1-1.423-.256,4.661,4.661,0,0,0-2.444-1.353,4.523,4.523,0,0,0-4.123,1.207,1.73,1.73,0,0,1-1.278.513c-1.313-.037-2.59-.037-3.9,0-.03,0-.059,0-.087,0C296.612,138.958,296.417,138.707,296.384,138.3Zm24.117-4.1v.878a1.633,1.633,0,0,0,.4.037h7.845c.365,0,.547-.037.547-.475,0-.4-.183-.476-.547-.476h-7.736C320.866,134.162,320.683,134.2,320.5,134.2Zm-18.644-9.767a7.179,7.179,0,0,0-.62,1.756c-.219.951-.365,1.9-.547,2.889h8.392v-5.816H303.9A2.144,2.144,0,0,0,301.856,124.432Zm16.857-1.646a4.176,4.176,0,0,0-4.087,4.061c0,.329.036.658.4.585a.774.774,0,0,0,.438-.513,3.354,3.354,0,0,1,3.576-3.255h11.676c.328,0,.62-.037.62-.439-.037-.366-.329-.439-.657-.439-2.651,0-5.319-.016-7.981-.016Q320.7,122.769,318.713,122.785Zm-83.918,6.4c8.829-6.328,11.055-16.461,11.055-16.461s-2.043,8.45-11.967,15.766a12.26,12.26,0,0,0-2.736,3.182c-.292-.073-9.013-14.668,11.675-22.168A17.736,17.736,0,0,0,248.185,106a21.5,21.5,0,0,1,3.21,14.486c-.511,3.475-4.56,13.461-16.929,12a11.165,11.165,0,0,0-1.532,4.28c-.584.146-1.97.7-1.97.7C231.511,134.016,232.824,130.578,234.795,129.188Zm51.226,2.487H256.9a1.165,1.165,0,0,1-1.277-1.024l3.357-17.376a1.192,1.192,0,0,1,1.277-1.024H284.6a1.192,1.192,0,0,1,1.277,1.024l4.232,17.376a1.192,1.192,0,0,1-1.277,1.024Zm-28.861-1.207h31.415l-4.232-16.936H260.517Zm20.907-1.244v-3.951h7.808l1.094,3.951Zm-8.72,0v-3.951H276.5v3.951Zm-10.8,0,1.131-3.951H267.7v3.951Zm19.52-5.3v-3.95h6.677l1.131,3.95Zm-8.72,0v-3.95H276.5v3.95Zm-9.888,0,1.094-3.95H267.7v3.95Zm31.159-3.695-2.444-1.427-.073-.365,1.021-1.025a.134.134,0,0,1,.11-.037c.037,0,.037.037.073.073l1.5,2.6a.147.147,0,0,1-.139.19A.151.151,0,0,1,290.618,120.225Zm-12.587-1.536v-3.951h5.582l1.094,3.951Zm-8.72,0v-3.951h7.151v3.951Zm-8.793,0,1.131-3.951h6.02v3.951Zm26.124-6.256a1.192,1.192,0,0,0-1.278-1.024h-5.8a5.232,5.232,0,0,1,4.926-3.438,5.28,5.28,0,0,1,3.357,9.365ZM26.859,117.116v-1.9h3.32V109.58h2.809v5.633h3.393v1.9Zm264.525-2.89a.135.135,0,0,1-.036-.11v-1.573a.129.129,0,0,1,.146-.146l2.919.768c.11.037.11.22,0,.33l-2.919.768A.134.134,0,0,1,291.384,114.226Zm-129.709-1.683v-2.048a.328.328,0,0,1,.329-.33c.219,0,.365.146.328.33v2.048a.328.328,0,1,1-.657,0Zm-3.064-1.353a.323.323,0,0,1-.183-.439l.365-.951a.322.322,0,0,1,.438-.183.335.335,0,0,1,.182.439l-.365.951a.351.351,0,0,1-.329.22C158.684,111.227,158.648,111.19,158.611,111.19Zm6.53-.22-.4-.951a.336.336,0,1,1,.62-.256l.438.951a.323.323,0,0,1-.183.439.275.275,0,0,1-.146.037A.319.319,0,0,1,165.142,110.97Zm4.05-.549-1.934-1.939a.336.336,0,1,1,.474-.475l1.97,1.939a.313.313,0,0,1,0,.475.394.394,0,0,1-.256.11A.331.331,0,0,1,169.192,110.422Zm-14.85,0a.313.313,0,0,1,0-.475l1.934-1.939a.352.352,0,0,1,.511,0,.313.313,0,0,1,0,.475l-1.934,1.939a.394.394,0,0,1-.256.11A.329.329,0,0,1,154.342,110.422Zm61.954-6.585a6.148,6.148,0,1,1,12.3-.037,6.059,6.059,0,0,1-6.13,6.146A6.175,6.175,0,0,1,216.3,103.837Zm3.393-.037a2.768,2.768,0,0,0,2.773,2.744,2.762,2.762,0,1,0,.037-5.524h-.068A2.739,2.739,0,0,0,219.689,103.8Zm-39.478,0a6.13,6.13,0,1,1,6.094,6.146A6.128,6.128,0,0,1,180.211,103.8Zm3.357,0a2.773,2.773,0,1,0,2.809-2.78h-.071A2.7,2.7,0,0,0,183.568,103.8Zm19.959-.073a6.159,6.159,0,0,1,6.2-6.109,6.146,6.146,0,1,1-6.2,6.109Zm3.393.073a2.773,2.773,0,1,0,2.736-2.817A2.776,2.776,0,0,0,206.919,103.8Zm-51.993-1.1A7.078,7.078,0,1,1,162,109.8,7.094,7.094,0,0,1,154.926,102.7Zm6.422-3.183-1.679,3.4a.274.274,0,0,0,0,.329.45.45,0,0,0,.292.146h.547l-.876,2.963a.368.368,0,0,0,.183.4.219.219,0,0,0,.146.037.462.462,0,0,0,.255-.146l3.394-4.39a.433.433,0,0,0,.036-.365.289.289,0,0,0-.292-.183h-.511l.8-1.9a.357.357,0,0,0-.036-.33.45.45,0,0,0-.292-.146h-1.679A.371.371,0,0,0,161.348,99.521ZM72.832,109c-13.536-5.012-2.773-22.5,3.576-29.374a.537.537,0,0,1,.547-.549.352.352,0,0,1,.547.256.471.471,0,0,1,.146.366c.256,5.158,3.065,7.792,6.057,11.705,2.116,2.744,4.013,6.548,3.357,10.1a10.006,10.006,0,0,1-10.154,8.239A11.685,11.685,0,0,1,72.832,109Zm-3.065-9.584a6.992,6.992,0,0,0,.256,2.268,7.341,7.341,0,0,0,2.846,4.1,3.594,3.594,0,0,0,2.809.732c.912-.329,3.065-1.5,2.517-2.853-.912-2.195-4.2-3.292-5.8-5.048a7.354,7.354,0,0,1-1.459-3.036A27.525,27.525,0,0,0,69.767,99.411Zm219.975,9.731-1.131-1.134a.133.133,0,0,1-.037-.109.079.079,0,0,1,.073-.073l2.59-1.5c.11-.037.256.073.183.183l-1.5,2.6a.079.079,0,0,1-.073.073A.134.134,0,0,1,289.742,109.142Zm-11.274-.037-1.313-2.378c-.037-.11.11-.219.183-.183l2.408,1.317a.128.128,0,0,1,.037.073.134.134,0,0,1-.037.109l-1.094,1.1a.134.134,0,0,1-.11.037Zm-233.621-.476H15.731a1.165,1.165,0,0,1-1.277-1.024L17.81,90.229a1.192,1.192,0,0,1,1.278-1.024H43.424A1.192,1.192,0,0,1,44.7,90.229l4.232,17.376a1.192,1.192,0,0,1-1.277,1.024Zm-28.861-1.207H47.4L43.169,90.485H19.343Zm290.284-.732v-3.219a.547.547,0,1,1,1.095,0v3.219a.547.547,0,1,1-1.095,0ZM104.648,95.131C117.309,86.059,120.519,71.5,120.519,71.5s-2.882,12.108-17.148,22.607a17.89,17.89,0,0,0-3.9,4.572c-.4-.073-12.916-21.033,16.747-31.788a26.394,26.394,0,0,0,7.7-5.048,30.962,30.962,0,0,1,4.561,20.778c-.766,4.975-6.568,19.314-24.3,17.193a15.92,15.92,0,0,0-2.189,6.145c-.876.22-2.846,1.025-2.846,1.025C99.941,102.045,101.838,97.143,104.648,95.131Zm179.075,11.523c-.036,0-.073-.037,0-.037a.133.133,0,0,1-.036-.109l.766-2.926c0-.11.182-.11.218,0l.766,2.926a.134.134,0,0,1-.036.109.133.133,0,0,1-.109.037Zm-130.11-.365a.323.323,0,0,1,.182-.439l.949-.4a.321.321,0,0,1,.438.183.339.339,0,0,1-.145.439l-.949.4a.275.275,0,0,1-.146.037A.318.318,0,0,1,153.613,106.288Zm16.419.037-.949-.366a.336.336,0,0,1,.256-.622l.948.366a.334.334,0,0,1,.183.439.351.351,0,0,1-.329.22C170.1,106.361,170.068,106.325,170.031,106.325Zm-133.138-.146v-3.951H44.7l1.094,3.951Zm-8.72,0v-3.951h7.151v3.951Zm-10.8,0,1.131-3.951h8.027v3.951ZM207.9,103.764a1.785,1.785,0,0,1,1.788-1.756,1.74,1.74,0,0,1,1.752,1.792,1.762,1.762,0,0,1-1.788,1.756A1.74,1.74,0,0,1,207.9,103.764Zm-23.351.037a1.74,1.74,0,0,1,1.752-1.792,1.762,1.762,0,0,1,1.787,1.756,1.74,1.74,0,0,1-1.751,1.793A1.718,1.718,0,0,1,184.553,103.8Zm36.122-.037a1.785,1.785,0,0,1,1.787-1.756,1.756,1.756,0,0,1,0,3.512A1.762,1.762,0,0,1,220.675,103.764Zm80.78.8a.555.555,0,0,1-.292-.7l.584-1.5a.554.554,0,0,1,.693-.293.542.542,0,0,1,.291.7l-.584,1.5a.55.55,0,0,1-.511.33A.4.4,0,0,1,301.455,104.569Zm10.289-.439-.62-1.463a.532.532,0,1,1,.985-.4l.62,1.463a.555.555,0,0,1-.292.7.462.462,0,0,1-.219.037A.5.5,0,0,1,311.744,104.13Zm-77.059-3.073L237.2,58.222c-8.064,3.731-27.547,12.4-28.642,10.462-1.131-1.939,16.2-14.559,23.387-19.68a6.843,6.843,0,0,0-.11,1.244,8.465,8.465,0,1,0,16.929,0A6.9,6.9,0,0,0,248.7,49c7.189,5.121,24.519,17.741,23.352,19.68-1.131,1.939-20.578-6.767-28.642-10.462l2.517,42.836s-1.423,2.817-5.619,2.817S234.685,101.057,234.685,101.057Zm-36.778,2.817h-3.064c-.912,0-1.277-.365-1.277-1.28V99.448a1.137,1.137,0,0,1,.766-1.244c.365-.146.766-.512,1.022-.4a8.2,8.2,0,0,0,3.71.365,13.5,13.5,0,0,1,2.238,0c.657.073,1.021.366,1.021,1.061.037,1.17.037,2.378,0,3.548q0,1.1-1.2,1.1Zm120.3-.549-3.065-3.073a.543.543,0,1,1,.766-.768l3.029,3.073a.532.532,0,0,1,0,.768.468.468,0,0,1-.365.146A.52.52,0,0,1,318.2,103.325Zm-23.5,0a.531.531,0,0,1,0-.768l3.064-3.073a.486.486,0,0,1,.73,0,.531.531,0,0,1,0,.768l-3.065,3.073a.529.529,0,0,1-.729,0Zm-142.479-.256a.329.329,0,0,1,0-.658h2.043a.329.329,0,0,1,0,.658Zm17.55-.037a.329.329,0,0,1,0-.658h2.043a.354.354,0,0,1,.329.33.327.327,0,0,1-.329.329ZM295.617,91.144a11.2,11.2,0,1,1,11.2,11.23A11.242,11.242,0,0,1,295.617,91.144ZM305.8,86.1l-2.663,5.34a.517.517,0,0,0,.037.513.506.506,0,0,0,.438.256h.876L303.1,96.85a.524.524,0,0,0,.255.622.676.676,0,0,0,.256.073.52.52,0,0,0,.438-.22l5.327-6.95a.5.5,0,0,0,.073-.549.489.489,0,0,0-.474-.292v.037h-.839l1.277-3a.51.51,0,0,0-.036-.512.442.442,0,0,0-.438-.256h-2.664A.526.526,0,0,0,305.8,86.1Zm-33.421,14.851a.82.82,0,0,1-.329-.987l8.793-20.924h-8.064a.782.782,0,0,1-.693-1.134l11.749-23.595a.774.774,0,0,1,.693-.439h12.551a.782.782,0,0,1,.693.4.9.9,0,0,1-.037.8L288.575,69.6h9.3a.751.751,0,0,1,.693.439.715.715,0,0,1-.11.841l-25.1,29.887a.761.761,0,0,1-.584.292A.731.731,0,0,1,272.375,100.947Zm-235.482-.073v-3.95H43.57l1.131,3.95Zm-8.72,0v-3.95h7.151v3.95Zm-9.888,0,1.094-3.95h7.151v3.95Zm136.422-.768-.949-.365a.336.336,0,0,1,.256-.622l.949.365a.324.324,0,0,1,.182.439.349.349,0,0,1-.328.219C154.78,100.142,154.743,100.106,154.707,100.106Zm14.157-.292a.317.317,0,0,1,.219-.439l.949-.4a.336.336,0,0,1,.255.622l-.948.4a.276.276,0,0,1-.146.037A.319.319,0,0,1,168.863,99.813Zm21.856-1.427a6.046,6.046,0,0,0-8.538-.22,2.141,2.141,0,0,1-1.641.658q-2.518-.055-5.035,0a.829.829,0,0,1-.949-.877,3.321,3.321,0,0,1,.11-1.208c.146-.292.511-.475.766-.695.037.037.11.073.146.11,0-.22.037-.439.037-.658,0-1.865.037-3.768,0-5.67a4.017,4.017,0,0,1,1.934-3.548,1.436,1.436,0,0,0,.511-.768c.329-1.39.511-2.817.839-4.207.584-2.451,1.752-4.317,4.378-4.9a2.984,2.984,0,0,1,.8-.073h7.771c.985,0,1.35.365,1.35,1.353,0,5.121.036,10.206,0,15.327,0,.658.183.841.839.841,3.029-.037,6.056,0,9.085,0,.475,0,.62-.146.62-.622s-.145-.622-.62-.658a9.234,9.234,0,0,1-1.97-18.107,24.567,24.567,0,0,1,4.05-.365c.62-.037,1.241,0,1.861,0,.255-1.463.328-1.536,1.824-1.536h5.327c1.386,0,1.5.11,1.678,1.573h3.43a9.1,9.1,0,0,1,6.275,2.451,9.281,9.281,0,0,1-5.619,16.1c-.693.037-.73.11-.548,1.244h7.808c1.131,0,1.423.33,1.314,1.39a16.53,16.53,0,0,0,0,1.9c.037.549-.256.768-.73.8a1.976,1.976,0,0,1-.8,0,.789.789,0,0,1-.511-.512,10.029,10.029,0,0,1-.037-1.5H193.164V97.4c.037.549-.037,1.061-.62,1.317a1.587,1.587,0,0,1-.635.125A1.712,1.712,0,0,1,190.72,98.387Zm15.1-5.633v1.134c.219,0,.4.037.548.037h10.179c.438,0,.693-.073.693-.585,0-.549-.218-.622-.693-.622H206.518C206.3,92.717,206.08,92.754,205.824,92.754ZM181.671,80.06a10.166,10.166,0,0,0-.8,2.3c-.292,1.208-.474,2.451-.73,3.731h10.873c0-2.524,0-5.012.037-7.535-2.3,0-4.524.037-6.75,0l-.119,0A2.662,2.662,0,0,0,181.671,80.06ZM203.49,77.9a5.474,5.474,0,0,0-5.327,5.267c0,.4.073.8.547.732a.964.964,0,0,0,.584-.658,4.347,4.347,0,0,1,4.634-4.207h15.142c.4,0,.8-.073.8-.585s-.4-.585-.839-.585C213.852,77.9,208.67,77.866,203.49,77.9Zm-47.214,19.57-1.9-1.939a.336.336,0,1,1,.474-.475L156.787,97a.313.313,0,0,1,0,.475.394.394,0,0,1-.255.11A.331.331,0,0,1,156.276,97.472Zm11.019-.037a.313.313,0,0,1,0-.475l1.934-1.939a.336.336,0,1,1,.474.475l-1.934,1.939a.394.394,0,0,1-.256.11A.258.258,0,0,1,167.3,97.436ZM49.444,97.179,47,95.753l-.073-.365,1.021-1.025a.134.134,0,0,1,.11-.037c.037,0,.037.037.073.073l1.5,2.6a.146.146,0,0,1-.139.189A.149.149,0,0,1,49.444,97.179Zm244.129-.4a.555.555,0,0,1,.292-.7l1.459-.622a.553.553,0,0,1,.693.292.524.524,0,0,1-.292.695l-1.46.622a.462.462,0,0,1-.219.037A.5.5,0,0,1,293.574,96.777Zm25.905.073-1.5-.585a.533.533,0,0,1,.4-.988l1.5.585a.524.524,0,0,1,.292.7.55.55,0,0,1-.511.33A.4.4,0,0,1,319.479,96.85ZM158.684,95.68l-.365-.951a.336.336,0,1,1,.62-.256l.4.951a.322.322,0,0,1-.183.439.275.275,0,0,1-.146.037A.318.318,0,0,1,158.684,95.68Zm6.129.146a.322.322,0,0,1-.183-.439l.365-.951a.336.336,0,1,1,.62.256l-.365.951a.349.349,0,0,1-.328.219C164.887,95.862,164.85,95.826,164.814,95.826ZM36.857,95.643V91.692h5.582l1.094,3.951Zm-8.72,0V91.692h7.151v3.951Zm-8.793,0,1.131-3.951h6.02v3.951Zm142.333-.7V92.9a.328.328,0,1,1,.657,0v2.048a.328.328,0,1,1-.657,0ZM45.467,89.388a1.192,1.192,0,0,0-1.278-1.024h-5.8a5.233,5.233,0,0,1,4.926-3.438,5.28,5.28,0,0,1,3.357,9.364Zm273.61,2.341a.549.549,0,0,1,0-1.1h3.211a.518.518,0,0,1,.547.549.562.562,0,0,1-.547.549Zm-27.729-.037a.549.549,0,0,1,0-1.1h3.211a.549.549,0,0,1,0,1.1ZM50.21,91.18a.135.135,0,0,1-.037-.11V89.5a.129.129,0,0,1,.146-.146l2.919.768c.11.037.11.22,0,.33l-2.919.768A.134.134,0,0,1,50.21,91.18ZM295.252,87.01l-1.5-.585a.533.533,0,0,1,.4-.987l1.5.585a.532.532,0,0,1-.219,1.024A.394.394,0,0,1,295.252,87.01Zm22.4-.439a.488.488,0,0,1,.292-.695l1.459-.622a.533.533,0,0,1,.4.987l-1.459.622a.458.458,0,0,1-.218.037A.5.5,0,0,1,317.655,86.571Zm-173.93-.256c0-.8-.11-1.61-.037-2.415a1.439,1.439,0,0,0-.949-1.572,6.358,6.358,0,0,1-3.685-5.78c-.037-5.816-.073-11.633,0-17.412a6.774,6.774,0,0,1,4.707-6.365c.328-.11.693-.22,1.021-.33V45.126c-.584-.513-1.277-.878-1.24-1.208.037-.512.547-.951.839-1.463h15.762c.291.476.876.988.839,1.427,0,.366-.73.732-1.278,1.208v7.352c.365.11.73.22,1.058.33,2.736,1.1,4.6,3,4.633,6.035.11,6,.073,11.962.037,17.961a4.947,4.947,0,0,1-2.262,4.536c-2.226,1.17-2.591,2.853-2.372,5.012Zm2.335-2.6a7.005,7.005,0,0,0,1.715.622q4.488.11,8.976,0a5.723,5.723,0,0,0,1.751-.658,1.3,1.3,0,0,0-.146-.33c-4.086-.037-8.136-.037-12.186-.037C146.133,83.462,146.1,83.571,146.06,83.718Zm3.211-32.63h9.048V46.04h-9.048ZM48.568,86.1l-1.131-1.134a.133.133,0,0,1-.037-.109.079.079,0,0,1,.073-.073l2.59-1.5c.11-.037.256.073.183.183l-1.5,2.6a.079.079,0,0,1-.073.073A.134.134,0,0,1,48.568,86.1Zm-11.274-.037-1.313-2.378c-.037-.11.11-.219.183-.182l2.408,1.317a.128.128,0,0,1,.037.073.134.134,0,0,1-.037.109l-1.094,1.1a.134.134,0,0,1-.11.037Zm5.254-2.451c-.037,0-.073-.037,0-.037a.133.133,0,0,1-.037-.109l.766-2.926c0-.11.183-.11.218,0l.766,2.926a.129.129,0,0,1-.145.146ZM315.1,82.84a.531.531,0,0,1,0-.768L318.166,79a.542.542,0,0,1,.766.768l-3.065,3.073a.468.468,0,0,1-.365.146A.608.608,0,0,1,315.1,82.84Zm-17.331,0-3.1-3.073a.542.542,0,1,1,.766-.768l3.065,3.072a.531.531,0,0,1,0,.768.467.467,0,0,1-.365.146A.523.523,0,0,1,297.769,82.84ZM56.34,82.181V78.962a.547.547,0,1,1,1.095,0v3.219a.547.547,0,1,1-1.095,0Zm245.224-2.158-.62-1.463a.532.532,0,1,1,.985-.4l.621,1.463a.556.556,0,0,1-.292.7.462.462,0,0,1-.219.037A.5.5,0,0,1,301.564,80.023Zm9.668.22a.512.512,0,0,1-.291-.7l.584-1.5a.532.532,0,1,1,.985.4l-.584,1.5a.549.549,0,0,1-.511.33A.4.4,0,0,1,311.233,80.243ZM51.524,80.06a.555.555,0,0,1-.292-.7l.584-1.5a.554.554,0,0,1,.693-.293.542.542,0,0,1,.291.7l-.584,1.5a.55.55,0,0,1-.511.33A.4.4,0,0,1,51.524,80.06Zm10.289-.439-.62-1.463a.532.532,0,1,1,.985-.4l.62,1.463a.556.556,0,0,1-.291.7.462.462,0,0,1-.219.037A.5.5,0,0,1,61.813,79.621Zm244.457-.768V75.633a.547.547,0,1,1,1.095,0v3.219a.562.562,0,0,1-.548.549A.589.589,0,0,1,306.271,78.853Zm-238-.037-3.065-3.073a.543.543,0,0,1,.766-.768L69,78.048a.532.532,0,0,1,0,.768.47.47,0,0,1-.365.146A.523.523,0,0,1,68.271,78.816Zm-23.5,0a.531.531,0,0,1,0-.768l3.064-3.073a.486.486,0,0,1,.73,0,.531.531,0,0,1,0,.768L45.5,78.816a.47.47,0,0,1-.365.146A.522.522,0,0,1,44.774,78.816Zm.912-12.181a11.2,11.2,0,1,1,11.2,11.23A11.242,11.242,0,0,1,45.686,66.635Zm10.18-5.048L53.2,66.927a.517.517,0,0,0,.037.513.506.506,0,0,0,.438.256h.876l-1.386,4.646a.524.524,0,0,0,.255.622.676.676,0,0,0,.256.073.518.518,0,0,0,.438-.22l5.327-6.95a.5.5,0,0,0,.073-.549.489.489,0,0,0-.474-.292v.037H58.2l1.277-3a.509.509,0,0,0-.037-.512A.442.442,0,0,0,59,61.294H56.34A.526.526,0,0,0,55.866,61.587ZM43.643,72.268a.555.555,0,0,1,.292-.695l1.459-.622a.553.553,0,0,1,.693.292.524.524,0,0,1-.292.695l-1.459.622a.462.462,0,0,1-.219.037A.5.5,0,0,1,43.643,72.268Zm25.905.073-1.5-.585a.533.533,0,0,1,.4-.988l1.5.585a.524.524,0,0,1,.292.7.551.551,0,0,1-.511.33A.4.4,0,0,1,69.548,72.341Zm-.4-5.121a.549.549,0,0,1,0-1.1h3.21a.518.518,0,0,1,.547.549.562.562,0,0,1-.547.549Zm-27.73-.037a.549.549,0,0,1,0-1.1h3.211a.549.549,0,0,1,0,1.1Zm148.5-5.341V53.1h-2.627V66.232H169.812V38.211a3.508,3.508,0,0,1,3.5-3.512h10.471a3.508,3.508,0,0,1,3.5,3.512V50.466h1.751a3.508,3.508,0,0,1,3.5,3.512v7.865a1.751,1.751,0,1,0,3.5,0V49.259a4.693,4.693,0,0,1-1.751.365,4.391,4.391,0,0,1-1.569-8.487l-3.685-3.695,1.861-1.865,6.495,6.548a4.225,4.225,0,0,1,1.278,3.072V61.842a4.378,4.378,0,1,1-8.757,0ZM192.58,45.2a1.778,1.778,0,0,0,1.752,1.756,1.754,1.754,0,0,0,1.751-1.756,1.751,1.751,0,1,0-3.5,0Zm-19.228,1.756h10.471V38.211H173.351ZM45.321,62.5l-1.5-.585a.533.533,0,0,1,.4-.987l1.5.585a.532.532,0,0,1-.218,1.024A.4.4,0,0,1,45.321,62.5Zm22.4-.439a.488.488,0,0,1,.292-.7l1.459-.622a.533.533,0,0,1,.4.987l-1.459.622a.462.462,0,0,1-.219.037A.5.5,0,0,1,67.724,62.062ZM65.17,58.331a.531.531,0,0,1,0-.768l3.065-3.072a.542.542,0,0,1,.766.768l-3.065,3.073a.468.468,0,0,1-.365.146A.607.607,0,0,1,65.17,58.331Zm-17.331,0-3.1-3.073a.542.542,0,0,1,.766-.768l3.064,3.072a.531.531,0,0,1,0,.768.467.467,0,0,1-.365.146A.522.522,0,0,1,47.839,58.331Zm61.553-6.073a6.148,6.148,0,1,1,12.3-.037,6.059,6.059,0,0,1-6.13,6.146A6.175,6.175,0,0,1,109.391,52.258Zm3.393-.037a2.768,2.768,0,0,0,2.773,2.744,2.762,2.762,0,1,0,.037-5.524h-.068A2.738,2.738,0,0,0,112.785,52.221Zm-39.478,0A6.13,6.13,0,1,1,79.4,58.367,6.128,6.128,0,0,1,73.306,52.221Zm3.357,0a2.773,2.773,0,1,0,2.809-2.78H79.4A2.694,2.694,0,0,0,76.663,52.221Zm19.958-.073a6.159,6.159,0,0,1,6.2-6.109,6.146,6.146,0,1,1-6.2,6.109Zm3.393.073a2.773,2.773,0,1,0,2.736-2.817A2.776,2.776,0,0,0,100.014,52.221Zm134.707-1.975a5.619,5.619,0,1,1,5.619,5.633A5.626,5.626,0,0,1,234.722,50.247ZM51.633,55.514l-.62-1.463a.532.532,0,1,1,.985-.4l.621,1.463a.556.556,0,0,1-.292.7.462.462,0,0,1-.219.037A.5.5,0,0,1,51.633,55.514Zm9.669.22a.512.512,0,0,1-.291-.7l.584-1.5a.532.532,0,1,1,.985.4L62,55.441a.549.549,0,0,1-.511.33A.4.4,0,0,1,61.3,55.734Zm-4.962-1.39V51.124a.547.547,0,1,1,1.095,0v3.219a.562.562,0,0,1-.547.549A.59.59,0,0,1,56.34,54.344ZM260.262,47.5a24.666,24.666,0,0,0,8.975-13.352s-1.641,6.84-9.705,12.766a9.433,9.433,0,0,0-2.226,2.56c-.256-.036-7.3-11.888,9.45-17.96a14.132,14.132,0,0,0,4.342-2.854,17.681,17.681,0,0,1,2.627,11.743,11.87,11.87,0,0,1-13.719,9.731,9.023,9.023,0,0,0-1.24,3.475c-.474.146-1.606.585-1.606.585C257.6,51.417,258.693,48.637,260.262,47.5ZM101,52.185a1.784,1.784,0,0,1,1.787-1.756,1.74,1.74,0,0,1,1.752,1.792,1.762,1.762,0,0,1-1.788,1.756A1.739,1.739,0,0,1,101,52.185Zm-23.352.036A1.74,1.74,0,0,1,79.4,50.429a1.762,1.762,0,0,1,1.787,1.756,1.74,1.74,0,0,1-1.751,1.792A1.718,1.718,0,0,1,77.648,52.221Zm36.122-.036a1.786,1.786,0,0,1,1.787-1.756,1.756,1.756,0,0,1,0,3.512A1.762,1.762,0,0,1,113.77,52.185ZM91,52.295H87.938c-.912,0-1.277-.365-1.277-1.28V47.869a1.137,1.137,0,0,1,.766-1.244c.365-.146.766-.512,1.021-.4a8.2,8.2,0,0,0,3.71.365,13.5,13.5,0,0,1,2.237,0c.657.073,1.021.366,1.021,1.061.037,1.17.037,2.378,0,3.548q0,1.1-1.2,1.1Zm37.617-1.829a.82.82,0,0,1-.329-.987l8.793-20.924h-8.064a.782.782,0,0,1-.693-1.134L140.076,3.826a.774.774,0,0,1,.693-.439H153.32a.782.782,0,0,1,.693.4.9.9,0,0,1-.037.8l-9.158,14.523h9.3a.751.751,0,0,1,.693.439.715.715,0,0,1-.11.841L129.6,50.284a.761.761,0,0,1-.584.292A.732.732,0,0,1,128.62,50.466Zm-44.8-3.658a6.046,6.046,0,0,0-8.538-.22,2.141,2.141,0,0,1-1.641.658q-2.518-.055-5.035,0a.829.829,0,0,1-.949-.877,3.321,3.321,0,0,1,.11-1.208c.146-.292.511-.475.766-.7.037.037.11.073.146.11,0-.22.037-.439.037-.658,0-1.865.037-3.768,0-5.67A4.017,4.017,0,0,1,70.643,34.7a1.436,1.436,0,0,0,.511-.768c.329-1.39.511-2.817.839-4.207.584-2.451,1.752-4.317,4.378-4.9a2.984,2.984,0,0,1,.8-.073h7.771c.985,0,1.35.365,1.35,1.353,0,5.121.037,10.206,0,15.327,0,.658.183.841.839.841,3.029-.037,6.056,0,9.085,0,.475,0,.62-.146.62-.622s-.145-.622-.62-.658a9.234,9.234,0,0,1-1.97-18.107,24.567,24.567,0,0,1,4.05-.365c.62-.037,1.241,0,1.861,0,.255-1.463.328-1.536,1.824-1.536h5.327c1.386,0,1.5.11,1.678,1.573h3.43a9.1,9.1,0,0,1,6.275,2.451,9.281,9.281,0,0,1-5.619,16.1c-.693.037-.73.11-.548,1.244h7.809c1.131,0,1.423.33,1.313,1.39a16.53,16.53,0,0,0,0,1.9c.036.549-.256.768-.73.8a2,2,0,0,1-.8,0,.792.792,0,0,1-.511-.513,10.03,10.03,0,0,1-.037-1.5H86.259v1.39c.037.549-.037,1.061-.62,1.317a1.587,1.587,0,0,1-.635.126A1.71,1.71,0,0,1,83.815,46.808Zm15.1-5.633v1.134c.219,0,.4.037.548.037h10.179c.438,0,.693-.073.693-.585,0-.549-.218-.622-.693-.622H99.613C99.394,41.138,99.175,41.175,98.919,41.175ZM74.766,28.481a10.166,10.166,0,0,0-.8,2.3c-.291,1.208-.474,2.451-.73,3.731H84.106c0-2.524,0-5.012.037-7.535-2.3,0-4.525.037-6.75,0l-.12,0A2.663,2.663,0,0,0,74.766,28.481Zm21.819-2.158a5.475,5.475,0,0,0-5.327,5.267c0,.4.073.8.547.732a.967.967,0,0,0,.584-.658,4.346,4.346,0,0,1,4.633-4.207h15.142c.4,0,.8-.073.8-.585s-.4-.585-.839-.585C106.947,26.323,101.765,26.286,96.585,26.323ZM240.341,41.8a8.4,8.4,0,0,0-5.29,1.865c.839-8.853,3.064-30.106,5.29-30.106s4.451,21.253,5.291,30.106A8.4,8.4,0,0,0,240.341,41.8Zm-38.347-1.5v-1.9h3.32V32.761h2.809v5.633h3.394v1.9Zm17.988-8.487H190.865a1.165,1.165,0,0,1-1.277-1.024l3.357-17.376a1.192,1.192,0,0,1,1.278-1.024h24.336a1.192,1.192,0,0,1,1.278,1.024l4.232,17.376a1.192,1.192,0,0,1-1.277,1.024ZM191.121,30.6h31.415L218.3,13.666H194.477Zm-26.708-.622c-13.536-5.012-2.773-22.5,3.576-29.374a.538.538,0,0,1,.547-.549.352.352,0,0,1,.547.256.47.47,0,0,1,.146.365c.256,5.158,3.065,7.792,6.057,11.706,2.116,2.743,4.013,6.548,3.357,10.1a10.006,10.006,0,0,1-10.154,8.239A11.685,11.685,0,0,1,164.413,29.981ZM161.348,20.4a6.992,6.992,0,0,0,.256,2.268,7.344,7.344,0,0,0,2.846,4.1,3.6,3.6,0,0,0,2.809.732c.912-.329,3.065-1.5,2.517-2.853-.912-2.195-4.2-3.292-5.8-5.048a7.353,7.353,0,0,1-1.459-3.036A27.559,27.559,0,0,0,161.348,20.4Zm50.68,8.963V25.408h7.808l1.094,3.951Zm-8.72,0V25.408h7.151v3.951Zm-10.8,0,1.131-3.951h8.027v3.951Zm19.52-5.3V20.1H218.7l1.131,3.95Zm-8.72,0V20.1h7.151v3.95Zm-9.888,0,1.094-3.95h7.151v3.95Zm31.159-3.695-2.444-1.427-.073-.365,1.021-1.025a.134.134,0,0,1,.11-.037c.036,0,.036.037.073.073l1.5,2.6a.147.147,0,0,1-.139.19A.144.144,0,0,1,224.578,20.36Zm-12.587-1.536V14.873h5.582l1.094,3.951Zm-8.72,0V14.873h7.151v3.951Zm-8.793,0,1.131-3.951h6.02v3.951ZM220.6,12.569a1.192,1.192,0,0,0-1.278-1.024h-5.8a5.233,5.233,0,0,1,4.926-3.438,5.28,5.28,0,0,1,3.357,9.364Zm4.743,1.793a.135.135,0,0,1-.037-.11V12.679a.129.129,0,0,1,.146-.146l2.919.768c.11.037.11.22,0,.33l-2.919.768A.134.134,0,0,1,225.345,14.361ZM223.7,9.277l-1.131-1.134a.133.133,0,0,1-.036-.109.079.079,0,0,1,.073-.073l2.59-1.5c.11-.037.256.073.183.183l-1.5,2.6a.079.079,0,0,1-.073.073A.134.134,0,0,1,223.7,9.277ZM212.429,9.24l-1.313-2.378c-.037-.11.11-.219.183-.182L213.705,8a.128.128,0,0,1,.037.073.133.133,0,0,1-.037.109l-1.094,1.1a.134.134,0,0,1-.11.037Zm5.254-2.451c-.037,0-.073-.037,0-.037a.133.133,0,0,1-.037-.109l.766-2.926c0-.11.182-.11.218,0l.766,2.926a.129.129,0,0,1-.145.146Z" transform="translate(-2947.236 -1057.422)" fill="#fff"/>
  </g>
</svg>
