<svg xmlns="http://www.w3.org/2000/svg" width="18.123" height="17.5" viewBox="0 0 18.123 17.5">
  <g id="logistics-delivery-truck-and-clock" transform="translate(0 -10.514)">
    <path id="Path_327" data-name="Path 327" d="M11.6,17.9a.985.985,0,0,0-.2-.484l.726-4.507a.323.323,0,0,0-.246-.366l-.008,0a.323.323,0,0,0-.381.221l-1.323,4.369a.994.994,0,0,0,.444,1.884.983.983,0,0,0,.292-.049L13.676,20.4a.333.333,0,0,0,.433-.114l0-.006a.333.333,0,0,0-.072-.442Zm-1.477.119a.492.492,0,1,1,.492.492A.493.493,0,0,1,10.128,18.016Zm7.995,0a7.515,7.515,0,0,1-5.206,7.142V24.09a6.5,6.5,0,1,0-8.7-5.018H3.193a7.5,7.5,0,1,1,14.929-1.055Zm-6.195,5.346L9.619,21.078a.779.779,0,0,0-.55-.227H7.9v-.436a.589.589,0,0,0-.59-.587H.588A.586.586,0,0,0,0,20.415v3.933H12.16v-.429A.782.782,0,0,0,11.928,23.362Zm-1.006.076H8.686a.09.09,0,0,1-.091-.091V21.62a.09.09,0,0,1,.091-.091h.426a.106.106,0,0,1,.066.025l1.808,1.727A.09.09,0,0,1,10.922,23.438Zm1.238,1.235v1.3a.588.588,0,0,1-.588.588h-.629a1.613,1.613,0,0,0-3.191,0H4.565a1.612,1.612,0,0,0-3.189,0H.588A.588.588,0,0,1,0,25.974v-1.3Zm-2.811.9a1.219,1.219,0,1,0,1.218,1.218A1.219,1.219,0,0,0,9.349,25.576Zm0,1.828a.61.61,0,1,1,.608-.61A.609.609,0,0,1,9.349,27.4ZM2.97,25.576a1.219,1.219,0,1,0,1.218,1.218A1.219,1.219,0,0,0,2.97,25.576Zm0,1.828a.61.61,0,1,1,.61-.61A.609.609,0,0,1,2.97,27.4Z" fill="#8cc63f"/>
  </g>
</svg>
