<svg xmlns="http://www.w3.org/2000/svg" width="136.446" height="183.624" viewBox="0 0 136.446 183.624"><defs><style>.a,.f{fill:#8cc63f;}.b,.e,.p{fill:#fff;}.b{opacity:0.8;}.c{fill:#407bff;}.d{fill:#009245;}.f,.g{opacity:0.3;}.h{fill:#263238;}.i{fill:#803e3c;}.j{fill:#7f3e3b;}.k{fill:#630f0f;}.l{opacity:0.2;}.m,.p{opacity:0.4;}.n,.o{fill:#006f35;}.o{opacity:0.5;}</style></defs><g transform="translate(-113.387 -104.642)"><g transform="translate(113.387 114.547)"><g transform="translate(0 4.257)"><path class="a" d="M200.007,268.2h-75.16a4.788,4.788,0,0,1-4.728-4.5l-6.727-130.526a4.228,4.228,0,0,1,4.265-4.5h75.159a4.789,4.789,0,0,1,4.728,4.5L204.272,263.7A4.228,4.228,0,0,1,200.007,268.2Z" transform="translate(-113.387 -128.681)"/><path class="b" d="M200.007,268.2h-75.16a4.788,4.788,0,0,1-4.728-4.5l-6.727-130.526a4.228,4.228,0,0,1,4.265-4.5h75.159a4.789,4.789,0,0,1,4.728,4.5L204.272,263.7A4.228,4.228,0,0,1,200.007,268.2Z" transform="translate(-113.387 -128.681)"/></g><rect class="c" width="8.314" height="0.589" transform="translate(63.699)"/><rect class="c" width="3.044" height="0.589" transform="translate(57.775)"/><path class="d" d="M208.126,258.39H136.244a4.579,4.579,0,0,1-4.522-4.3l-6.433-124.835a4.044,4.044,0,0,1,4.079-4.3H201.25a4.579,4.579,0,0,1,4.522,4.3L212.2,254.09A4.044,4.044,0,0,1,208.126,258.39Z" transform="translate(-118.274 -122.893)"/><path class="e" d="M210.129,257.521H138.246a1.721,1.721,0,0,1-1.654-1.575L130.159,131.11a1.2,1.2,0,0,1,.319-.917,1.187,1.187,0,0,1,.891-.364h71.883a1.722,1.722,0,0,1,1.654,1.576l6.434,124.835a1.2,1.2,0,0,1-.319.917A1.188,1.188,0,0,1,210.129,257.521Zm-78.76-127.544a1.027,1.027,0,0,0-1.063,1.125l6.434,124.836a1.568,1.568,0,0,0,1.506,1.436h71.882a1.027,1.027,0,0,0,1.063-1.125l-6.434-124.835a1.569,1.569,0,0,0-1.506-1.436Z" transform="translate(-120.277 -124.896)"/><ellipse class="f" cx="21.207" cy="22.329" rx="21.207" ry="22.329" transform="matrix(0.698, -0.716, 0.716, 0.698, 17.932, 34.457)"/><path class="e" d="M201.4,168.336a16.9,16.9,0,0,1-1.7,8.386,16.525,16.525,0,0,1-15,9.22,18.7,18.7,0,0,1-15.954-9.22,18.179,18.179,0,0,1-2.56-8.386,16.554,16.554,0,0,1,16.7-17.606A18.746,18.746,0,0,1,201.4,168.336Z" transform="translate(-135.071 -133.483)"/><path class="a" d="M201.507,191.578a16.525,16.525,0,0,1-15,9.22,18.7,18.7,0,0,1-15.954-9.22,26.619,26.619,0,0,1,15.237-4.689A28.945,28.945,0,0,1,201.507,191.578Z" transform="translate(-136.873 -148.339)"/><ellipse class="a" cx="7.643" cy="8.047" rx="7.643" ry="8.047" transform="translate(37.317 28.687) rotate(-45.738)"/><g transform="translate(20.925 65.091)"><path class="e" d="M207.529,260.716H151.246a1.938,1.938,0,0,1-1.914-1.82l-.426-8.27a1.711,1.711,0,0,1,1.726-1.819h56.284a1.938,1.938,0,0,1,1.914,1.819l.427,8.27A1.711,1.711,0,0,1,207.529,260.716Z" transform="translate(-148.904 -238.868)"/><path class="g" d="M201.365,237.333H177.858a1.938,1.938,0,0,1-1.914-1.82l-.09-1.756a1.711,1.711,0,0,1,1.726-1.82h23.507a1.938,1.938,0,0,1,1.914,1.82l.09,1.756A1.711,1.711,0,0,1,201.365,237.333Z" transform="translate(-159.975 -231.938)"/><path class="g" d="M207.02,329.153H171.812a3.3,3.3,0,0,1-3.259-3.1l-.209-4.061a2.914,2.914,0,0,1,2.939-3.1h35.208a3.3,3.3,0,0,1,3.259,3.1l.209,4.061A2.914,2.914,0,0,1,207.02,329.153Z" transform="translate(-156.889 -267.664)"/><path class="e" d="M209.273,294.551H152.989a1.937,1.937,0,0,1-1.914-1.819l-.427-8.27a1.711,1.711,0,0,1,1.726-1.82h56.284a1.938,1.938,0,0,1,1.914,1.82l.426,8.27A1.71,1.71,0,0,1,209.273,294.551Z" transform="translate(-149.62 -252.769)"/><path class="h" d="M162.216,257.508a1.9,1.9,0,0,1-1.911,2.015,2.145,2.145,0,0,1-2.118-2.015,1.9,1.9,0,0,1,1.911-2.014A2.145,2.145,0,0,1,162.216,257.508Z" transform="translate(-152.717 -241.616)"/><path class="h" d="M172.723,257.508a1.9,1.9,0,0,1-1.911,2.015,2.145,2.145,0,0,1-2.119-2.015,1.894,1.894,0,0,1,1.911-2.014A2.145,2.145,0,0,1,172.723,257.508Z" transform="translate(-157.034 -241.616)"/><path class="h" d="M183.23,257.508a1.894,1.894,0,0,1-1.911,2.015,2.146,2.146,0,0,1-2.119-2.015,1.9,1.9,0,0,1,1.911-2.014A2.145,2.145,0,0,1,183.23,257.508Z" transform="translate(-161.35 -241.616)"/><path class="h" d="M193.738,257.508a1.894,1.894,0,0,1-1.911,2.015,2.145,2.145,0,0,1-2.118-2.015,1.894,1.894,0,0,1,1.911-2.014A2.145,2.145,0,0,1,193.738,257.508Z" transform="translate(-165.668 -241.616)"/><path class="h" d="M163.96,291.344a1.894,1.894,0,0,1-1.911,2.014,2.145,2.145,0,0,1-2.118-2.014,1.894,1.894,0,0,1,1.911-2.015A2.145,2.145,0,0,1,163.96,291.344Z" transform="translate(-153.433 -255.517)"/><path class="h" d="M174.467,291.344a1.9,1.9,0,0,1-1.911,2.014,2.145,2.145,0,0,1-2.118-2.014,1.894,1.894,0,0,1,1.911-2.015A2.146,2.146,0,0,1,174.467,291.344Z" transform="translate(-157.75 -255.517)"/><path class="h" d="M184.974,291.344a1.9,1.9,0,0,1-1.911,2.014,2.145,2.145,0,0,1-2.119-2.014,1.9,1.9,0,0,1,1.911-2.015A2.145,2.145,0,0,1,184.974,291.344Z" transform="translate(-162.067 -255.517)"/><path class="h" d="M195.481,291.344a1.9,1.9,0,0,1-1.911,2.014,2.145,2.145,0,0,1-2.119-2.014,1.9,1.9,0,0,1,1.911-2.015A2.145,2.145,0,0,1,195.481,291.344Z" transform="translate(-166.384 -255.517)"/><path class="h" d="M205.989,291.344a1.894,1.894,0,0,1-1.911,2.014,2.145,2.145,0,0,1-2.118-2.014,1.894,1.894,0,0,1,1.911-2.015A2.145,2.145,0,0,1,205.989,291.344Z" transform="translate(-170.701 -255.517)"/><path class="h" d="M216.5,291.344a1.9,1.9,0,0,1-1.911,2.014,2.145,2.145,0,0,1-2.118-2.014,1.894,1.894,0,0,1,1.911-2.015A2.146,2.146,0,0,1,216.5,291.344Z" transform="translate(-175.018 -255.517)"/></g></g><g transform="translate(185.105 104.642)"><path class="i" d="M329.424,176.624c.148.219.223.339.32.5l.263.441c.171.291.32.582.471.874.295.583.573,1.165.822,1.755a32.5,32.5,0,0,1,1.277,3.593,37.661,37.661,0,0,1,1.4,7.385l.046.465c.008.067.014.171.019.281l.013.317a7.444,7.444,0,0,1-.071,1.224,9.847,9.847,0,0,1-.584,2.195,15,15,0,0,1-2.038,3.523,25.075,25.075,0,0,1-5.484,5.192l-1.623-1.9a33.992,33.992,0,0,0,3.913-5.414,12.6,12.6,0,0,0,1.194-2.781,5.519,5.519,0,0,0,.193-1.263,3.012,3.012,0,0,0-.019-.548l-.018-.126c0-.038-.009-.081-.024-.16l-.074-.415a46.1,46.1,0,0,0-1.6-6.483c-.339-1.052-.758-2.069-1.183-3.068-.21-.5-.442-.987-.68-1.462l-.365-.692-.181-.328-.15-.257Z" transform="translate(-271.739 -134.216)"/><path class="j" d="M323.7,222.154l2.133,4.5,1.692-3.809s-1.5-3.3-3.528-3Z" transform="translate(-271.511 -151.969)"/><path class="j" d="M328.846,228.986l1.694-2.778-1.531-1.254-1.692,3.809Z" transform="translate(-272.999 -154.073)"/><path class="c" d="M312.836,407.345a6,6,0,0,0,1.3-.177.116.116,0,0,0,.037-.211c-.169-.111-1.668-1.079-2.242-.819a.4.4,0,0,0-.233.329.665.665,0,0,0,.194.621A1.415,1.415,0,0,0,312.836,407.345Zm.973-.343a2.339,2.339,0,0,1-1.755-.086.441.441,0,0,1-.12-.416.167.167,0,0,1,.1-.148C312.334,406.212,313.2,406.632,313.809,407Z" transform="translate(-266.579 -228.495)"/><path class="c" d="M314.877,406.364a.116.116,0,0,0,.059-.015.118.118,0,0,0,.058-.1c0-.06-.006-1.481-.543-1.956a.608.608,0,0,0-.495-.156.407.407,0,0,0-.394.326c-.111.557.786,1.621,1.257,1.888A.111.111,0,0,0,314.877,406.364Zm-.84-2a.378.378,0,0,1,.259.1,2.675,2.675,0,0,1,.457,1.554c-.47-.375-1.029-1.174-.961-1.514.011-.055.043-.121.193-.14A.415.415,0,0,1,314.037,404.364Z" transform="translate(-267.344 -227.688)"/><path class="c" d="M302.081,403.991a.117.117,0,0,0-.08-.2c-.244-.012-2.362-.1-2.839.416a.388.388,0,0,0-.029.035.376.376,0,0,0-.05.365.648.648,0,0,0,.429.429c.686.213,1.893-.556,2.552-1.033A.141.141,0,0,0,302.081,403.991Zm-2.743.374a4.6,4.6,0,0,1,2.3-.348c-.918.622-1.676.918-2.06.8a.42.42,0,0,1-.279-.284.145.145,0,0,1,.017-.147A.2.2,0,0,1,299.338,404.364Z" transform="translate(-261.388 -227.544)"/><path class="c" d="M302.519,403.029a.166.166,0,0,0,.015-.021.117.117,0,0,0,0-.116c-.028-.049-.686-1.208-1.466-1.419a.845.845,0,0,0-.672.087c-.28.164-.3.354-.261.483.151.546,1.653,1.027,2.3,1.022A.118.118,0,0,0,302.519,403.029Zm-2.116-1.181a.487.487,0,0,1,.112-.085.611.611,0,0,1,.493-.063,2.707,2.707,0,0,1,1.208,1.121c-.7-.08-1.764-.51-1.855-.838A.129.129,0,0,1,300.4,401.848Z" transform="translate(-261.825 -226.583)"/><path class="j" d="M308.413,147.33c-.574,2.928-1.863,9.316.186,11.27,0,0-.8,2.97-6.242,2.97-5.983,0-2.859-2.97-2.859-2.97,3.266-.779,3.181-3.2,2.612-5.478Z" transform="translate(-261.234 -122.181)"/><path class="h" d="M297.057,134.467a.24.24,0,0,0,.1-.025.235.235,0,0,0,.1-.314,2.32,2.32,0,0,0-1.7-1.3.234.234,0,0,0-.054.465h0a1.851,1.851,0,0,1,1.331,1.04A.234.234,0,0,0,297.057,134.467Z" transform="translate(-259.848 -116.224)"/><path class="k" d="M294.047,139.952a10.621,10.621,0,0,1-1.72,2.347,1.713,1.713,0,0,0,1.376.439Z" transform="translate(-258.623 -119.149)"/><path class="h" d="M295.331,138.333c-.048.395-.3.689-.556.658s-.428-.378-.379-.774.3-.689.556-.657S295.381,137.938,295.331,138.333Z" transform="translate(-259.469 -118.166)"/><path class="h" d="M294.9,137.35l-.915-.391S294.377,137.76,294.9,137.35Z" transform="translate(-259.303 -117.92)"/><path class="j" d="M307.628,394.528l-4.806,1.122L299.9,384.6l4.806-1.122Z" transform="translate(-261.735 -219.201)"/><path class="j" d="M322.1,399.755h-4.935l.387-11.428h4.935Z" transform="translate(-268.827 -221.195)"/><path class="h" d="M311.549,406.755h5.544a.39.39,0,0,1,.394.337l.632,4.386a.793.793,0,0,1-.791.878c-1.933-.034-2.864-.147-5.3-.147-1.5,0-3.691.156-5.762.156-2.026,0-2.182-2.048-1.319-2.233a9.657,9.657,0,0,0,5.781-3.073A1.289,1.289,0,0,1,311.549,406.755Z" transform="translate(-263.602 -228.766)"/><path class="h" d="M300.2,401.25l5.037-2.317a.391.391,0,0,1,.5.142l2.407,3.721a.792.792,0,0,1-.352,1.128c-1.77.778-2.664,1.064-4.879,2.083-1.363.627-4.116,2.065-6,2.931-1.84.847-2.839-.949-2.132-1.478a13.373,13.373,0,0,0,4.8-5.589A1.289,1.289,0,0,1,300.2,401.25Z" transform="translate(-259.537 -225.536)"/><g transform="translate(38.169 164.276)"><path class="l" d="M299.905,384.6l1.564,5.922,4.748-1.347-1.5-5.7Z" transform="translate(-299.905 -383.479)"/><path class="l" d="M322.62,388.332h-4.937l-.2,5.891h4.937Z" transform="translate(-307.128 -385.473)"/></g><path class="h" d="M326.112,168.311c2.05.45,4.24,7.824,4.24,7.824l-5.8,6.163s-4.809-6.926-3.829-9.473C321.746,170.172,323.689,167.78,326.112,168.311Z" transform="translate(-270.236 -130.77)"/><path class="m" d="M322.862,175.91c-1.037-.949-1.738-.666-2.215.088-.471,2.192,2.321,6.781,3.447,8.519C324.612,182.444,325.207,178.067,322.862,175.91Z" transform="translate(-270.236 -133.676)"/><path class="h" d="M285.5,167.609s-2.351.828,2.358,29.784H307.9c-.336-8.157-.346-13.187,3.553-29.928a59.1,59.1,0,0,0-8.511-1.121,63.771,63.771,0,0,0-9.1,0C289.931,166.7,285.5,167.609,285.5,167.609Z" transform="translate(-255.576 -129.925)"/><path class="m" d="M285.6,185.132c.13,1.408.3,2.993.524,4.784,1.641-1.479,2.983-5.683,2.492-8.136A14.489,14.489,0,0,0,285.6,185.132Z" transform="translate(-255.861 -136.334)"/><path class="i" d="M270.806,178.706a86.987,86.987,0,0,1-3.643,7.986,49.05,49.05,0,0,1-4.7,7.656l-.377.464-.188.232c-.065.078-.115.147-.22.253a7.211,7.211,0,0,1-1.164,1.035,9.581,9.581,0,0,1-2.463,1.231,17.907,17.907,0,0,1-4.737.834,35.1,35.1,0,0,1-8.931-.793l.327-2.478c1.354.007,2.774-.023,4.143-.11a32.985,32.985,0,0,0,4.045-.452,15.8,15.8,0,0,0,3.617-1.009,5.527,5.527,0,0,0,1.3-.794,2.628,2.628,0,0,0,.4-.421,1.784,1.784,0,0,0,.12-.161l.137-.194.276-.387a59.538,59.538,0,0,0,3.943-7.136c1.2-2.506,2.349-5.1,3.431-7.638Z" transform="translate(-238.924 -134.298)"/><path class="h" d="M282.092,168.488c-2.453.6-5.471,7.332-5.471,7.332l5.091,7.479s6.778-8.533,5.972-11.14C286.845,169.444,285.068,167.762,282.092,168.488Z" transform="translate(-252.17 -130.804)"/><path class="j" d="M244.072,207.145l-4.247-1.961-.427,4.222s3.549,1.045,5.3-.026Z" transform="translate(-236.877 -145.95)"/><path class="j" d="M235.523,204.46l-.4,3.215,2.522,1.433.427-4.221Z" transform="translate(-235.118 -145.653)"/><path class="j" d="M308.743,133.79c-.9,4.815-1.176,6.872-3.934,9.059-4.149,3.29-9.866,1.134-10.424-3.852-.5-4.488,1.05-11.607,6.038-12.951A6.68,6.68,0,0,1,308.743,133.79Z" transform="translate(-259.431 -113.335)"/><path class="h" d="M299.019,132.812c-.275,2.455-.381,8.834,5.012,9.034,6.609.245,8.588-5.4,8-7.659,3.436-2.8,3.934-7.61.07-11.292s-12.372-1.624-14.749,1.964C294.4,129.305,299.019,132.812,299.019,132.812Z" transform="translate(-260.283 -111.343)"/><path class="a" d="M312.023,123.626c-.319-2.589-.071-4.376,2.351-4.376s5.736.88,6.951,3.361,1.313,6.36-2.074,5.967S312.406,126.726,312.023,123.626Z" transform="translate(-266.669 -110.644)"/><path class="h" d="M318.425,117c-.577-3.089,2.175-11.781,8.888-12.346,3.11-.262,4.549,3.085,2.921,3.636,2.937-.035,4.831,3.858,2.084,4.445,2.172,1.387,1.631,4.242-1.462,5.641C328.575,119.41,319.224,121.277,318.425,117Z" transform="translate(-269.315 -104.642)"/><path class="h" d="M325.627,126.8a11.125,11.125,0,0,1-5.818-1.254,2.889,2.889,0,0,1-1.385-2.242.147.147,0,0,1,.135-.158.145.145,0,0,1,.158.136,2.605,2.605,0,0,0,1.255,2.02c2.666,1.785,8.828,1.208,10.758.577a4.069,4.069,0,0,0,3.009-2.81,2.433,2.433,0,0,0-.986-2.384.147.147,0,1,1,.184-.229,2.75,2.75,0,0,1,1.092,2.666,4.349,4.349,0,0,1-3.207,3.036A19.225,19.225,0,0,1,325.627,126.8Z" transform="translate(-269.345 -111.128)"/><path class="j" d="M297.847,139.45a3.669,3.669,0,0,0-.631,2.66c.2,1.235,1.4,1.317,2.273.526.785-.713,1.629-2.215.986-3.24A1.549,1.549,0,0,0,297.847,139.45Z" transform="translate(-260.615 -118.632)"/><path class="d" d="M298.894,219.161s2.864,33.871,5.836,52.959c2.4,15.419,4.292,51.457,4.292,51.457h6.73s2.393-34.962,1.175-50.211c-3.082-38.588,3.792-41.732-3.283-54.205Z" transform="translate(-261.321 -151.693)"/><path class="m" d="M308.84,240.89a32.884,32.884,0,0,0-6.357,9.591c.784,7.612,1.715,16.06,2.7,23.46A65.021,65.021,0,0,0,308.84,240.89Z" transform="translate(-262.795 -160.62)"/><path class="d" d="M285.882,218.8s-6.213,36.992-7.195,53.666c2.44,15.419,12.421,48.007,12.421,48.007l6.121-2.218s-3.386-35.537-7.089-45.266c8.289-27.91,14.382-34.963,12.609-53.976C298.522,219.012,285.882,218.8,285.882,218.8Z" transform="translate(-253.019 -151.543)"/><path class="h" d="M297.642,390.273l8.272-2.246-.469-3.3-8.856,2.395Z" transform="translate(-260.374 -219.717)"/><path class="h" d="M314.488,394.31h8.571l.45-3.007-9.07-.307Z" transform="translate(-267.707 -222.291)"/><g transform="translate(31.658 66.142)"><path class="n" d="M309.819,217.059l.9,1.794c.07.14-.095.282-.326.282H289.377c-.181,0-.331-.089-.342-.2l-.181-1.794c-.012-.124.144-.229.342-.229h20.3A.364.364,0,0,1,309.819,217.059Z" transform="translate(-288.854 -216.909)"/><path class="o" d="M309.819,217.059l.9,1.794c.07.14-.095.282-.326.282H289.377c-.181,0-.331-.089-.342-.2l-.181-1.794c-.012-.124.144-.229.342-.229h20.3A.364.364,0,0,1,309.819,217.059Z" transform="translate(-288.854 -216.909)"/></g><path class="c" d="M319.487,219.218h.543c.108,0,.191-.055.184-.124l-.255-2.331c-.008-.068-.1-.124-.21-.124H319.2c-.108,0-.19.056-.183.124l.255,2.331C319.284,219.162,319.379,219.218,319.487,219.218Z" transform="translate(-269.59 -150.656)"/><g transform="translate(33.581 36.456)"><path class="d" d="M301.137,181.459a.294.294,0,0,1-.284-.217c-1.922-7.1-5.917-12.943-7.823-13.844a.656.656,0,0,0-.5-.082.294.294,0,1,1-.242-.537,1.163,1.163,0,0,1,.99.086c2.034.961,6.064,6.736,8.08,14,1.445-.018,3.673-.2,4.211-.244.673-.8,5.613-6.975,3.765-13.73a.294.294,0,1,1,.568-.156c2.058,7.519-3.908,14.3-3.969,14.365a.294.294,0,0,1-.194.1C305.714,181.2,302.776,181.459,301.137,181.459Z" transform="translate(-292.118 -166.522)"/><g transform="translate(6.284 5.921)"><path class="a" d="M315.279,189.752c-3.211-6.02-4.525-6.441-5.1-8.376a9.951,9.951,0,0,1,1.831-2.94c-.394-.11-1.228-.276-1.751-.378.06-.263.12-.524.18-.774a5.515,5.515,0,0,0-1.8.081l-.021-.594a7.516,7.516,0,0,0-2.283-.145c.065.273.131.559.2.848-.574.111-1.488.293-1.92.414a8.431,8.431,0,0,1,1.8,3.284c-1.729,2.972-8.46,22.1,2.484,23.537S318.49,195.772,315.279,189.752Z" transform="translate(-302.784 -176.571)"/><path class="p" d="M315.279,189.752c-3.211-6.02-4.525-6.441-5.1-8.376a9.951,9.951,0,0,1,1.831-2.94c-.394-.11-1.228-.276-1.751-.378.06-.263.12-.524.18-.774a5.515,5.515,0,0,0-1.8.081l-.021-.594a7.516,7.516,0,0,0-2.283-.145c.065.273.131.559.2.848-.574.111-1.488.293-1.92.414a8.431,8.431,0,0,1,1.8,3.284c-1.729,2.972-8.46,22.1,2.484,23.537S318.49,195.772,315.279,189.752Z" transform="translate(-302.784 -176.571)"/><path class="d" d="M308.2,183.318a3.77,3.77,0,0,0-.085.92c-.012.221.577.368,1.24.429s3.4.172,3.314-.135.135-.724.147-.981-1.092-.27-2.013-.233S308.382,182.986,308.2,183.318Z" transform="translate(-304.973 -179.286)"/></g></g><path class="a" d="M297.123,219.218h.544c.108,0,.19-.055.183-.124l-.255-2.331c-.008-.068-.1-.124-.21-.124h-.544c-.108,0-.19.056-.183.124l.255,2.331C296.92,219.162,297.015,219.218,297.123,219.218Z" transform="translate(-260.402 -150.656)"/></g></g></svg>