<svg id="_005-smartphone-online-track" data-name="005-smartphone-online-track" xmlns="http://www.w3.org/2000/svg" width="18.501" height="13.172" viewBox="0 0 18.501 13.172">
  <path id="Path_1146" data-name="Path 1146" d="M17.7,71.734H.8a.8.8,0,0,0-.8.8V84.107a.8.8,0,0,0,.8.8H17.7a.8.8,0,0,0,.8-.8V72.533A.8.8,0,0,0,17.7,71.734ZM.854,72.588H14.078V84.052H.854ZM17.647,84.052H14.932V72.588h2.714Z" transform="translate(0 -71.734)"/>
  <path id="Path_1147" data-name="Path 1147" d="M426.427,216.176a.427.427,0,0,0,.427-.427v-1.783a.427.427,0,0,0-.854,0v1.783A.427.427,0,0,0,426.427,216.176Z" transform="translate(-410.176 -208.272)"/>
  <path id="Path_1148" data-name="Path 1148" d="M51.5,145.2h-.714l-2.212-1.85a6.778,6.778,0,0,0,1.152-2.65,2.133,2.133,0,1,0-4.265,0,6.493,6.493,0,0,0,1.089,2.549l-1.978,1.6-2.472-2.9a.427.427,0,0,0,.207-.366v-1.449a.427.427,0,0,0-.427-.427H40.428a.427.427,0,0,0-.427.427v1.449a.427.427,0,0,0,.427.427h.6l3.161,3.713a.427.427,0,0,0,.594.055l2.23-1.8c.1.148.18.263.229.332a.427.427,0,0,0,.7,0c.037-.053.093-.133.162-.234l1.593,1.32a.426.426,0,0,0-.073.239v1.449a.427.427,0,0,0,.427.427H51.5a.427.427,0,0,0,.427-.427v-1.449A.427.427,0,0,0,51.5,145.2Zm-10.642-4.643h.594v.594h-.594Zm6.735,2.738a7.984,7.984,0,0,1-1.278-2.6,1.278,1.278,0,1,1,2.557,0A7.99,7.99,0,0,1,47.59,143.29Zm3.48,3.354h-.594v-.594h.594Z" transform="translate(-38.515 -136.08)"/>
</svg>
