<svg xmlns="http://www.w3.org/2000/svg" width="129.273" height="140.181" viewBox="0 0 129.273 140.181"><defs><style>.a{opacity:0.109;}.b{fill:#2f3e49;}.c{fill:#3b4a57;}.d{fill:#4c6070;}.e{fill:#001225;}.f{fill:#8cc63f;}.g{fill:#001a36;}.h{fill:#6f9f30;}.i{fill:#43c950;}.j{fill:#39b54a;}.k{fill:#009245;}.l{fill:#009b46;}.m{fill:#037c39;}.n{fill:#8f5420;}.o{fill:#9b5d24;}.p{fill:#a09a9d;}.q{fill:#a46128;}.r{fill:#bf6f2c;}.s{fill:#8b8487;}.t{fill:#817679;}.u{fill:#8e8183;}.v{fill:#978686;}.w{fill:#8c655d;}.x{fill:#94898c;}.y{fill:#aea8a7;}.z{fill:#bfbabc;}.aa{fill:#a76328;}.ab,.as{fill:#123357;}.ac,.ai,.at{fill:#fff;}.ac{opacity:0.925;}.ad{fill:#a8865f;}.ae{fill:#00572e;}.af{fill:#006837;}.ag{fill:#c69c6d;}.ah{fill:#6b4f38;}.aj{fill:none;stroke:#6b4f38;stroke-linecap:round;stroke-linejoin:round;}.ak{fill:#d9a173;}.al{fill:#ffc08e;}.am{fill:#000b17;}.an{fill:#ffc190;}.ao{fill:#002452;}.ap{fill:#00377e;}.aq{fill:#008e4b;}.ar{fill:#98d548;}.as{opacity:0.3;}.at{opacity:0.5;}.au{fill:#b0e865;}.av{fill:#fafafb;}.aw{fill:#5b7387;}.ax{fill:#ffd600;}.ay{fill:#e7ad00;}.az{fill:#ff5f00;}.ba{fill:#fcf8f0;}</style></defs><g transform="translate(-213.888 -81.638)"><g transform="translate(213.888 96.34)"><g transform="translate(0 0)"><ellipse class="a" cx="52.351" cy="7.93" rx="52.351" ry="7.93" transform="translate(17.192 109.618)"/><g transform="translate(0)"><g transform="translate(0 20.246)"><path d="M121.625,279.662h0a1.265,1.265,0,0,1-1.784-.034L103.923,263.1a1.265,1.265,0,0,1,.034-1.784h0a1.265,1.265,0,0,1,1.784.034l15.919,16.532A1.265,1.265,0,0,1,121.625,279.662Z" transform="translate(-94.659 -214.197)"/><path d="M151.937,280.234h0a1.265,1.265,0,0,1-1.784-.033l-15.919-16.532a1.265,1.265,0,0,1,.034-1.784h0a1.265,1.265,0,0,1,1.784.033l15.919,16.532A1.265,1.265,0,0,1,151.937,280.234Z" transform="translate(-112.92 -214.542)"/><path class="b" d="M169.221,328.754c-.768-8.15-6.372-14.288-12.518-13.709l-.017,0h-.017l-.017,0h-.017l-.017,0H156.6l-.017,0h-.017l-.017,0h-.017l-.017,0H156.5l-.017,0h-.017l-.017,0h-.017l-.017,0H156.4l-.017,0h-.017l-.017,0h-.017l-.017,0H156.3l-.017,0h-.017l-.017,0h-.017l-.017,0h-.017l-.017,0h-.017l-.017,0h-.017l-.017,0h-.017l-.017,0h-.017l-.017,0h-.017l-.017,0h-.017l-.017,0h-.017l-.017,0h-.017l-.017,0h-.017l-.017,0h-.017l-.017,0h-.017l-.017,0h-.017l-.017,0h-.017l-.017,0h-.017l-.017,0h-.017l-.017,0h-.017l-.017,0h-.017l-.017,0h-.017l-.017,0h-.017l-.017,0h-.017l-.017,0h-.017l-.017,0h-.017l-.017,0h-.017l-.017,0h-.017l-.017,0h-.017l-.017,0h-.017l-.017,0h-.017l-.017,0h-.017l-.017,0h-.017l-.017,0h-.017l-.017,0h-.017l-.017,0H155.1l-.017,0h-.017l-.017,0h-.017l-.017,0H155l-.017,0h-.017l-.017,0h-.017l-.017,0H154.9l-.017,0h-.017l-.017,0h-.017l-.017,0H154.8l-.017,0h-.017l-.017,0h-.017l-.017,0h-.017l-.017,0h-.017l-.017,0h-.017l-.017,0h-.017l-.017,0h-.017l-.017,0h-.017l-.017,0h-.017l-.017,0h-.017l-.017,0h-.017l-.017,0h-.017l-.017,0h-.017l-.017,0h-.017l-.017,0h-.017l-.017,0h-.017l-.017,0h-.017l-.017,0h-.017l-.017,0h-.017l-.017,0h-.017l-.017,0h-.017l-.017,0h-.017l-.017,0h-.017l-.017,0h-.017l-.017,0h-.017l-.017,0h-.017l-.017,0h-.017l-.017,0h-.017l-.017,0h-.017l-.017,0h-.017l-.017,0h-.017l-.017,0h-.017l-.017,0h-.017l-.017,0h-.017l-.017,0H153.6l-.017,0h-.017l-.017,0h-.017l-.017,0H153.5l-.017,0h-.017l-.017,0h-.017l-.017,0H153.4l-.017,0h-.017l-.017,0h-.017l-.017,0H153.3l-.017,0h-.017l-.017,0h-.017l-.017,0H153.2l-.017,0h-.017l-.017,0h-.017l-.017,0h-.017l-.017,0h-.017l-.017,0h-.017l-.017,0h-.017l-.017,0h-.017l-.017,0h-.017l-.017,0h-.017l-.017,0h-.017l-.017,0h-.017l-.017,0h-.017l-.017,0h-.017l-.017,0h-.017l-.017,0h-.017l-.017,0h-.017l-.017,0h-.017l-.017,0h-.017l-.017,0h-.017l-.017,0h-.017l-.017,0h-.017l-.017,0h-.017l-.017,0h-.017l-.017,0h-.017l-.017,0h-.017l-.017,0h-.017l-.017,0h-.017l-.017,0h-.017l-.017,0h-.017l-.017,0h-.017l-.017,0h-.017l-.017,0h-.017l-.017,0h-.017l-.017,0h-.017l-.017,0H152l-.017,0h-.017l-.017,0h-.017l-.017,0H151.9l-.017,0h-.017l-.017,0h-.017l-.017,0H151.8l-.017,0h-.017l-.017,0h-.017l-.017,0H151.7l-.017,0h-.017l-.017,0h-.017l-.017,0H151.6l-.017,0h-.017c-6.145.579-10.5,7.655-9.737,15.805s6.372,14.288,12.517,13.709l.017,0h.017l.017,0h.017l.017,0h.017l.017,0h.017l.017,0h.017l.017,0h.017l.017,0h.017l.017,0h.017l.017,0h.017l.017,0h.017l.017,0h.017l.017,0h.017l.017,0h.017l.017,0h.017l.017,0h.017l.017,0h.017l.017,0h.017l.017,0h.017l.017,0h.017l.017,0h.017l.017,0h.017l.017,0h.017l.017,0h.017l.017,0h.017l.017,0h.017l.017,0h.017l.017,0h.017l.017,0h.017l.017,0h.017l.017,0h.017l.017,0h.017l.017,0h.017l.017,0h.017l.017,0h.017l.017,0h.017l.017,0h.017l.017,0h.017l.017,0h.017l.017,0h.017l.017,0h.017l.017,0h.017l.017,0h.017l.017,0h.017l.017,0h.017l.017,0h.017l.017,0h.017l.017,0h.017l.017,0h.017l.017,0h.017l.017,0h.017l.017,0h.017l.017,0h.017l.017,0h.017l.017,0h.017l.017,0h.017l.017,0h.017l.017,0h.017l.017,0h.017l.017,0h.017l.017,0h.017l.017,0h.017l.017,0h.017l.017,0h.017l.017,0h.017l.017,0h.017l.017,0h.017l.017,0h.017l.017,0h.017l.017,0h.017l.017,0h.017l.017,0h.017l.017,0h.017l.017,0h.017l.017,0h.017l.017,0h.017l.017,0h.017l.017,0h.017l.017,0H157l.017,0h.017l.017,0h.017l.017,0h.017l.017,0h.017l.017,0h.017l.017,0h.017l.017,0h.017l.017,0h.017l.017,0h.017l.017,0h.017l.017,0h.017l.017,0h.017l.017,0h.017l.017,0h.017l.017,0h.017l.017,0h.017l.017,0h.017l.017,0h.017l.017,0h.017l.017,0h.017l.017,0h.017l.017,0h.017l.017,0h.017l.017,0h.017l.017,0h.017l.017,0h.017l.017,0h.017l.017,0h.017l.017,0h.017l.017,0h.017l.017,0h.017l.017,0h.017l.017,0h.017l.017,0h.017l.017,0h.017l.017,0h.017l.017,0h.017l.017,0h.017l.017,0h.017l.017,0h.017l.017,0h.017l.017,0h.017l.017,0h.017l.017,0h.017l.017,0h.017l.017,0h.017l.017,0h.017l.017,0h.017l.017,0h.017l.017,0h.017l.017,0h.017l.017,0h.017l.017,0h.017l.017,0h.017l.017,0h.017l.017,0h.017l.017,0h.017l.017,0h.017l.017,0h.017l.017,0h.017l.017,0h.017l.017,0h.017l.017,0h.017l.017,0h.017l.017,0h.017l.017,0h.017l.017,0h.017l.017,0h.017l.017,0h.017l.017,0h.017l.017,0h.017l.017,0h.017l.017,0h.017C165.629,343.98,169.989,336.9,169.221,328.754Zm-9.254,9.108h-2.689c-3.213.3-6.143-2.906-6.544-7.168s1.878-7.961,5.091-8.264h2.653l.018,0h.018Z" transform="translate(-123.596 -246.758)"/><path class="c" d="M165.6,350.7c-2.419.228-4.625-2.188-4.927-5.4s1.414-5.993,3.833-6.222,4.625,2.188,4.927,5.4S168.023,350.474,165.6,350.7Z" transform="translate(-134.986 -261.255)"/><path class="d" d="M162.007,350.7c-2.419.228-4.625-2.188-4.927-5.4s1.414-5.993,3.833-6.222,4.625,2.188,4.927,5.4S164.426,350.474,162.007,350.7Z" transform="translate(-132.819 -261.255)"/><path class="e" d="M164.079,329.972c-.768-8.15-6.372-14.288-12.517-13.709s-10.5,7.655-9.737,15.805,6.372,14.288,12.517,13.709S164.847,338.122,164.079,329.972Zm-10.4,8.77c-3.216.3-6.149-2.909-6.55-7.174s1.879-7.968,5.1-8.271,6.148,2.909,6.55,7.174S156.895,338.44,153.679,338.742Z" transform="translate(-123.596 -247.492)"/><path class="e" d="M173.718,358.07l31.61.6a2.613,2.613,0,0,0,2.654-2.556h0a2.613,2.613,0,0,0-2.555-2.654l-31.61-.6a2.613,2.613,0,0,0-2.654,2.556h0A2.612,2.612,0,0,0,173.718,358.07Z" transform="translate(-141.324 -269.564)"/><path class="f" d="M200.573,296.87c-15.409-6.164,10.53-36.314-22.768-36.943-25.342-.479-31.119,17.8-26.189,20.8,1.853,1.127,7.473.81,9.874,2.532,10.517,7.544.037,10.82,12.4,13.417C173.893,296.678,205.184,298.715,200.573,296.87Z" transform="translate(-128.579 -213.568)"/><path class="g" d="M101.274,263.488l41.715.788A1.3,1.3,0,0,0,144.31,263h0a1.3,1.3,0,0,0-1.272-1.321l-41.715-.788A1.3,1.3,0,0,0,100,262.167h0A1.3,1.3,0,0,0,101.274,263.488Z" transform="translate(-92.508 -214.157)"/><path class="h" d="M164.275,311.639s-16.528.879-31.255-3.262c0,0,.277-13.772,7.889-19.207S161.5,292.179,164.275,311.639Z" transform="translate(-118.344 -230.217)"/><path class="d" d="M103.393,335.524l12.629.239a1.468,1.468,0,0,0,1.491-1.436h0a1.468,1.468,0,0,0-1.436-1.491l-12.629-.239a3.764,3.764,0,0,0-.343,1.457h0A3.769,3.769,0,0,0,103.393,335.524Z" transform="translate(-100.321 -257.356)"/><path class="b" d="M96.39,344.58l12.629.239a1.468,1.468,0,0,0,1.491-1.435h0a1.468,1.468,0,0,0-1.436-1.491l-12.629-.239a3.765,3.765,0,0,0-.343,1.457h0A3.768,3.768,0,0,0,96.39,344.58Z" transform="translate(-96.102 -262.812)"/><path class="f" d="M117.761,339.507l35.248.665a4.081,4.081,0,0,0,4.145-3.992h0a4.081,4.081,0,0,0-3.992-4.146l-35.247-.666a4.081,4.081,0,0,0-4.145,3.992h0A4.081,4.081,0,0,0,117.761,339.507Z" transform="translate(-106.746 -256.615)"/><path class="h" d="M154.851,337.379l-35.247-.666a4.083,4.083,0,0,1-3.974-3.694,4.066,4.066,0,0,0,2.132,7.482l35.248.665a4.081,4.081,0,0,0,4.145-3.992,4.039,4.039,0,0,0-.018-.452A4.042,4.042,0,0,1,154.851,337.379Z" transform="translate(-106.746 -257.61)"/><g transform="translate(43.012 41.018) rotate(160)"><path class="i" d="M0,7.719a.252.252,0,0,0,.172.134,18.927,18.927,0,0,1,2.142.961,9.062,9.062,0,0,1,2.112,1.321c.05.046.1.126.189.068a.772.772,0,0,0,.113-.247c.3-.8.6-1.6.888-2.4.027-.278-.161-.442-.336-.6a8.213,8.213,0,0,0-1-.7,1.342,1.342,0,0,1-.532-1.577.48.48,0,0,0,.184-.289c.144-.383.283-.767.429-1.15a1.056,1.056,0,0,1,.473-.594.592.592,0,0,1,.6.034A5.556,5.556,0,0,1,6.78,3.733c.037.046.074.1.134.1l.019.045a.317.317,0,0,0-.058.2.053.053,0,0,0,.052.054l.644-1.657A1.013,1.013,0,0,1,7.576,2.3a1.407,1.407,0,0,0-.4-1.265A6.319,6.319,0,0,0,6.108.2.161.161,0,0,0,6,.133a2.57,2.57,0,0,0-2.53.505A5.91,5.91,0,0,0,2.006,2.7c-.382.805-.677,1.65-.989,2.486-.031.084-.038.181-.116.243L.154,7.439A.606.606,0,0,1,0,7.719Z" transform="translate(8.39 33.114)"/><path class="j" d="M19.538,8.068c-.282.759-.526,1.536-.853,2.275a7.933,7.933,0,0,1-5.323,4.77,3.531,3.531,0,0,1-.761.136c-.085-.073-.057-.166-.045-.255a1.352,1.352,0,0,0-.4-1.132,3.019,3.019,0,0,0-.767-.626A2.7,2.7,0,0,1,11.073,13a2.485,2.485,0,0,0-.525-.217.571.571,0,0,1-.311-.19c-.076-.175-.259-.21-.4-.278C9.074,11.95,8.358,11.5,7.6,11.13c-.9-.441-1.789-.9-2.7-1.309A13.815,13.815,0,0,1,2.59,8.47,8.24,8.24,0,0,1,.956,7,3.875,3.875,0,0,1,.05,5.322,2.748,2.748,0,0,1,.431,3.355C1.033,2.313,1.66,1.289,2.353.306a.949.949,0,0,1,.264-.3c.118-.034.229.037.346.022A7.568,7.568,0,0,1,4.038.265c1.483.4,2.943.867,4.385,1.4.437.16.9.262,1.325.453,1.066.477,2.172.852,3.236,1.339a37.571,37.571,0,0,1,3.484,1.755,12.3,12.3,0,0,1,2.454,1.806,3.275,3.275,0,0,1,.578.752C19.551,7.859,19.613,7.956,19.538,8.068Z" transform="translate(3.362 20.336)"/><path class="k" d="M.069,4.332A6.652,6.652,0,0,1,2.984,1.168,9.219,9.219,0,0,1,8.665.065,18.988,18.988,0,0,1,18.684,4.2a7.778,7.778,0,0,1,2.564,3.662c.034.1.054.209.08.313-.117.137-.174-.013-.227-.063-.223-.213-.411-.459-.638-.67a10.461,10.461,0,0,0-2.9-1.887,11.975,11.975,0,0,0-2.54-.813A9.384,9.384,0,0,0,9.775,5a4.721,4.721,0,0,0-1.066.6.469.469,0,0,1-.321.117A.426.426,0,0,1,8.3,5.708c-1.036-.341-2.069-.689-3.12-.982a14.123,14.123,0,0,0-3.556-.639A2.16,2.16,0,0,0,.145,4.5c-.037.03-.08.064-.138.029A.226.226,0,0,1,.069,4.332Z" transform="translate(7.587 0)"/><path class="k" d="M4.35.268A.042.042,0,0,1,4.315.244a2.251,2.251,0,0,1,.9-.226A12.1,12.1,0,0,1,8.147.263c1.151.2,2.262.558,3.392.841a.72.72,0,0,1,.357.168c.078.127-.009.2-.091.276-.7.634-1.382,1.285-2.029,1.973A25.119,25.119,0,0,0,6.5,7.686a13.106,13.106,0,0,0-.982,2.05c-.292.747-.561,1.5-.842,2.254a.634.634,0,0,1-.2.342.2.2,0,0,1-.079.026c-.5-.068-.989-.226-1.491-.305a7.416,7.416,0,0,0-1.691-.113,2.587,2.587,0,0,0-.959.256c-.077.037-.2.184-.263-.031a3.256,3.256,0,0,1,.116-.331Q2.184,6.264,4.252.693A2.854,2.854,0,0,0,4.367.362.193.193,0,0,0,4.35.268Z" transform="translate(2.52 6.036)"/><path class="k" d="M5.63.451c-.259.385-.514.773-.777,1.155-.413.6-.787,1.225-1.144,1.86-.142.252-.309.494-.425.758A2.446,2.446,0,0,0,3.1,5.608,3.78,3.78,0,0,0,4.113,7.487a10.776,10.776,0,0,0,2.8,2.159c.717.421,1.494.719,2.23,1.1.809.419,1.646.782,2.429,1.254.51.307,1.058.55,1.591.82.067.034.149.048.123.153a.421.421,0,0,1-.337-.041c-.4-.144-.8-.3-1.2-.442-.321-.114-.415-.075-.533.246-.727,1.975-1.487,3.938-2.205,5.916-.238.668-.49,1.331-.738,2a.508.508,0,0,1-.191.286.173.173,0,0,1-.142.011c-.085-.145,0-.276.045-.4Q8.835,18.23,9.7,15.92c.029-.078.054-.158.087-.235.073-.173.031-.287-.154-.345a.565.565,0,0,1-.246-.117c-.014-.02-.036-.041-.032-.063.053-.289-.116-.434-.345-.543-.061-.047-.161-.067-.125-.181a3.578,3.578,0,0,0,.568-.049.982.982,0,0,0,.656-1.326,3.847,3.847,0,0,0-.737-1.1,2.205,2.205,0,0,0-.945-.5A18.931,18.931,0,0,0,5.7,10.706c-.3-.062-.391.047-.3.341.015.048.035.094.052.141.158.448.076.621-.379.773a1.878,1.878,0,0,0-.615.255.08.08,0,0,0,.053.083c.665.311,1.3.673,1.976.973.617.275,1.2.625,1.841.847.067.023.192.052.107.183a1.361,1.361,0,0,1-.535-.144A2.456,2.456,0,0,0,7.337,14a.525.525,0,0,0-.579.155.655.655,0,0,1-.467-.136,16.55,16.55,0,0,1-2.1-1.3c-.167-.118-.207-.111-.287.088-.1.24-.183.484-.271.726a2.926,2.926,0,0,1-.281.612c-.19.5-.37,1-.559,1.495-.037.1-.059.211-.168.266-.156-.112-.067-.26-.018-.363a5.743,5.743,0,0,0,.285-.79,1.153,1.153,0,0,0,.158-.35,1.369,1.369,0,0,0,.078-.441c.255-.814.586-1.6.87-2.4a5.087,5.087,0,0,0,.232-.688c.059-.3.026-.342-.271-.35a1.567,1.567,0,0,0-1.435.6.134.134,0,0,1-.078.029A7.049,7.049,0,0,1,.116,6.928,8.324,8.324,0,0,1,.368,3.1c.338-.91.682-1.817,1.009-2.731.014-.185.163-.211.3-.247a4.875,4.875,0,0,1,1.585-.1A16.373,16.373,0,0,1,5.359.3C5.464.324,5.576.335,5.63.451Z" transform="translate(0.358 19.912)"/><path class="j" d="M0,1.238c.057-.046.131-.025.2-.076A6.062,6.062,0,0,1,3,.086,11.8,11.8,0,0,1,6.52.2,6.95,6.95,0,0,1,7.65.5c.3.1.613.15.907.274A12.707,12.707,0,0,1,11.345,2.3a10.915,10.915,0,0,1,1.462,1.4c.036.04.06.082.119.04a6.8,6.8,0,0,1-.16,4.433c-.1-.028-.116-.114-.134-.194a2.292,2.292,0,0,0-.713-1.127A8.732,8.732,0,0,0,10.2,5.644C9.323,5.128,8.4,4.7,7.476,4.271c-.627-.293-1.268-.556-1.905-.825C3.855,2.723,2.1,2.1.356,1.449.226,1.4.075,1.382,0,1.238Z" transform="translate(15.989 4.438)"/><path class="i" d="M17.06,10.076a2.334,2.334,0,0,0-.724-1.056,12.739,12.739,0,0,0-2.094-1.552A27.543,27.543,0,0,0,11.75,6.123c-.658-.319-1.335-.595-2-.906C9.149,4.931,8.5,4.758,7.9,4.473a9.773,9.773,0,0,0-1.393-.551c-.682-.2-1.331-.488-2.008-.7-.652-.2-1.294-.433-1.949-.617-.694-.195-1.4-.348-2.1-.519-.4-.038-.5-.256-.427-.6A3.031,3.031,0,0,1,.4.449.739.739,0,0,1,1.106.035h0c.307-.109.575.066.846.142C2.82.417,3.67.722,4.527,1c1.3.42,2.573.893,3.837,1.394,1.155.457,2.312.912,3.449,1.417,1.046.464,2.083.945,3.09,1.486a9.336,9.336,0,0,1,2.214,1.54,2.668,2.668,0,0,1,.59.862l.04.071a.521.521,0,0,1,.012.223c0,.068-.011.134-.012.2a5.619,5.619,0,0,1,0,1.089,2.379,2.379,0,0,1-.1.432C17.526,10.032,17.4,10.107,17.06,10.076Z" transform="translate(5.839 18.329)"/><path class="i" d="M1.576.027Q3.5.743,5.43,1.458c.634.234,1.247.516,1.877.761.813.316,1.618.661,2.4,1.053.665.335,1.346.64,1.987,1.029a13.1,13.1,0,0,1,1.561,1.02,2.911,2.911,0,0,1,1,1.282c.04.119.007.254.1.358,0,.3.011.6.006.9a1.7,1.7,0,0,1-.167.751.4.4,0,0,1-.528.246.435.435,0,0,1-.148-.154,5.52,5.52,0,0,0-1.622-1.648,20.666,20.666,0,0,0-3.3-1.933C7.484,4.581,6.357,4.1,5.221,3.637c-1.09-.446-2.2-.834-3.3-1.257-.287-.11-.6-.152-.882-.279-.26-.113-.53-.2-.8-.3A.332.332,0,0,1,0,1.419,1.541,1.541,0,0,1,1.111.026,1.23,1.23,0,0,1,1.529.01Z" transform="translate(14.413 5.649)"/><path class="l" d="M9.264,1.654a1.725,1.725,0,0,0-1.2.643,1.518,1.518,0,0,0-.267.912c-.01.1.091.126.17.155l.818.3a.09.09,0,0,1-.117.064,2.045,2.045,0,0,1-.935-.4c-.7-.221-1.405-.388-2.107-.584a21.2,21.2,0,0,0-2.184-.473,10.868,10.868,0,0,0-2.407-.159c-.3.016-.575.164-.877.16-.192-.133-.169-.328-.133-.515A1.7,1.7,0,0,1,.6.771,1.327,1.327,0,0,0,.978.326L.935.5A2.409,2.409,0,0,1,2.816.014,14.37,14.37,0,0,1,5.792.571c.831.236,1.659.477,2.478.756C8.6,1.439,8.937,1.532,9.264,1.654Z" transform="translate(6.678 4.006)"/><path class="l" d="M6.2,12.06c-.553.116-.749.551-.894,1.02-.031.1-.045.21-.082.311-.148.406-.072.58.32.725-.114.054-.2-.039-.3-.057a9.541,9.541,0,0,0-1.681-.3,6.424,6.424,0,0,0-2.246.025c-.111.028-.232.04-.3.154C.893,14.382.7,14.8.551,15.232c-.14.393-.287.783-.436,1.172-.028.075-.03.168-.114.214a.921.921,0,0,1,.11-.38q.387-1.057.783-2.11c.044-.119.084-.211-.031-.334a.456.456,0,0,1-.051-.474,1.264,1.264,0,0,0,.177-.466,1.251,1.251,0,0,1,.413-.524,1.008,1.008,0,0,0,.347-.5Q3.9,6.035,6.051.239C6.08.161,6.1.08,6.123,0L6.18.023a.768.768,0,0,1-.086.285Q3.939,6.118,1.78,11.926c-.006.016-.019.03-.018.043s.014.029.028,0a4.112,4.112,0,0,1,2.882-.261A11.341,11.341,0,0,1,6.2,12.06Z" transform="translate(0.748 6.305)"/><path class="m" d="M0,2.11C.191,1.593.375,1.074.577.561A.819.819,0,0,1,1.1,0a1.479,1.479,0,0,1,.887.4,4.026,4.026,0,0,1,.789.642.784.784,0,0,1,.117,1.014.835.835,0,0,1-.5.23c-.265-.042-.528.058-.793.014A4.943,4.943,0,0,1,.423,2.137c.03.005.08.008.094.068Z" transform="translate(12.142 35.678)"/><path class="j" d="M1.243.119A21.537,21.537,0,0,1,3.835,1.282,15.3,15.3,0,0,1,5.4,2.2a1.413,1.413,0,0,1,.423.419c.078-.051.078-.142.106-.216.274-.729.543-1.461.817-2.19.028-.075.03-.166.112-.213.024.1-.034.178-.065.261-.283.768-.579,1.532-.847,2.3a.491.491,0,0,1-.518.371,6.516,6.516,0,0,1-1.462-.184A28.813,28.813,0,0,1,0,1.592a.058.058,0,0,1,.035-.071A5.515,5.515,0,0,1,1.094,1.8a19.053,19.053,0,0,0,3.228.8,3.8,3.8,0,0,0,.625.038c.091,0,.2,0,.237-.1s-.038-.176-.1-.24a4.027,4.027,0,0,0-.875-.624C3.3,1.16,2.347.738,1.4.306,1.315.268,1.221.244,1.182.147Z" transform="translate(7.147 40.713)"/><path class="k" d="M1.793,2.112c-.062-.127.093-.183.088-.316A1.139,1.139,0,0,0,1.292.848C1.107.724.946.565.756.443A3.392,3.392,0,0,0,0,.055.684.684,0,0,1,.679.14c.332.219.659.444.968.7a1.649,1.649,0,0,1,.406.465.193.193,0,0,1,.052.124l-.053.192a.8.8,0,0,1-.13.335A.213.213,0,0,1,1.793,2.112Z" transform="translate(13.243 35.623)"/><path class="j" d="M0,.223H0c-.027.21.132.313.259.424A7.267,7.267,0,0,0,1.6,1.513a35.226,35.226,0,0,0,3.759,1.7,17.034,17.034,0,0,0,1.786.642L7.165,3.8c-.062-.142-.205-.159-.326-.208-.827-.331-1.673-.611-2.492-.968a28.264,28.264,0,0,1-2.63-1.27A3.111,3.111,0,0,1,.581.472L.539.437a1.628,1.628,0,0,1,.9-.079c.144.015.289.086.436.014A.107.107,0,0,0,1.858.226,3.451,3.451,0,0,0,.261.008C.22.01.188.043.154.067L.091.1.034.131Z" transform="translate(0 38.453)"/><path class="j" d="M5.206,1.067a2.667,2.667,0,0,0-2.666.565A6.356,6.356,0,0,0,1.162,3.614,26.266,26.266,0,0,0,.119,6.121C.094,6.19.085,6.272,0,6.3L2.233.288c.106-.286.228-.344.518-.238.533.195,1.065.395,1.6.592.113.151.3.142.452.221S5.109.924,5.206,1.067Z" transform="translate(9.292 32.243)"/><path class="m" d="M0,3.842A.4.4,0,0,1,.378,3.65a3.063,3.063,0,0,1,.979.11c.158-.529.36-1.042.557-1.557a1.564,1.564,0,0,1,.271-.553.5.5,0,0,1,.357.073c.56.253,1.116.511,1.693.726a2.955,2.955,0,0,0,.8.18c.125.012.192.109.272.187a1.987,1.987,0,0,0,.422.274c.2.133.36.338.631.338A5.125,5.125,0,0,0,7,3.563a2.964,2.964,0,0,0,.392.073A.276.276,0,0,0,7.69,3.5c.11-.1.263-.095.392-.15.189-.082.206-.148.088-.34-.084-.122-.252-.13-.339-.248a.38.38,0,0,1,.037-.313c.091-.206.114-.434.216-.635.062-.07.148-.056.228-.061.113-.007.21-.035.246-.16.159-.464.347-.917.512-1.378A.306.306,0,0,1,9.231,0a.835.835,0,0,0,.348.123c.205.062.258.144.173.358-.262.66-.5,1.33-.747,2Q8.441,3.992,7.88,5.508c-.033.088-.11.175-.048.282a24.112,24.112,0,0,1,3.46,1.717,2.339,2.339,0,0,1,.544.436c.071.082.159.161.111.285s-.18.139-.3.141a6.866,6.866,0,0,1-1.582-.2,35.364,35.364,0,0,1-3.4-.987c-.625-.234-1.253-.459-1.873-.7A25.079,25.079,0,0,1,.775,4.561,1.816,1.816,0,0,1,0,3.842Z" transform="translate(0.498 35.07)"/><path class="l" d="M1.69,8.357A4.684,4.684,0,0,0,0,8.157Q1.332,4.571,2.661.983C2.694.895,2.8.793,2.667.7A1.358,1.358,0,0,1,3.946,0a.724.724,0,0,1,.074,0c.666.009.62.009.424.614-.323,1-.719,1.972-1.084,2.956l-.016.044c-.262.773-.56,1.533-.834,2.3a1.416,1.416,0,0,0-.1.334,11.254,11.254,0,0,1-.456,1.323C1.86,7.836,1.766,8.094,1.69,8.357Z" transform="translate(0.154 30.363)"/><path class="j" d="M4.207,3.683c-.03-.027-.056-.068-.091-.079A18.3,18.3,0,0,1,1.984,2.64c-.665-.295-1.3-.651-1.984-1a2.3,2.3,0,0,1,.6-.292c.064-.017.131-.028.194-.048.436-.139.507-.3.338-.716C1.066.432.941.264,1.066.1s.3-.085.463-.045C2.06.184,2.6.292,3.117.459A9.382,9.382,0,0,1,4.188.794a4.832,4.832,0,0,1,.782.378,3.008,3.008,0,0,1,.908,1.2.991.991,0,0,1-.244,1.266.948.948,0,0,1-1.008.213A.354.354,0,0,1,4.207,3.683Z" transform="translate(4.615 30.509)"/><path class="m" d="M0,1.565A7.466,7.466,0,0,0,.537.255c.134-.326.12-.316.41-.1a14.864,14.864,0,0,0,1.86,1.173,2.982,2.982,0,0,0,.649.293.254.254,0,0,1,0,.218,4.308,4.308,0,0,1-.391.941.164.164,0,0,1-.207-.021,3.013,3.013,0,0,0-.82-.359C1.414,2.181.814,1.916.217,1.644a.357.357,0,0,0-.144-.033A.106.106,0,0,1,0,1.565Z" transform="translate(3.656 32.425)"/><path class="n" d="M.183,1.411.62.236A.3.3,0,0,1,1,.006a2.8,2.8,0,0,1,.766.175c-.333.258-.2.543-.048.83.13.242.242.494.39.726a1.823,1.823,0,0,0,.27.359c.151.142.252.139.326-.045A1.658,1.658,0,0,0,2.9.76a.088.088,0,0,1,.02-.093,1.436,1.436,0,0,0,.143.095c.218.112.3.267.172.5L2.6,2.951c-.234-.01-.359-.217-.552-.307A5.554,5.554,0,0,0,.245,2.056c-.157-.015-.288-.042-.232-.248a.306.306,0,0,1,.013-.073C.081,1.629.084,1.5.183,1.411Z" transform="translate(6.492 33.809)"/><path class="o" d="M1.455.487c.291.539-.008,1.007-.2,1.48-.073.184-.221.174-.376.027a2.379,2.379,0,0,1-.42-.612,4.656,4.656,0,0,1-.4-.827C-.05.2-.03.156.3,0L.864.2l.419.163C1.31.449,1.4.449,1.455.487Z" transform="translate(7.958 33.99)"/><path class="k" d="M1.853,0,1.9.014a.2.2,0,0,1,.237.107.668.668,0,0,0-.369.465c-.22.612-.45,1.222-.679,1.831-.043.115-.068.244-.191.312C.647,3.417.393,4.1.142,4.792c-.02.055-.045.059-.09.048a.1.1,0,0,0-.01-.109.284.284,0,0,1-.03-.213c.238-.629.47-1.26.7-1.891l.045-.12c.068-.184.133-.369.207-.55.028-.068.034-.172.156-.14.1-.04.1-.144.136-.226C1.46,1.061,1.656.53,1.853,0Z" transform="translate(1.803 33.99)"/><path class="k" d="M.4,1.868a3.048,3.048,0,0,0-.344.782C-.022,2.628,0,2.577.017,2.531.326,1.7.631.866.946.036.952.022.969.012.981,0h0C1.09.13.916.239.954.364.845.459.874.626.768.723A10.406,10.406,0,0,1,.4,1.868Z" transform="translate(2.532 33.938)"/><path class="j" d="M1,8.471A10.208,10.208,0,0,1,1.77,6.744,15.915,15.915,0,0,1,3.048,4.818c.334-.411.636-.85.977-1.255.323-.383.691-.73,1.019-1.11C5.521,1.9,6.057,1.408,6.577.9A5.966,5.966,0,0,1,7.34.195C7.41.147,7.482.1,7.465,0c.272.1.544.2.816.3.075.027.148.084.235.035,1.252.383,2.475.849,3.692,1.328.557.22,1.121.427,1.667.669.932.413,1.867.824,2.766,1.3a16.364,16.364,0,0,1,3.476,2.25,3.494,3.494,0,0,1,.942,1.144.184.184,0,0,1,.061.139q-.761,2.042-1.522,4.084-1.427,3.839-2.853,7.679c-.032.086-.07.169-.1.254l-.032-.172h0c-.05-.074,0-.138.022-.2l-.046-.018h0a5.371,5.371,0,0,0-2.338-2.159c-.63-.388-1.306-.685-1.957-1.03-.4-.21-.805-.394-1.218-.567-1.068-.447-2.143-.875-3.212-1.319-1.25-.518-2.52-.979-3.791-1.433q-1.314-.47-2.651-.886C.952,11.254.473,11.149,0,11.027a.555.555,0,0,0,.157-.279C.439,9.989.723,9.231,1,8.471ZM20.893,7.407l0-.014-.005.014Z" transform="translate(6.945 7.337)"/><path class="n" d="M2.279.964c-.029.342-.252.634-.253.983-.068.1-.152.064-.237.03a.515.515,0,0,1-.108-.167A.524.524,0,0,0,.76,1.649.176.176,0,0,1,.536,1.61C.362,1.426.186,1.243.018,1.055A.106.106,0,0,1,0,.961,4.482,4.482,0,0,1,.345.251.328.328,0,0,1,.793.021,5.3,5.3,0,0,1,2.226.578C2.4.689,2.406.788,2.279.964Z" transform="translate(6.356 35.894)"/><path class="p" d="M1.252.142c.178.162.114.293-.067.379A3.42,3.42,0,0,1,.744.665.572.572,0,0,1,.261.649C.161.585.041.542,0,.413.016.308.1.293.182.276A.969.969,0,0,0,.631.037.653.653,0,0,1,1.252.142Z" transform="translate(7.481 37.921)"/><path class="q" d="M2.169,1.3c.134-.267-.08-.386-.247-.455A8.706,8.706,0,0,0,.682.407a.3.3,0,0,0-.4.2C.168.628.116.549.066.466-.073.3.043.153.1,0,.144.075.056.141.079.2a4.987,4.987,0,0,1,2.55,1C2.511,1.406,2.334,1.325,2.169,1.3Z" transform="translate(6.466 35.556)"/><path class="r" d="M1.116.51A1.869,1.869,0,0,1,.425.361C.261.279.017.3,0,.031a1.228,1.228,0,0,1,1.14.4A.073.073,0,0,1,1.116.51Z" transform="translate(6.41 38.181)"/><path class="s" d="M.429.476A.988.988,0,0,1,0,.2C-.008.034.136.042.237,0A.525.525,0,0,1,.584.234.464.464,0,0,1,.6.5C.532.56.481.518.429.476Z" transform="translate(5.774 37.73)"/><path class="t" d="M.429.317C.391.425.227.375.2.5L0,.316C.05.207.006.05.167,0A.356.356,0,0,1,.429.317Z" transform="translate(5.573 37.435)"/><path class="u" d="M0,.18C.008.166.014.153.021.139A.475.475,0,0,1,.217,0C.368.088.542.025.7.075.7.238.579.26.459.262A.973.973,0,0,1,0,.18Z" transform="translate(7.526 38.511)"/><path class="v" d="M.639.221A1.532,1.532,0,0,0,.016.154.111.111,0,0,1,0,.084.1.1,0,0,1,.072.008L.288,0C.423.046.57.072.639.221Z" transform="translate(8.093 37.842)"/><path class="w" d="M0,0C.054.007.106.045.161.006A.032.032,0,0,1,.207.019c.08.188.3.188.425.317C.337.381.191.149,0,0Z" transform="translate(6.203 38.206)"/><path class="p" d="M.288.829.026.513C.059.436-.008.371,0,.3.158-.049.413-.1.678.172a2.339,2.339,0,0,1,.447.68C1.189.866,1.19.627,1.3.809a.448.448,0,0,1-.138.339.7.7,0,0,1-.527-.084Z" transform="translate(5.714 36.922)"/><path class="x" d="M1.285.95c-.09.02-.074.125-.127.166C1.028.925.9.732.767.545.481.152.347.142.012.481Q-.083-.129.553.035A.148.148,0,0,1,.678.142L1.2.688c.055.058.1.136.2.084C1.434.878,1.371.922,1.285.95Z" transform="translate(5.702 36.738)"/><path class="y" d="M.135.419.248.241A.555.555,0,0,1,1.2.3,2.273,2.273,0,0,1,1.313.58l-.047.1c-.087,0-.127-.067-.183-.114A.573.573,0,0,0,.312.546C.192.636.154.71.315.8.365.83.537.864.367.976.221.96.076.941,0,.788Z" transform="translate(6.852 37.269)"/><path class="z" d="M.327.615C.3.565.257.551.213.527.138.487.011.5,0,.388S.093.222.174.165C.554-.1.829-.05,1.17.35c0,.016-.006.031-.008.046-.118.266-.4.213-.6.314A.164.164,0,0,1,.327.615Z" transform="translate(6.948 37.599)"/><path class="aa" d="M.959.231l.23.1.237.2c-.038.085-.088.153-.2.139A1.73,1.73,0,0,0,.094.242.276.276,0,0,0,.049.228.186.186,0,0,1,.029,0,1.575,1.575,0,0,1,.536.075Z" transform="translate(6.316 37.983)"/></g><path class="g" d="M164.619,264.077l30.109.568a5.065,5.065,0,0,0,5.16-4.969h0a5.065,5.065,0,0,0-4.969-5.16l-30.109-.569a5.08,5.08,0,0,0-5.16,4.969h0A5.08,5.08,0,0,0,164.619,264.077Z" transform="translate(-134.388 -209.971)"/><path class="ab" d="M190.016,259.145l-14.979-.283a1.132,1.132,0,0,1-1.107-1.15h0a1.132,1.132,0,0,1,1.15-1.107l14.979.283a1.132,1.132,0,0,1,1.107,1.15h0A1.132,1.132,0,0,1,190.016,259.145Z" transform="translate(-142.992 -211.572)"/><path class="ab" d="M232.726,259.952l-4.825-.091a1.131,1.131,0,0,1-1.107-1.15h0a1.132,1.132,0,0,1,1.15-1.107l4.824.091a1.131,1.131,0,0,1,1.107,1.15h0A1.132,1.132,0,0,1,232.726,259.952Z" transform="translate(-174.841 -212.174)"/><path d="M196.827,261.895l-30.109-.569a5.077,5.077,0,0,1-4.962-4.944,5.06,5.06,0,0,0-2.106,4h0a5.08,5.08,0,0,0,4.968,5.16l30.109.568a5.065,5.065,0,0,0,5.16-4.969h0c0-.07-.005-.139-.007-.209A5.036,5.036,0,0,1,196.827,261.895Z" transform="translate(-134.388 -211.438)"/><path class="ac" d="M5.587,0c-.068.036-.136.072-.2.109S5.266.172,5.2.2L5.1.24,5.026.267A2.072,2.072,0,0,1,4.8.335L4.655.375C4.479.421,4.3.457,4.117.5,4.04.52,3.963.543,3.891.565c-.023.009-.05.014-.072.023L3.741.615C3.664.642,3.587.67,3.515.7h0c-.05.018-.1.041-.149.059-.208.086-.416.185-.615.29a5.359,5.359,0,0,0-2.6,2.864.947.947,0,0,0-.036.1h0a2.48,2.48,0,0,0-.077.3h0a2.315,2.315,0,0,0-.027.615A3.746,3.746,0,0,0,.28,6.053h0c.018.05.041.1.063.149a6.877,6.877,0,0,0,.339.651l.086.14c.045.072.086.14.136.213l.054.081c.063-.158.131-.321.2-.475,0-.014.014-.027.018-.041.2-.448.416-.891.656-1.321a0,0,0,0,1,0,0c.136-.249.28-.5.425-.742.036-.063.081-.149.113-.217-.122.014-.244.023-.366.036a.112.112,0,0,0-.036,0c-.195.018-.389.036-.588.059a6.277,6.277,0,0,1,.62-.9l.041-.054c.276-.344.6-.715.923-1.054.009-.014.023-.023.032-.036.226-.235.452-.452.66-.633.014-.009.023-.023.036-.032A3.99,3.99,0,0,1,4.185,1.5h0c.009,0,.018-.014.027-.018s.009,0,.014-.009c-.109.185-.217.375-.326.561-.009.018-.023.041-.032.059q-.238.428-.448.869a.968.968,0,0,0-.045.1c-.081.181-.158.362-.231.547.48-.054.964-.109,1.448-.158-.1.081-.2.163-.3.244a.079.079,0,0,0-.023.018c-.05.041-.1.086-.145.127a14.016,14.016,0,0,0-1.7,1.791l-.1.122c-.213.28-.421.57-.62.873a9.345,9.345,0,0,0-.489.832h.018a5.457,5.457,0,0,0,1.04-.185,7.262,7.262,0,0,0,1.9-1,3.041,3.041,0,0,0,.95-1.068C5.9,3.75,5.352,1.859,5.546.344c0-.036.036-.262.041-.3V.023h0V.014c0-.009,0,0,0-.014Z" transform="translate(18.238 27.91) rotate(10)"/></g><path class="ad" d="M225.832,169.532s2.547-1.736,5.791,2.184c2.129,2.574,13.059,11.658,42.545,10.452l-.1,5.558s-24.24-1.274-36.625-6.241S221.512,171.24,225.832,169.532Z" transform="translate(-173.201 -138.636)"/><path class="ae" d="M238.123,176.514a21.323,21.323,0,0,1-6.708-4.8c-3.244-3.92-5.791-2.184-5.791-2.184-3.9,1.541-1.985,6.8,7.518,11.467C234.783,179.465,236.389,177.89,238.123,176.514Z" transform="translate(-172.992 -138.635)"/><ellipse class="ad" cx="3.611" cy="3.611" rx="3.611" ry="3.611" transform="translate(97.421 43.425) rotate(-5.032)"/><g transform="translate(31.665)"><path class="af" d="M197,166.434s-8.23-2.04-12.25,2.167-8.514,25.686-8.514,25.686l21.436.4s-1.148-4.135.372-12.073S206.259,168.151,197,166.434Z" transform="translate(-176.043 -136.702)"/><g transform="translate(10.192 2.128)"><path class="ad" d="M218.108,158.811h0A3.837,3.837,0,0,1,215.623,154l1.491-4.684a3.836,3.836,0,0,1,4.806-2.485h0a3.836,3.836,0,0,1,2.485,4.806l-1.491,4.684A3.836,3.836,0,0,1,218.108,158.811Z" transform="translate(-209.859 -127.212)"/><path class="ag" d="M10.567,0h2A10.567,10.567,0,0,1,23.135,10.567v1A11.568,11.568,0,0,1,11.568,23.135h0A11.568,11.568,0,0,1,0,11.568v-1A10.567,10.567,0,0,1,10.567,0Z" transform="matrix(1, 0.019, -0.019, 1, 3.492, 1.98)"/><path class="ah" d="M207.606,111.147s2.647.9,2.258-2.164,2.938-5.356,7-5.01,11.751,1.615,14.387,3.032a7.955,7.955,0,0,0-4.536-6.661c-4.579-2.42-13.382-4.244-18.318-.3C203.055,104.306,205.909,109.206,207.606,111.147Z" transform="translate(-203.753 -97.744)"/><path class="ai" d="M227.347,140.657a6,6,0,0,0,11.963.226Z" transform="translate(-217.031 -123.598)"/><path class="aj" d="M226.648,124.821l.04-2.105a2.187,2.187,0,0,1,2.222-2.139h0a2.188,2.188,0,0,1,2.139,2.222l-.04,2.1" transform="translate(-216.61 -111.5)"/><path class="aj" d="M251.394,125.289l.04-2.105a2.188,2.188,0,0,1,2.222-2.14h0a2.188,2.188,0,0,1,2.14,2.222l-.04,2.105" transform="translate(-231.519 -111.781)"/><path class="ak" d="M244.74,126.205s1.625,3.952,4.044,3.93.207,3.306-2.086,1.443S244.74,126.205,244.74,126.205Z" transform="translate(-227.5 -114.891)"/><path class="al" d="M206.635,124.384c.722,1.857.208,3.79-1.148,4.318s-3.041-.55-3.764-2.407-.208-3.79,1.148-4.318S205.913,122.527,206.635,124.384Z" transform="translate(-201.396 -112.263)"/></g><path class="am" d="M262.2,342.373a3.639,3.639,0,0,0-2.8,3.827l14.651.277s3.135-4.539-6.687-4.581Z" transform="translate(-226.147 -242.712)"/><path class="an" d="M268.34,333.685l-1.211,3.282,5.162-.477.878-3.576Z" transform="translate(-230.806 -237.301)"/><path class="ao" d="M204.978,237.794s1.889,5.26,6.871,5.354,21.471,1.847,23.377,5.165c3.578,6.229-6.6,28.962-6.6,28.962l7.312-.587s8.229-18.677,6.785-28.234-20.97-11.182-27.928-10.474Z" transform="translate(-193.362 -179.993)"/><path class="an" d="M239.252,333.136l-1.212,3.282,5.162-.477.878-3.576Z" transform="translate(-213.282 -236.97)"/><path class="ap" d="M175.972,237.252s-1.367,6.76,3.616,6.854,24.97-.516,26.633,3.664c2.656,6.674-6.6,28.962-6.6,28.962l7.312-.587s8.229-18.677,6.786-28.234-11.427-10.379-16.433-10.257Z" transform="translate(-175.783 -179.667)"/><path class="ag" d="M184.327,168.67s-7.708,4.065-8.553,10.56c-1.01,7.763,41.961,7.51,41.961,7.51l.095-5s-21.327.3-30.592-2.368.756-5.548,2.163-7.515S188.371,167.046,184.327,168.67Z" transform="translate(-175.757 -138.057)"/><path class="aq" d="M184.171,176.348c.791-1.67,5.043-3.26,5.923-4.491,1.406-1.967-1.029-4.811-5.073-3.188a24.576,24.576,0,0,0-8.113,5.692A20.141,20.141,0,0,1,184.171,176.348Z" transform="translate(-176.45 -138.057)"/><path class="h" d="M277.64,207.278l7.933.15a2.508,2.508,0,0,0,2.547-2.453h0a2.508,2.508,0,0,0-2.453-2.547l-7.933-.149a2.508,2.508,0,0,0-2.547,2.453h0A2.508,2.508,0,0,0,277.64,207.278Z" transform="translate(-235.661 -158.595)"/><path class="ag" d="M270.02,201.972a4.29,4.29,0,1,1-4.209-4.37A4.29,4.29,0,0,1,270.02,201.972Z" transform="translate(-227.379 -155.778)"/><path class="am" d="M233.793,341.837a3.639,3.639,0,0,0-2.8,3.827l14.651.277s3.136-4.539-6.687-4.581Z" transform="translate(-209.034 -242.39)"/><path class="e" d="M259.044,207.556l-4.318-.081a1.21,1.21,0,0,1-1.184-1.23h0a1.21,1.21,0,0,1,1.229-1.184l4.318.081a1.21,1.21,0,0,1,1.184,1.23h0A1.211,1.211,0,0,1,259.044,207.556Z" transform="translate(-222.621 -160.272)"/><g transform="translate(8.4)"><path class="ar" d="M228.165,117.694l-26.886-8.375.62-7.839,25.618-.311c-3.13-4.87-8.529-8.662-14.466-8.774-9.389-.178-16,5.764-16.16,14.057a14.625,14.625,0,0,0,5.553,11.883s8.447.815,13.177,1.128c6.361.421,10.12.913,10.12.913A12.158,12.158,0,0,0,228.165,117.694Z" transform="translate(-196.888 -92.39)"/><path class="as" d="M207.935,122.623,234.821,131a15.48,15.48,0,0,0,2.168-7.452,16.535,16.535,0,0,0-2.817-9.074l-25.618.311Z" transform="translate(-203.544 -105.694)"/><g transform="translate(9.199 8.809)"><path class="at" d="M220.029,115.048l.951,3.25,3.3-3.3Z" transform="translate(-220.029 -114.82)"/><path class="at" d="M229.984,114.854q-2.891,2.882-5.768,5.779l.558,1.906,7.715-7.715Z" transform="translate(-222.551 -114.715)"/><path class="at" d="M241.494,114.6q-5.432,5.444-10.868,10.884l2.828.881q5.892-5.906,11.786-11.81Z" transform="translate(-226.413 -114.551)"/><path class="at" d="M264.228,124.913q-4.869,4.884-9.742,9.765l2.046.637,8.258-8.258A16.048,16.048,0,0,0,264.228,124.913Z" transform="translate(-240.788 -120.794)"/></g><ellipse class="f" cx="4.019" cy="4.019" rx="4.019" ry="4.019" transform="translate(0.726 16.507) rotate(-83.195)"/><path class="k" d="M208.81,121.76a2.213,2.213,0,1,1-2.17-2.254A2.213,2.213,0,0,1,208.81,121.76Z" transform="translate(-201.405 -108.727)"/></g></g><g transform="translate(40.232 37.348)"><path class="f" d="M226.28,275.491c10.656.456,26.235.714,33.07-6.662,13.161-14.2,3.757-49.6-11.726-49.892-11.876-.224-8.914,23.862-13.026,37.435-4.57,15.089-14.33,14.252-14.33,14.252l-22.96,1.7s8.235,1.367,11.228,1.893C214.99,275.349,220.814,275.257,226.28,275.491Z" transform="translate(-197.308 -205.98)"/><path class="h" d="M259.35,304.085c4.937-5.328,6.7-13.638,6.155-21.959a20.076,20.076,0,0,0-2.021-1.945c-6.124-4.988-16.62-2.858-20.314,4.123-3.5,6.609-1.6,16.108-7.534,20.656-3.317,2.542-7.888,2.43-12.061,2.2l-11.929-.648-14.339,1.059s8.235,1.367,11.228,1.893c6.454,1.135,12.278,1.044,17.744,1.278C236.936,311.2,252.515,311.46,259.35,304.085Z" transform="translate(-197.308 -241.235)"/><g transform="translate(0 12.92)"><path class="au" d="M234.6,256.317c4-13.2,1.308-36.349,12.088-37.4-.334-.039-.669-.069-1.008-.075-11.876-.225-8.915,23.862-13.026,37.435-4.57,15.089-14.33,14.252-14.33,14.252l-21.014,1.732,22.96-1.7S230.028,271.407,234.6,256.317Z" transform="translate(-197.308 -218.844)"/></g><path class="h" d="M333.219,208.328l4.4.083a2.508,2.508,0,0,0,2.547-2.453h0a2.508,2.508,0,0,0-2.453-2.547l-4.4-.083a2.508,2.508,0,0,0-2.547,2.453h0A2.508,2.508,0,0,0,333.219,208.328Z" transform="translate(-277.714 -196.575)"/><path class="au" d="M307.1,204.606h0a9.159,9.159,0,0,1-8.958-9.3h0a9.159,9.159,0,0,1,9.3-8.958h0a9.16,9.16,0,0,1,8.959,9.3h0A9.16,9.16,0,0,1,307.1,204.606Z" transform="translate(-258.06 -186.343)"/><path class="h" d="M310.119,203.8h0a9.16,9.16,0,0,1-8.959-9.3h0a9.156,9.156,0,0,1,5.041-7.984,9.164,9.164,0,0,0-8.055,8.894h0a9.159,9.159,0,0,0,8.958,9.3h0a9.045,9.045,0,0,0,4.263-.975A9.066,9.066,0,0,1,310.119,203.8Z" transform="translate(-258.06 -186.443)"/><path class="h" d="M288.442,207.482l3.639.069a2.508,2.508,0,0,0,2.547-2.453h0a2.508,2.508,0,0,0-2.453-2.547l-3.639-.068a2.508,2.508,0,0,0-2.547,2.453h0A2.508,2.508,0,0,0,288.442,207.482Z" transform="translate(-250.736 -196.066)"/><path class="h" d="M320.907,206.042h0a5.045,5.045,0,0,1-4.934-5.124l.06-3.2a5.045,5.045,0,0,1,5.124-4.934h0a5.045,5.045,0,0,1,4.934,5.124l-.06,3.2A5.046,5.046,0,0,1,320.907,206.042Z" transform="translate(-268.8 -190.225)"/><path class="av" d="M325.89,207.29h0a3.265,3.265,0,0,1-3.194-3.316l.039-2.069a3.265,3.265,0,0,1,3.317-3.193h0a3.265,3.265,0,0,1,3.193,3.316l-.039,2.068A3.265,3.265,0,0,1,325.89,207.29Z" transform="translate(-272.851 -193.794)"/><path class="b" d="M356.6,326.862c-.835-8.866-6.931-15.542-13.616-14.913l-.019,0h-.018l-.019,0h-.018l-.019,0h-.019l-.018,0h-.019l-.018,0H342.8l-.018,0h-.019l-.019,0h-.018l-.019,0h-.019l-.018,0h-.019l-.018,0h-.019l-.018,0h-.019l-.019,0h-.018l-.019,0H342.5l-.018,0h-.019l-.018,0h-.019l-.018,0h-.019l-.019,0h-.018l-.019,0h-.019l-.018,0h-.019l-.018,0h-.019l-.018,0H342.2l-.019,0h-.018l-.019,0h-.018l-.019,0h-.019l-.018,0h-.019l-.018,0h-.019l-.018,0h-.019l-.019,0h-.018l-.019,0h-.019l-.018,0h-.019l-.018,0h-.019l-.018,0h-.019l-.019,0h-.018l-.019,0h-.019l-.018,0h-.019l-.018,0h-.019l-.018,0h-.019l-.019,0h-.018l-.019,0h-.019l-.018,0H341.5l-.018,0h-.019l-.018,0h-.019l-.019,0h-.018l-.019,0h-.019l-.018,0h-.019l-.018,0h-.019l-.018,0h-.019l-.018,0H341.2l-.019,0h-.019l-.018,0h-.019l-.018,0h-.019l-.018,0h-.019l-.019,0h-.018l-.019,0h-.018l-.019,0h-.019l-.018,0h-.019l-.018,0h-.019l-.018,0h-.019l-.019,0h-.018l-.019,0h-.019l-.018,0h-.019l-.018,0h-.019l-.018,0h-.019l-.019,0h-.018l-.019,0h-.019l-.018,0h-.019l-.018,0H340.5l-.018,0h-.019l-.019,0h-.018l-.019,0h-.019l-.018,0h-.019l-.018,0h-.019l-.018,0h-.019l-.019,0h-.018l-.019,0H340.2l-.019,0h-.019l-.018,0h-.019l-.018,0h-.019l-.018,0h-.019l-.019,0h-.018l-.019,0h-.019l-.018,0h-.019l-.018,0h-.019l-.018,0h-.019l-.019,0h-.018l-.019,0h-.019l-.018,0h-.019l-.018,0h-.019l-.018,0h-.019l-.019,0h-.018l-.019,0h-.019l-.018,0h-.019l-.018,0h-.019l-.018,0H339.5l-.019,0h-.018l-.019,0h-.018l-.019,0h-.019l-.018,0h-.019l-.018,0h-.019l-.019,0h-.018l-.019,0h-.019l-.018,0H339.2l-.018,0h-.019l-.018,0h-.019l-.018,0h-.019l-.019,0h-.018l-.019,0h-.019l-.018,0h-.019l-.018,0h-.019l-.018,0h-.019l-.019,0h-.018l-.019,0h-.019l-.018,0h-.019l-.018,0h-.019l-.018,0h-.019l-.019,0h-.018l-.019,0h-.019l-.018,0h-.019l-.018,0h-.019l-.018,0h-.019l-.019,0H338.5l-.019,0h-.019l-.018,0h-.019l-.018,0h-.019l-.018,0h-.019l-.019,0h-.018l-.019,0h-.018l-.019,0h-.019l-.018,0H338.2l-.018,0h-.019l-.018,0h-.019l-.019,0h-.018l-.019,0h-.019l-.018,0h-.019l-.018,0h-.019l-.018,0h-.019l-.019,0h-.018l-.019,0h-.019l-.018,0h-.019l-.018,0h-.019l-.018,0h-.019l-.019,0h-.018l-.019,0h-.019l-.018,0h-.019l-.018,0h-.019l-.018,0h-.019l-.019,0h-.018l-.019,0H337.5l-.019,0h-.019l-.018,0h-.019l-.018,0h-.019c-6.685.63-11.427,8.327-10.592,17.193s6.931,15.542,13.616,14.913l.019,0h.018l.019,0h.019l.018,0h.019l.018,0h.019l.018,0h.019l.019,0h.018l.019,0h.019l.018,0h.019l.018,0h.019l.018,0h.019l.019,0h.018l.019,0h.018l.019,0h.019l.018,0h.019l.018,0h.019l.019,0H341l.019,0h.019l.018,0h.019l.018,0h.019l.018,0h.019l.019,0h.018l.019,0h.018l.019,0h.019l.018,0h.019l.018,0h.019l.018,0h.019l.019,0h.018l.019,0h.019l.018,0h.019l.018,0h.019l.018,0h.019l.019,0h.018l.019,0h.019l.018,0h.019l.018,0h.019l.018,0h.019l.019,0h.018l.019,0h.019l.018,0h.019l.018,0h.019l.018,0h.019l.019,0h.018l.019,0H342l.019,0h.019l.018,0h.019l.018,0h.019l.018,0h.019l.019,0h.018l.019,0h.019l.018,0h.019l.018,0h.019l.018,0h.019l.019,0h.018l.019,0h.019l.018,0h.019l.018,0h.019l.018,0h.019l.019,0h.018l.019,0h.019l.018,0h.019l.018,0h.019l.018,0h.019l.019,0h.018l.019,0h.018l.019,0h.019l.018,0h.019l.018,0h.019l.019,0h.018l.019,0h.018l.019,0H343l.018,0h.019l.018,0h.019l.018,0h.019l.019,0h.018l.019,0h.019l.018,0h.019l.018,0h.019l.018,0h.019l.019,0h.018l.019,0h.019l.018,0h.019l.018,0h.019l.018,0h.019l.019,0h.018l.019,0h.018l.019,0h.019l.018,0h.019l.018,0h.019l.019,0h.018l.019,0h.018l.019,0h.019l.018,0h.019l.018,0h.019l.019,0h.018l.019,0h.018l.019,0h.019l.018,0H344l.018,0h.019l.018,0h.019l.019,0h.018l.019,0h.019l.018,0h.019l.018,0h.019l.018,0h.019l.019,0h.018l.019,0h.019l.018,0h.019l.018,0h.019l.018,0h.019l.019,0h.018l.019,0h.018l.019,0h.019l.018,0h.019l.018,0h.019l.019,0h.018l.019,0h.018l.019,0h.019l.018,0h.019l.018,0h.019l.019,0h.018l.019,0h.018l.019,0h.019l.018,0h.019l.018,0H345l.019,0h.018l.019,0h.018l.019,0h.019l.018,0h.019l.018,0h.019l.018,0h.019l.019,0h.018l.019,0h.019l.018,0h.019l.018,0h.019l.018,0h.019l.019,0h.018l.019,0h.018l.019,0h.019l.018,0h.019l.018,0h.019l.019,0h.018l.019,0h.018l.019,0h.019l.018,0h.019l.018,0h.019l.019,0h.018l.019,0h.018l.019,0h.019l.018,0h.019l.018,0h.019l.018,0H346C352.689,343.425,357.431,335.728,356.6,326.862Zm-10.066,9.907h-.184l-.01,0h-.184l-.009,0h-.087l-.01,0h-.029l-.01,0h-.184l-.01,0h-.32l-.01,0H345.4l-.01,0H345.3l-.01,0h-.029l-.01,0h-.184l-.01,0h-.513l-.009,0h-.029l-.01,0h-.184l-.01,0h-.126l-.01,0h-.184l-.01,0h-.223l-.01,0h-.136c-3.5.329-6.683-3.162-7.119-7.8s2.043-8.66,5.538-8.989h.126l.01,0h.184l.01,0h.126l.01,0h.184l.01,0h.029l.01,0h.184l.01,0h.32l.01,0h.184l.01,0h.029l.01,0h.184l.01,0h.32l.01,0h.223l.009,0h.087l.01,0h.087l.01,0h.126l.01,0h.184l.01,0h.155l.019,0h.02Z" transform="translate(-275.264 -261.994)"/><path class="c" d="M354.357,350.128c-2.879.271-5.5-2.6-5.864-6.422s1.683-7.133,4.562-7.4,5.5,2.6,5.863,6.422S357.235,349.857,354.357,350.128Z" transform="translate(-288.369 -276.68)"/><path class="d" d="M350.077,350.128c-2.879.271-5.5-2.6-5.864-6.422s1.683-7.133,4.562-7.4,5.5,2.6,5.863,6.422S352.955,349.857,350.077,350.128Z" transform="translate(-285.79 -276.68)"/><path class="e" d="M351,328.187c-.835-8.865-6.931-15.542-13.616-14.913s-11.427,8.327-10.592,17.193,6.931,15.542,13.616,14.913S351.837,337.053,351,328.187Zm-11.313,9.54c-3.5.33-6.688-3.164-7.125-7.8s2.044-8.668,5.543-9,6.688,3.165,7.125,7.8S343.188,337.4,339.69,337.728Z" transform="translate(-275.264 -262.792)"/><path class="aw" d="M350.852,339h0a2.384,2.384,0,0,1-2.919-1.669l-2.161-7.938a2.384,2.384,0,0,1,1.669-2.919h0a2.385,2.385,0,0,1,2.919,1.669l2.161,7.938A2.385,2.385,0,0,1,350.852,339Z" transform="translate(-286.704 -270.722)"/><path class="f" d="M327.314,314.745h0l19.253-2.321,8.71.165s-3.036-11.182-14.885-11.406c-6.8-.129-13.141,3.162-16.207,9.11C323.141,312.32,325.035,314.7,327.314,314.745Z" transform="translate(-273.571 -255.53)"/><path class="h" d="M349.014,316.275,329.762,318.6c-2.28-.043-4.174-2.425-3.129-4.452a16.058,16.058,0,0,1,1.376-2.2,16.088,16.088,0,0,0-3.823,4.836c-1.045,2.027.849,4.409,3.129,4.452l19.253-2.321,8.71.165a15.327,15.327,0,0,0-1.118-2.7Z" transform="translate(-273.571 -262.013)"/></g></g></g><path class="ai" d="M.43,2.422h0a2.953,2.953,0,0,1,.17-.27c.069-.1.141-.192.215-.283l.033-.04a4.7,4.7,0,0,1,.588-.582l.051-.041L1.491,1.2c.034-.026.071-.053.1-.079-.168.016-.336.034-.5.051.025-.06.052-.119.08-.178A.247.247,0,0,1,1.188.962c.049-.1.1-.189.155-.282L1.354.661C1.393.6,1.43.539,1.468.479l0,0-.01.006h0a1.419,1.419,0,0,0-.169.12s-.008.007-.013.01c-.072.059-.15.129-.229.206,0,0-.008.007-.011.012-.113.11-.225.231-.32.342L.7,1.2a2.048,2.048,0,0,0-.215.294l.2-.019H.7l.127-.012c-.011.022-.027.05-.039.071-.05.079-.1.16-.148.241a0,0,0,0,0,0,0c-.083.14-.159.283-.228.429,0,0,0,.009-.006.013-.024.05-.047.1-.069.154L.314,2.34C.3,2.316.282,2.294.267,2.271l-.03-.046a2.223,2.223,0,0,1-.118-.212C.111,2,.1,1.982.1,1.965A1.154,1.154,0,0,1,0,1.6a.7.7,0,0,1,.009-.2.865.865,0,0,1,.027-.1.211.211,0,0,1,.013-.034,1.788,1.788,0,0,1,.9-.93C1.023.307,1.1.275,1.168.247L1.219.228C1.245.217,1.271.209,1.3.2L1.325.191,1.35.184C1.375.176,1.4.169,1.428.163c.063-.015.126-.026.187-.041L1.667.109A.729.729,0,0,0,1.744.087L1.771.078,1.805.065c.022-.009.044-.019.064-.029L1.939,0s0,0,0,0h0v0c0,.013-.013.087-.014.1-.067.492.125,1.106-.143,1.579a1.011,1.011,0,0,1-.33.347,2.576,2.576,0,0,1-.658.325,2,2,0,0,1-.361.06ZM8.4,1.705l.074-.289a.269.269,0,0,0,.113.051.626.626,0,0,0,.173.026q.125,0,.125-.066c0-.031-.042-.054-.125-.072a.966.966,0,0,1-.235-.069A.241.241,0,0,1,8.4,1.061.354.354,0,0,1,8.548.773.562.562,0,0,1,8.91.655a.711.711,0,0,1,.359.06l-.052.328a.739.739,0,0,0-.3-.1c-.044,0-.072.015-.083.043a.034.034,0,0,0,0,.018c0,.026.042.05.127.069a.846.846,0,0,1,.237.079.259.259,0,0,1,.13.239.339.339,0,0,1-.171.307.646.646,0,0,1-.342.087A1.049,1.049,0,0,1,8.4,1.705ZM6.028,1.62a.527.527,0,0,1-.176-.4.527.527,0,0,1,.176-.4A.606.606,0,0,1,6.457.655H6.84v.363H6.457a.221.221,0,0,0-.155.059.193.193,0,0,0,0,.288.219.219,0,0,0,.155.059.214.214,0,0,0,.171-.078H6.4V1.093H7.06v.128h0a.527.527,0,0,1-.176.4.632.632,0,0,1-.854,0Zm-3.714.085.074-.289a.267.267,0,0,0,.113.051.625.625,0,0,0,.173.026c.083,0,.125-.022.125-.066s-.042-.054-.125-.072a.969.969,0,0,1-.236-.069.24.24,0,0,1-.125-.226A.355.355,0,0,1,2.458.773.563.563,0,0,1,2.821.655a.711.711,0,0,1,.359.06l-.052.328a.74.74,0,0,0-.3-.1c-.044,0-.073.015-.083.043a.037.037,0,0,0,0,.018c0,.026.042.05.127.069a.846.846,0,0,1,.237.079.263.263,0,0,1,.131.239.339.339,0,0,1-.172.307.648.648,0,0,1-.342.087A1.05,1.05,0,0,1,2.314,1.705Zm5.571.068-.045-.11H7.488l-.045.11H6.972l.455-1.1H7.9l.457,1.1ZM7.593,1.41h.141l-.071-.172Zm-2.315.363-.19-.3h0v.3H4.7V.668h.664a.366.366,0,0,1,.272.118.392.392,0,0,1,.113.283.4.4,0,0,1-.058.213.368.368,0,0,1-.158.145l.219.345Zm-.192-.6h.178a.1.1,0,0,0,.07-.029.1.1,0,0,0,0-.142A.091.091,0,0,0,5.264.974H5.086Zm-.962.6-.046-.11H3.725l-.046.11H3.208l.455-1.1h.472l.458,1.1ZM3.832,1.41h.141L3.9,1.238Z" transform="translate(44.785 37.94)"/></g><g transform="translate(232.334 81.638)"><path class="f" d="M978.215,318.772a7.694,7.694,0,0,0-.564,5.13c.753,2.407,3.373,3.89,5.9,3.914a11.82,11.82,0,0,0,6.945-2.651,14.509,14.509,0,0,0,4.892-5.806,8.6,8.6,0,0,0-.146-7.42C990.5,303.376,980.422,313.386,978.215,318.772Z" transform="translate(-977.416 -308.605)"/></g><g transform="translate(227.872 104.866)"><path class="af" d="M973.3,340.5a2.933,2.933,0,0,1,4.023,1.219,3.358,3.358,0,0,1-1.384,4.252c-3.013,1.621-6.21-2.224-3.664-4.757A3.636,3.636,0,0,1,973.3,340.5Z" transform="translate(-971.355 -340.162)"/></g><g transform="translate(329.285 137.202)"><path class="ax" d="M1093.468,412.351a22.093,22.093,0,0,0-2.356,7.266,7.325,7.325,0,0,0,.116,4.326,4.883,4.883,0,0,0,3.395,2.566c3.449.808,7.116-1.427,8.741-4.576,1.792-3.473,2.02-9.828-.618-13.012C1099.841,405.414,1095.144,409.5,1093.468,412.351Z" transform="translate(-1090.844 -407.567)"/></g><g transform="translate(296.345 100.849)"><path class="ax" d="M812.107,372.474l18.086-5.174a1.067,1.067,0,0,1,1.31.706l2.783,8.881a1.066,1.066,0,0,1-.714,1.341l-18.007,5.331a1.066,1.066,0,0,1-1.318-.7l-2.863-9.038A1.066,1.066,0,0,1,812.107,372.474Z" transform="translate(-811.334 -367.259)"/><g transform="translate(0.411 1.835)"><path class="ay" d="M832.01,369.837l.557,1.776-20.1,5.847-.557-1.758Z" transform="translate(-811.911 -369.837)"/></g><g transform="translate(16.655 6.644)"><path class="az" d="M837.125,380.108a1.806,1.806,0,1,0-2.293-1.123A1.806,1.806,0,0,0,837.125,380.108Z" transform="translate(-834.734 -376.593)"/></g><g transform="translate(13.852 7.603)"><path class="ba" d="M833.186,381.456a1.806,1.806,0,1,0-2.293-1.123A1.8,1.8,0,0,0,833.186,381.456Z" transform="translate(-830.795 -377.941)"/></g></g></g></svg>