<svg id="_002-history" data-name="002-history" xmlns="http://www.w3.org/2000/svg" width="18.843" height="16.048" viewBox="0 0 18.843 16.048">
  <g id="Group_392" data-name="Group 392" transform="translate(0 0)">
    <g id="Group_391" data-name="Group 391">
      <path id="Path_1139" data-name="Path 1139" d="M130.6,375.691l-.891.789a8.2,8.2,0,0,0,.922.887l.754-.921A6.868,6.868,0,0,1,130.6,375.691Z" transform="translate(-124.894 -363.134)"/>
      <path id="Path_1140" data-name="Path 1140" d="M93.86,326.187l-1.092.469a7.916,7.916,0,0,0,.6,1.134l1-.637A6.816,6.816,0,0,1,93.86,326.187Z" transform="translate(-89.322 -315.469)"/>
      <path id="Path_1141" data-name="Path 1141" d="M14.843,38.709A8.014,8.014,0,0,0,2.876,44.591L.84,42.556,0,43.4l3.392,3.392L6.784,43.4l-.84-.84L4.1,44.391a6.828,6.828,0,1,1,3.287,7.172l-.6,1.028a8.023,8.023,0,0,0,8.049-13.882Z" transform="translate(0 -37.627)"/>
      <path id="Path_1142" data-name="Path 1142" d="M267.312,109.627v6.537l2.615,1.961.713-.951-2.14-1.6v-5.943Z" transform="translate(-257.383 -106.953)"/>
    </g>
  </g>
</svg>
