<svg id="_003-credit-card" data-name="003-credit-card" xmlns="http://www.w3.org/2000/svg" width="19.157" height="14.726" viewBox="0 0 19.157 14.726">
  <g id="Group_394" data-name="Group 394" transform="translate(0 0)">
    <g id="Group_393" data-name="Group 393">
      <path id="Path_1143" data-name="Path 1143" d="M17.558,63.568H15.608V60.816a1.6,1.6,0,0,0-1.6-1.6H1.6a1.6,1.6,0,0,0-1.6,1.6v7.176a1.6,1.6,0,0,0,1.6,1.6H3.549v2.752a1.6,1.6,0,0,0,1.6,1.6h12.41a1.6,1.6,0,0,0,1.6-1.6V65.167A1.6,1.6,0,0,0,17.558,63.568ZM.914,60.816a.686.686,0,0,1,.685-.685h12.41a.686.686,0,0,1,.685.685v.638H.914Zm2.635,4.351v3.51H1.6a.686.686,0,0,1-.685-.685V64.485H3.7A1.589,1.589,0,0,0,3.549,65.167Zm-2.635-1.6v-1.2H14.695v1.2H5.148l-.092,0Zm16.644,9.458H5.148a.686.686,0,0,1-.685-.685V65.167a.686.686,0,0,1,.629-.683H15.151l.05,0h2.357a.686.686,0,0,1,.685.685v7.176h0A.686.686,0,0,1,17.558,73.029Z" transform="translate(0 -59.217)"/>
    </g>
  </g>
  <g id="Group_396" data-name="Group 396" transform="translate(7.774 7.335)">
    <g id="Group_395" data-name="Group 395" transform="translate(0 0)">
      <path id="Path_1144" data-name="Path 1144" d="M212.716,255.265a2.192,2.192,0,0,0-1.375.484,2.2,2.2,0,1,0,0,3.438,2.2,2.2,0,1,0,1.375-3.922Zm-1.955,3.215a1.289,1.289,0,1,1,0-2.025,2.2,2.2,0,0,0,0,2.025Zm1.955.276A1.289,1.289,0,1,1,214,257.468,1.29,1.29,0,0,1,212.716,258.757Z" transform="translate(-207.76 -255.265)"/>
    </g>
  </g>
</svg>
